<svg width="56" height="50" viewBox="0 0 56 50" fill="none" xmlns="http://www.w3.org/2000/svg">
<path d="M17.1391 23.9854H4.1113C4.33352 11.1839 6.88908 9.07315 14.8613 4.41306C15.778 3.86481 16.0835 2.7135 15.528 1.78148C14.9724 0.876881 13.8057 0.575344 12.8613 1.12359C3.47241 6.60604 0.194635 9.95034 0.194635 25.9043V40.6795C0.194635 45.367 4.05575 49.1499 8.77797 49.1499H17.1113C22.0002 49.1499 25.6946 45.5041 25.6946 40.6795V32.4558C25.7224 27.6313 22.028 23.9854 17.1391 23.9854Z" fill="white"/>
<path d="M47.1947 23.9854H34.1669C34.3891 11.1839 36.9447 9.07315 44.9169 4.41306C45.8335 3.86481 46.1391 2.7135 45.5835 1.78148C45.028 0.876881 43.8613 0.575344 42.9169 1.12359C33.528 6.60604 30.2502 9.95034 30.2502 25.9043V40.6795C30.2502 45.367 34.1113 49.1499 38.8335 49.1499H47.1669C52.0835 49.1499 55.778 45.5041 55.778 40.6795V32.4558C55.778 27.6313 52.0835 23.9854 47.1947 23.9854Z" fill="white"/>
</svg>
