<svg width="50" height="50" viewBox="0 0 50 50" fill="none" xmlns="http://www.w3.org/2000/svg">
<path d="M8.87097 13.7098V15.3227C8.87097 17.0307 9.7621 18.5307 11.1024 19.392C10.7073 19.8702 10.1274 20.1614 9.4871 20.1614H9.36936C7.31614 20.1614 5.64517 21.8315 5.64517 23.8855V28.2259C5.64517 28.6718 6.00646 29.0323 6.45162 29.0323H20.9677C21.4129 29.0323 21.7742 28.6718 21.7742 28.2259V25.8065H28.2258V28.2259C28.2258 28.6718 28.5871 29.0323 29.0322 29.0323H43.5483C43.9935 29.0323 44.3548 28.6718 44.3548 28.2259V23.8855C44.3548 21.8315 42.6838 20.1614 40.6306 20.1614H40.5128C39.8725 20.1614 39.2935 19.8702 38.8983 19.392C40.2378 18.5307 41.129 17.0307 41.129 15.3227V13.7098C41.129 11.0412 38.9588 8.87107 36.2903 8.87107C33.6217 8.87107 31.4516 11.0412 31.4516 13.7098V15.3227C31.4516 17.0307 32.3427 18.5307 33.683 19.392C33.4411 19.6848 33.129 19.9001 32.7741 20.0259C32.2096 18.6856 30.883 17.742 29.3403 17.742H29.2225C28.5822 17.742 28.0032 17.4509 27.608 16.9727C28.9475 16.1114 29.8387 14.6114 29.8387 12.9033V11.2904C29.8387 8.62188 27.6685 6.45172 25 6.45172C22.3314 6.45172 20.1613 8.62188 20.1613 11.2904V12.9033C20.1613 14.6114 21.0524 16.1114 22.3927 16.9727C21.9976 17.4509 21.4177 17.742 20.7774 17.742H20.6597C19.1161 17.742 17.7903 18.6856 17.2258 20.0267C16.871 19.9009 16.5589 19.6856 16.3169 19.3928C17.6572 18.5307 18.5484 17.0307 18.5484 15.3227V13.7098C18.5484 11.0412 16.3782 8.87107 13.7097 8.87107C11.0411 8.87107 8.87097 11.0412 8.87097 13.7098ZM20.1613 27.4194H7.25807V23.8855C7.25807 22.7218 8.20484 21.7743 9.36936 21.7743H9.4871C9.69436 21.7743 9.89677 21.7525 10.096 21.7202L10.3863 22.0106C11.2734 22.8985 12.454 23.3872 13.7097 23.3872C14.921 23.3872 16.0597 22.9283 16.9355 22.0993V25.0001C16.9355 25.446 17.2968 25.8065 17.7419 25.8065H20.1613V27.4194ZM40.6306 21.7743C41.7951 21.7743 42.7419 22.7218 42.7419 23.8855V27.4194H29.8387V25.8065H32.258C32.7032 25.8065 33.0645 25.446 33.0645 25.0001V22.0993C33.9403 22.9283 35.079 23.3872 36.2903 23.3872C37.5459 23.3872 38.7265 22.8985 39.6136 22.0106L39.904 21.7202C40.1032 21.7525 40.3056 21.7743 40.5128 21.7743H40.6306ZM33.0645 13.7098C33.0645 11.9307 34.5112 10.484 36.2903 10.484C38.0693 10.484 39.5161 11.9307 39.5161 13.7098V15.3227C39.5161 17.1017 38.0693 18.5485 36.2903 18.5485C34.5112 18.5485 33.0645 17.1017 33.0645 15.3227V13.7098ZM36.2903 20.1614C36.662 20.1614 37.0225 20.1154 37.3709 20.0356C37.6161 20.4251 37.9241 20.7573 38.2806 21.0259C37.1572 21.967 35.4225 21.967 34.2999 21.0259C34.6564 20.7573 34.9653 20.4251 35.2096 20.0356C35.558 20.1154 35.9185 20.1614 36.2903 20.1614ZM21.7742 11.2904C21.7742 9.51139 23.2209 8.06462 25 8.06462C26.779 8.06462 28.2258 9.51139 28.2258 11.2904V12.9033C28.2258 14.6823 26.779 16.1291 25 16.1291C23.2209 16.1291 21.7742 14.6823 21.7742 12.9033V11.2904ZM25 17.742C25.3717 17.742 25.7322 17.696 26.0806 17.6162C26.3258 18.0057 26.6338 18.338 26.9903 18.6065C25.8669 19.5477 24.1322 19.5477 23.0096 18.6065C23.3661 18.338 23.675 18.0057 23.9193 17.6162C24.2677 17.696 24.6282 17.742 25 17.742ZM18.5484 21.4662C18.5484 20.3025 19.4951 19.3549 20.6597 19.3549H20.7774C20.9847 19.3549 21.1871 19.3331 21.3863 19.3009L21.6766 19.5912C22.5637 20.4791 23.7443 20.9678 25 20.9678C26.2556 20.9678 27.4362 20.4791 28.3233 19.5912L28.6137 19.3009C28.8129 19.3331 29.0153 19.3549 29.2225 19.3549H29.3403C30.5048 19.3549 31.4516 20.3025 31.4516 21.4662V24.1936H18.5484V21.4662ZM15.7 21.0251C14.5766 21.9662 12.8419 21.9662 11.7194 21.0251C12.0758 20.7565 12.3847 20.4243 12.629 20.0348C12.9774 20.1154 13.3379 20.1614 13.7097 20.1614C14.0814 20.1614 14.4419 20.1154 14.7903 20.0356C15.0347 20.4251 15.3435 20.7573 15.7 21.0251ZM16.9355 13.7098V15.3227C16.9355 17.1017 15.4887 18.5485 13.7097 18.5485C11.9306 18.5485 10.4839 17.1017 10.4839 15.3227V13.7098C10.4839 11.9307 11.9306 10.484 13.7097 10.484C15.4887 10.484 16.9355 11.9307 16.9355 13.7098Z" fill="#FF8000"/>
<path d="M44.9144 34.1283L28.3911 38.6347C28.2765 38.4597 28.1435 38.2928 27.9895 38.1387L22.3443 32.4936C22.1935 32.3428 21.9879 32.2581 21.7741 32.2581H12.9032V31.4517C12.9032 31.0057 12.5419 30.6452 12.0967 30.6452H7.25805H0.80645C0.361289 30.6452 0 31.0057 0 31.4517V49.1935C0 49.6395 0.361289 50 0.80645 50H7.25805C7.70321 50 8.0645 49.6395 8.0645 49.1935V48.3871H12.0967C12.5419 48.3871 12.9032 48.0266 12.9032 47.5806V46.7742H18.4177L23.1322 48.3452C23.2153 48.3726 23.3008 48.3871 23.387 48.3871C23.4758 48.3871 23.5645 48.3718 23.6491 48.3427L49.4555 39.4718C49.7813 39.3605 49.9999 39.0541 49.9999 38.7097V37.9032C49.9999 37.1355 49.7829 36.3879 49.3717 35.7404C48.4692 34.3226 46.6354 33.6597 44.9144 34.1283ZM6.4516 48.3871H1.6129V32.2581H6.4516V48.3871ZM11.2903 46.7742H8.0645V32.2581H11.2903V46.7742ZM48.387 38.1339L23.383 46.729L18.8032 45.2024C18.7209 45.1758 18.6346 45.1613 18.5483 45.1613H12.9032V33.871H21.4403L26.8491 39.2799C27.4241 39.8549 27.4241 40.7903 26.8491 41.3653C26.2741 41.9403 25.3386 41.9403 24.7637 41.3653L20.7314 37.3331L19.5911 38.4734L23.6233 42.5057C24.2249 43.1073 25.0161 43.4081 25.8064 43.4081C26.5967 43.4081 27.3878 43.1073 27.9895 42.5057C28.629 41.8661 28.9185 41.0137 28.8782 40.1742L45.3386 35.6847C46.3854 35.3984 47.4846 35.7774 48.0104 36.6065C48.2571 36.9936 48.387 37.4428 48.387 37.9032V38.1339Z" fill="#404040"/>
<path d="M32.3887 1.10982C31.8661 0.949338 31.3371 0.804177 30.8008 0.676758L30.4266 2.2453C30.929 2.36466 31.4242 2.50014 31.9129 2.65175L32.3887 1.10982Z" fill="#404040"/>
<path d="M48.3869 25C48.3869 25.363 48.3788 25.725 48.3619 26.0839L49.9732 26.1581C49.9909 25.7742 49.9998 25.3879 49.9998 25C49.9998 24.8371 49.9982 24.6742 49.995 24.5121L48.3821 24.5436C48.3853 24.696 48.3869 24.8484 48.3869 25Z" fill="#404040"/>
<path d="M29.1877 0.349311C28.6563 0.259795 28.1079 0.185602 27.5563 0.12915L27.3926 1.73399C27.9063 1.7856 28.4152 1.85415 28.9184 1.94044L29.1877 0.349311Z" fill="#404040"/>
<path d="M47.8435 19.9613L49.4185 19.6146C49.3008 19.0791 49.1645 18.5428 49.0129 18.0194L47.4637 18.4686C47.6056 18.9605 47.7322 19.4581 47.8435 19.9613Z" fill="#404040"/>
<path d="M35.4668 2.28961C34.9668 2.05897 34.4556 1.84365 33.9475 1.64929L33.3709 3.15493C33.8523 3.33961 34.3257 3.53961 34.791 3.75413L35.4668 2.28961Z" fill="#404040"/>
<path d="M48.3035 23.0049L49.9108 22.8678C49.864 22.3178 49.7995 21.7735 49.718 21.2339L48.1229 21.4751C48.2003 21.9799 48.26 22.4904 48.3035 23.0049Z" fill="#404040"/>
<path d="M44.1446 11.5662L45.464 10.6388C45.1487 10.1896 44.818 9.75089 44.4745 9.32428L43.2172 10.3356C43.5398 10.7356 43.8495 11.1452 44.1446 11.5662Z" fill="#404040"/>
<path d="M46.9853 17.0058L48.5014 16.4541C48.3135 15.938 48.1071 15.4251 47.8885 14.9283L46.4127 15.5792C46.6184 16.0469 46.8095 16.5227 46.9853 17.0058Z" fill="#404040"/>
<path d="M43.4007 8.07672C43.0338 7.67753 42.645 7.28236 42.2467 6.90253L41.1338 8.06946C41.5047 8.42349 41.8652 8.78962 42.2128 9.16784L43.4007 8.07672Z" fill="#404040"/>
<path d="M38.3598 3.86545C37.9001 3.57432 37.4219 3.29287 36.9388 3.02997L36.1686 4.44771C36.6203 4.69367 37.063 4.95335 37.4961 5.22835L38.3598 3.86545Z" fill="#404040"/>
<path d="M47.2802 32.1331L48.8165 32.6242C48.9842 32.1001 49.135 31.5662 49.2657 31.0388L47.7003 30.6517C47.5761 31.1525 47.4358 31.646 47.2802 32.1331Z" fill="#404040"/>
<path d="M49.8451 27.7993L48.2418 27.621C48.1846 28.1339 48.1104 28.642 48.0209 29.1444L49.6088 29.4299C49.7047 28.8928 49.7838 28.3444 49.8451 27.7993Z" fill="#404040"/>
<path d="M41.0195 5.80576C40.5985 5.45496 40.1614 5.11302 39.7219 4.79205L38.7711 6.09447C39.1864 6.39769 39.5913 6.71463 39.9848 7.04366L41.0195 5.80576Z" fill="#404040"/>
<path d="M45.7449 14.1936L47.1747 13.4468C46.9223 12.9638 46.6505 12.4823 46.3658 12.0154L44.9884 12.8533C45.2554 13.2904 45.5078 13.738 45.7449 14.1936Z" fill="#404040"/>
<path d="M2.58547 18.3025L1.03951 17.8412C0.883055 18.3678 0.741926 18.9033 0.621765 19.4347L2.19434 19.792C2.30886 19.2888 2.4395 18.7928 2.58547 18.3025Z" fill="#404040"/>
<path d="M3.65965 15.4178L2.1895 14.7565C1.96611 15.2517 1.75563 15.7654 1.56369 16.2815L3.07498 16.8436C3.25401 16.3606 3.44917 15.8848 3.65965 15.4178Z" fill="#404040"/>
<path d="M5.10706 12.6969L3.7369 11.8461C3.449 12.3106 3.17239 12.7912 2.91513 13.2743L4.33851 14.0324C4.58045 13.5783 4.83609 13.1332 5.10706 12.6969Z" fill="#404040"/>
<path d="M6.89848 10.1904L5.6501 9.16943C5.30252 9.59363 4.96865 10.0291 4.64929 10.4759L5.96058 11.4146C6.26058 10.9968 6.57348 10.588 6.89848 10.1904Z" fill="#404040"/>
<path d="M1.63064 25.9113C1.61854 25.6089 1.6129 25.3041 1.6129 25C1.6129 24.7888 1.61532 24.5799 1.62096 24.371L0.00887098 24.3267C0.00241938 24.5492 0 24.775 0 25.0009C0 25.3259 0.0064516 25.65 0.0185483 25.9726L1.63064 25.9113Z" fill="#404040"/>
<path d="M1.90311 21.3041L0.309561 21.0525C0.224078 21.5928 0.15553 22.142 0.10553 22.6847L1.71117 22.8331C1.75875 22.3178 1.82327 21.8081 1.90311 21.3041Z" fill="#404040"/>
<path d="M0.134674 27.6154C0.191932 28.1654 0.266932 28.7081 0.358867 29.246L1.94919 28.9734C1.8629 28.4702 1.79273 27.9613 1.73951 27.4476L0.134674 27.6154Z" fill="#404040"/>
<path d="M11.38 5.98477L10.438 4.6759C9.99287 4.99606 9.55739 5.33074 9.134 5.67832L10.159 6.92429C10.555 6.59848 10.963 6.28477 11.38 5.98477Z" fill="#404040"/>
<path d="M16.7918 3.09446L16.2257 1.58398C15.712 1.77673 15.2007 1.98802 14.7063 2.2114L15.3708 3.68075C15.837 3.47027 16.3112 3.27511 16.7918 3.09446Z" fill="#404040"/>
<path d="M19.7381 2.2066L19.3784 0.634827C18.8461 0.756601 18.3098 0.898536 17.7856 1.0566L18.2518 2.60014C18.7405 2.45337 19.2405 2.32111 19.7381 2.2066Z" fill="#404040"/>
<path d="M22.7764 1.71784L22.6264 0.111389C22.0861 0.161389 21.5361 0.23155 20.9926 0.32026L21.2498 1.913C21.7538 1.83155 22.2627 1.76461 22.7764 1.71784Z" fill="#404040"/>
<path d="M13.9916 4.36057L13.2319 2.93799C12.7481 3.19605 12.269 3.47266 11.8069 3.76137L12.661 5.12992C13.094 4.85895 13.5384 4.6025 13.9916 4.36057Z" fill="#404040"/>
<path d="M24.9305 1.61302C25.2369 1.61141 25.5498 1.61786 25.8571 1.62834L25.9127 0.0170564C25.6103 0.00576614 25.3055 0.000120968 25.0023 0.000120968C24.7555 -0.000685482 24.5111 0.00254029 24.2668 0.00979834L24.316 1.6227C24.5192 1.61625 24.7232 1.61302 24.9305 1.61302Z" fill="#404040"/>
<path d="M9.00046 7.94367L7.89884 6.76544C7.50449 7.13399 7.11336 7.52592 6.73514 7.93076L7.91417 9.03157C8.26659 8.65253 8.63271 8.28641 9.00046 7.94367Z" fill="#404040"/>
</svg>
