<svg width="56" height="50" viewBox="0 0 56 50" fill="none" xmlns="http://www.w3.org/2000/svg">
<path d="M38.8609 26.0146H51.8887C51.6665 38.8161 49.1109 40.9269 41.1387 45.5869C40.2221 46.1352 39.9165 47.2865 40.4721 48.2185C41.0276 49.1231 42.1943 49.4247 43.1387 48.8764C52.5276 43.394 55.8054 40.0497 55.8054 24.0957V9.32049C55.8054 4.63299 51.9443 0.850098 47.2221 0.850098H38.8887C33.9998 0.850098 30.3054 4.49593 30.3054 9.32049V17.5442C30.2776 22.3687 33.9721 26.0146 38.8609 26.0146Z" fill="#FF8000"/>
<path d="M8.80538 26.0146H21.8332C21.6109 38.8161 19.0554 40.9269 11.0832 45.5869C10.1665 46.1352 9.86093 47.2865 10.4165 48.2185C10.972 49.1231 12.1387 49.4247 13.0832 48.8764C22.472 43.394 25.7498 40.0497 25.7498 24.0957V9.32049C25.7498 4.63299 21.8887 0.850098 17.1665 0.850098H8.83316C3.91649 0.850098 0.222046 4.49593 0.222046 9.32049V17.5442C0.222046 22.3687 3.91649 26.0146 8.80538 26.0146Z" fill="#FF8000"/>
</svg>
