<svg width="50" height="50" viewBox="0 0 50 50" fill="none" xmlns="http://www.w3.org/2000/svg">
<path d="M46.0938 2.34375H39.0625V1.5625C39.0625 1.13125 38.7125 0.78125 38.2812 0.78125H11.7188C11.2875 0.78125 10.9375 1.13125 10.9375 1.5625V2.34375H3.90625C3.475 2.34375 3.125 2.69375 3.125 3.125V10.1562C3.125 15.2984 7.2875 19.4828 12.4195 19.5273C14.1578 23.0133 17.2922 25.6781 21.0938 26.7805V32.0312H16.4062C16.0477 32.0312 15.7352 32.275 15.6484 32.6234L12.6711 44.5312H11.7188C11.2875 44.5312 10.9375 44.8805 10.9375 45.3125V48.4375C10.9375 48.8695 11.2875 49.2188 11.7188 49.2188H38.2812C38.7125 49.2188 39.0625 48.8695 39.0625 48.4375V45.3125C39.0625 44.8805 38.7125 44.5312 38.2812 44.5312H37.3289L34.3516 32.6234C34.2648 32.275 33.9523 32.0312 33.5938 32.0312H28.9062V26.7805C32.7086 25.6781 35.843 23.0133 37.5805 19.5273C42.7125 19.4828 46.875 15.2984 46.875 10.1562V3.125C46.875 2.69375 46.525 2.34375 46.0938 2.34375ZM39.0625 7.03125H42.1875V10.1562C42.1875 12.2172 40.8484 13.9688 38.9961 14.5945C39.0359 14.1617 39.0625 13.725 39.0625 13.2812V7.03125ZM11.0039 14.5945C9.15156 13.9688 7.8125 12.2172 7.8125 10.1562V7.03125H10.9375V13.2812C10.9375 13.725 10.9641 14.1617 11.0039 14.5945ZM4.6875 10.1562V3.90625H10.9375V5.46875H7.03125C6.6 5.46875 6.25 5.81875 6.25 6.25V10.1562C6.25 13.1805 8.41016 15.7094 11.268 16.2828C11.3914 16.8469 11.5555 17.3937 11.7437 17.9305C7.78984 17.5484 4.6875 14.2094 4.6875 10.1562ZM37.5 47.6562H12.5V46.0938H37.5V47.6562ZM35.718 44.5312H14.282L17.0164 33.5938H32.9836L35.718 44.5312ZM27.3438 32.0312H22.6562V27.132C23.4203 27.2609 24.2 27.3438 25 27.3438C25.8 27.3438 26.5797 27.2609 27.3438 27.132V32.0312ZM25 25.7812C18.1078 25.7812 12.5 20.1734 12.5 13.2812V2.34375H37.5V13.2812C37.5 20.1734 31.8922 25.7812 25 25.7812ZM45.3125 10.1562C45.3125 14.2094 42.2102 17.5484 38.2562 17.9305C38.4453 17.3937 38.6094 16.8469 38.732 16.2828C41.5898 15.7094 43.75 13.1805 43.75 10.1562V6.25C43.75 5.81875 43.4 5.46875 42.9688 5.46875H39.0625V3.90625H45.3125V10.1562Z" fill="#404040"/>
<path d="M27.1008 11.8297L25.6992 9.02578C25.4344 8.4961 24.5664 8.4961 24.3016 9.02578L22.9 11.8297L20.1234 12.5234C19.85 12.5914 19.6351 12.8016 19.5601 13.0727C19.4851 13.3438 19.5617 13.6344 19.7609 13.8336L21.8164 15.8898L21.3344 18.6141C21.2773 18.9352 21.4266 19.2578 21.707 19.4234C21.9875 19.5883 22.3414 19.5625 22.5953 19.3578L25 17.4109L27.4055 19.357C27.5476 19.4727 27.7219 19.5313 27.8969 19.5313C28.0336 19.5313 28.1711 19.4953 28.2937 19.4227C28.5742 19.257 28.7234 18.9344 28.6664 18.6133L28.1844 15.8891L30.2398 13.8328C30.4391 13.6336 30.5156 13.343 30.4406 13.0719C30.3656 12.8008 30.15 12.5906 29.8773 12.5227L27.1008 11.8297ZM26.7914 15.0727C26.6109 15.2531 26.5305 15.5102 26.5742 15.7609L26.7633 16.8273L25.4914 15.7984C25.3484 15.6828 25.1742 15.625 25 15.625C24.8258 15.625 24.6516 15.6828 24.5086 15.7992L23.2367 16.8281L23.4258 15.7617C23.4703 15.5109 23.3891 15.2539 23.2086 15.0734L21.8406 13.7055L23.6273 13.2586C23.8484 13.2031 24.0344 13.0539 24.1367 12.85L25 11.1219L25.8633 12.8492C25.9656 13.0531 26.1516 13.2023 26.3726 13.2578L28.1594 13.7047L26.7914 15.0727Z" fill="#FF8000"/>
<path d="M25 5.46875C20.2617 5.46875 16.4062 9.32422 16.4062 14.0625C16.4062 18.8008 20.2617 22.6562 25 22.6562C29.7383 22.6562 33.5938 18.8008 33.5938 14.0625C33.5938 9.32422 29.7383 5.46875 25 5.46875ZM25 21.0938C21.1234 21.0938 17.9688 17.9391 17.9688 14.0625C17.9688 10.1859 21.1234 7.03125 25 7.03125C28.8766 7.03125 32.0312 10.1859 32.0312 14.0625C32.0312 17.9391 28.8766 21.0938 25 21.0938Z" fill="#FF8000"/>
<path d="M18.75 42.9688H31.25C31.6812 42.9688 32.0312 42.6195 32.0312 42.1875V35.9375C32.0312 35.5055 31.6812 35.1562 31.25 35.1562H18.75C18.3188 35.1562 17.9688 35.5055 17.9688 35.9375V42.1875C17.9688 42.6195 18.3188 42.9688 18.75 42.9688ZM19.5312 36.7188H30.4688V41.4062H19.5312V36.7188Z" fill="#404040"/>
<path d="M21.0938 38.2812H28.9062V39.8438H21.0938V38.2812Z" fill="#404040"/>
</svg>
