<svg width="300" height="90" viewBox="0 0 300 90" fill="none" xmlns="http://www.w3.org/2000/svg">
<path d="M217.115 61.3535H213.342V61.9772H217.115V61.3535Z" fill="#404040"/>
<path d="M299.837 45.7358H224.22V67.5522H299.837V45.7358Z" fill="#404040"/>
<path fill-rule="evenodd" clip-rule="evenodd" d="M243.531 53.6219H230.345V59.395H243.531V62.1533H231.209C230.729 62.1968 230.246 62.1212 229.803 61.9332C229.355 61.8188 228.946 61.5886 228.616 61.2657C228.265 60.9473 227.972 60.5699 227.751 60.1506C227.529 59.744 227.418 59.2861 227.429 58.8229V54.935C227.429 53.4678 227.751 52.3821 228.506 51.7146C229.43 50.9965 230.584 50.6417 231.751 50.7169H243.531V53.6219Z" fill="white"/>
<path fill-rule="evenodd" clip-rule="evenodd" d="M245.055 62.1531L249.604 53.5777C249.797 53.1772 250.012 52.7878 250.249 52.4113C250.461 52.0699 250.706 51.7504 250.981 51.4577C251.228 51.2195 251.523 51.0369 251.846 50.9222C252.194 50.7971 252.56 50.7278 252.93 50.7168V53.7904L251.516 56.2259H252.93V59.1602H250L248.403 62.1531H245.055ZM252.952 50.7168C253.32 50.7285 253.683 50.7978 254.029 50.9222C254.352 51.0369 254.647 51.2195 254.893 51.4577L255.538 52.4113C255.797 52.8116 256.015 53.2367 256.19 53.6804L260.732 62.1531H257.589L255.758 59.2188H252.952V56.2846H254.263L252.967 53.8491L252.952 50.7168Z" fill="white"/>
<path fill-rule="evenodd" clip-rule="evenodd" d="M288.314 57.9938H283.127V62.1531H280.101V50.7315H288.314V53.7024H283.127V55.1256H288.314V57.9938ZM294.174 50.9589C294.605 51.1413 295.005 51.3887 295.361 51.6925C295.768 51.9786 296.104 52.3552 296.343 52.7928C296.547 53.2549 296.655 53.7544 296.658 54.2599C296.663 54.7546 296.556 55.2441 296.343 55.6904C296.161 56.1285 295.914 56.5365 295.61 56.9008C295.239 57.1875 294.839 57.4335 294.416 57.6344C293.978 57.842 293.501 57.9569 293.017 57.9718H288.365V55.1036H293.669V53.6804H288.365V50.7095H292.584C293.13 50.7311 293.673 50.8073 294.203 50.9369" fill="white"/>
<path fill-rule="evenodd" clip-rule="evenodd" d="M278.468 50.7314H278.57V62.1678H275.977V53.3209H264.849V62.1678H262.256V50.7314H278.468Z" fill="white"/>
<path d="M48.4163 9.938L45.9109 5.82269L50.5701 7.02574L53.7055 3.36523L54.0059 8.1701L58.4526 10.026L53.9766 11.8013L53.5883 16.6061L50.5188 12.8943L45.8376 14.0093L48.4163 9.938Z" fill="#FF8000"/>
<path d="M63.2144 16.8995L62.306 12.1606L66.2546 14.9262L70.4742 12.6008L69.0677 17.2149L72.5767 20.516L67.7637 20.5967L65.7125 24.9614L64.1448 20.4059L59.3683 19.7971L63.2144 16.8995Z" fill="#FF8000"/>
<path d="M74.4667 28.3356L75.2506 23.582L77.9978 27.536L82.7595 26.8171L79.8512 30.6536L82.005 34.967L77.463 33.3825L74.0345 36.7642L74.1298 31.952L69.8588 29.7293L74.4667 28.3356Z" fill="#FF8000"/>
<path d="M54.3356 62.3368V42.6919C54.3194 41.8918 54.158 41.1014 53.8594 40.3591C53.5575 39.7694 53.1475 39.2418 52.6507 38.804C52.1611 38.3546 51.5706 38.03 50.9291 37.8577C50.2853 37.6778 49.6196 37.5889 48.9512 37.5936C48.0931 37.546 47.2364 37.7097 46.4561 38.0703C45.6758 38.4309 44.9957 38.9775 44.4751 39.6622L30.0067 62.0801V30.4413H24.5856V61.8233C24.558 62.5573 24.6724 63.2896 24.9226 63.98C25.1493 64.6707 25.4993 65.3144 25.9555 65.88C26.3894 66.4743 26.9918 66.9242 27.6844 67.171C28.3728 67.5316 29.1423 67.7085 29.9188 67.6846C30.7228 67.6798 31.5167 67.5048 32.2484 67.171C33.0546 66.7914 33.7826 66.2639 34.3948 65.6159L48.9951 43.3741V65.5279C49.0391 66.4155 49.8009 67.6112 50.6947 67.6112H65.6173C62.1717 74.3416 56.4693 79.6422 49.5106 82.583C42.5519 85.5238 34.7812 85.917 27.5619 83.6937C20.3425 81.4703 14.1356 76.7724 10.0299 70.4241C5.92424 64.0758 4.18208 56.4825 5.10906 48.9764C6.03603 41.4703 9.57294 34.5308 15.0993 29.3752C20.6256 24.2196 27.7885 21.1773 35.3312 20.782C42.874 20.3866 50.3149 22.6635 56.3486 27.2131C62.3822 31.7628 66.6233 38.2947 68.3279 45.6628H73.3167C72.8308 43.2072 72.0944 40.8081 71.119 38.5032C67.7955 30.6256 61.8537 24.1414 54.3009 20.1498C46.7481 16.1583 38.0492 14.9052 29.679 16.603C21.3089 18.3007 13.7826 22.8448 8.37639 29.4649C2.97016 36.0849 0.0166626 44.3735 0.0166626 52.9252C0.0166626 61.4769 2.97016 69.7654 8.37639 76.3854C13.7826 83.0055 21.3089 87.5496 29.679 89.2474C38.0492 90.9451 46.7481 89.692 54.3009 85.7005C61.8537 81.709 67.7955 75.2247 71.119 67.3471C71.8064 65.7239 72.372 64.0516 72.8112 62.3442L54.3356 62.3368Z" fill="#404040"/>
<path fill-rule="evenodd" clip-rule="evenodd" d="M27.6185 13.2021C27.1277 14.0604 22.8494 23.3694 27.6185 25.5775C32.2704 23.3768 27.9921 14.0604 27.6185 13.2021Z" fill="#404040"/>
<path d="M26.3437 3.26226C26.1532 4.77341 25.0837 8.20651 23.1717 13.4662V13.5029C21.9556 18.7625 22.7321 23.1126 25.472 26.443L25.5818 26.575H26.2631L26.2192 26.1642C25.9756 24.2188 26.0698 22.2457 26.4976 20.3324C26.9151 18.8652 27.2301 17.6328 27.4353 16.6645C28.3419 19.0793 28.7651 21.6492 28.6806 24.2276C28.6806 24.8658 28.6806 25.5334 28.6294 26.2229L28.5634 27.5067L29.296 26.4503C33.6915 20.1343 32.9076 12.2925 27.0397 3.13755L26.4902 2.29395L26.3437 3.26226Z" fill="#FF8000"/>
<path d="M22.9592 18.0732C22.9789 16.5632 23.1656 15.06 23.516 13.5911C25.4695 8.28009 26.5342 4.85679 26.71 3.32118C30.0359 8.50995 31.7038 13.2366 31.7135 17.5011C31.7357 20.6196 30.7771 23.666 28.9737 26.2085C28.9737 25.4749 29.0323 24.8221 29.0323 24.1692C29.0323 20.406 28.4389 17.501 27.2888 15.425C27.091 16.5694 26.71 18.1613 26.124 20.2519C25.845 21.4845 25.7025 22.744 25.6991 24.0078C25.6982 24.7434 25.7423 25.4783 25.8309 26.2085H25.7284C23.8577 23.9184 22.8722 21.0308 22.9519 18.0732M26.2265 1.20117L25.9701 3.20381C25.787 4.67095 24.7247 8.08937 22.82 13.327V13.3637V13.4077C22.2119 15.8045 22.0923 18.2994 22.4684 20.7434C22.8455 22.9152 23.7824 24.9507 25.1863 26.6486L25.406 26.9127H26.6807L26.5782 26.0911C26.3433 24.1893 26.4375 22.2611 26.8565 20.3913C27.1203 19.4377 27.34 18.5867 27.5305 17.8385C28.2382 20.5457 28.4859 23.3529 28.2631 26.1425L28.1312 28.71L29.5964 26.5973C31.8182 23.4325 32.8059 19.5627 32.3728 15.7185C31.9846 11.8012 30.2923 7.48784 27.34 2.88104L26.2265 1.20117Z" fill="#404040"/>
<path d="M206.983 46.4255C207.842 46.9254 208.817 47.1888 209.811 47.1888C210.804 47.1888 211.78 46.9254 212.638 46.4255C213.309 45.8765 213.816 45.1532 214.103 44.3348L214.191 44.0928H211.561V45.2811H208.03V44.1148H205.408L205.488 44.3568C205.776 45.1752 206.283 45.8986 206.953 46.4475M216.865 45.7727C215.349 45.7727 214.323 46.0954 213.627 46.785L205.32 54.9569C205.275 54.9904 205.236 55.0299 205.203 55.0743C205.122 55.1623 205.093 55.199 204.997 55.199C204.902 55.199 204.873 55.199 204.873 55.0889V45.89H200.924V56.6808C200.924 57.8985 202.053 58.5954 204.016 58.5954C204.609 58.6469 205.206 58.5773 205.772 58.3907C206.337 58.204 206.859 57.9043 207.305 57.5097L215.561 49.3891C215.654 49.2904 215.763 49.2085 215.884 49.147C215.935 49.147 216.089 49.1911 216.089 49.3084V58.4854H220.037V47.5846C220.037 46.4402 218.851 45.7506 216.865 45.7506M160.567 58.5954H164.889V45.7506H160.611L160.567 58.5954ZM170.303 51.9933L178.471 46.0661L178.925 45.736H172.046L171.995 45.7727L166.207 50.4821C165.812 50.7976 165.153 51.4211 165.153 52.0153C165.153 52.4848 165.592 53.035 166.486 53.7098L173.02 58.544H173.064H180.104L179.606 58.2066L170.303 51.9933ZM196.675 45.736C195.144 45.736 194.148 46.0441 193.437 46.7409L185.13 54.9202C185.09 54.9558 185.053 54.9951 185.02 55.0376C184.94 55.1256 184.91 55.1623 184.815 55.1623C184.72 55.1623 184.69 55.1623 184.69 55.0523V45.89H180.742V56.6808C180.742 57.8985 181.863 58.5954 183.833 58.5954C184.426 58.6469 185.024 58.5773 185.589 58.3907C186.155 58.204 186.676 57.9043 187.123 57.5097L195.379 49.3891C195.606 49.1764 195.694 49.147 195.701 49.147C195.708 49.147 195.906 49.1911 195.906 49.3084V58.4854H199.855V47.5846C199.855 46.4402 198.668 45.7506 196.675 45.7506M119.139 45.7506H118.956H115.704H115.52V50.4161H103.704V45.736H100.078V49.1397C100.078 50.8416 100.503 52.074 101.352 52.8076C102.422 53.6269 103.752 54.0308 105.096 53.9446H115.564V55.0523H100.803V58.5807H114.165C115.511 58.6621 116.841 58.2588 117.916 57.4437C118.766 56.7101 119.183 55.5071 119.183 53.7759V45.7727L119.139 45.7506ZM121.535 46.8583C120.656 47.5919 120.209 48.8096 120.209 50.5262V54.7662C120.202 55.3146 120.343 55.8548 120.619 56.3287C120.889 56.7902 121.233 57.2041 121.637 57.5537C122.051 57.9338 122.556 58.1993 123.103 58.324C123.641 58.5325 124.219 58.6178 124.795 58.5734H139.322V55.1843H124.011V49.2424H139.358V45.7286H125.44C124.051 45.6404 122.675 46.04 121.55 46.8583M141.725 46.8583C140.846 47.5919 140.399 48.8096 140.399 50.5262V54.7662C140.393 55.3111 140.532 55.8478 140.802 56.3213C141.075 56.7851 141.421 57.2013 141.827 57.5537C142.239 57.9388 142.744 58.2094 143.292 58.3386C143.831 58.5472 144.409 58.6324 144.985 58.5881H159.541V55.1917H144.157V49.2571H159.541V45.7433H145.622C144.231 45.6552 142.853 46.0547 141.725 46.873M95.206 50.5335H83.6679V49.3304H95.228L95.206 50.5335ZM97.5063 46.8657C97.0518 46.5384 96.5537 46.2766 96.0265 46.0881C95.4496 45.873 94.84 45.7588 94.2244 45.7506H79.9098V58.5954H83.6826V53.9959H94.6126C95.1899 53.9851 95.7605 53.8708 96.2976 53.6585C96.7972 53.4393 97.2576 53.1395 97.6602 52.7709C98.0665 52.4019 98.3952 51.9555 98.6272 51.4578C98.8797 50.9438 99.0149 50.38 99.0228 49.8073C99.0151 49.2393 98.8793 48.6803 98.6256 48.1722C98.3719 47.6641 98.0068 47.22 97.5576 46.873" fill="#FF8000"/>
<path d="M79.7708 62.4395V67.2223H81.2359V63.2757H85.3896V62.4395H79.7708Z" fill="#404040"/>
<path d="M88.7008 63.2757H91.4553C92.2611 63.2757 92.5761 63.5032 92.5761 64.09C92.5761 64.6769 92.2685 64.9336 91.4553 64.9336H88.7008V63.2757ZM87.2357 62.4395V67.2223H88.7008V65.7552H91.763C93.3893 65.7552 94.0267 65.2857 94.034 64.0753C94.0413 62.8649 93.3893 62.4248 91.741 62.4248L87.2357 62.4395Z" fill="#404040"/>
<path d="M95.1473 62.4395L98.1436 65.7919L98.2828 66.0707C98.2828 66.3127 97.9458 66.4374 97.2792 66.4374H97.0301V67.2224H97.5868C98.7077 67.2224 99.052 67.1123 99.9677 66.0266L103.001 62.4395H101.286L99.0886 65.2637L96.7883 62.4102H95.1107" fill="#404040"/>
<path d="M104.788 62.4395V67.2223H106.246V63.2757H110.546V67.2223H112.004V62.4395H104.788Z" fill="#404040"/>
<path d="M114.033 62.4395V67.2223H115.498V63.2757H119.799V67.2223H121.257V62.4395H114.033Z" fill="#404040"/>
<path d="M127.344 63.1657L127.483 63.2464L128.839 65.1977H125.908L127.344 63.1657ZM126.216 62.4321C126.179 62.4908 122.919 66.9949 122.766 67.215H124.495C124.495 67.1636 125.308 66.0046 125.308 66.0046H129.344C129.41 66.0046 130.267 67.2737 130.267 67.2737H131.952L128.502 62.4615H126.216" fill="#404040"/>
<path d="M146.216 62.4395L143.285 64.2661H142.223V62.4248H140.758V67.2077H142.223V65.0877H143.278C143.315 65.0877 146.421 67.2077 146.421 67.2077H148.494L144.487 64.6549L148.318 62.4542L146.216 62.4395Z" fill="#404040"/>
<path d="M151.702 65.4912V64.1781C151.702 63.4445 152.003 63.2171 153.058 63.2171H155.131C156.054 63.2171 156.494 63.3565 156.494 64.1708V65.4839C156.494 66.2174 156.215 66.3861 155.16 66.3861H153.028C152.127 66.3861 151.702 66.2541 151.702 65.4912ZM152.64 62.3809C150.823 62.3809 150.237 62.7916 150.237 64.0681V65.6159C150.237 66.7749 150.911 67.2224 152.64 67.2224H155.57C157.351 67.2224 157.922 66.8336 157.922 65.6159V64.0681C157.922 62.8063 157.329 62.3809 155.57 62.3809H152.64Z" fill="#404040"/>
<path d="M159.988 62.4395V67.2224H161.453V63.2758H161.739C161.805 63.3125 164.105 67.259 164.105 67.259H166.303C166.303 67.193 168.544 63.3491 168.544 63.3491L168.823 63.3124H168.896V67.259H170.361V62.4762H167.489L165.292 66.3861H165.13C165.065 66.3861 162.838 62.4028 162.838 62.4028L159.988 62.4395Z" fill="#404040"/>
<path d="M172.317 62.4395V67.2223H173.775V63.2757H178.075V67.2223H179.54V62.4395H172.317Z" fill="#404040"/>
<path d="M185.628 63.1657L185.76 63.2464L187.123 65.1977H184.156L185.628 63.1657ZM184.5 62.4321L181.042 67.215H182.778C182.778 67.1636 183.592 66.0046 183.592 66.0046H187.628C187.687 66.0046 188.551 67.2737 188.551 67.2737H190.236L186.786 62.4615H184.5" fill="#404040"/>
<path d="M197.415 62.4395V64.3321H193.115V62.4395H191.65V67.2223H193.115V65.161H197.415V67.2223H198.873V62.4395H197.415Z" fill="#404040"/>
<path d="M206.748 62.4395L202.675 66.3714H202.404H202.331V62.4248H200.866V67.2077H203.554L207.54 63.2831H207.811H207.884V67.2297H209.349V62.4468L206.748 62.4395Z" fill="#404040"/>
<path d="M217.349 62.4395L213.276 66.3714H213.005H212.931V62.4248H211.466V67.2077H214.155L218.14 63.2831H218.418H218.492V67.2297H219.957V62.4468L217.349 62.4395Z" fill="#404040"/>
</svg>
