<svg width="50" height="50" viewBox="0 0 50 50" fill="none" xmlns="http://www.w3.org/2000/svg">
<g clip-path="url(#clip0_287_6921)">
<path d="M30.103 47.2809H30.1021C29.713 47.3872 29.4837 47.7899 29.5901 48.1799C29.6895 48.5396 30.1315 48.7895 30.4892 48.6919C31.4137 48.4038 31.0448 47.056 30.103 47.2809Z" fill="#404040"/>
<path d="M26.3947 47.9654C25.9929 48.0054 25.6984 48.3632 25.7385 48.765C25.7763 49.168 26.1427 49.4635 26.538 49.4213C26.9398 49.3813 27.2334 49.0234 27.1943 48.6217C27.1543 48.2199 26.7964 47.9264 26.3947 47.9654Z" fill="#404040"/>
<path d="M18.894 47.4437C18.501 47.3481 18.1051 47.589 18.0105 47.982C17.915 48.374 18.1557 48.7699 18.5488 48.8654C18.9084 48.9506 19.3434 48.6904 19.4313 48.3272C19.5269 47.9342 19.286 47.5393 18.894 47.4437Z" fill="#404040"/>
<path d="M22.6219 48.02C22.2181 47.9917 21.869 48.296 21.8418 48.6997C21.8135 49.1024 22.1177 49.4515 22.5205 49.4788C22.9178 49.5088 23.2743 49.2032 23.3006 48.8001C23.3289 48.3964 23.0246 48.0473 22.6219 48.02Z" fill="#404040"/>
<path d="M33.6408 45.9781C33.2752 46.1497 33.1172 46.5846 33.2888 46.9503C33.5643 47.3449 33.8883 47.4623 34.261 47.3023C35.1239 46.8622 34.5306 45.5973 33.6408 45.9781Z" fill="#404040"/>
<path d="M36.9085 44.0961C36.576 44.3262 36.4941 44.7816 36.7252 45.1132C37.0392 45.4589 37.3785 45.5201 37.7431 45.2965C38.0746 45.0664 38.1566 44.611 37.9264 44.2794C37.6953 43.9469 37.2399 43.865 36.9085 44.0961Z" fill="#404040"/>
<path d="M45.2038 35.2693C44.842 35.0908 44.4032 35.24 44.2249 35.6028C44.0464 35.9645 44.1946 36.4034 44.5573 36.5818C44.9295 36.75 45.2558 36.6391 45.5363 36.2493C45.7149 35.8865 45.5667 35.4487 45.2038 35.2693Z" fill="#404040"/>
<path d="M47.1696 27.7569C46.7689 27.7091 46.4051 27.9958 46.3573 28.3966C46.3106 28.7901 46.6882 29.2147 47.0848 29.2147C47.4504 29.2147 47.7654 28.9407 47.8103 28.5692C47.8103 28.5682 47.8103 28.5682 47.8103 28.5682C47.8572 28.1674 47.5705 27.8037 47.1696 27.7569Z" fill="#404040"/>
<path d="M46.5075 31.596C46.1204 31.4819 45.7129 31.7032 45.5988 32.0904C45.4837 32.4775 45.7051 32.8841 46.0922 32.9992C46.4488 33.1049 46.8954 32.8651 47.0011 32.5048C47.1161 32.1177 46.8948 31.711 46.5075 31.596Z" fill="#404040"/>
<path d="M39.8143 41.6905C39.5257 41.9733 39.5208 42.4364 39.8036 42.7251C40.1472 43.0143 40.4921 43.0176 40.8382 42.7348C41.1268 42.452 41.1307 41.9889 40.8479 41.7012C40.5651 41.4126 40.1029 41.4077 39.8143 41.6905Z" fill="#404040"/>
<path d="M43.2985 38.6695C42.9708 38.4326 42.5134 38.5057 42.2765 38.8324C42.0396 39.16 42.1127 39.6174 42.4403 39.8543C42.8032 40.083 43.1436 40.0284 43.4614 39.6905C43.6983 39.3638 43.6251 38.9065 43.2985 38.6695Z" fill="#404040"/>
<path d="M11.6507 7.11256C11.7872 7.11256 11.9256 7.07453 12.0485 6.99457C12.387 6.77419 12.4834 6.32173 12.264 5.98239C12.0446 5.64402 11.5913 5.54749 11.2528 5.76689C10.9136 5.98727 10.8169 6.43972 11.0373 6.77907C11.1768 6.99457 11.4118 7.11256 11.6507 7.11256Z" fill="#404040"/>
<path d="M15.0852 5.27738C15.5611 5.27738 15.9502 4.7081 15.7571 4.25642C15.5972 3.88587 15.1671 3.71425 14.7966 3.87417C14.7955 3.87417 14.7955 3.87417 14.7955 3.87417C14.425 4.03312 14.2533 4.46315 14.4133 4.83467C14.5323 5.1116 14.8015 5.27738 15.0852 5.27738Z" fill="#404040"/>
<path d="M22.6306 3.46462C22.6472 3.46462 22.6638 3.46364 22.6794 3.46267C23.0831 3.43634 23.3883 3.08725 23.3609 2.68452C23.3346 2.28179 22.9855 1.97658 22.5829 2.00291C22.1792 2.03021 21.8749 2.37833 21.9012 2.78106C21.9276 3.16818 22.2494 3.46462 22.6306 3.46462Z" fill="#404040"/>
<path d="M18.7809 4.04969C19.2071 4.04969 19.5933 3.56847 19.4918 3.14673C19.3982 2.75473 19.0032 2.51192 18.6103 2.60651C18.2173 2.70109 17.9755 3.09602 18.0701 3.48802C18.15 3.82346 18.4504 4.04969 18.7809 4.04969Z" fill="#404040"/>
<path d="M8.57327 9.49869C8.74976 9.49869 8.92724 9.4353 9.06765 9.30561C9.36507 9.03258 9.38457 8.56939 9.11046 8.27198C8.83743 7.97554 8.37522 7.95604 8.07781 8.22908C7.78039 8.50309 7.76089 8.96529 8.0349 9.26271C8.17932 9.4197 8.37532 9.49869 8.57327 9.49869Z" fill="#404040"/>
<path d="M1.38466 29.3191C0.987788 29.3932 0.72743 29.7764 0.801539 30.1723C0.869603 30.5339 1.29368 30.826 1.65575 30.7564C2.05262 30.6813 2.31396 30.2991 2.23887 29.9022C2.16369 29.5053 1.78144 29.244 1.38466 29.3191Z" fill="#404040"/>
<path d="M1.27159 22.9983C1.63473 23.0553 2.04896 22.7451 2.10327 22.384C2.16373 21.9852 1.88884 21.6127 1.48895 21.5522C1.09012 21.4917 0.717622 21.7667 0.657261 22.1665C0.596804 22.5654 0.871691 22.9388 1.27159 22.9983Z" fill="#404040"/>
<path d="M1.12428 26.893H1.13793C1.54163 26.8861 1.86332 26.5526 1.8566 26.1489H1.85562C1.84879 25.7452 1.51628 25.4234 1.1115 25.4303C0.707801 25.4381 0.386985 25.7706 0.393909 26.1743C0.400637 26.5741 0.726426 26.893 1.12428 26.893Z" fill="#404040"/>
<path d="M2.05553 19.1817C2.40989 19.2982 2.86147 19.0762 2.97985 18.7175C3.10662 18.3343 2.89891 17.9199 2.51569 17.7931C2.13247 17.6663 1.71804 17.874 1.59127 18.2573C1.46451 18.6415 1.67221 19.0549 2.05553 19.1817Z" fill="#404040"/>
<path d="M3.47626 15.5523C3.84778 15.731 4.17777 15.6306 4.46601 15.2509C4.65616 14.8941 4.5216 14.4513 4.1647 14.2612C3.80878 14.071 3.3651 14.2056 3.17495 14.5625C2.98587 14.9184 3.12044 15.3621 3.47626 15.5523Z" fill="#404040"/>
<path d="M5.48995 12.2144C5.84997 12.4555 6.19185 12.4119 6.51579 12.0837C6.76347 11.7649 6.70496 11.3056 6.38512 11.0579C6.06625 10.8112 5.60707 10.8697 5.35929 11.1886C5.11258 11.5084 5.17002 11.9677 5.48995 12.2144Z" fill="#404040"/>
<path d="M49.5574 12.2011L46.8416 11.0344C46.6466 10.4032 46.4016 9.78703 46.1101 9.19503L47.1982 6.46859C47.3062 6.19779 47.2431 5.88858 47.0376 5.68186L44.3517 2.98086C44.1444 2.77238 43.8323 2.70841 43.5594 2.8183L41.0203 3.84297C40.3519 3.47486 39.6503 3.17179 38.9272 2.93893L37.8677 0.445339C37.753 0.175327 37.488 0 37.1947 0H33.3963C33.1028 0 32.8378 0.175327 32.7231 0.445339L31.6637 2.93903C30.9405 3.17188 30.239 3.47486 29.5705 3.84306L27.0314 2.8183C26.7585 2.70821 26.4464 2.77228 26.2391 2.98086L23.5532 5.68186C23.3477 5.88868 23.2845 6.19779 23.3926 6.46859L24.4807 9.19503C24.2441 9.67557 24.0376 10.1733 23.8644 10.6801C20.6638 10.6853 17.595 11.66 14.9883 13.4993C14.2157 14.0446 15.0591 15.2397 15.8316 14.6944C24.9251 8.15565 37.9799 14.9242 37.8838 26.1335C37.8839 30.0343 36.2356 33.7878 33.3617 36.4314C33.2112 36.5699 33.1255 36.7651 33.1255 36.9697V39.7485L30.6304 38.6944C30.4358 38.6121 30.2149 38.6181 30.0248 38.711C26.5026 40.4578 22.1845 40.5894 18.564 39.0758L19.3022 38.3173C19.5055 38.1084 19.5653 37.7986 19.4544 37.5289L18.4935 35.1939C18.3819 34.9226 18.1189 34.7443 17.8255 34.741L16.1314 34.7217C15.8489 34.3782 15.5391 34.0587 15.2059 33.7667L15.1879 32.0833C15.1848 31.7909 15.0078 31.5285 14.738 31.416L12.4164 30.4484C12.1447 30.3351 11.832 30.3957 11.6222 30.6018L10.89 31.3216C8.94783 26.5796 9.91662 20.8203 13.3132 16.9732C13.9327 16.2588 12.8275 15.3003 12.2082 16.015C8.48065 20.2379 7.39729 26.546 9.49264 31.7657C9.36333 31.7717 9.23403 31.7808 9.10502 31.793L7.89372 30.6009C7.68417 30.3946 7.37135 30.334 7.09968 30.4469L4.77752 31.4135C4.5076 31.5259 4.33052 31.7881 4.32721 32.0804L4.30644 33.9145C4.0294 34.1644 3.76856 34.4328 3.52663 34.7171L1.68774 34.7371C1.39432 34.7403 1.13133 34.9183 1.01949 35.1896L0.0569401 37.5243C-0.0542241 37.7939 0.00545354 38.1037 0.20867 38.3128L1.49661 39.6376C1.46736 40.0119 1.46268 40.3884 1.48267 40.7631L0.207304 42.0736C0.00389333 42.2826 -0.0558818 42.5924 0.0549899 42.862L1.01588 45.197C1.12753 45.4684 1.39052 45.6466 1.68394 45.6501L3.37802 45.6693C3.66051 46.0127 3.97021 46.3324 4.30351 46.6243L4.32145 48.3078C4.32457 48.6001 4.50156 48.8625 4.77138 48.975L7.09305 49.9427C7.36452 50.0559 7.67734 49.9953 7.88719 49.7892L9.08201 48.6146C9.5216 48.6451 9.96421 48.6395 10.4045 48.598L11.6157 49.7899C11.8649 50.0023 12.1296 50.0536 12.4097 49.9438L14.7319 48.9773C15.0018 48.8649 15.1789 48.6027 15.1821 48.3104L15.203 46.4763C15.4799 46.2265 15.7407 45.9581 15.9827 45.6738L17.8218 45.6537C18.1151 45.6505 18.3781 45.4724 18.4899 45.2011L19.4526 42.8665C19.5637 42.5969 19.504 42.2871 19.3008 42.0779L18.0128 40.7531C18.021 40.6483 18.0272 40.5433 18.0315 40.4383C21.9192 42.0562 26.5459 41.9598 30.3633 40.1694L33.5721 41.525C34.1518 41.6639 34.4904 41.4394 34.5881 40.8513V37.2859C37.5316 34.4612 39.2488 30.5591 39.3424 26.4847C39.9185 26.2752 40.4808 26.0199 41.0202 25.7229L43.5593 26.7476C43.8397 26.8543 44.1038 26.8002 44.3516 26.585L47.0375 23.884C47.243 23.6772 47.3062 23.3681 47.1981 23.0973L46.11 20.3708C46.4015 19.7788 46.6465 19.1625 46.8415 18.5315L49.5573 17.3647C49.8258 17.2493 49.9999 16.985 49.9999 16.6928V12.873C50 12.5809 49.8259 12.3166 49.5574 12.2011ZM17.3221 44.1963L15.6246 44.2149C15.4023 44.2173 15.193 44.3208 15.0562 44.4961C14.7467 44.8924 14.3941 45.2559 14.0082 45.5764C13.8433 45.7135 13.7466 45.9162 13.7442 46.1308L13.7252 47.8121L12.2958 48.407L11.1808 47.3096C11.0189 47.1497 10.7893 47.0749 10.5661 47.1066C10.0105 47.1846 9.44788 47.1921 8.89381 47.1289C8.67402 47.1042 8.45559 47.1794 8.2983 47.334L7.20792 48.4059L5.77917 47.8104L5.76278 46.2725C5.76044 46.0533 5.65991 45.8467 5.48887 45.7097C5.05231 45.3598 4.65963 44.9539 4.32165 44.5032C4.18533 44.3214 3.97216 44.2133 3.74486 44.2107L2.18447 44.1929L1.59052 42.7496L2.76018 41.5477C2.90976 41.394 2.98436 41.1825 2.96427 40.9691C2.91718 40.4676 2.92371 39.9594 2.98397 39.4589C3.0104 39.2396 2.93629 39.0201 2.78232 38.8616L1.59237 37.6377L2.18749 36.1944L3.88489 36.1759C4.10732 36.1735 4.31667 36.07 4.45348 35.8947C4.7627 35.4986 5.1153 35.135 5.50135 34.8143C5.66634 34.6772 5.76298 34.4745 5.76532 34.26L5.78443 32.5787L7.21377 31.9838L8.32892 33.0812C8.49109 33.2407 8.71722 33.3158 8.94364 33.2842C9.41307 33.2183 9.88756 33.2027 10.358 33.2376C10.6414 33.3565 10.9942 33.2703 11.2114 33.0568L12.3017 31.9851L13.7305 32.5806L13.7469 34.1184C13.7492 34.3376 13.8498 34.5442 14.0208 34.6812C14.4572 35.031 14.8499 35.4369 15.188 35.8878C15.3244 36.0696 15.5376 36.1777 15.7648 36.1802L17.3252 36.198L17.9192 37.6413L16.899 38.6895C16.6724 38.8376 16.5202 39.1521 16.5455 39.4217C16.5926 39.9229 16.586 40.4311 16.5258 40.9321C16.4994 41.1514 16.5736 41.3708 16.7275 41.5292L17.9174 42.7532L17.3221 44.1963ZM30.5298 12.1796C31.4728 10.4332 33.2981 9.32726 35.2954 9.32726C40.9215 9.3963 42.7574 16.8347 37.8852 19.5766C36.3638 16.3432 33.7534 13.719 30.5298 12.1796ZM48.5373 16.2111L45.9481 17.3235C45.7445 17.4109 45.5916 17.5861 45.5322 17.7995C45.3211 18.559 45.0279 19.297 44.661 19.9934C44.5611 20.1828 44.5493 20.4065 44.6287 20.6054L45.6616 23.1934L43.6566 25.2096L41.2391 24.234C41.0281 24.1488 40.7892 24.1668 40.5932 24.2826C40.1775 24.5285 39.7445 24.7455 39.3001 24.9313C39.1926 23.5405 38.9002 22.2007 38.4473 20.9364C40.7362 19.7589 42.1793 17.4152 42.1793 14.783C42.0977 7.54776 32.5403 5.22579 29.1761 11.6108C27.9772 11.1733 26.7094 10.8801 25.3939 10.7525C25.5494 10.3489 25.7288 9.95388 25.9296 9.5726C26.0295 9.38313 26.0414 9.15944 25.9619 8.96052L24.9291 6.37244L26.934 4.35617L29.3515 5.33179C29.5626 5.41701 29.8015 5.39907 29.9975 5.28303C30.7555 4.83476 31.5661 4.48411 32.4066 4.24101C32.6179 4.17987 32.7905 4.02687 32.8765 3.82444L33.88 1.46269H36.7107L37.7142 3.82463C37.8002 4.02707 37.9727 4.18007 38.184 4.24121C39.0245 4.4843 39.8351 4.83496 40.5932 5.28322C40.7892 5.39917 41.0281 5.41711 41.2391 5.33198L43.6566 4.35637L45.6616 6.37254L44.6287 8.96061C44.5494 9.15954 44.5611 9.38313 44.661 9.5726C45.0279 10.2688 45.321 11.0069 45.5322 11.7664C45.5915 11.9799 45.7445 12.155 45.9481 12.2425L48.5373 13.3549V16.2111Z" fill="#404040"/>
<path d="M17.415 30.792H17.945C18.771 30.792 19.4428 30.12 19.4428 29.2941V24.8582C19.4428 24.0322 18.7709 23.3603 17.945 23.3603C17.6305 23.3536 17.2943 23.3491 16.9832 23.3852C18.6765 15.9436 29.0858 15.9071 30.7979 23.3852C30.4868 23.3491 30.1507 23.3536 29.8363 23.3603C29.0103 23.3603 28.3384 24.0322 28.3384 24.8582V29.2941C28.3384 30.12 29.0104 30.792 29.8363 30.792C30.16 30.7885 30.7197 30.7871 30.9443 30.7885C30.9443 32.1226 29.968 33.2328 28.6925 33.4424C28.3837 32.6426 27.6067 32.0737 26.6992 32.0737H25.295C22.462 32.1909 22.4622 36.228 25.295 36.345H26.6992C27.6296 36.345 28.4229 35.7471 28.715 34.9153C30.7888 34.6857 32.4071 32.9225 32.4071 30.7885V30.1801C34.6486 28.7329 34.6223 25.3565 32.3623 23.943C32.1494 21.8709 31.1855 19.9552 29.6422 18.5414C24.5505 13.818 16.0854 17.0604 15.4192 23.943C12.326 25.9324 13.6885 30.7586 17.415 30.792ZM26.6992 34.8824H25.295C24.4041 34.8507 24.4047 33.5678 25.295 33.5364H26.6992C27.5901 33.5681 27.5894 34.851 26.6992 34.8824ZM30.3662 29.3293C30.3684 29.329 29.801 29.3629 29.801 29.2941V24.8582C29.801 24.7894 30.3684 24.8232 30.3662 24.823C33.3562 24.9471 33.3539 29.2063 30.3662 29.3293ZM17.415 24.823C17.4127 24.8233 17.9802 24.7894 17.9802 24.8582V29.2941C17.9802 29.3629 17.4127 29.3291 17.415 29.3293C14.425 29.2052 14.4273 24.946 17.415 24.823Z" fill="#FF8000"/>
<path d="M11.5953 35.7388C10.4127 35.246 9.10983 35.2444 7.92603 35.7343C6.73667 36.2266 5.8105 37.1553 5.31815 38.3493C3.77463 42.0844 7.28196 45.9927 11.1478 44.8125C11.5342 44.6946 11.7517 44.2859 11.6337 43.8995C11.5159 43.5132 11.1069 43.2959 10.7208 43.4135C9.9853 43.6381 9.18833 43.5984 8.47688 43.3019C6.77411 42.5922 5.96379 40.6206 6.67036 38.9068C7.01341 38.0749 7.65797 37.4282 8.48536 37.0857C11.0863 35.9903 13.7834 38.5298 12.9399 41.2023C12.8191 41.5877 13.0335 41.9981 13.419 42.1189C13.8041 42.2399 14.2147 42.0253 14.3355 41.6399C14.6947 40.4944 14.6153 39.2614 14.112 38.1681C13.6053 37.0668 12.7115 36.204 11.5953 35.7388Z" fill="#404040"/>
</g>
<defs>
<clipPath id="clip0_287_6921">
<rect width="50" height="50" fill="white"/>
</clipPath>
</defs>
</svg>
