<svg width="24" height="24" viewBox="0 0 24 24" fill="none" xmlns="http://www.w3.org/2000/svg">
<path opacity="0.15" d="M4 4L9 12V18L15 21V12L20 4H4Z" fill="#404040"/>
<path fill-rule="evenodd" clip-rule="evenodd" d="M4.09402 4.38642C4.22619 4.14796 4.47736 4 4.75 4H20.75C21.0226 4 21.2738 4.14796 21.406 4.38642C21.5382 4.62489 21.5305 4.9163 21.386 5.1475L16.5 12.9651V21.75C16.5 22.0099 16.3654 22.2513 16.1443 22.388C15.9232 22.5246 15.6471 22.5371 15.4146 22.4208L9.41459 19.4208C9.1605 19.2938 9 19.0341 9 18.75V12.9651L4.114 5.1475C3.9695 4.9163 3.96185 4.62489 4.09402 4.38642ZM6.10319 5.5L10.386 12.3525C10.4605 12.4717 10.5 12.6094 10.5 12.75V18.2865L15 20.5365V12.75C15 12.6094 15.0395 12.4717 15.114 12.3525L19.3968 5.5H6.10319Z" fill="#404040"/>
</svg>
