<svg width="247" height="74" viewBox="0 0 247 74" fill="none" xmlns="http://www.w3.org/2000/svg">
<g clip-path="url(#clip0_968_5922)">
<path d="M178.754 50.4492H175.647V50.962H178.754V50.4492Z" fill="#404040"/>
<path d="M246.862 37.6074H184.604V55.5453H246.862V37.6074Z" fill="#404040"/>
<path fill-rule="evenodd" clip-rule="evenodd" d="M200.503 44.092H189.647V48.8388H200.503V51.1067H190.358C189.963 51.1425 189.565 51.0803 189.2 50.9257C188.832 50.8317 188.495 50.6424 188.223 50.3769C187.934 50.1151 187.693 49.8048 187.511 49.46C187.329 49.1257 187.237 48.7492 187.246 48.3683V45.1716C187.246 43.9653 187.511 43.0726 188.133 42.5237C188.893 41.9334 189.844 41.6416 190.805 41.7035H200.503V44.092Z" fill="white"/>
<path fill-rule="evenodd" clip-rule="evenodd" d="M201.758 51.1063L205.503 44.0554C205.662 43.7261 205.839 43.4059 206.034 43.0964C206.209 42.8156 206.411 42.553 206.637 42.3123C206.84 42.1165 207.083 41.9663 207.349 41.872C207.636 41.7692 207.937 41.7122 208.242 41.7031V44.2303L207.078 46.2328H208.242V48.6455H205.829L204.514 51.1063H201.758ZM208.26 41.7031C208.562 41.7127 208.862 41.7697 209.146 41.872C209.412 41.9663 209.655 42.1165 209.858 42.3123L210.389 43.0964C210.602 43.4255 210.782 43.7751 210.926 44.1399L214.665 51.1063H212.078L210.57 48.6937H208.26V46.2811H209.339L208.272 44.2786L208.26 41.7031Z" fill="white"/>
<path fill-rule="evenodd" clip-rule="evenodd" d="M237.374 47.6866H233.104V51.1065H230.613V41.7154H237.374V44.1582H233.104V45.3283H237.374V47.6866ZM242.199 41.9023C242.554 42.0523 242.884 42.2557 243.177 42.5055C243.512 42.7408 243.789 43.0504 243.985 43.4102C244.153 43.7902 244.242 44.2009 244.244 44.6165C244.249 45.0233 244.16 45.4257 243.985 45.7927C243.835 46.1529 243.632 46.4884 243.382 46.7879C243.077 47.0237 242.747 47.2259 242.398 47.3911C242.038 47.5618 241.645 47.6563 241.246 47.6685H237.416V45.3102H241.783V44.1401H237.416V41.6973H240.891C241.34 41.7151 241.787 41.7777 242.224 41.8842" fill="white"/>
<path fill-rule="evenodd" clip-rule="evenodd" d="M229.268 41.7148H229.352V51.118H227.217V43.844H218.055V51.118H215.92V41.7148H229.268Z" fill="white"/>
<path d="M39.8589 8.17381L37.7962 4.7901L41.6322 5.77928L44.2137 2.76953L44.461 6.7202L48.1222 8.24619L44.4369 9.70582L44.1172 13.6565L41.59 10.6045L37.7358 11.5213L39.8589 8.17381Z" fill="#FF8000"/>
<path d="M52.0425 13.8974L51.2946 10.001L54.5456 12.2749L58.0198 10.3629L56.8618 14.1567L59.7509 16.8709L55.7881 16.9373L54.0993 20.526L52.8086 16.7804L48.876 16.2798L52.0425 13.8974Z" fill="#FF8000"/>
<path d="M61.307 23.301L61.9524 19.3926L64.2142 22.6436L68.1348 22.0525L65.7402 25.207L67.5135 28.7536L63.7739 27.4507L60.9512 30.2313L61.0296 26.2746L57.5132 24.447L61.307 23.301Z" fill="#FF8000"/>
<path d="M44.7324 51.2569V35.1043C44.719 34.4465 44.5862 33.7966 44.3403 33.1863C44.0917 32.7014 43.7541 32.2676 43.3451 31.9076C42.942 31.5381 42.4558 31.2712 41.9277 31.1295C41.3976 30.9816 40.8495 30.9085 40.2992 30.9124C39.5927 30.8733 38.8874 31.0079 38.2449 31.3044C37.6025 31.6009 37.0425 32.0503 36.6139 32.6133L24.7016 51.0457V25.0316H20.2382V50.8346C20.2154 51.4381 20.3096 52.0403 20.5157 52.6079C20.7023 53.1758 20.9904 53.7051 21.3661 54.1701C21.7233 54.6588 22.2193 55.0287 22.7896 55.2317C23.3563 55.5281 23.9899 55.6736 24.6292 55.6539C25.2912 55.65 25.9448 55.5061 26.5472 55.2317C27.211 54.9195 27.8104 54.4858 28.3145 53.953L40.3354 35.6653V53.8806C40.3715 54.6104 40.9988 55.5935 41.7347 55.5935H54.021C51.1841 61.1275 46.4891 65.4857 40.7598 67.9037C35.0304 70.3217 28.6326 70.645 22.6887 68.8169C16.7447 66.9888 11.6343 63.1261 8.25401 57.9064C4.87367 52.6867 3.43929 46.4433 4.2025 40.2716C4.96571 34.1 7.87777 28.3941 12.4278 24.1551C16.9778 19.9161 22.8752 17.4146 29.0854 17.0895C35.2956 16.7645 41.422 18.6366 46.3897 22.3774C51.3574 26.1182 54.8493 31.4888 56.2526 37.5471H60.3601C59.9601 35.5281 59.3538 33.5555 58.5507 31.6603C55.8144 25.1832 50.9223 19.8517 44.7038 16.5698C38.4853 13.2879 31.3232 12.2575 24.4318 13.6534C17.5403 15.0494 11.3437 18.7857 6.89261 24.2288C2.44148 29.672 0.00976563 36.487 0.00976562 43.5184C0.00976562 50.5498 2.44148 57.3648 6.89261 62.8079C11.3437 68.2511 17.5403 71.9874 24.4318 73.3833C31.3232 74.7792 38.4853 73.7489 44.7038 70.467C50.9223 67.185 55.8144 61.8535 58.5507 55.3764C59.1166 54.0417 59.5823 52.6668 59.944 51.2629L44.7324 51.2569Z" fill="#404040"/>
<path fill-rule="evenodd" clip-rule="evenodd" d="M22.7354 10.8574C22.3313 11.5631 18.8089 19.2172 22.7354 21.0327C26.5655 19.2232 23.043 11.5631 22.7354 10.8574Z" fill="#404040"/>
<path d="M21.6859 2.68484C21.5291 3.92734 20.6484 6.75011 19.0742 11.0747V11.1049C18.073 15.4295 18.7123 19.0062 20.9681 21.7446L21.0586 21.8531H21.6195L21.5833 21.5154C21.3828 19.9157 21.4604 18.2935 21.8125 16.7203C22.1563 15.514 22.4157 14.5007 22.5846 13.7045C23.3311 15.69 23.6795 17.803 23.6099 19.923C23.6099 20.4478 23.6099 20.9966 23.5677 21.5636L23.5134 22.6191L24.1166 21.7506C27.7355 16.5574 27.0901 10.1097 22.2589 2.58231L21.8065 1.88867L21.6859 2.68484Z" fill="#FF8000"/>
<path d="M18.899 14.8628C18.9152 13.6212 19.069 12.3853 19.3574 11.1775C20.9658 6.81068 21.8424 3.99596 21.9872 2.73335C24.7255 6.99968 26.0987 10.886 26.1067 14.3924C26.125 16.9565 25.3357 19.4613 23.8509 21.5518C23.8509 20.9487 23.8992 20.4119 23.8992 19.875C23.8992 16.7809 23.4106 14.3923 22.4637 12.6854C22.3008 13.6263 21.9872 14.9352 21.5047 16.6542C21.275 17.6676 21.1576 18.7032 21.1548 19.7423C21.1541 20.3472 21.1904 20.9514 21.2634 21.5518H21.1789C19.6387 19.6688 18.8273 17.2946 18.893 14.8628M21.5891 0.990234L21.378 2.63685C21.2272 3.84316 20.3526 6.65387 18.7844 10.9604V10.9906V11.0267C18.2837 12.9974 18.1852 15.0487 18.4949 17.0583C18.8054 18.844 19.5768 20.5176 20.7326 21.9137L20.9136 22.1308H21.963L21.8786 21.4553C21.6852 19.8916 21.7628 18.3062 22.1078 16.7688C22.3249 15.9847 22.5059 15.285 22.6627 14.6698C23.2454 16.8958 23.4493 19.2039 23.2659 21.4975L23.1573 23.6086L24.3636 21.8715C26.1929 19.2694 27.0061 16.0875 26.6496 12.9267C26.3299 9.70584 24.9366 6.15928 22.5059 2.37146L21.5891 0.990234Z" fill="#404040"/>
<path d="M170.412 38.1749C171.119 38.5859 171.922 38.8025 172.74 38.8025C173.558 38.8025 174.361 38.5859 175.068 38.1749C175.621 37.7235 176.038 37.1288 176.275 36.4559L176.347 36.2568H174.182V37.2339H171.275V36.2749H169.115L169.182 36.474C169.418 37.1469 169.836 37.7416 170.388 38.193M178.549 37.6381C177.3 37.6381 176.456 37.9034 175.883 38.4704L169.043 45.1896C169.006 45.2171 168.974 45.2496 168.946 45.2861C168.88 45.3585 168.856 45.3886 168.777 45.3886C168.699 45.3886 168.675 45.3886 168.675 45.2981V37.7346H165.424V46.607C165.424 47.6082 166.353 48.1812 167.969 48.1812C168.458 48.2236 168.949 48.1663 169.415 48.0129C169.88 47.8594 170.31 47.613 170.677 47.2886L177.475 40.6116C177.551 40.5305 177.641 40.4631 177.74 40.4126C177.783 40.4126 177.909 40.4488 177.909 40.5453V48.0908H181.16V39.1279C181.16 38.1869 180.183 37.62 178.549 37.62M132.196 48.1812H135.755V37.62H132.232L132.196 48.1812ZM140.212 42.7528L146.937 37.8793L147.311 37.6079H141.647L141.605 37.6381L136.84 41.5103C136.515 41.7697 135.972 42.2824 135.972 42.7709C135.972 43.1569 136.334 43.6093 137.07 44.1642L142.45 48.139H142.486H148.282L147.872 47.8615L140.212 42.7528ZM161.926 37.6079C160.665 37.6079 159.845 37.8612 159.26 38.4342L152.42 45.1594C152.387 45.1887 152.356 45.221 152.329 45.2559C152.263 45.3283 152.239 45.3585 152.161 45.3585C152.082 45.3585 152.058 45.3585 152.058 45.268V37.7346H148.807V46.607C148.807 47.6082 149.73 48.1812 151.352 48.1812C151.841 48.2236 152.332 48.1663 152.798 48.0129C153.264 47.8594 153.693 47.613 154.06 47.2886L160.858 40.6116C161.045 40.4367 161.117 40.4126 161.123 40.4126C161.129 40.4126 161.292 40.4488 161.292 40.5453V48.0908H164.543V39.1279C164.543 38.1869 163.566 37.62 161.926 37.62M98.0876 37.62H97.9368H95.2588H95.108V41.456H85.3791V37.6079H82.3935V40.4066C82.3935 41.8059 82.7433 42.8192 83.443 43.4223C84.3237 44.096 85.4185 44.4281 86.5251 44.3572H95.1442V45.268H82.9906V48.1692H93.9921C95.1001 48.2361 96.1955 47.9045 97.0803 47.2343C97.78 46.6311 98.1238 45.6419 98.1238 44.2185V37.6381L98.0876 37.62ZM100.06 38.5307C99.3361 39.1339 98.9682 40.1351 98.9682 41.5465V45.0327C98.9621 45.4837 99.0789 45.9278 99.306 46.3175C99.5283 46.6969 99.8115 47.0372 100.144 47.3247C100.484 47.6372 100.9 47.8555 101.351 47.9581C101.794 48.1295 102.27 48.1996 102.744 48.1631H114.705V45.3765H102.099V40.491H114.735V37.6019H103.275C102.132 37.5294 100.999 37.8578 100.072 38.5307M116.683 38.5307C115.959 39.1339 115.591 40.1351 115.591 41.5465V45.0327C115.587 45.4808 115.701 45.922 115.923 46.3114C116.148 46.6927 116.433 47.035 116.767 47.3247C117.106 47.6414 117.522 47.8638 117.974 47.9701C118.417 48.1416 118.893 48.2117 119.367 48.1752H131.352V45.3826H118.685V40.5031H131.352V37.6139H119.892C118.747 37.5415 117.612 37.87 116.683 38.5428M78.3825 41.5525H68.8828V40.5634H78.4006L78.3825 41.5525ZM80.2764 38.5368C79.9022 38.2677 79.4921 38.0524 79.058 37.8974C78.583 37.7206 78.0811 37.6267 77.5742 37.62H65.7886V48.1812H68.8948V44.3994H77.8939C78.3692 44.3905 78.839 44.2966 79.2812 44.122C79.6926 43.9418 80.0716 43.6952 80.403 43.3922C80.7376 43.0888 81.0083 42.7218 81.1992 42.3125C81.4072 41.8899 81.5184 41.4264 81.5249 40.9554C81.5186 40.4884 81.4068 40.0288 81.1979 39.611C80.989 39.1933 80.6884 38.8281 80.3186 38.5428" fill="#FF8000"/>
<path d="M65.6738 51.3418V55.2744H66.8801V52.0294H70.3V51.3418H65.6738Z" fill="#404040"/>
<path d="M73.0266 52.0288H75.2945C75.958 52.0288 76.2173 52.2158 76.2173 52.6983C76.2173 53.1808 75.964 53.3919 75.2945 53.3919H73.0266V52.0288ZM71.8203 51.3412V55.2737H73.0266V54.0674H75.5478C76.8868 54.0674 77.4116 53.6814 77.4176 52.6862C77.4236 51.691 76.8868 51.3291 75.5297 51.3291L71.8203 51.3412Z" fill="#404040"/>
<path d="M78.3339 51.3415L80.8008 54.0979L80.9154 54.3271C80.9154 54.5262 80.6379 54.6287 80.0891 54.6287H79.884V55.2741H80.3424C81.2652 55.2741 81.5487 55.1836 82.3026 54.2909L84.7997 51.3415H83.3883L81.5788 53.6636L79.6849 51.3174H78.3037" fill="#404040"/>
<path d="M86.2715 51.3418V55.2744H87.4718V52.0294H91.0123V55.2744H92.2126V51.3418H86.2715Z" fill="#404040"/>
<path d="M93.8835 51.3418V55.2744H95.0899V52.0294H98.6304V55.2744H99.8307V51.3418H93.8835Z" fill="#404040"/>
<path d="M104.843 51.9391L104.957 52.0054L106.073 53.6098H103.661L104.843 51.9391ZM103.914 51.3359C103.884 51.3842 101.2 55.0876 101.073 55.2685H102.496C102.496 55.2263 103.166 54.2733 103.166 54.2733H106.489C106.544 54.2733 107.249 55.3168 107.249 55.3168H108.637L105.796 51.3601H103.914" fill="#404040"/>
<path d="M120.38 51.3412L117.968 52.843H117.093V51.3291H115.887V55.2617H117.093V53.5186H117.962C117.992 53.5186 120.549 55.2617 120.549 55.2617H122.256L118.957 53.1627L122.111 51.3532L120.38 51.3412Z" fill="#404040"/>
<path d="M124.898 53.8503V52.7707C124.898 52.1676 125.145 51.9806 126.014 51.9806H127.72C128.48 51.9806 128.842 52.0952 128.842 52.7647V53.8443C128.842 54.4475 128.613 54.5862 127.745 54.5862H125.989C125.248 54.5862 124.898 54.4776 124.898 53.8503ZM125.67 51.293C124.174 51.293 123.691 51.6307 123.691 52.6802V53.9529C123.691 54.9059 124.246 55.2738 125.67 55.2738H128.082C129.548 55.2738 130.019 54.9541 130.019 53.9529V52.6802C130.019 51.6428 129.53 51.293 128.082 51.293H125.67Z" fill="#404040"/>
<path d="M131.719 51.3417V55.2743H132.926V52.0293H133.161C133.215 52.0594 135.109 55.3044 135.109 55.3044H136.919C136.919 55.2501 138.764 52.0896 138.764 52.0896L138.994 52.0594H139.054V55.3044H140.26V51.3718H137.896L136.086 54.5867H135.954C135.899 54.5867 134.066 51.3115 134.066 51.3115L131.719 51.3417Z" fill="#404040"/>
<path d="M141.871 51.3418V55.2744H143.071V52.0294H146.611V55.2744H147.818V51.3418H141.871Z" fill="#404040"/>
<path d="M152.83 51.9391L152.939 52.0054L154.06 53.6098H151.618L152.83 51.9391ZM151.901 51.3359L149.054 55.2685H150.484C150.484 55.2263 151.153 54.2733 151.153 54.2733H154.477C154.525 54.2733 155.237 55.3168 155.237 55.3168H156.624L153.783 51.3601H151.901" fill="#404040"/>
<path d="M162.535 51.3418V52.8979H158.994V51.3418H157.788V55.2744H158.994V53.5795H162.535V55.2744H163.735V51.3418H162.535Z" fill="#404040"/>
<path d="M170.219 51.3412L166.865 54.5741H166.642H166.582V51.3291H165.375V55.2617H167.589L170.87 52.0348H171.093H171.154V55.2798H172.36V51.3472L170.219 51.3412Z" fill="#404040"/>
<path d="M178.947 51.3412L175.593 54.5741H175.37H175.31V51.3291H174.103V55.2617H176.317L179.598 52.0348H179.827H179.888V55.2798H181.094V51.3472L178.947 51.3412Z" fill="#404040"/>
</g>
<defs>
<clipPath id="clip0_968_5922">
<rect width="247" height="74" fill="white" transform="translate(-0.00390625 0.00195312)"/>
</clipPath>
</defs>
</svg>
