<svg width="20" height="20" viewBox="0 0 20 20" fill="none" xmlns="http://www.w3.org/2000/svg">
<g clip-path="url(#clip0_968_6198)">
<path d="M17.6389 9.30507H19.687C19.5393 7.21285 18.7152 5.2254 17.3391 3.6425L15.8926 5.08903C15.7623 5.21927 15.5857 5.29244 15.4015 5.29245C15.2173 5.29245 15.0407 5.21929 14.9105 5.08906C14.7802 4.95883 14.707 4.78219 14.707 4.59801C14.707 4.41383 14.7802 4.23719 14.9104 4.10694L16.357 2.66035C14.7741 1.28427 12.7867 0.460229 10.6944 0.3125V2.36062C10.6944 2.5448 10.6213 2.72144 10.491 2.85167C10.3608 2.9819 10.1842 3.05507 10 3.05507C9.81582 3.05507 9.63919 2.9819 9.50895 2.85167C9.37872 2.72144 9.30556 2.5448 9.30556 2.36062V0.3125C7.21334 0.460229 5.2259 1.28427 3.64299 2.66035L5.08958 4.10694C5.21982 4.23719 5.29298 4.41383 5.29297 4.59801C5.29296 4.78219 5.21979 4.95883 5.08955 5.08906C4.95931 5.21929 4.78267 5.29245 4.59848 5.29245C4.4143 5.29244 4.23766 5.21927 4.10743 5.08903L2.6609 3.6425C1.28481 5.2254 0.460742 7.21285 0.312988 9.30507H2.36111C2.54529 9.30507 2.72193 9.37823 2.85216 9.50847C2.98239 9.6387 3.05556 9.81533 3.05556 9.99951C3.05556 10.1837 2.98239 10.3603 2.85216 10.4906C2.72193 10.6208 2.54529 10.694 2.36111 10.694H0.312988C0.460717 12.7862 1.28476 14.7736 2.66084 16.3565L4.10743 14.9099C4.23767 14.7797 4.41432 14.7065 4.59851 14.7065C4.7827 14.7065 4.95934 14.7797 5.08958 14.9099C5.21983 15.0402 5.29299 15.2168 5.29299 15.401C5.29299 15.5852 5.21983 15.7618 5.08958 15.8921L3.64299 17.3387C5.2259 18.7148 7.21334 19.5388 9.30556 19.6865V17.6384C9.30556 17.4542 9.37872 17.2776 9.50895 17.1474C9.63919 17.0171 9.81582 16.944 10 16.944C10.1842 16.944 10.3608 17.0171 10.491 17.1474C10.6213 17.2776 10.6944 17.4542 10.6944 17.6384V19.6865C12.7867 19.5388 14.7741 18.7148 16.357 17.3387L14.9104 15.8921C14.7802 15.7618 14.707 15.5852 14.707 15.401C14.707 15.2168 14.7802 15.0402 14.9104 14.9099C15.0407 14.7797 15.2173 14.7065 15.4015 14.7065C15.5857 14.7065 15.7623 14.7797 15.8926 14.9099L17.3392 16.3565C18.7152 14.7736 19.5393 12.7862 19.687 10.694H17.6389C17.4547 10.694 17.2781 10.6208 17.1478 10.4906C17.0176 10.3603 16.9444 10.1837 16.9444 9.99951C16.9444 9.81533 17.0176 9.6387 17.1478 9.50847C17.2781 9.37823 17.4547 9.30507 17.6389 9.30507ZM11.5924 12.5738L9.50903 10.4905C9.44452 10.426 9.39334 10.3495 9.35843 10.2652C9.32351 10.181 9.30555 10.0907 9.30556 9.99951V4.44396C9.30556 4.25978 9.37872 4.08314 9.50895 3.95291C9.63919 3.82268 9.81582 3.74951 10 3.74951C10.1842 3.74951 10.3608 3.82268 10.491 3.95291C10.6213 4.08314 10.6944 4.25978 10.6944 4.44396V9.71194L12.5743 11.5919C13.2208 12.2192 12.22 13.2206 11.5924 12.5738Z" fill="#404040"/>
</g>
<defs>
<clipPath id="clip0_968_6198">
<rect width="20" height="20" fill="white"/>
</clipPath>
</defs>
</svg>
