<svg width="16" height="20" viewBox="0 0 16 20" fill="none" xmlns="http://www.w3.org/2000/svg">
<path d="M7.0125 19.5506C4.875 17.0363 0 10.9424 0 7.51946C0 3.36809 3.58333 0 8 0C12.4167 0 16 3.36809 16 7.51946C16 10.9424 11.125 17.0363 8.9875 19.5506C8.475 20.1498 7.525 20.1498 7.0125 19.5506ZM8 10.0259C9.47083 10.0259 10.6667 8.90194 10.6667 7.51946C10.6667 6.13698 9.47083 5.01297 8 5.01297C6.52917 5.01297 5.33333 6.13698 5.33333 7.51946C5.33333 8.90194 6.52917 10.0259 8 10.0259Z" fill="#404040"/>
</svg>
