<svg width="247" height="74" viewBox="0 0 247 74" fill="none" xmlns="http://www.w3.org/2000/svg">
<g clip-path="url(#clip0_949_3834)">
<path d="M178.758 50.4465H175.651V50.9593H178.758V50.4465Z" fill="#404040"/>
<path d="M246.866 37.6053H184.608V55.5432H246.866V37.6053Z" fill="#404040"/>
<path fill-rule="evenodd" clip-rule="evenodd" d="M200.507 44.0893H189.65V48.8361H200.507V51.104H190.362C189.967 51.1398 189.569 51.0776 189.204 50.923C188.836 50.829 188.499 50.6397 188.227 50.3742C187.938 50.1124 187.697 49.8021 187.515 49.4574C187.333 49.123 187.241 48.7465 187.25 48.3656V45.1689C187.25 43.9626 187.515 43.0699 188.136 42.5211C188.897 41.9307 189.848 41.6389 190.808 41.7008H200.507V44.0893Z" fill="white"/>
<path fill-rule="evenodd" clip-rule="evenodd" d="M201.762 51.104L205.507 44.0531C205.666 43.7238 205.843 43.4036 206.038 43.0941C206.213 42.8133 206.415 42.5507 206.641 42.31C206.844 42.1142 207.087 41.964 207.353 41.8697C207.64 41.7669 207.941 41.7099 208.246 41.7008V44.228L207.082 46.2305H208.246V48.6431H205.833L204.518 51.104H201.762ZM208.264 41.7008C208.566 41.7104 208.865 41.7674 209.15 41.8697C209.416 41.964 209.659 42.1142 209.862 42.31L210.393 43.0941C210.606 43.4232 210.786 43.7728 210.93 44.1376L214.669 51.104H212.082L210.574 48.6914H208.264V46.2788H209.343L208.276 44.2763L208.264 41.7008Z" fill="white"/>
<path fill-rule="evenodd" clip-rule="evenodd" d="M237.378 47.6842H233.108V51.1041H230.617V41.7129H237.378V44.1557H233.108V45.3258H237.378V47.6842ZM242.203 41.8999C242.558 42.0499 242.887 42.2533 243.18 42.5031C243.516 42.7383 243.793 43.048 243.989 43.4078C244.157 43.7877 244.246 44.1984 244.248 44.6141C244.253 45.0208 244.164 45.4233 243.989 45.7903C243.839 46.1504 243.635 46.4859 243.386 46.7855C243.08 47.0212 242.751 47.2235 242.402 47.3886C242.042 47.5594 241.649 47.6538 241.25 47.6661H237.42V45.3077H241.787V44.1376H237.42V41.6948H240.894C241.344 41.7126 241.79 41.7753 242.227 41.8818" fill="white"/>
<path fill-rule="evenodd" clip-rule="evenodd" d="M229.272 41.7129H229.356V51.1161H227.221V43.842H218.059V51.1161H215.924V41.7129H229.272Z" fill="white"/>
<path d="M39.8629 8.17131L37.8001 4.7876L41.6361 5.77678L44.2176 2.76703L44.4649 6.7177L48.1261 8.24368L44.4408 9.70332L44.1211 13.654L41.5939 10.602L37.7397 11.5188L39.8629 8.17131Z" fill="#FF8000"/>
<path d="M52.0465 13.8953L51.2985 9.9989L54.5495 12.2728L58.0237 10.3608L56.8657 14.1546L59.7548 16.8688L55.792 16.9352L54.1032 20.524L52.8125 16.7784L48.8799 16.2778L52.0465 13.8953Z" fill="#FF8000"/>
<path d="M61.3109 23.2985L61.9563 19.39L64.2182 22.641L68.1387 22.0499L65.7441 25.2044L67.5174 28.751L63.7778 27.4482L60.9551 30.2287L61.0335 26.272L57.5171 24.4445L61.3109 23.2985Z" fill="#FF8000"/>
<path d="M44.7363 51.2548V35.1023C44.7229 34.4444 44.5901 33.7945 44.3442 33.1842C44.0956 32.6993 43.758 32.2656 43.349 31.9055C42.9459 31.536 42.4597 31.2691 41.9316 31.1275C41.4015 30.9796 40.8534 30.9065 40.3031 30.9103C39.5966 30.8712 38.8913 31.0058 38.2488 31.3023C37.6064 31.5988 37.0464 32.0482 36.6178 32.6112L24.7055 51.0437V25.0296H20.2421V50.8326C20.2193 51.436 20.3136 52.0382 20.5196 52.6058C20.7062 53.1737 20.9943 53.703 21.37 54.168C21.7272 54.6567 22.2232 55.0266 22.7935 55.2296C23.3602 55.5261 23.9938 55.6715 24.6331 55.6518C25.2951 55.6479 25.9487 55.504 26.5511 55.2296C27.2149 54.9174 27.8143 54.4837 28.3184 53.9509L40.3393 35.6632V53.8785C40.3755 54.6083 41.0027 55.5915 41.7386 55.5915H54.0249C51.188 61.1254 46.493 65.4836 40.7637 67.9016C35.0343 70.3196 28.6365 70.6429 22.6926 68.8148C16.7486 66.9867 11.6382 63.124 8.25791 57.9043C4.87758 52.6846 3.4432 46.4412 4.20641 40.2696C4.96962 34.0979 7.88167 28.392 12.4317 24.153C16.9817 19.914 22.8791 17.4125 29.0893 17.0875C35.2995 16.7624 41.4259 18.6345 46.3936 22.3753C51.3613 26.1161 54.8532 31.4868 56.2565 37.545H60.364C59.964 35.526 59.3577 33.5534 58.5546 31.6583C55.8183 25.1811 50.9262 19.8496 44.7077 16.5677C38.4892 13.2858 31.3271 12.2554 24.4357 13.6514C17.5442 15.0473 11.3476 18.7836 6.89651 24.2267C2.44539 29.6699 0.0136719 36.4849 0.0136719 43.5163C0.0136719 50.5477 2.44539 57.3627 6.89651 62.8058C11.3476 68.249 17.5442 71.9853 24.4357 73.3812C31.3271 74.7771 38.4892 73.7468 44.7077 70.4649C50.9262 67.183 55.8183 61.8515 58.5546 55.3743C59.1205 54.0397 59.5862 52.6647 59.9479 51.2608L44.7363 51.2548Z" fill="#404040"/>
<path fill-rule="evenodd" clip-rule="evenodd" d="M22.7393 10.8554C22.3352 11.5611 18.8128 19.2152 22.7393 21.0307C26.5694 19.2212 23.0469 11.5611 22.7393 10.8554Z" fill="#404040"/>
<path d="M21.6898 2.68264C21.533 3.92515 20.6524 6.74792 19.0781 11.0725V11.1027C18.0769 15.4273 18.7162 19.004 20.972 21.7424L21.0625 21.8509H21.6234L21.5872 21.5132C21.3867 19.9135 21.4643 18.2913 21.8164 16.7181C22.1602 15.5118 22.4196 14.4985 22.5885 13.7023C23.335 15.6878 23.6834 17.8008 23.6138 19.9208C23.6138 20.4456 23.6138 20.9944 23.5716 21.5614L23.5173 22.6169L24.1205 21.7484C27.7394 16.5552 27.0941 10.1075 22.2628 2.58011L21.8104 1.88647L21.6898 2.68264Z" fill="#FF8000"/>
<path d="M18.9032 14.8604C18.9194 13.6188 19.0731 12.3828 19.3616 11.1751C20.97 6.80824 21.8466 3.99352 21.9913 2.73091C24.7297 6.99724 26.1028 10.8836 26.1109 14.3899C26.1291 16.954 25.3399 19.4588 23.8551 21.5494C23.8551 20.9462 23.9033 20.4094 23.9033 19.8726C23.9033 16.7784 23.4148 14.3899 22.4678 12.683C22.305 13.6239 21.9913 14.9328 21.5088 16.6518C21.2791 17.6652 21.1618 18.7008 21.159 19.7399C21.1583 20.3447 21.1945 20.949 21.2675 21.5494H21.1831C19.6429 19.6664 18.8315 17.2922 18.8971 14.8604M21.5932 0.987793L21.3821 2.63441C21.2314 3.84072 20.3568 6.65143 18.7886 10.958V10.9881V11.0243C18.2878 12.995 18.1894 15.0463 18.4991 17.0559C18.8096 18.8415 19.5809 20.5152 20.7368 21.9113L20.9177 22.1284H21.9672L21.8828 21.4529C21.6894 19.8891 21.7669 18.3038 22.112 16.7664C22.3291 15.9822 22.51 15.2826 22.6669 14.6674C23.2495 16.8933 23.4534 19.2015 23.27 21.4951L23.1614 23.6061L24.3678 21.869C26.1971 19.2669 27.0103 16.085 26.6537 12.9243C26.334 9.7034 24.9408 6.15683 22.51 2.36902L21.5932 0.987793Z" fill="#404040"/>
<path d="M170.416 38.1724C171.123 38.5834 171.926 38.8 172.744 38.8C173.562 38.8 174.365 38.5834 175.072 38.1724C175.625 37.721 176.042 37.1263 176.279 36.4534L176.351 36.2543H174.186V37.2314H171.278V36.2724H169.119L169.185 36.4715C169.422 37.1443 169.839 37.7391 170.392 38.1905M178.552 37.6356C177.304 37.6356 176.46 37.9009 175.887 38.4679L169.047 45.1871C169.01 45.2146 168.978 45.2471 168.95 45.2836C168.884 45.356 168.86 45.3861 168.781 45.3861C168.703 45.3861 168.679 45.3861 168.679 45.2956V37.7321H165.428V46.6045C165.428 47.6057 166.357 48.1787 167.973 48.1787C168.461 48.2211 168.953 48.1638 169.419 48.0104C169.884 47.8569 170.314 47.6105 170.681 47.2861L177.479 40.6091C177.555 40.528 177.645 40.4606 177.744 40.4101C177.786 40.4101 177.913 40.4463 177.913 40.5428V48.0882H181.164V39.1254C181.164 38.1844 180.187 37.6175 178.552 37.6175M132.2 48.1787H135.759V37.6175H132.236L132.2 48.1787ZM140.216 42.7503L146.941 37.8768L147.315 37.6054H141.651L141.609 37.6356L136.844 41.5078C136.519 41.7672 135.976 42.2799 135.976 42.7684C135.976 43.1544 136.338 43.6068 137.073 44.1617L142.454 48.1365H142.49H148.286L147.876 47.859L140.216 42.7503ZM161.93 37.6054C160.669 37.6054 159.849 37.8587 159.264 38.4317L152.424 45.1569C152.391 45.1862 152.36 45.2185 152.333 45.2534C152.267 45.3258 152.243 45.356 152.164 45.356C152.086 45.356 152.062 45.356 152.062 45.2655V37.7321H148.811V46.6045C148.811 47.6057 149.734 48.1787 151.356 48.1787C151.845 48.2211 152.336 48.1638 152.802 48.0104C153.267 47.8569 153.697 47.6105 154.064 47.2861L160.862 40.6091C161.049 40.4342 161.121 40.4101 161.127 40.4101C161.133 40.4101 161.296 40.4463 161.296 40.5428V48.0882H164.547V39.1254C164.547 38.1844 163.57 37.6175 161.93 37.6175M98.0915 37.6175H97.9407H95.2627H95.1119V41.4535H85.383V37.6054H82.3974V40.404C82.3974 41.8034 82.7472 42.8167 83.4469 43.4198C84.3276 44.0935 85.4224 44.4256 86.529 44.3547H95.1481V45.2655H82.9945V48.1667H93.996C95.104 48.2336 96.1994 47.902 97.0842 47.2318C97.7839 46.6286 98.1277 45.6394 98.1277 44.216V37.6356L98.0915 37.6175ZM100.064 38.5282C99.34 39.1314 98.9721 40.1326 98.9721 41.544V45.0302C98.966 45.4812 99.0828 45.9253 99.3099 46.315C99.5322 46.6944 99.8154 47.0347 100.148 47.3222C100.488 47.6347 100.904 47.853 101.355 47.9556C101.798 48.127 102.274 48.1971 102.748 48.1606H114.708V45.374H102.102V40.4885H114.739V37.5994H103.279C102.135 37.5269 101.003 37.8553 100.076 38.5282M116.687 38.5282C115.963 39.1314 115.595 40.1326 115.595 41.544V45.0302C115.591 45.4783 115.705 45.9195 115.927 46.3089C116.151 46.6902 116.437 47.0325 116.771 47.3222C117.11 47.6389 117.526 47.8613 117.978 47.9676C118.421 48.1391 118.897 48.2092 119.371 48.1727H131.356V45.3801H118.689V40.5006H131.356V37.6114H119.896C118.751 37.539 117.616 37.8674 116.687 38.5403M78.3864 41.55H68.8867V40.5609H78.4045L78.3864 41.55ZM80.2803 38.5343C79.9061 38.2651 79.496 38.0499 79.0619 37.8949C78.5869 37.7181 78.085 37.6242 77.5781 37.6175H65.7925V48.1787H68.8987V44.3969H77.8978C78.3731 44.388 78.8429 44.2941 79.2851 44.1195C79.6965 43.9393 80.0755 43.6927 80.4069 43.3897C80.7415 43.0863 81.0122 42.7193 81.2031 42.31C81.4111 41.8874 81.5223 41.4239 81.5288 40.9529C81.5225 40.4859 81.4107 40.0263 81.2018 39.6085C80.9929 39.1908 80.6923 38.8256 80.3225 38.5403" fill="#FF8000"/>
<path d="M65.678 51.3392V55.2718H66.8843V52.0268H70.3042V51.3392H65.678Z" fill="#404040"/>
<path d="M73.0303 52.0268H75.2981C75.9616 52.0268 76.221 52.2138 76.221 52.6963C76.221 53.1788 75.9677 53.39 75.2981 53.39H73.0303V52.0268ZM71.824 51.3392V55.2718H73.0303V54.0655H75.5515C76.8905 54.0655 77.4152 53.6795 77.4213 52.6842C77.4273 51.689 76.8905 51.3271 75.5334 51.3271L71.824 51.3392Z" fill="#404040"/>
<path d="M78.338 51.3393L80.8049 54.0957L80.9195 54.3249C80.9195 54.5239 80.6421 54.6264 80.0932 54.6264H79.8881V55.2718H80.3465C81.2694 55.2718 81.5528 55.1813 82.3068 54.2887L84.8039 51.3393H83.3925L81.583 53.6614L79.6891 51.3151H78.3079" fill="#404040"/>
<path d="M86.2756 51.3392V55.2718H87.4759V52.0268H91.0164V55.2718H92.2167V51.3392H86.2756Z" fill="#404040"/>
<path d="M93.8875 51.3392V55.2718H95.0938V52.0268H98.6343V55.2718H99.8346V51.3392H93.8875Z" fill="#404040"/>
<path d="M104.847 51.9363L104.961 52.0027L106.077 53.6071H103.664L104.847 51.9363ZM103.918 51.3332C103.888 51.3814 101.204 55.0848 101.077 55.2658H102.5C102.5 55.2235 103.17 54.2706 103.17 54.2706H106.493C106.548 54.2706 107.253 55.314 107.253 55.314H108.64L105.8 51.3573H103.918" fill="#404040"/>
<path d="M120.384 51.3392L117.972 52.8411H117.097V51.3271H115.891V55.2597H117.097V53.5166H117.965C117.996 53.5166 120.553 55.2597 120.553 55.2597H122.26L118.961 53.1607L122.115 51.3513L120.384 51.3392Z" fill="#404040"/>
<path d="M124.902 53.8483V52.7686C124.902 52.1655 125.149 51.9785 126.017 51.9785H127.724C128.484 51.9785 128.846 52.0931 128.846 52.7626V53.8423C128.846 54.4454 128.617 54.5841 127.749 54.5841H125.993C125.251 54.5841 124.902 54.4756 124.902 53.8483ZM125.674 51.2909C124.178 51.2909 123.695 51.6287 123.695 52.6781V53.9508C123.695 54.9038 124.25 55.2717 125.674 55.2717H128.086C129.552 55.2717 130.022 54.9521 130.022 53.9508V52.6781C130.022 51.6407 129.534 51.2909 128.086 51.2909H125.674Z" fill="#404040"/>
<path d="M131.723 51.3393V55.2718H132.93V52.0268H133.165C133.219 52.057 135.113 55.302 135.113 55.302H136.923C136.923 55.2477 138.768 52.0872 138.768 52.0872L138.997 52.057H139.058V55.302H140.264V51.3694H137.9L136.09 54.5842H135.958C135.903 54.5842 134.07 51.3091 134.07 51.3091L131.723 51.3393Z" fill="#404040"/>
<path d="M141.875 51.3392V55.2718H143.075V52.0268H146.615V55.2718H147.822V51.3392H141.875Z" fill="#404040"/>
<path d="M152.834 51.9363L152.942 52.0027L154.064 53.6071H151.622L152.834 51.9363ZM151.905 51.3332L149.058 55.2658H150.488C150.488 55.2235 151.157 54.2706 151.157 54.2706H154.48C154.529 54.2706 155.24 55.314 155.24 55.314H156.628L153.787 51.3573H151.905" fill="#404040"/>
<path d="M162.539 51.3392V52.8953H158.998V51.3392H157.792V55.2718H158.998V53.5769H162.539V55.2718H163.739V51.3392H162.539Z" fill="#404040"/>
<path d="M170.223 51.3392L166.869 54.5721H166.646H166.586V51.3271H165.379V55.2597H167.593L170.874 52.0328H171.097H171.158V55.2778H172.364V51.3452L170.223 51.3392Z" fill="#404040"/>
<path d="M178.951 51.3392L175.597 54.5721H175.374H175.313V51.3271H174.107V55.2597H176.321L179.602 52.0328H179.831H179.891V55.2778H181.098V51.3452L178.951 51.3392Z" fill="#404040"/>
</g>
<defs>
<clipPath id="clip0_949_3834">
<rect width="247" height="74" fill="white"/>
</clipPath>
</defs>
</svg>
