<svg width="36" height="36" viewBox="0 0 36 36" fill="none" xmlns="http://www.w3.org/2000/svg">
<mask id="mask0_949_3805" style="mask-type:luminance" maskUnits="userSpaceOnUse" x="0" y="0" width="36" height="36">
<path d="M28.3623 0H7.63755C3.41945 0 0 3.41945 0 7.63755V28.3623C0 32.5804 3.41945 35.9999 7.63755 35.9999H28.3623C32.5804 35.9999 35.9999 32.5804 35.9999 28.3623V7.63755C35.9999 3.41945 32.5804 0 28.3623 0Z" fill="white"/>
</mask>
<g mask="url(#mask0_949_3805)">
<g clip-path="url(#clip0_949_3805)">
<path d="M25.5652 10.5155C25.5652 10.5155 27.3638 9.85593 27.2133 11.4577C27.1638 12.1173 26.7143 14.426 26.3643 16.9229L25.1652 24.3199C25.1652 24.3199 25.0652 25.4035 24.1657 25.592C23.2666 25.7801 21.9176 24.9324 21.6676 24.7439C21.4676 24.6024 17.9204 22.4822 16.6714 21.446C16.3214 21.163 15.9214 20.5979 16.7214 19.9383L21.9671 15.2267C22.5666 14.6616 23.1662 13.3424 20.6681 14.9441L13.6728 19.4198C13.6728 19.4198 12.8733 19.8913 11.3747 19.4672L8.12657 18.5246C8.12657 18.5246 6.92752 17.818 8.9761 17.1114C13.9728 14.8971 20.1185 12.6358 25.5643 10.5155H25.5652Z" fill="white"/>
</g>
</g>
<defs>
<clipPath id="clip0_949_3805">
<rect width="21" height="16" fill="white" transform="translate(7 10)"/>
</clipPath>
</defs>
</svg>
