<svg width="36" height="36" viewBox="0 0 36 36" fill="none" xmlns="http://www.w3.org/2000/svg">
<mask id="mask0_949_3813" style="mask-type:luminance" maskUnits="userSpaceOnUse" x="0" y="0" width="36" height="36">
<path d="M28.3623 0H7.63755C3.41945 0 0 3.41945 0 7.63755V28.3623C0 32.5804 3.41945 35.9999 7.63755 35.9999H28.3623C32.5804 35.9999 35.9999 32.5804 35.9999 28.3623V7.63755C35.9999 3.41945 32.5804 0 28.3623 0Z" fill="white"/>
</mask>
<g mask="url(#mask0_949_3813)">
<path fill-rule="evenodd" clip-rule="evenodd" d="M29.435 11.9722C29.613 11.4239 29.435 11.0253 28.6475 11.0253H26.029C25.3685 11.0253 25.0635 11.3743 24.8855 11.7476C24.8855 11.7476 23.5385 14.9365 21.6575 17.004C21.0475 17.6019 20.768 17.8012 20.4375 17.8012C20.2595 17.8012 20.0305 17.6019 20.0305 17.054V11.9465C20.0305 11.299 19.8275 11 19.268 11H15.15C14.743 11 14.489 11.299 14.489 11.5979C14.489 12.2206 15.4295 12.3703 15.531 14.114V17.9028C15.531 18.7248 15.381 18.875 15.048 18.875C14.1585 18.875 11.998 15.6613 10.702 11.9994C10.45 11.2742 10.194 11 9.533 11H6.8895C6.127 11 6 11.3485 6 11.7224C6 12.3951 6.8895 15.7828 10.143 20.2667C12.3035 23.3292 15.379 24.9752 18.1495 24.9752C19.8275 24.9752 20.0305 24.6014 20.0305 23.9787V21.6619C20.0305 20.9147 20.183 20.7903 20.717 20.7903C21.098 20.7903 21.7845 20.9891 23.335 22.4591C25.114 24.2028 25.419 25 26.4105 25H29.0285C29.791 25 30.147 24.6262 29.9435 23.9038C29.715 23.1815 28.8505 22.1353 27.732 20.8899C27.122 20.1928 26.207 19.4204 25.9275 19.0466C25.5465 18.5483 25.648 18.349 25.9275 17.9008C25.902 17.9008 29.105 13.4665 29.435 11.9703" fill="white"/>
</g>
</svg>
