<svg width="36" height="36" viewBox="0 0 36 36" fill="none" xmlns="http://www.w3.org/2000/svg">
<mask id="mask0_949_3797" style="mask-type:luminance" maskUnits="userSpaceOnUse" x="0" y="0" width="36" height="36">
<path d="M28.3623 0H7.63755C3.41945 0 0 3.41945 0 7.63755V28.3623C0 32.5804 3.41945 35.9999 7.63755 35.9999H28.3623C32.5804 35.9999 35.9999 32.5804 35.9999 28.3623V7.63755C35.9999 3.41945 32.5804 0 28.3623 0Z" fill="white"/>
</mask>
<g mask="url(#mask0_949_3797)">
<path d="M29.4976 10.0089C30.7538 10.0089 31.7721 8.99053 31.7721 7.73438C31.7721 6.47822 30.7538 5.4599 29.4976 5.4599C28.2415 5.4599 27.2231 6.47822 27.2231 7.73438C27.2231 8.99053 28.2415 10.0089 29.4976 10.0089Z" fill="#F41240"/>
<path d="M22.7386 9.75739H6.75366V27.5273H11.2028V21.7461H19.7281L23.6178 27.5273H28.5998L24.3105 21.7194C25.6425 21.5063 26.6017 21.0001 27.1878 20.2009C27.7739 19.4017 28.067 18.1228 28.067 16.4178V15.0857C28.067 14.0733 27.9604 13.2741 27.7739 12.6613C27.5874 12.0486 27.2677 11.5157 26.8148 11.0362C26.3352 10.5833 25.8024 10.2636 25.163 10.0504C24.5236 9.86391 23.7243 9.75739 22.7386 9.75739ZM22.0193 17.8298H11.2028V13.6737H22.0193C22.632 13.6737 23.0583 13.7802 23.2715 13.9668C23.4846 14.1533 23.6178 14.4996 23.6178 15.0058V16.4977C23.6178 17.0305 23.4846 17.3769 23.2715 17.5633C23.0583 17.7499 22.632 17.8298 22.0193 17.8298Z" fill="white"/>
</g>
</svg>
