<svg width="56" height="50" viewBox="0 0 56 50" fill="none" xmlns="http://www.w3.org/2000/svg">
<path d="M38.8624 26.0145H51.8901C51.6679 38.816 49.1124 40.9267 41.1401 45.5868C40.2235 46.1351 39.9179 47.2864 40.4735 48.2184C41.029 49.123 42.1957 49.4245 43.1401 48.8763C52.529 43.3938 55.8068 40.0495 55.8068 24.0956V9.32037C55.8068 4.63287 51.9457 0.849976 47.2235 0.849976H38.8901C34.0012 0.849976 30.3068 4.49581 30.3068 9.32037V17.5441C30.279 22.3686 33.9735 26.0145 38.8624 26.0145Z" fill="#FF8000"/>
<path d="M8.80599 26.0145H21.8338C21.6115 38.816 19.056 40.9267 11.0838 45.5868C10.1671 46.1351 9.86154 47.2864 10.4171 48.2184C10.9727 49.123 12.1393 49.4245 13.0838 48.8763C22.4727 43.3938 25.7504 40.0495 25.7504 24.0956V9.32037C25.7504 4.63287 21.8893 0.849976 17.1671 0.849976H8.83377C3.9171 0.849976 0.222656 4.49581 0.222656 9.32037V17.5441C0.222656 22.3686 3.9171 26.0145 8.80599 26.0145Z" fill="#FF8000"/>
</svg>
