<svg width="56" height="50" viewBox="0 0 56 50" fill="none" xmlns="http://www.w3.org/2000/svg">
<path d="M17.1376 23.9854H4.10987C4.33209 11.1839 6.88765 9.07315 14.8599 4.41306C15.7765 3.86481 16.0821 2.7135 15.5265 1.78148C14.971 0.876881 13.8043 0.575344 12.8599 1.12359C3.47098 6.60604 0.193201 9.95034 0.193201 25.9043V40.6795C0.193201 45.367 4.05431 49.1499 8.77654 49.1499H17.1099C21.9988 49.1499 25.6932 45.5041 25.6932 40.6795V32.4558C25.721 27.6313 22.0265 23.9854 17.1376 23.9854Z" fill="#FF8000"/>
<path d="M47.194 23.9854H34.1662C34.3885 11.1839 36.944 9.07315 44.9162 4.41306C45.8329 3.86481 46.1385 2.7135 45.5829 1.78148C45.0273 0.876881 43.8607 0.575344 42.9162 1.12359C33.5273 6.60604 30.2496 9.95034 30.2496 25.9043V40.6795C30.2496 45.367 34.1107 49.1499 38.8329 49.1499H47.1662C52.0829 49.1499 55.7773 45.5041 55.7773 40.6795V32.4558C55.7773 27.6313 52.0829 23.9854 47.194 23.9854Z" fill="#FF8000"/>
</svg>
