<svg width="50" height="50" viewBox="0 0 50 50" fill="none" xmlns="http://www.w3.org/2000/svg">
<g clip-path="url(#clip0_351_18638)">
<path d="M2.07166 20.628C1.04966 20.7938 0.259072 21.6131 0.129995 22.6405C-0.0416146 24.1965 -0.0433422 25.7666 0.124976 27.323C0.242289 28.3662 1.03773 29.2048 2.07331 29.3771L4.72494 29.8112C5.23401 31.9796 6.09338 34.0504 7.26906 35.942L5.70828 38.122C5.08634 38.9653 5.1014 40.1193 5.74497 40.9462C6.2417 41.5539 6.77027 42.135 7.32829 42.687C7.83999 43.1996 8.40574 43.7146 9.08494 44.2853C9.90522 44.9161 11.0435 44.9293 11.8782 44.3178L14.069 42.7462C15.9588 43.9217 18.0275 44.7813 20.194 45.2911L20.629 47.9469C20.7944 48.9693 21.6139 49.7603 22.6415 49.8894C23.1165 49.9427 23.599 49.9803 24.0848 50.0003H24.1556C24.5899 49.9999 25.0076 49.8328 25.3223 49.5336C25.6494 49.2209 25.834 48.7878 25.833 48.3352V41.657C25.8281 40.7646 25.1237 40.0331 24.2322 39.9945C16.2562 39.5781 10.0025 32.9895 10.0025 25.0026C10.0025 17.0156 16.2562 10.427 24.2322 10.0106C25.1251 9.97144 25.8299 9.23778 25.833 8.34395V1.66904C25.8344 1.216 25.6493 0.782449 25.3213 0.469916C24.9939 0.148663 24.547 -0.0208897 24.0888 0.00239195C23.6039 0.0215602 23.123 0.0565237 22.6297 0.106542C21.6026 0.23891 20.7871 1.03476 20.6297 2.05817L20.1955 4.71145C18.0291 5.22167 15.9603 6.08152 14.0706 7.25729L11.8798 5.68894C11.0373 5.07285 9.88803 5.09119 9.06569 5.73394C8.46152 6.22853 7.88326 6.75389 7.33322 7.30813C6.76632 7.86228 6.23265 8.44942 5.73494 9.06642C5.09909 9.88778 5.08281 11.0306 5.69496 11.8698L7.26577 14.0631C6.09107 15.9546 5.23286 18.0252 4.72494 20.1931L2.07166 20.628ZM6.23249 21.093C6.71696 18.7393 7.64641 16.4998 8.97083 14.4947C9.16062 14.2064 9.15297 13.8309 8.95167 13.5506L7.05088 10.8965C6.87516 10.6645 6.87006 10.3455 7.03838 10.1081C7.49513 9.54201 7.98519 9.00357 8.50586 8.49557C9.01164 7.98469 9.54284 7.49956 10.0975 7.04224C10.3362 6.86026 10.6671 6.86026 10.9058 7.04224L13.5558 8.94393C13.8365 9.14474 14.212 9.15165 14.5 8.96145C16.5034 7.63654 18.7416 6.70675 21.0941 6.22228C21.4323 6.1526 21.6925 5.88145 21.7483 5.54062L22.2724 2.33146C22.3101 2.0436 22.5312 1.81408 22.8175 1.76562C23.2583 1.7198 23.705 1.68731 24.1666 1.66896L24.1483 8.34469C15.2764 8.79782 8.31681 16.1259 8.32175 25.0095C8.3266 33.893 15.2942 41.2135 24.1666 41.6568L24.155 48.3351C23.7074 48.3167 23.2642 48.2818 22.8267 48.2326C22.5391 48.1905 22.3137 47.9638 22.2733 47.6759L21.7483 44.4651C21.6925 44.1242 21.4324 43.8532 21.0941 43.7834C18.7416 43.2985 16.5034 42.3686 14.5 41.0434C14.2118 40.8534 13.8364 40.8607 13.5558 41.0618L10.9034 42.9651C10.6771 43.141 10.3629 43.1495 10.1275 42.9859C9.51503 42.4701 8.98416 41.986 8.50586 41.5084C7.9949 41.0035 7.5101 40.4729 7.05335 39.9184C6.8736 39.6784 6.8736 39.3485 7.05335 39.1084L8.95249 36.4568C9.15355 36.1762 9.16087 35.8008 8.97083 35.5126C7.64633 33.5079 6.71688 31.2686 6.23249 28.9152C6.16289 28.5772 5.89215 28.3171 5.55165 28.261L2.34331 27.7351C2.04468 27.6858 1.8154 27.4436 1.78249 27.1427C1.62643 25.7093 1.62808 24.2631 1.78751 22.8302C1.82898 22.5424 2.05537 22.3163 2.34331 22.2752L5.55074 21.7502C5.89256 21.6943 6.16396 21.4326 6.23249 21.093Z" fill="#FF8000"/>
<path d="M47.4995 22.5019C46.4439 22.5063 45.5048 23.1733 45.1528 24.1686H25.8331V21.6685H39.1663C40.547 21.6685 41.6662 20.5493 41.6662 19.1686V14.8487C42.8142 14.4428 43.5027 13.269 43.2968 12.0689C43.0909 10.8689 42.0504 9.9917 40.8328 9.9917C39.6153 9.9917 38.5748 10.8689 38.3688 12.0689C38.1629 13.269 38.8515 14.4428 39.9995 14.8487V19.1686C39.9995 19.6288 39.6264 20.002 39.1661 20.002H25.8331V17.5019H34.9996C35.4598 17.5019 35.8329 17.1289 35.8329 16.6686C35.8329 16.2083 35.4598 15.8352 34.9996 15.8352H25.8331V14.1686H30.833C32.2137 14.1686 33.333 13.0493 33.333 11.6686V6.51542C34.481 6.10959 35.1696 4.93572 34.9636 3.73569C34.7577 2.53566 33.7172 1.65845 32.4997 1.65845C31.2821 1.65845 30.2416 2.53566 30.0357 3.73569C29.8298 4.93572 30.5183 6.10959 31.6663 6.51542V11.6687C31.6663 12.1289 31.2932 12.5021 30.8329 12.5021H25.613C25.3263 11.9692 24.7541 11.6537 24.1505 11.6955C17.1281 12.1403 11.6602 17.9655 11.6602 25.002C11.6602 32.0385 17.1281 37.8637 24.1505 38.3085H24.248C24.8173 38.3133 25.3426 38.0028 25.613 37.5019H30.8329C31.2931 37.5019 31.6663 37.875 31.6663 38.3353V43.4886C30.5183 43.8944 29.8298 45.0683 30.0357 46.2683C30.2416 47.4683 31.2821 48.3455 32.4997 48.3455C33.7172 48.3455 34.7577 47.4683 34.9636 46.2683C35.1696 45.0683 34.481 43.8944 33.333 43.4886V38.3353C33.333 36.9546 32.2138 35.8353 30.833 35.8353H25.8331V34.1686H34.9996C35.4598 34.1686 35.8329 33.7955 35.8329 33.3353C35.8329 32.8751 35.4598 32.502 34.9996 32.502H25.8331V30.002H39.1663C39.6265 30.002 39.9996 30.3751 39.9996 30.8353V35.1552C38.8517 35.5611 38.1631 36.7349 38.369 37.935C38.5749 39.135 39.6154 40.0122 40.833 40.0122C42.0505 40.0122 43.0911 39.135 43.297 37.935C43.5029 36.7349 42.8143 35.5611 41.6664 35.1552V30.8353C41.6664 29.4546 40.5471 28.3354 39.1664 28.3354H25.8331V25.8352H45.1528C45.5787 27.0307 46.8338 27.7162 48.0699 27.4285C49.3059 27.1407 50.1292 25.9713 49.9832 24.7106C49.8372 23.4501 48.7685 22.4997 47.4995 22.5019ZM40.8329 11.6687C41.2931 11.6687 41.6662 12.0418 41.6662 12.5021C41.6662 12.9624 41.2931 13.3354 40.8329 13.3354C40.3727 13.3354 39.9996 12.9624 39.9996 12.5021C39.9996 12.0418 40.3726 11.6687 40.8329 11.6687ZM32.4997 3.33546C32.9599 3.33546 33.333 3.70854 33.333 4.16883C33.333 4.62911 32.9599 5.00211 32.4997 5.00211C32.0394 5.00211 31.6664 4.62903 31.6664 4.16883C31.6664 3.70863 32.0394 3.33546 32.4997 3.33546ZM32.4997 46.6684C32.0395 46.6684 31.6664 46.2953 31.6664 45.835C31.6664 45.3747 32.0395 45.0016 32.4997 45.0016C32.9599 45.0016 33.333 45.3747 33.333 45.835C33.333 46.2953 32.9599 46.6684 32.4997 46.6684ZM40.8329 38.3351C40.3727 38.3351 39.9996 37.962 39.9996 37.5018C39.9996 37.0415 40.3727 36.6685 40.8329 36.6685C41.2931 36.6685 41.6662 37.0415 41.6662 37.5018C41.6662 37.962 41.2931 38.3351 40.8329 38.3351ZM13.3331 25.0019C13.3401 18.8848 18.0654 13.8092 24.1664 13.3654V36.6385C18.0654 36.1946 13.3401 31.119 13.3331 25.0019ZM47.4995 25.8352C47.0393 25.8352 46.6661 25.4621 46.6661 25.0018C46.6661 24.5415 47.0392 24.1686 47.4995 24.1686C47.9598 24.1686 48.3329 24.5416 48.3329 25.0018C48.3329 25.462 47.9597 25.8352 47.4995 25.8352Z" fill="#404040"/>
</g>
<defs>
<clipPath id="clip0_351_18638">
<rect width="50" height="50" fill="white"/>
</clipPath>
</defs>
</svg>
