<svg width="50" height="50" viewBox="0 0 50 50" fill="none" xmlns="http://www.w3.org/2000/svg">
<g clip-path="url(#clip0_351_18746)">
<path d="M46.8968 8.70892C41.111 -0.163358 29.2283 -2.66538 20.356 3.12041C16.5456 5.60535 13.7424 9.3638 12.4473 13.7246L14.0458 14.1963C14.483 12.719 15.1154 11.3068 15.9263 9.99691H21.9138C21.4936 11.7554 21.1939 13.5407 21.0169 15.34L22.6757 15.5019C22.8582 13.646 23.1768 11.806 23.629 9.99691H29.9989V18.0175H31.6655V9.99691H38.0396C38.7224 12.7242 39.0987 15.5193 39.1614 18.33H33.3322V19.9967H39.1614C39.0987 22.8074 38.7224 25.6025 38.0396 28.3298H33.228V29.9964H37.5831C36.9529 32.1026 36.1456 34.1517 35.17 36.1219C34.2694 36.3508 33.3521 36.5077 32.4266 36.5912L32.5765 38.2512C43.1187 37.2868 50.8831 27.959 49.9187 17.4167C49.6347 14.3115 48.5974 11.3225 46.8968 8.70892ZM22.3485 8.33028H17.0882C18.9809 5.92097 21.4751 4.053 24.3196 2.91459C23.5348 4.67069 22.8761 6.48054 22.3485 8.33028ZM29.9989 8.33028H24.0844C24.714 6.2245 25.5203 4.1756 26.4946 2.20544C27.6422 1.9144 28.8162 1.74014 29.9989 1.68545V8.33028ZM48.3097 18.33H40.83C40.77 15.522 40.4101 12.7284 39.7564 9.99691H45.7374C47.288 12.5113 48.1731 15.3791 48.3097 18.33ZM31.6655 8.33028V1.68545C32.8483 1.74014 34.0226 1.91419 35.1702 2.20523C36.1457 4.17528 36.9529 6.22419 37.5831 8.33028H31.6655ZM37.3469 2.91563C40.1903 4.05414 42.6836 5.9217 44.5757 8.33028H39.3196C38.7915 6.48075 38.1322 4.67131 37.3469 2.91563ZM39.9488 34.1036C39.1192 34.6113 38.2487 35.049 37.3464 35.4121C38.132 33.6561 38.7914 31.8463 39.3196 29.9964H44.5728C43.2848 31.6266 41.7196 33.0169 39.9488 34.1036ZM45.7374 28.3298H39.7564C40.4101 25.5983 40.77 22.8047 40.83 19.9967H48.3097C48.1731 22.9476 47.2879 25.8153 45.7374 28.3298Z" fill="#404040"/>
<path d="M30.8326 19.9966H29.9159C24.8522 20.0104 19.9935 17.9978 16.4226 14.4075C16.0972 14.0821 15.5696 14.0821 15.2441 14.4075C11.673 17.998 6.814 20.0106 1.74996 19.9966H0.833313C0.373116 19.9966 0 20.3698 0 20.83V29.111C0.00229161 36.6457 4.08698 43.5877 10.6724 47.2489L15.4283 49.891C15.6799 50.0308 15.986 50.0308 16.2376 49.891L20.9934 47.2489C27.5789 43.5876 31.6636 36.6457 31.6659 29.111V20.83C31.6659 20.3697 31.2928 19.9966 30.8326 19.9966ZM29.9993 29.111C29.997 36.0405 26.2404 42.4247 20.1841 45.792L15.8329 48.2093L11.4818 45.792C5.42549 42.4247 1.66892 36.0404 1.66663 29.111V21.6633H1.74996C4.47499 21.666 7.17368 21.1291 9.69028 20.0838C11.955 19.1486 14.0351 17.8176 15.8329 16.153C19.6671 19.6957 24.6956 21.6633 29.9159 21.6633H29.9993V29.111Z" fill="#404040"/>
<path d="M27.585 23.2109C23.497 22.7928 19.6047 21.2507 16.3396 18.7555C16.041 18.5273 15.6264 18.5273 15.3277 18.7555C12.0626 21.2507 8.17032 22.7928 4.0823 23.2109C3.65721 23.2545 3.33398 23.6126 3.33398 24.0399V29.111C3.33607 35.4353 6.76463 41.2621 12.2921 44.3353L15.4292 46.0781C15.6809 46.2179 15.9869 46.2179 16.2386 46.0781L19.3753 44.3353C24.9027 41.2621 28.3313 35.4353 28.3334 29.111V24.0399C28.3334 23.6125 28.0101 23.2545 27.585 23.2109ZM26.6667 29.111C26.6649 34.8301 23.5645 40.0993 18.5661 42.8785L15.8337 44.3963L13.1012 42.8785C8.10282 40.0993 5.00248 34.8301 5.00061 29.111V24.7802C8.91322 24.255 12.6349 22.7694 15.8337 20.456C19.0324 22.7694 22.7541 24.255 26.6667 24.7802V29.111Z" fill="#FF8000"/>
<path d="M15 22.4966H16.6666V24.1632H15V22.4966Z" fill="#FF8000"/>
<path d="M15 40.8295H16.6666V42.4961H15V40.8295Z" fill="#FF8000"/>
<path d="M6.66602 25.8298H8.33264V27.4965H6.66602V25.8298Z" fill="#FF8000"/>
<path d="M8.33398 34.163H10.0006V35.8296H8.33398V34.163Z" fill="#FF8000"/>
<path d="M21.666 34.163H23.3326V35.8296H21.666V34.163Z" fill="#FF8000"/>
<path d="M23.332 25.8298H24.9987V27.4965H23.332V25.8298Z" fill="#FF8000"/>
</g>
<defs>
<clipPath id="clip0_351_18746">
<rect width="50" height="50" fill="white"/>
</clipPath>
</defs>
</svg>
