<svg width="50" height="50" viewBox="0 0 50 50" fill="none" xmlns="http://www.w3.org/2000/svg">
<g clip-path="url(#clip0_351_18723)">
<path d="M4.54574 38.1818C4.77479 38.1818 4.99496 38.0952 5.1632 37.9399L12.7014 30.9708L17.7014 33.7309C20.3252 35.087 23.5519 34.1082 24.9803 31.5225C26.4083 28.9373 25.5192 25.6844 22.9739 24.1854L21.383 23.3065C19.6163 22.349 18.9602 20.1411 19.9177 18.3744C20.8748 16.6077 23.0827 15.9517 24.8494 16.9091L29.5138 19.8593C29.8733 20.0865 30.3425 20.0346 30.643 19.7336L36.3639 14.0128V15.4545C36.3639 15.9566 36.771 16.3636 37.273 16.3636C37.7751 16.3636 38.1821 15.9566 38.1821 15.4545V11.8181C38.1821 11.3161 37.7751 10.9091 37.273 10.9091H33.6367C33.1346 10.9091 32.7276 11.3161 32.7276 11.8181C32.7276 12.3202 33.1346 12.7272 33.6367 12.7272H35.0784L29.8711 17.9345L25.7802 15.3444C23.1457 13.9098 19.8467 14.8726 18.397 17.4986C16.9468 20.1247 17.89 23.429 20.5077 24.8943L22.0986 25.7737C23.2696 26.3836 24.018 27.5808 24.0535 28.9004C24.089 30.2206 23.4063 31.4559 22.2699 32.1284C21.1335 32.8005 19.722 32.804 18.5821 32.1373L13.0121 29.0598C12.669 28.8707 12.2433 28.9222 11.9556 29.1881L3.92829 36.6055C3.65396 36.8594 3.56297 37.2558 3.69924 37.6043C3.83596 37.9523 4.17154 38.1818 4.54574 38.1818Z" fill="#404040"/>
<path d="M11.8184 33.6364H13.6365V35.4545H11.8184V33.6364Z" fill="#FF8000"/>
<path d="M11.8184 37.2727H13.6365V39.0909H11.8184V37.2727Z" fill="#FF8000"/>
<path d="M11.8184 40.9091H13.6365V42.7272H11.8184V40.9091Z" fill="#FF8000"/>
<path d="M11.8184 44.5454H13.6365V46.3636H11.8184V44.5454Z" fill="#FF8000"/>
<path d="M35.4551 33.6364H37.2733V35.4545H35.4551V33.6364Z" fill="#FF8000"/>
<path d="M35.4551 37.2727H37.2733V39.0909H35.4551V37.2727Z" fill="#FF8000"/>
<path d="M35.4551 40.9091H37.2733V42.7272H35.4551V40.9091Z" fill="#FF8000"/>
<path d="M35.4551 44.5454H37.2733V46.3636H35.4551V44.5454Z" fill="#FF8000"/>
<path d="M35.4551 19.0909H37.2733V20.9091H35.4551V19.0909Z" fill="#FF8000"/>
<path d="M35.4551 22.7273H37.2733V24.5455H35.4551V22.7273Z" fill="#FF8000"/>
<path d="M35.4551 26.3636H37.2733V28.1818H35.4551V26.3636Z" fill="#FF8000"/>
<path d="M35.4551 30H37.2733V31.8182H35.4551V30Z" fill="#FF8000"/>
<path d="M23.6367 37.2727H25.4549V39.0909H23.6367V37.2727Z" fill="#FF8000"/>
<path d="M23.6367 40.9091H25.4549V42.7272H23.6367V40.9091Z" fill="#FF8000"/>
<path d="M23.6367 44.5454H25.4549V46.3636H23.6367V44.5454Z" fill="#FF8000"/>
<path d="M44.5458 10.9091C46.8771 10.9087 48.9506 9.42652 49.7052 7.22082C50.4602 5.01512 49.73 2.57371 47.8879 1.14482C46.0457 -0.284064 43.4991 -0.384383 41.5504 0.895357C39.6018 2.1751 38.682 4.5517 39.2613 6.81022C39.877 9.22499 42.0538 10.9136 44.5458 10.9091ZM43.6412 1.93185C45.5859 1.43291 47.5665 2.60434 48.0668 4.54859C48.5666 6.49284 47.3965 8.47437 45.4523 8.97552C43.5084 9.47668 41.526 8.30747 41.024 6.36366C40.783 5.42883 40.9232 4.43673 41.4146 3.60532C41.9056 2.77435 42.7072 2.17244 43.6421 1.93273L43.6412 1.93185Z" fill="#FF8000"/>
<path d="M0.909091 50.0001H47.2727V48.1819H1.81818V11.8182H0V49.091C0 49.593 0.407049 50.0001 0.909091 50.0001Z" fill="#404040"/>
</g>
<defs>
<clipPath id="clip0_351_18723">
<rect width="50" height="50" fill="white"/>
</clipPath>
</defs>
</svg>
