<svg width="50" height="50" viewBox="0 0 50 50" fill="none" xmlns="http://www.w3.org/2000/svg">
<g clip-path="url(#clip0_351_18667)">
<path d="M49.4842 0.0642904C49.3833 0.0223796 49.2755 0.000406901 49.166 0H44.166V1.66667H47.1543L44.6543 4.16667H8.33268V2.5C8.33268 2.03979 7.95955 1.66667 7.49935 1.66667H2.49935C2.03914 1.66667 1.66602 2.03979 1.66602 2.5V7.5C1.66602 7.96021 2.03914 8.33333 2.49935 8.33333H4.16602V41.6667H2.49935C2.03914 41.6667 1.66602 42.0398 1.66602 42.5V47.5C1.66602 47.9602 2.03914 48.3333 2.49935 48.3333H7.49935C7.95955 48.3333 8.33268 47.9602 8.33268 47.5V45.8333H41.666V47.5C41.666 47.9602 42.0391 48.3333 42.4993 48.3333H47.4993C47.9596 48.3333 48.3327 47.9602 48.3327 47.5V42.5C48.3327 42.0398 47.9596 41.6667 47.4993 41.6667H45.8327V5.34505L48.3327 2.84505V5.83333H49.9993V0.833333C49.9989 0.496419 49.7959 0.192871 49.4842 0.0642904ZM3.33268 3.33333H6.66602V6.66667H3.33268V3.33333ZM6.66602 46.6667H3.33268V43.3333H6.66602V46.6667ZM8.33268 44.1667V42.5C8.33268 42.0398 7.95955 41.6667 7.49935 41.6667H5.83268V18.3333H29.166V20C29.166 20.4602 29.5391 20.8333 29.9993 20.8333H31.666V44.1667H8.33268ZM30.8327 19.1667V15.8333H34.166V19.1667H30.8327ZM46.666 46.6667H43.3327V43.3333H46.666V46.6667ZM44.166 41.6667H42.4993C42.0391 41.6667 41.666 42.0398 41.666 42.5V44.1667H40.8327V43.3333H39.166V44.1667H33.3327V20.8333H34.9993C35.4596 20.8333 35.8327 20.4602 35.8327 20V15C35.8327 14.5398 35.4596 14.1667 34.9993 14.1667H29.9993C29.5391 14.1667 29.166 14.5398 29.166 15V16.6667H5.83268V10.8333H6.66602V9.16667H5.83268V8.33333H7.49935C7.95955 8.33333 8.33268 7.96021 8.33268 7.5V5.83333H42.9876L38.3327 10.4883V7.5H36.666V12.5C36.666 12.9602 37.0391 13.3333 37.4993 13.3333H42.4993V11.6667H39.5111L44.166 7.01172V41.6667Z" fill="#404040"/>
<path d="M31.3828 9.16666H34.472V10.8333H31.3828V9.16666Z" fill="#FF8000"/>
<path d="M24.4297 9.16666H27.5197V10.8333H24.4297V9.16666Z" fill="#FF8000"/>
<path d="M10.5273 9.16666H13.6165V10.8333H10.5273V9.16666Z" fill="#FF8000"/>
<path d="M17.4805 9.16666H20.5697V10.8333H17.4805V9.16666Z" fill="#FF8000"/>
<path d="M39.166 22.4801H40.8327V25.5701H39.166V22.4801Z" fill="#FF8000"/>
<path d="M39.166 15.5282H40.8327V18.6182H39.166V15.5282Z" fill="#FF8000"/>
<path d="M39.166 29.4308H40.8327V32.5199H39.166V29.4308Z" fill="#FF8000"/>
<path d="M39.166 36.3827H40.8327V39.4727H39.166V36.3827Z" fill="#FF8000"/>
<path d="M0 16.6667H2.5V18.3333H0V16.6667Z" fill="#FF8000"/>
<path d="M31.666 47.5H33.3327V50H31.666V47.5Z" fill="#FF8000"/>
</g>
<defs>
<clipPath id="clip0_351_18667">
<rect width="50" height="50" fill="white"/>
</clipPath>
</defs>
</svg>
