<svg width="50" height="50" viewBox="0 0 50 50" fill="none" xmlns="http://www.w3.org/2000/svg">
<path d="M20.5436 44.3249L20.3967 45.0424L20.5382 44.3241C20.1415 44.2459 19.7562 44.5042 19.678 44.9009C19.5998 45.298 19.8581 45.6829 20.2552 45.7611C20.2563 45.7615 20.2674 45.7634 20.2685 45.7638C20.3151 45.7726 20.3612 45.7772 20.407 45.7772C20.7515 45.7772 21.0586 45.533 21.1253 45.1821C21.2016 44.7846 20.9411 44.4008 20.5436 44.3249Z" fill="#FF8000"/>
<path d="M26.1421 44.5602L26.215 45.2888L26.1398 44.5606C25.7374 44.6018 25.4448 44.9615 25.4864 45.364C25.5249 45.7409 25.843 46.0216 26.2138 46.0216C26.239 46.0216 26.2646 46.0201 26.2897 46.0178L26.31 46.0155C26.7105 45.9686 26.9947 45.6073 26.9501 45.2068C26.905 44.8066 26.5426 44.5182 26.1421 44.5602Z" fill="#FF8000"/>
<path d="M23.3389 44.6525C23.3389 44.6525 23.3286 44.6521 23.3282 44.6521C22.9246 44.6338 22.5874 44.9474 22.5691 45.3514C22.5512 45.7553 22.8685 46.0975 23.2725 46.1158C23.284 46.1166 23.295 46.1166 23.3065 46.1166C23.6956 46.1166 24.0198 45.8103 24.0374 45.4174C24.0557 45.0134 23.7432 44.6708 23.3389 44.6525Z" fill="#FF8000"/>
<path d="M17.8379 43.5807L17.8287 43.5772C17.448 43.4407 17.033 43.6398 16.8964 44.0205C16.7595 44.4012 16.9617 44.8224 17.3424 44.9593C17.4244 44.9887 17.5079 45.0024 17.5899 45.0024C17.8901 45.0024 18.1721 44.8166 18.2792 44.5176C18.4162 44.1369 18.2186 43.7172 17.8379 43.5807Z" fill="#FF8000"/>
<path d="M28.9078 44.0475L29.0883 44.7574L28.9055 44.0483C28.5138 44.149 28.278 44.5484 28.3787 44.9402C28.4638 45.2705 28.7613 45.4902 29.0875 45.4902C29.1481 45.4902 29.2096 45.4826 29.271 45.4666C29.274 45.4658 29.287 45.4624 29.2904 45.4616C29.6792 45.3556 29.9065 44.9562 29.8027 44.5667C29.699 44.1776 29.2981 43.9461 28.9078 44.0475Z" fill="#FF8000"/>
<path d="M31.5558 43.124L31.8461 43.7962L31.5535 43.1248C31.1827 43.2865 31.0129 43.718 31.1743 44.0888C31.2945 44.3646 31.5638 44.529 31.8464 44.529C31.9437 44.529 32.0433 44.5091 32.1383 44.4679C32.1413 44.4664 32.1531 44.4615 32.1562 44.4599C32.5235 44.294 32.6857 43.8637 32.5216 43.4956C32.3576 43.1271 31.925 42.9619 31.5558 43.124Z" fill="#FF8000"/>
<path d="M15.0401 9.73626C15.1576 9.73626 15.277 9.70803 15.3872 9.64929C15.7443 9.45893 15.8789 9.01529 15.6886 8.65823C15.4982 8.30156 15.055 8.16613 14.6979 8.35687L14.6891 8.36145C14.3324 8.5518 14.2016 8.99316 14.392 9.35022C14.5232 9.59664 14.778 9.73626 15.0401 9.73626Z" fill="#FF8000"/>
<path d="M6.56809 17.9169C6.67681 17.9737 6.79316 18.0008 6.90798 18.0008C7.17158 18.0008 7.4264 17.8581 7.55725 17.6083L7.57022 17.5827C7.74874 17.2195 7.59921 16.7805 7.23605 16.6023C6.87556 16.4246 6.43992 16.571 6.2591 16.9292C6.07218 17.2871 6.21028 17.7292 6.56809 17.9169Z" fill="#FF8000"/>
<path d="M5.53703 20.6723C5.61485 20.6986 5.69381 20.7112 5.77201 20.7112C6.07719 20.7112 6.36215 20.5186 6.46552 20.2134L6.47506 20.1844C6.59408 19.798 6.37702 19.3879 5.99021 19.2692C5.60684 19.151 5.19981 19.3638 5.07736 19.7453C4.9488 20.1279 5.15441 20.543 5.53703 20.6723Z" fill="#FF8000"/>
<path d="M8.01249 15.3546C8.14257 15.4492 8.29325 15.4949 8.44279 15.4949C8.669 15.4949 8.89254 15.39 9.03559 15.1932L9.04513 15.1802C9.28011 14.8514 9.20344 14.3952 8.87537 14.1602C8.54693 13.9248 8.08917 14.0003 7.85342 14.3284L8.44355 14.7625L7.85113 14.3315C7.61309 14.6588 7.68557 15.1169 8.01249 15.3546Z" fill="#FF8000"/>
<path d="M12.553 11.3183C12.7067 11.3183 12.8616 11.2698 12.9939 11.1691C13.3205 10.9303 13.3911 10.4722 13.1523 10.1456C12.9131 9.81908 12.4549 9.7485 12.1288 9.9873L12.1105 10.0007C11.7885 10.2452 11.7244 10.7056 11.9689 11.028C12.1131 11.2179 12.3317 11.3183 12.553 11.3183Z" fill="#FF8000"/>
<path d="M4.88319 31.7798C4.98008 32.0945 5.26923 32.2963 5.58204 32.2963C5.65338 32.2963 5.72624 32.2857 5.79795 32.2635C6.18247 32.1457 6.39953 31.7382 6.28433 31.353C6.17408 30.9684 5.77545 30.7426 5.38749 30.8483C4.99725 30.9547 4.76722 31.3575 4.87365 31.7478C4.87594 31.7554 4.8809 31.7722 4.88319 31.7798Z" fill="#FF8000"/>
<path d="M10.3399 13.2485C10.5303 13.2485 10.7206 13.1748 10.8645 13.0283C11.1502 12.7422 11.1502 12.2784 10.8645 11.9927C10.5784 11.7066 10.1145 11.7066 9.82839 11.9927L9.81618 12.0049C9.53313 12.2936 9.53885 12.7567 9.82763 13.0398C9.96991 13.1794 10.1549 13.2485 10.3399 13.2485Z" fill="#FF8000"/>
<path d="M5.69138 28.5865C5.63988 28.1886 5.27634 27.9064 4.87809 27.9537C4.47678 28.0017 4.18992 28.366 4.2376 28.7677L4.2418 28.7971C4.2952 29.161 4.60763 29.4219 4.96506 29.4219C5.00016 29.4219 5.03602 29.4193 5.07226 29.4139C5.47089 29.3559 5.74746 28.9852 5.69138 28.5865Z" fill="#FF8000"/>
<path d="M4.77306 26.4889C4.78069 26.4889 4.78794 26.4893 4.79518 26.4893C5.18962 26.4893 5.5154 26.1753 5.52684 25.7782L5.52761 25.7469C5.52761 25.3422 5.19954 25.0145 4.79518 25.0145C4.3935 25.0145 4.06772 25.3372 4.06276 25.7374C4.05208 26.141 4.36984 26.4771 4.77306 26.4889Z" fill="#FF8000"/>
<path d="M4.93356 23.5515C4.97743 23.5592 5.02053 23.563 5.06364 23.563C5.41154 23.563 5.72015 23.3139 5.78385 22.9595C5.78576 22.9488 5.78729 22.9381 5.78881 22.9275C5.84794 22.5273 5.57137 22.155 5.17083 22.0962C4.77525 22.0375 4.40484 22.3095 4.34113 22.7039C4.27171 23.1014 4.53645 23.4802 4.93356 23.5515Z" fill="#FF8000"/>
<path d="M39.4831 15.5857C39.625 15.7917 39.8531 15.9019 40.0858 15.9019C40.2288 15.9019 40.3738 15.86 40.5005 15.7726C40.8335 15.5437 40.9178 15.0875 40.6889 14.7541L40.0801 15.1615L40.6866 14.7506C40.4593 14.4157 40.0038 14.3284 39.6692 14.5553C39.3343 14.7823 39.2469 15.2378 39.4739 15.5727L39.4831 15.5857Z" fill="#FF8000"/>
<path d="M43.2228 22.9561C42.8207 23.0011 42.5316 23.3638 42.577 23.7659L42.5808 23.7976C42.633 24.1626 42.9466 24.4262 43.3052 24.4262C43.3395 24.4262 43.3746 24.424 43.4097 24.419C43.8068 24.3622 44.0838 23.9963 44.0323 23.5996C43.9861 23.1987 43.6222 22.911 43.2228 22.9561Z" fill="#FF8000"/>
<path d="M41.987 20.8892L41.99 20.8988C42.0838 21.218 42.3757 21.4248 42.6923 21.4248C42.7606 21.4248 42.83 21.4153 42.899 21.3947C43.2874 21.2806 43.5094 20.8736 43.3953 20.4852L43.3923 20.4757C43.2782 20.0874 42.8712 19.8654 42.4829 19.9798C42.0949 20.0939 41.8729 20.5009 41.987 20.8892Z" fill="#FF8000"/>
<path d="M40.9531 18.1508C41.0809 18.4105 41.3422 18.562 41.6138 18.562C41.7218 18.562 41.8316 18.538 41.935 18.4868C42.2978 18.3083 42.4485 17.8719 42.2695 17.5088L41.6058 17.8181L42.2688 17.5072C42.0971 17.141 41.6611 16.9835 41.2949 17.1551C40.9287 17.3268 40.7708 17.7628 40.9424 18.129L40.9531 18.1508Z" fill="#FF8000"/>
<path d="M37.6383 13.2984C37.7817 13.4449 37.9713 13.5181 38.1613 13.5181C38.3463 13.5181 38.5313 13.4487 38.674 13.3087C38.9608 13.0279 38.9673 12.569 38.6907 12.2799C38.4165 11.9842 37.9541 11.9663 37.6573 12.2402C37.3602 12.5145 37.3419 12.9779 37.6161 13.2751L37.6383 13.2984Z" fill="#FF8000"/>
<path d="M43.4612 26.0143C43.0588 26.004 42.7219 26.3195 42.7078 26.7219C42.6895 27.1228 42.9973 27.4642 43.3986 27.4868C43.4128 27.4875 43.4261 27.4879 43.4402 27.4879C43.8259 27.4879 44.149 27.1862 44.1707 26.7959L44.1719 26.7658C44.1833 26.3618 43.8652 26.0261 43.4612 26.0143Z" fill="#FF8000"/>
<path d="M32.9547 9.7019L32.9722 9.71143C33.0813 9.76942 33.1984 9.79688 33.3136 9.79688C33.5742 9.79688 33.8263 9.6565 33.9587 9.41045C34.1495 9.0553 34.0152 8.61127 33.6612 8.41901L33.3068 9.05988L33.6589 8.41749C33.3041 8.22294 32.8589 8.35302 32.6644 8.70779C32.4702 9.06217 32.5999 9.50773 32.9547 9.7019Z" fill="#FF8000"/>
<path d="M35.4311 11.3083L35.4425 11.3171C35.5749 11.4174 35.7301 11.4659 35.8846 11.4659C36.1059 11.4659 36.3245 11.3659 36.4687 11.176C36.7132 10.8536 36.6499 10.3943 36.3279 10.1498L36.3229 10.1464C36.0021 9.89996 35.5425 9.96023 35.296 10.281C35.0496 10.6019 35.1103 11.0619 35.4311 11.3083Z" fill="#FF8000"/>
<path d="M49.548 37.1025L46.1098 33.6582C45.8172 33.3652 45.4285 33.2039 45.0146 33.2039C44.6011 33.2039 44.212 33.3652 43.9198 33.6582L43.84 33.7379L43.6142 33.5121C43.3353 33.2325 43.1194 32.9071 42.9729 32.5527C42.96 32.5058 42.9428 32.46 42.9207 32.4169C42.8085 32.1018 42.7502 31.7665 42.7502 31.422V30.4478C42.8169 30.4829 42.8898 30.5084 42.968 30.5218C43.0099 30.529 43.0515 30.5325 43.0927 30.5325C43.4402 30.5325 43.7477 30.2845 43.8122 29.932C43.8904 29.5361 43.6337 29.1512 43.2373 29.0718C43.063 29.0371 42.8905 29.0672 42.7456 29.1458C42.7006 28.1052 42.2752 27.1332 41.5352 26.3916L38.1996 23.0503C37.4512 22.3007 36.4559 21.888 35.3973 21.888C34.5779 21.888 33.7975 22.1363 33.139 22.596L32.785 22.2401V13.863C32.785 12.8532 32.4184 11.879 31.7532 11.1202C31.2798 10.5808 31.0192 9.88808 31.0192 9.16939V8.5556H31.0696C31.9233 8.5556 32.618 7.86095 32.618 7.00684V2.1347C32.618 1.28059 31.9233 0.585938 31.0696 0.585938H17.3882C16.5344 0.585938 15.8398 1.28059 15.8398 2.1347V7.00684C15.8398 7.86095 16.5344 8.5556 17.3882 8.5556H17.5011V8.8768C17.5011 9.66644 17.194 10.4088 16.6367 10.9669L15.16 12.4462C14.3764 13.2313 13.945 14.2746 13.945 15.3847V20.1099C13.945 20.752 14.0991 21.3581 14.3703 21.8952C13.3991 21.9513 12.4939 22.356 11.8004 23.0503L8.46481 26.3916C7.68127 27.1767 7.24983 28.2204 7.24983 29.3301V31.422C7.24983 32.2117 6.94313 32.954 6.3858 33.5121L6.16264 33.7357C6.1615 33.7364 6.16074 33.7372 6.15997 33.7379L6.08063 33.6582C5.78804 33.3652 5.39932 33.2039 4.98543 33.2039C4.57191 33.2039 4.18282 33.3652 3.89061 33.6582L0.452042 37.1025C-0.150681 37.7064 -0.150681 38.689 0.452042 39.2929L1.62964 40.472C1.91536 40.7585 2.37923 40.7589 2.66533 40.4732C2.95143 40.1871 2.95219 39.7236 2.66609 39.4371L1.48888 38.2576C1.45569 38.2244 1.45569 38.1706 1.48888 38.1374L4.92744 34.6931C4.95949 34.6611 5.01175 34.6607 5.04379 34.6931L5.64156 35.2921H5.64194L13.8042 43.4685L14.7186 44.3848C14.7518 44.418 14.7518 44.4717 14.7186 44.5049L11.2804 47.9492C11.248 47.9816 11.1958 47.9816 11.1637 47.9492L4.73976 41.5142C4.45404 41.2277 3.99017 41.2273 3.70407 41.5131C3.41759 41.7992 3.41721 42.2626 3.70293 42.5491L10.1273 48.9841C10.4195 49.2771 10.8086 49.4385 11.2225 49.4385C11.636 49.4385 12.0247 49.2771 12.3173 48.9841L15.7555 45.5399C16.3582 44.9364 16.3582 43.9537 15.7555 43.3498L15.7181 43.3125L16.1518 42.878C16.6584 42.3702 17.3313 42.065 18.0466 42.0189C19.0533 41.9537 20.0005 41.5241 20.7134 40.8096L23.872 37.6442C24.7829 37.405 25.4921 36.6631 25.6847 35.7338C26.0094 35.8883 26.3721 35.9753 26.7551 35.9753C28.1326 35.9753 29.2534 34.8534 29.2534 33.474V31.7348C29.5685 31.8787 29.9183 31.9595 30.2868 31.9595C31.6643 31.9595 32.7847 30.8376 32.7847 29.4582V24.3168L35.0376 26.5808C35.1807 26.7246 35.3687 26.7963 35.5568 26.7963C35.7437 26.7963 35.9306 26.7254 36.0737 26.5831C36.3602 26.2978 36.3613 25.8343 36.076 25.5474L34.1976 23.6599C34.5612 23.4596 34.9709 23.3528 35.3973 23.3528C36.0641 23.3528 36.6913 23.613 37.1628 24.0856L40.4984 27.4265C41.0057 27.935 41.2853 28.611 41.2853 29.3301V31.422C41.2853 32.6027 41.7442 33.7124 42.5774 34.547L42.8047 34.7748L41.7423 35.8391L35.3168 42.2756L34.9586 41.9167C34.9548 41.9132 34.9514 41.9094 34.9476 41.906L34.8846 41.8427C34.1263 41.0831 33.1188 40.6265 32.0484 40.5571C31.3972 40.5148 30.7846 40.237 30.3211 39.7732L27.9144 37.3795C27.6276 37.0941 27.1637 37.0953 26.8784 37.3821C26.5934 37.669 26.5945 38.1329 26.8814 38.4178L29.2866 40.8096C29.9995 41.5241 30.9467 41.9537 31.9538 42.0189C32.6687 42.065 33.3416 42.3702 33.8482 42.8776L33.8837 42.9131C33.9027 42.9348 33.923 42.955 33.9443 42.9741L34.2819 43.3121L34.2445 43.3498C33.6418 43.9537 33.6418 44.936 34.2445 45.5399L37.6827 48.9841C37.9753 49.2771 38.364 49.4385 38.7779 49.4385C39.1914 49.4385 39.5805 49.2771 39.8731 48.9841L49.548 39.2925C50.1507 38.6887 50.1507 37.7064 49.548 37.1025ZM43.2411 29.8195L43.2274 29.8172L43.0939 29.7901L43.2411 29.8195ZM19.6766 39.7747C19.2154 40.237 18.6028 40.5148 17.952 40.5571C16.8812 40.6265 15.8737 41.0831 15.1154 41.8427L14.6832 42.2756L14.2941 41.8858C14.2891 41.8808 14.2841 41.8755 14.2792 41.8709L7.19528 34.7748L7.42264 34.547C8.25577 33.7124 8.71468 32.6027 8.71468 31.422V29.3301C8.71468 28.611 8.99391 27.935 9.50165 27.4265L12.8372 24.0856C13.3087 23.613 13.9359 23.3528 14.6027 23.3528C15.0303 23.3528 15.4415 23.4604 15.8062 23.6622L13.9248 25.5466C13.6391 25.8327 13.6395 26.2966 13.9256 26.5823C14.0686 26.725 14.2559 26.7963 14.4432 26.7963C14.6309 26.7963 14.8186 26.7246 14.9616 26.5816L17.2089 24.3301V33.474C17.2089 34.8534 18.3296 35.9753 19.7071 35.9753C20.0954 35.9753 20.4632 35.886 20.7912 35.7273C20.94 36.4532 21.4039 37.0651 22.0325 37.4138L19.6766 39.7747ZM31.3202 29.4586C31.3202 30.0301 30.8563 30.4951 30.2868 30.4951C29.7169 30.4951 29.2534 30.0301 29.2534 29.4586V21.2887C29.2534 20.8843 28.9257 20.5563 28.521 20.5563C28.1162 20.5563 27.7885 20.8843 27.7885 21.2887V33.4743C27.7885 34.0458 27.3251 34.5104 26.7551 34.5104C26.2436 34.5104 25.819 34.1358 25.737 33.6456V21.2803C25.737 20.8755 25.4093 20.5479 25.0046 20.5479C24.8745 20.5479 24.752 20.5822 24.646 20.6417C24.4144 20.7649 24.2569 21.0083 24.2569 21.2887V33.474C24.2569 33.567 24.2622 33.6582 24.2722 33.7486V35.2245C24.2722 35.796 23.8087 36.261 23.2388 36.261C22.6692 36.261 22.2057 35.796 22.2057 35.2245V21.2715C22.2057 20.8672 21.8777 20.5391 21.4733 20.5391C21.0686 20.5391 20.7405 20.8672 20.7405 21.2715V33.474C20.7405 34.0454 20.277 34.5104 19.7075 34.5104C19.1376 34.5104 18.6741 34.0454 18.6741 33.474V19.8498C18.6741 19.445 18.346 19.117 17.9417 19.117C17.5369 19.117 17.2092 19.445 17.2092 19.8498V22.3698C17.1478 22.3896 17.0883 22.4174 17.033 22.4541C16.0858 22.0982 15.4099 21.1819 15.4099 20.1099V15.3847C15.4099 14.6656 15.6895 13.9896 16.1968 13.4811L17.6735 12.0018C18.507 11.1671 18.9659 10.0574 18.9659 8.8768V8.5556H20.4384C20.8431 8.5556 21.1708 8.22754 21.1708 7.82318C21.1708 7.41844 20.8431 7.09076 20.4384 7.09076H17.3882C17.342 7.09076 17.3046 7.05299 17.3046 7.00684V2.1347C17.3046 2.08855 17.342 2.05078 17.3882 2.05078H31.0692C31.1157 2.05078 31.1531 2.08855 31.1531 2.1347V7.00684C31.1531 7.05338 31.1157 7.09076 31.0692 7.09076H23.877C23.4726 7.09076 23.1445 7.41844 23.1445 7.82318C23.1445 8.22754 23.4726 8.5556 23.877 8.5556H29.5544V9.16939C29.5544 10.2436 29.9438 11.2793 30.6515 12.0865C31.0825 12.5778 31.3202 13.2088 31.3202 13.863V29.4586ZM48.5111 38.2576L38.8363 47.9492C38.8203 47.9656 38.8008 47.9736 38.7779 47.9736C38.7554 47.9736 38.736 47.9656 38.7196 47.9492L35.2814 44.5049C35.2482 44.4717 35.2482 44.418 35.2814 44.3848L35.8349 43.8301L35.8353 43.8297L41.4516 38.2038L44.9562 34.6931C44.9883 34.6607 45.0405 34.6607 45.0726 34.6931L48.5111 38.1374C48.5443 38.1706 48.5443 38.2244 48.5111 38.2576Z" fill="#404040"/>
<path d="M19.7075 3.78955C19.2775 3.78955 18.9277 4.14012 18.9277 4.5708C18.9277 5.00186 19.2775 5.35205 19.7075 5.35205C20.1378 5.35205 20.4876 5.00186 20.4876 4.5708C20.4876 4.14012 20.1378 3.78955 19.7075 3.78955Z" fill="#FF8000"/>
<path d="M45.2547 37.1765C44.8244 37.1765 44.4746 37.5271 44.4746 37.9578C44.4746 38.3884 44.8244 38.739 45.2547 38.739C45.6846 38.739 46.0344 38.3884 46.0344 37.9578C46.0344 37.5271 45.6846 37.1765 45.2547 37.1765Z" fill="#FF8000"/>
<path d="M12.2063 44.6487C12.2063 44.218 11.8565 43.8674 11.4266 43.8674C10.9963 43.8674 10.6465 44.218 10.6465 44.6487C10.6465 45.0794 10.9963 45.4299 11.4266 45.4299C11.8565 45.4299 12.2063 45.0794 12.2063 44.6487Z" fill="#FF8000"/>
</svg>
