<svg width="56" height="50" viewBox="0 0 56 50" fill="none" xmlns="http://www.w3.org/2000/svg">
<path d="M38.8624 26.0146H51.8901C51.6679 38.8161 49.1124 40.9269 41.1401 45.5869C40.2235 46.1352 39.9179 47.2865 40.4735 48.2185C41.029 49.1231 42.1957 49.4247 43.1401 48.8764C52.529 43.394 55.8068 40.0497 55.8068 24.0957V9.32049C55.8068 4.63299 51.9457 0.850098 47.2235 0.850098H38.8901C34.0012 0.850098 30.3068 4.49593 30.3068 9.32049V17.5442C30.279 22.3687 33.9735 26.0146 38.8624 26.0146Z" fill="#FF8000"/>
<path d="M8.80599 26.0146H21.8338C21.6115 38.8161 19.056 40.9269 11.0838 45.5869C10.1671 46.1352 9.86154 47.2865 10.4171 48.2185C10.9727 49.1231 12.1393 49.4247 13.0838 48.8764C22.4727 43.394 25.7504 40.0497 25.7504 24.0957V9.32049C25.7504 4.63299 21.8893 0.850098 17.1671 0.850098H8.83377C3.9171 0.850098 0.222656 4.49593 0.222656 9.32049V17.5442C0.222656 22.3687 3.9171 26.0146 8.80599 26.0146Z" fill="#FF8000"/>
</svg>
