<svg width="50" height="50" viewBox="0 0 50 50" fill="none" xmlns="http://www.w3.org/2000/svg">
<g clip-path="url(#clip0_351_18762)">
<path d="M12.1668 39.8742C14.7677 38.6022 16.5558 36.7877 17.4935 35.6659C24.5588 37.023 30.8171 37.4217 37.5548 34.3934C37.926 34.2329 38.0968 33.802 37.9361 33.4307C37.7755 33.0595 37.3442 32.8889 36.9731 33.0494C33.5937 34.5114 30.2076 35.2527 26.9088 35.2527C20.5814 35.2527 11.0806 32.7894 8.74475 32.1566L8.74475 23.9115C8.74475 23.5071 8.41682 23.1793 8.01233 23.1793C7.60784 23.1793 7.27991 23.5071 7.27991 23.9115L7.27991 31.982L5.69984 31.982C5.49418 31.982 5.3268 31.8148 5.3268 31.6091L5.3268 18.1985C5.3268 17.9928 5.49418 17.8256 5.69984 17.8256L7.27991 17.8256L7.27991 20.4568C7.27991 20.8612 7.60784 21.189 8.01233 21.189C8.41682 21.189 8.74475 20.8612 8.74475 20.4568L8.74475 17.6511C18.9453 15.1333 30.2843 11.709 41.4256 19.1108L41.4256 30.6962C40.9578 30.9894 40.4719 31.2797 39.9668 31.5631C39.6141 31.7611 39.4886 32.2072 39.6866 32.5601C39.8846 32.9127 40.3311 33.0381 40.6838 32.8402C46.0938 29.8042 49.4521 26.1099 49.8698 25.3893C50.0434 25.0895 50.0434 24.717 49.8697 24.417C46.0662 19.5149 36.18 12.9147 26.9088 13.0905C24.0097 13.0904 20.5373 13.5722 17.3522 14.1678C15.2146 11.6787 9.69797 6.79084 0.936581 9.37579C0.347813 9.54767 -0.0287476 10.0829 0.00172034 10.6867C0.0303344 11.2958 0.452789 11.7837 1.05289 11.9009C3.34751 12.3488 6.34769 13.4815 8.09182 16.3104C8.0176 16.331 7.95735 16.3478 7.91067 16.361L5.69965 16.361C4.68617 16.361 3.86176 17.1853 3.86176 18.1985L3.86176 22.9691L1.64868 23.1843C0.708942 23.2757 0.000254911 24.0565 0.00025487 25.0004C0.000254828 25.9444 0.708942 26.7251 1.64868 26.8165L3.86176 27.0318L3.86176 31.6092C3.86176 32.6224 4.68627 33.4466 5.69964 33.4466L7.91067 33.4466C7.97718 33.4652 8.07151 33.4916 8.1929 33.5251C6.46712 36.474 3.3979 37.6423 1.05279 38.1C0.452693 38.2172 0.0303332 38.7051 0.00161991 39.3142C-0.0287489 39.9179 0.347712 40.4533 0.93648 40.6251C4.94926 41.8089 8.72756 41.5562 12.1668 39.8742ZM48.4211 24.9036C47.8059 25.6642 45.8399 27.6747 42.8904 29.7282L42.8904 20.0783C45.8628 22.1461 47.8117 24.1504 48.4211 24.9036ZM1.98843 10.6052C8.89905 8.84298 13.487 12.2225 15.6727 14.497C13.188 15.0051 10.9961 15.5444 9.55959 15.9177C7.73851 12.6466 4.57817 11.2203 1.98843 10.6052ZM1.79058 25.3589C1.36216 25.3158 1.36206 24.6851 1.79058 24.6419L3.86186 24.4406L3.86186 25.5604L1.79058 25.3589ZM1.9855 39.3951C4.29125 38.8397 7.77278 37.4359 9.65256 33.914C11.1204 34.2941 13.3325 34.8359 15.8281 35.3424C13.6452 37.6933 9.03489 41.1967 1.9855 39.3951Z" fill="#404040"/>
<path d="M13.3307 25.0004C13.3307 26.2117 14.3163 27.1971 15.5279 27.1971L20.0471 27.1971C22.7069 35.6665 35.0642 33.9795 35.2559 25.0002C35.0633 16.0195 22.7052 14.3356 20.0471 22.8036L15.5279 22.8036C14.3163 22.8036 13.3307 23.7891 13.3307 25.0004ZM15.5279 25.7326C15.124 25.7326 14.7955 25.4042 14.7955 25.0004C14.7955 24.5966 15.124 24.2682 15.5279 24.2682L19.764 24.2682C19.7171 24.7491 19.7171 25.2518 19.764 25.7326L15.5279 25.7326ZM27.4922 18.7031C30.9654 18.7031 33.791 21.528 33.791 25.0004C33.4744 33.343 21.5086 33.3408 21.1933 25.0003C21.1933 21.528 24.019 18.7031 27.4922 18.7031Z" fill="#FF8000"/>
<path d="M27.4922 29.8331C30.1577 29.8331 32.3262 27.6651 32.3262 25.0003C32.0832 18.5978 22.9002 18.5996 22.6581 25.0004C22.6581 27.6651 24.8267 29.8331 27.4922 29.8331ZM27.4922 21.6322C29.35 21.6322 30.8613 23.1432 30.8613 25.0004C30.692 29.4628 24.2917 29.4615 24.123 25.0004C24.123 23.1431 25.6344 21.6322 27.4922 21.6322Z" fill="#FF8000"/>
</g>
<defs>
<clipPath id="clip0_351_18762">
<rect width="50" height="50" fill="white" transform="translate(50) rotate(90)"/>
</clipPath>
</defs>
</svg>
