<svg width="50" height="50" viewBox="0 0 50 50" fill="none" xmlns="http://www.w3.org/2000/svg">
<g clip-path="url(#clip0_351_18648)">
<path d="M14.8438 7.03125C10.5359 7.03125 7.03125 10.5359 7.03125 14.8438C7.03125 19.1516 10.5359 22.6562 14.8438 22.6562C19.1516 22.6562 22.6562 19.1516 22.6562 14.8438C22.6562 10.5359 19.1516 7.03125 14.8438 7.03125ZM14.8438 21.0938C11.3977 21.0938 8.59375 18.2898 8.59375 14.8438C8.59375 11.3977 11.3977 8.59375 14.8438 8.59375C18.2898 8.59375 21.0938 11.3977 21.0938 14.8438C21.0938 18.2898 18.2898 21.0938 14.8438 21.0938Z" fill="#FF8000"/>
<path d="M25.6664 10.3633C25.3242 9.5375 25.5109 8.59609 26.1422 7.96484L26.9969 7.11016L22.5773 2.69062L21.7227 3.54531C21.0906 4.17734 20.1492 4.36641 19.325 4.02109C18.5008 3.67891 17.9688 2.88125 17.9688 1.98984V0.78125H11.7188V1.98984C11.7188 2.88203 11.1867 3.67891 10.3633 4.02109C9.53828 4.36328 8.59609 4.17656 7.96484 3.54531L7.11016 2.68984L2.69062 7.11016L3.54531 7.96484C4.17734 8.59687 4.36406 9.53828 4.02109 10.3633C3.67891 11.1867 2.88125 11.7188 1.98984 11.7188H0.78125V17.9688H1.98984C2.88203 17.9688 3.67891 18.5008 4.02109 19.3242C4.36328 20.15 4.17656 21.0914 3.54531 21.7227L2.69062 22.5773L7.03125 26.9188V39.2992L12.9789 48.2211C13.3961 48.8453 14.093 49.2188 14.8438 49.2188C15.5945 49.2188 16.2914 48.8453 16.7086 48.2211L22.6562 39.2992V26.9188L26.9969 22.5773L26.1422 21.7227C25.5102 21.0906 25.3234 20.1492 25.6664 19.3242C26.0086 18.5 26.8055 17.9688 27.6977 17.9688H28.9062V11.7188H27.6977C26.8062 11.7188 26.0086 11.1867 25.6664 10.3633ZM13.2812 28.9062H16.4062V38.2812H13.2812V28.9062ZM21.0938 38.2812H17.9688V27.6977C17.9688 26.8055 18.5008 26.0086 19.3242 25.6664C19.9062 25.425 20.5453 25.4523 21.0938 25.7078V38.2812ZM9.27188 39.8438H20.4148L17.2898 44.5312H12.3969L9.27188 39.8438ZM11.7188 38.2812H8.59375V25.7078C9.14219 25.4516 9.78047 25.4242 10.3625 25.6672C11.1867 26.0094 11.7188 26.8062 11.7188 27.6984V38.2812ZM14.2789 47.3539L13.4391 46.0938H16.2484L15.4078 47.3539C15.1555 47.7328 14.532 47.7328 14.2789 47.3539ZM27.3438 16.4227C25.9641 16.5508 24.7625 17.4258 24.2234 18.7242C23.6828 20.0266 23.9125 21.4969 24.7984 22.5656L22.5656 24.7984C21.4977 23.9117 20.0266 23.6812 18.7242 24.2227C17.4258 24.7625 16.5609 25.9648 16.4312 27.343H13.2539C13.1242 25.9648 12.2594 24.7625 10.9609 24.2227C9.65859 23.6836 8.18828 23.9125 7.12031 24.7984L4.8875 22.5656C5.77344 21.4969 6.00313 20.0266 5.4625 18.7242C4.925 17.4266 3.72344 16.5516 2.34375 16.4227V13.2641C3.72344 13.1359 4.925 12.2609 5.46406 10.9625C6.00469 9.66016 5.775 8.18984 4.88906 7.12109L7.12188 4.88828C8.18906 5.77422 9.65938 6.00469 10.9633 5.46406C12.2609 4.92422 13.1359 3.72344 13.2648 2.34375H16.4227C16.5516 3.72344 17.4266 4.92422 18.7258 5.46406C20.0273 6.00391 21.4984 5.77344 22.5664 4.88828L24.7992 7.12109C23.9133 8.18984 23.6836 9.66016 24.2242 10.9625C24.7633 12.2609 25.9648 13.1359 27.3445 13.2641L27.3438 16.4227Z" fill="#404040"/>
<path d="M13.2426 16.8258L11.4895 15.0726L10.3848 16.1773L13.3191 19.1117L19.3371 12.2328L18.1621 11.2047L13.2426 16.8258Z" fill="#FF8000"/>
<path d="M39.8438 42.9688H41.4062V44.5312H39.8438V42.9688Z" fill="#FF8000"/>
<path d="M42.9688 42.9688H44.5312V44.5312H42.9688V42.9688Z" fill="#FF8000"/>
<path d="M36.7188 42.9688H38.2812V44.5312H36.7188V42.9688Z" fill="#FF8000"/>
<path d="M47.6562 11.7188C48.518 11.7188 49.2188 11.018 49.2188 10.1562V2.34375C49.2188 1.48203 48.518 0.78125 47.6562 0.78125H33.5938C32.732 0.78125 32.0312 1.48203 32.0312 2.34375V10.1562C32.0312 11.018 32.732 11.7188 33.5938 11.7188H39.8438V19.5312H33.5938C32.732 19.5312 32.0312 20.232 32.0312 21.0938V28.9062C32.0312 29.768 32.732 30.4688 33.5938 30.4688H39.8438V38.2812H33.5938C32.732 38.2812 32.0312 38.982 32.0312 39.8438V47.6562C32.0312 48.518 32.732 49.2188 33.5938 49.2188H47.6562C48.518 49.2188 49.2188 48.518 49.2188 47.6562V39.8438C49.2188 38.982 48.518 38.2812 47.6562 38.2812H41.4062V30.4688H47.6562C48.518 30.4688 49.2188 29.768 49.2188 28.9062V21.0938C49.2188 20.232 48.518 19.5312 47.6562 19.5312H41.4062V11.7188H47.6562ZM47.657 47.6562H33.5938V39.8438H47.6562L47.657 47.6562ZM47.657 28.9062H33.5938V21.0938H47.6562L47.657 28.9062ZM33.5938 2.34375H47.6562L47.657 10.1562H33.5938V2.34375Z" fill="#404040"/>
<path d="M39.8438 5.46875H41.4062V7.03125H39.8438V5.46875Z" fill="#FF8000"/>
<path d="M42.9688 5.46875H44.5312V7.03125H42.9688V5.46875Z" fill="#FF8000"/>
<path d="M36.7188 5.46875H38.2812V7.03125H36.7188V5.46875Z" fill="#FF8000"/>
<path d="M39.8438 24.2188H41.4062V25.7812H39.8438V24.2188Z" fill="#FF8000"/>
<path d="M42.9688 24.2188H44.5312V25.7812H42.9688V24.2188Z" fill="#FF8000"/>
<path d="M36.7188 24.2188H38.2812V25.7812H36.7188V24.2188Z" fill="#FF8000"/>
</g>
<defs>
<clipPath id="clip0_351_18648">
<rect width="50" height="50" fill="white"/>
</clipPath>
</defs>
</svg>
