<svg width="50" height="50" viewBox="0 0 50 50" fill="none" xmlns="http://www.w3.org/2000/svg">
<path d="M32.7091 13.4574H8.76484C8.35859 13.4574 8.0293 13.7867 8.0293 14.1929C8.0293 14.5992 8.35859 14.9285 8.76484 14.9285H32.7092C33.1154 14.9285 33.4447 14.5992 33.4447 14.1929C33.4447 13.7867 33.1153 13.4574 32.7091 13.4574Z" fill="#FF8000"/>
<path d="M8.76484 9.82632H20.7369C21.1432 9.82632 21.4725 9.49702 21.4725 9.09077C21.4725 8.68452 21.1432 8.35522 20.7369 8.35522H8.76484C8.35859 8.35522 8.0293 8.68452 8.0293 9.09077C8.0293 9.49712 8.35859 9.82632 8.76484 9.82632Z" fill="#FF8000"/>
<path d="M32.7091 17.9781H8.76484C8.35859 17.9781 8.0293 18.3074 8.0293 18.7137C8.0293 19.1199 8.35859 19.4492 8.76484 19.4492H32.7092C33.1154 19.4492 33.4447 19.1199 33.4447 18.7137C33.4446 18.3074 33.1153 17.9781 32.7091 17.9781Z" fill="#FF8000"/>
<path d="M14.2195 44.8895H6.55674C5.29902 44.8895 4.27568 43.8662 4.27568 42.6085V3.75205C4.27568 2.49434 5.29902 1.471 6.55674 1.471H28.6325C28.7038 1.471 28.774 1.47754 28.8435 1.48691V6.07422C28.8435 8.14316 30.5267 9.82627 32.5955 9.82627H37.1827C37.1922 9.8958 37.1986 9.96602 37.1986 10.0373V22.5628C37.1986 22.969 37.5279 23.2983 37.9342 23.2983C38.3404 23.2983 38.6697 22.969 38.6697 22.5628V10.0374C38.6697 9.23057 38.3555 8.47197 37.785 7.90137L30.7684 0.884766C30.1979 0.314258 29.4394 0 28.6325 0H6.55674C4.48779 0 2.80469 1.6832 2.80469 3.75205V42.6085C2.80469 44.6773 4.48789 46.3604 6.55674 46.3604H14.2195C14.6258 46.3604 14.9551 46.0312 14.9551 45.6249C14.9551 45.2187 14.6258 44.8895 14.2195 44.8895ZM36.1585 8.35527H32.5956C31.3379 8.35527 30.3146 7.33193 30.3146 6.07422V2.51133L36.1585 8.35527Z" fill="#404040"/>
<path d="M46.967 36.0087L40.7348 25.4892C40.2806 24.7222 39.2921 24.4687 38.5247 24.9233L37.0088 25.8214C35.8321 26.5185 35.3348 27.9292 35.7388 29.1793C35.228 29.3643 34.6681 29.3614 34.1525 29.1621C32.9556 28.7855 32.0456 28.028 30.5428 28.4081C27.991 29.0578 28.0686 29.0252 27.8377 29.1043C26.3436 28.2537 25.4454 28.0005 23.8593 28.6141L22.4454 29.1607C21.7908 29.4136 21.0696 29.3537 20.4647 28.9953L20.0788 28.7678C20.2671 27.6397 19.7668 26.4492 18.7074 25.8216C18.7074 25.8216 18.7074 25.8216 18.7073 25.8215L17.1915 24.9235C16.4263 24.4703 15.4349 24.724 14.9816 25.4892L8.74914 36.0088C8.29494 36.7756 8.54768 37.7644 9.31487 38.2188L10.8307 39.1168C11.2894 39.3886 11.7935 39.5178 12.2915 39.5178C12.8469 39.5178 13.3945 39.3569 13.8626 39.0538L14.1785 39.2402L13.5115 40.1692C12.7167 41.2764 12.9693 42.8161 14.0767 43.611C14.5888 43.9786 15.2322 44.1464 15.8975 44.0419C16.003 44.659 16.3411 45.2366 16.8886 45.6297C17.4028 45.9989 18.0432 46.1669 18.7097 46.062C18.8155 46.6786 19.1534 47.2556 19.7006 47.6485C20.436 48.1763 21.3502 48.2374 22.112 47.912C22.2787 48.345 22.5685 48.736 22.9727 49.0262C24.0281 49.7837 25.4821 49.5862 26.3022 48.6047L28.0746 49.6547C29.2468 50.3494 30.7592 49.9633 31.4542 48.7898C31.632 48.4898 31.7422 48.1628 31.7825 47.8268L31.7865 47.8293C32.957 48.5224 34.4728 48.1343 35.1661 46.9642C35.3669 46.6252 35.477 46.2576 35.5037 45.8891C36.5354 46.1485 37.6597 45.7152 38.229 44.7542C38.4158 44.439 38.5241 44.0985 38.5598 43.7558C39.6655 44.1897 40.9577 43.7704 41.5821 42.7165C41.918 42.1496 42.013 41.4859 41.8496 40.8475C41.7562 40.4823 41.5843 40.1507 41.3484 39.8708L42.3253 39.3C43.1518 39.6392 44.0949 39.5849 44.8854 39.1167L46.401 38.2187C47.1682 37.7646 47.4216 36.776 46.967 36.0087ZM11.5805 37.8513L10.0647 36.9532C9.99729 36.9132 9.97492 36.8259 10.0148 36.7585L16.2472 26.2387C16.2873 26.171 16.3749 26.1491 16.4419 26.1889L17.9576 27.0869C18.6312 27.486 18.8419 28.3499 18.4501 29.0111L13.5047 37.3587C13.11 38.0251 12.2469 38.2459 11.5805 37.8513ZM14.9345 42.416C14.4878 42.0953 14.3857 41.474 14.7066 41.0271L15.6869 39.6615C15.9992 39.2264 16.6216 39.1074 17.0758 39.4334C17.5216 39.7535 17.6238 40.3764 17.3039 40.8222L16.3235 42.1878C16.0034 42.6338 15.3801 42.7358 14.9345 42.416ZM17.7465 44.4348C17.3007 44.1147 17.1985 43.4916 17.5185 43.0459L18.4988 41.6803C18.4988 41.6803 18.4988 41.6803 18.4988 41.6802C18.4988 41.6802 18.4988 41.6801 18.4989 41.6801L19.5809 40.1731C19.736 39.9572 19.9657 39.8144 20.228 39.7714C20.2825 39.7625 20.3371 39.7581 20.3913 39.7581C20.5978 39.7581 20.7987 39.8223 20.9697 39.9451C21.1856 40.1001 21.3283 40.3298 21.3713 40.5921C21.4144 40.8545 21.3528 41.1179 21.1977 41.3338L19.1353 44.2067C18.8148 44.6535 18.1934 44.7557 17.7465 44.4348ZM20.5585 46.4535C20.1129 46.1335 20.0106 45.5109 20.33 45.0652C20.3301 45.065 20.3303 45.0648 20.3304 45.0646L22.3928 42.1918C22.7126 41.7461 23.3361 41.6438 23.7817 41.9637C24.2275 42.2837 24.3297 42.9068 24.0097 43.3526L23.0934 44.6291C23.0934 44.6291 23.0934 44.6291 23.0933 44.6292L21.9473 46.2254C21.6273 46.6712 21.0044 46.7737 20.5585 46.4535ZM23.8306 47.8312C23.3851 47.5113 23.2826 46.8889 23.6019 46.4431L24.2883 45.4871C24.6082 45.0412 25.2316 44.9392 25.6772 45.259C26.1229 45.579 26.2252 46.2021 25.9052 46.6479L25.2194 47.6031C24.8994 48.049 24.2762 48.1513 23.8306 47.8312ZM40.3168 41.9668C40.0369 42.4391 39.4252 42.5958 38.9528 42.316C38.1528 41.842 32.9922 38.7847 32.442 38.4587C32.0924 38.2517 31.6413 38.367 31.4343 38.7166C31.2273 39.0661 31.3426 39.5172 31.6921 39.7243L36.6143 42.6404L36.6144 42.6405C37.0869 42.9204 37.2446 43.5302 36.9636 44.0046C36.6836 44.4772 36.0716 44.6335 35.5993 44.354C33.7788 43.2754 32.3006 42.3997 30.6745 41.4363C30.3248 41.2293 29.8738 41.3446 29.6668 41.6941C29.4598 42.0436 29.5751 42.4948 29.9246 42.7018L33.5514 44.8504L33.5522 44.8509C34.025 45.1317 34.1811 45.7413 33.9007 46.2147C33.6207 46.6873 33.0089 46.8438 32.5363 46.5639L30.59 45.4109C30.5898 45.4108 30.5895 45.4107 30.5893 45.4105C30.5891 45.4104 30.5889 45.4103 30.5887 45.4102L29.1683 44.5686C28.8187 44.3615 28.3676 44.4768 28.1606 44.8264C27.9535 45.1759 28.0689 45.6271 28.4184 45.8341L29.8391 46.6758C29.8393 46.6759 29.8395 46.6761 29.8397 46.6762C30.3122 46.9561 30.4698 47.5659 30.1889 48.0403C29.9089 48.5128 29.2971 48.6694 28.8245 48.3895L27.1672 47.4078C27.8777 46.3115 27.6074 44.8341 26.5351 44.0644C26.2201 43.8384 25.8695 43.6977 25.5108 43.6373C25.8912 42.62 25.5632 41.4323 24.6395 40.7692C24.0926 40.3764 23.4378 40.2408 22.8198 40.3376C22.7099 39.6946 22.3582 39.1313 21.8277 38.7505C20.8298 38.0344 19.4738 38.172 18.6362 39.0194C18.4659 38.7205 18.231 38.4523 17.9337 38.2389C17.1045 37.6438 16.028 37.6382 15.2071 38.1395L14.87 37.9406L19.496 30.1321L19.7162 30.262C20.6889 30.8381 21.8758 30.9583 22.9758 30.5329L24.3897 29.9863C25.1988 29.6736 25.6449 29.6532 26.4452 30.0308C25.9216 30.6191 25.6108 31.3915 25.6108 32.2239V35.4851C25.6108 36.3513 26.315 37.0565 27.1805 37.0571H27.1826C28.0508 37.0571 28.8672 36.7191 29.4814 36.1053C29.8394 35.7475 30.1036 35.3209 30.262 34.8553C31.2117 35.4177 39.0581 40.0641 39.9678 40.6031C40.1966 40.7386 40.3589 40.9551 40.4248 41.2127C40.4907 41.4701 40.4524 41.7379 40.3168 41.9668ZM45.6516 36.9532L44.1357 37.8513C43.4693 38.2459 42.6062 38.0249 42.2116 37.3588L39.8937 33.4462C39.6865 33.0967 39.2352 32.9814 38.886 33.1882C38.5364 33.3953 38.421 33.8464 38.628 34.1959L40.9459 38.1086C40.9896 38.1823 41.0369 38.2523 41.086 38.3206L40.4415 38.697C40.3113 38.7742 40.186 38.8591 40.0661 38.9514L30.0737 33.0339C29.5841 32.7442 28.9634 33.0974 28.9634 33.6667C28.9557 33.7107 29.0394 34.4667 28.4414 35.0645C28.1051 35.4005 27.658 35.5857 27.1825 35.5857C27.1821 35.5857 27.1818 35.5857 27.1814 35.5857C27.1264 35.5857 27.0817 35.5404 27.0817 35.4847V32.2235C27.0817 31.3715 27.6678 30.6528 28.4605 30.4521L30.9034 29.8338C31.7899 29.6098 32.2909 30.0832 33.6182 30.5324C34.5396 30.8888 35.5414 30.8668 36.4307 30.4871L36.8746 31.2365C37.0818 31.5862 37.5329 31.7014 37.8823 31.4945C38.2319 31.2875 38.3473 30.8363 38.1404 30.4868L37.2659 29.0109C36.8703 28.3431 37.0907 27.4826 37.7584 27.0868L39.2742 26.1888C39.3405 26.1495 39.428 26.1696 39.4691 26.2387L45.7013 36.7584C45.7415 36.8262 45.7194 36.913 45.6516 36.9532Z" fill="#404040"/>
</svg>
