<svg width="1230" height="526" viewBox="0 0 1230 526" fill="none" xmlns="http://www.w3.org/2000/svg">
<path d="M1229.5 263C1229.5 299.143 1212.37 333.618 1181.31 365.02C1150.25 396.424 1105.28 424.728 1049.67 448.509C938.457 496.071 784.777 525.5 615 525.5C445.223 525.5 291.543 496.071 180.326 448.509C124.716 424.728 79.746 396.424 48.6852 365.02C17.6266 333.618 0.5 299.143 0.5 263C0.5 226.857 17.6266 192.382 48.6852 160.98C79.746 129.576 124.716 101.272 180.326 77.4906C291.543 29.9294 445.223 0.5 615 0.5C784.777 0.5 938.457 29.9294 1049.67 77.4906C1105.28 101.272 1150.25 129.576 1181.31 160.98C1212.37 192.382 1229.5 226.857 1229.5 263Z" stroke="#FF8000"/>
</svg>
