<svg width="178" height="124" viewBox="0 0 178 124" fill="none" xmlns="http://www.w3.org/2000/svg">
<g clip-path="url(#clip0_911_7376)">
<path d="M37.5241 114.968C37.9932 115.59 38.4249 116.226 38.8476 116.88C38.5423 117.229 38.2472 117.626 37.8801 117.909L37.7765 117.775L37.9198 117.535C37.6863 117.03 37.7127 116.409 37.8096 115.871C37.8152 115.84 37.8216 115.809 37.8276 115.778C37.7132 115.558 37.5827 115.366 37.4412 115.163L37.5241 114.968Z" fill="#7A7679"/>
<path d="M44.939 30.1495C45.1169 29.7399 45.291 29.3287 45.4612 28.9158C45.9174 29.4193 46.5283 29.9722 46.819 30.582L46.769 30.8369C46.331 31.1271 45.7274 31.0218 45.225 31.0013C45.0505 30.734 45.005 30.4555 44.939 30.1495Z" fill="#FF8D00"/>
<path d="M126.13 43.1113L126.382 43.1978C126.508 43.4853 126.61 43.8282 126.854 44.0358C126.878 44.43 126.897 44.8202 126.898 45.2153C126.75 45.498 126.58 45.7951 126.499 46.1047C126.404 46.4669 126.403 47.4087 126.17 47.6469L125.988 47.1578C126.044 46.1575 125.69 43.9229 126.13 43.1113Z" fill="#7A7679"/>
<path d="M119.217 17.4922C119.899 17.7762 120.56 18.4393 121.12 18.9129C120.832 19.2782 120.503 19.6216 120.195 19.9713L120.031 20.0336C119.724 19.9942 119.419 19.852 119.156 19.692C118.839 19.4989 118.656 19.158 118.609 18.7944C118.545 18.2851 118.934 17.8776 119.217 17.4922Z" fill="#FCB25B"/>
<path d="M123.678 21.1902C124.223 21.4455 124.832 22.2924 125.253 22.7495C124.93 23.206 124.576 23.5964 124.188 23.9969C123.52 23.5124 123.01 22.8949 122.466 22.2802C122.845 21.8842 123.258 21.5413 123.678 21.1902Z" fill="#FCB25B"/>
<path d="M126.415 26.1985C126.79 25.8407 127.185 25.5607 127.613 25.2736C128.132 25.7402 128.568 26.2058 128.994 26.7596L128.96 27.0309C128.597 27.4358 128.296 27.8578 127.713 27.8904C127.009 27.6653 126.73 26.8085 126.415 26.1985Z" fill="#FCB25B"/>
<path d="M114.04 14.4233C114.907 14.7373 115.669 15.2393 116.447 15.7258L115.421 16.9049C115.41 16.9107 115.4 16.9196 115.388 16.922C114.835 17.0351 113.759 16.094 113.315 15.7842L114.04 14.4233Z" fill="#FCB25B"/>
<path d="M151.621 56.882C151.832 56.8749 152.076 56.8513 152.284 56.8853C152.603 56.9378 152.93 57.1991 153.112 57.464C153.304 57.7449 153.353 58.054 153.272 58.3833C153.158 58.8491 152.85 59.0333 152.475 59.2731C152.098 59.3113 151.653 59.2838 151.346 59.0391C151.07 58.8191 150.919 58.5118 150.926 58.1587C150.937 57.584 151.213 57.2505 151.621 56.882Z" fill="#FF8D00"/>
<path d="M151.738 63.2311C151.958 63.2169 152.183 63.1996 152.404 63.2151C152.764 63.2402 153.051 63.4224 153.271 63.7002C153.468 63.9495 153.541 64.2273 153.484 64.5407C153.391 65.0424 153.117 65.262 152.709 65.5316C152.473 65.5816 152.229 65.6387 151.987 65.5918C151.681 65.5324 151.409 65.3202 151.237 65.0662C151.028 64.7591 150.984 64.4049 151.075 64.0487C151.184 63.6224 151.389 63.4531 151.738 63.2311Z" fill="#FCB25B"/>
<path d="M21.7166 77.3227C21.8497 77.3169 21.9792 77.31 22.1121 77.3251C22.5241 77.372 22.9377 77.5002 23.1881 77.8549C23.3555 78.0922 23.3952 78.3727 23.3339 78.6536C23.2148 79.1987 22.8644 79.3978 22.423 79.672C22.2297 79.7153 22.0301 79.7722 21.8301 79.744C21.5117 79.6993 21.2166 79.5169 21.0517 79.2384C20.8695 78.9311 20.8661 78.55 20.9388 78.2098C21.0372 77.7491 21.3552 77.5713 21.7166 77.3227Z" fill="#FCB25B"/>
<path d="M152.303 69.6384C152.471 69.6673 152.493 69.6664 152.672 69.7215C153.039 69.8344 153.323 70.0955 153.475 70.446C153.636 70.8155 153.608 71.2215 153.451 71.5869C153.279 71.986 152.991 72.1113 152.62 72.2724C152.386 72.2635 152.132 72.2635 151.916 72.1604C151.652 72.0346 151.443 71.778 151.331 71.5118C151.18 71.1533 151.222 70.7891 151.363 70.436C151.551 69.964 151.867 69.842 152.303 69.6384Z" fill="#FCB25B"/>
<path d="M84.3664 111.215C84.426 111.214 84.4853 111.213 84.5449 111.213C84.9169 111.216 85.358 111.352 85.5882 111.666C85.8067 111.963 85.8629 112.26 85.79 112.62C85.6693 113.215 85.3167 113.474 84.8264 113.784C84.3316 113.698 83.7787 113.509 83.4998 113.058C83.3516 112.817 83.3273 112.512 83.4062 112.244C83.5538 111.742 83.9531 111.488 84.3664 111.215Z" fill="#FF8D00"/>
<path d="M78.6999 110.656C78.7592 110.65 78.8183 110.642 78.8777 110.637C79.2468 110.606 79.6466 110.733 79.9048 111.008C80.1114 111.227 80.1614 111.489 80.1543 111.78C80.1381 112.449 79.7492 112.803 79.2746 113.211C79.1043 113.221 78.9426 113.23 78.775 113.188C78.4437 113.103 78.0686 112.875 77.9081 112.561C77.737 112.226 77.7134 111.871 77.823 111.512C77.9637 111.05 78.3077 110.884 78.6999 110.656Z" fill="#FF8D00"/>
<path d="M108.584 11.9604C109.561 12.1596 110.306 12.5898 111.143 13.1049C110.752 13.5111 110.421 13.9707 110.078 14.4176C109.506 14.5062 108.225 13.7049 107.704 13.4447C107.963 12.9225 108.265 12.4462 108.584 11.9604Z" fill="#FCB25B"/>
<path d="M21.7905 69.9871C21.9409 69.9836 22.13 69.9676 22.2809 69.9951C22.3251 70.003 22.3687 70.0129 22.4118 70.0249C22.4549 70.037 22.4973 70.0513 22.5389 70.0676C22.5807 70.084 22.6215 70.1024 22.6614 70.1227C22.7012 70.1431 22.74 70.1655 22.7776 70.1898C22.8154 70.2139 22.8517 70.24 22.8867 70.268C22.9218 70.2959 22.9554 70.3253 22.9876 70.3565C23.0197 70.3877 23.0502 70.4205 23.0789 70.4547C23.1078 70.4891 23.1349 70.5247 23.1603 70.5616C23.3363 70.8196 23.3903 71.1362 23.332 71.4402C23.2323 71.9616 22.8769 72.2 22.4609 72.4693C22.1878 72.4822 21.8765 72.5149 21.612 72.4333C21.3416 72.3498 21.0791 72.1258 20.9485 71.8764C20.8054 71.6031 20.8014 71.2842 20.8814 70.9925C21.024 70.4713 21.3489 70.2585 21.7905 69.9871Z" fill="#FF8D00"/>
<path d="M101.958 9.81732C102.96 10.0111 103.993 10.3133 104.961 10.6389C104.792 11.1627 104.574 11.6662 104.363 12.174C104.311 12.2189 104.177 12.2675 104.113 12.2973C103.308 12.1047 102.509 11.6929 101.747 11.3669C101.797 10.8493 101.885 10.3324 101.958 9.81732Z" fill="#FCB25B"/>
<path d="M114.434 104.538C114.572 104.53 114.71 104.522 114.848 104.526C115.239 104.538 115.574 104.74 115.827 105.033C116.106 105.355 116.191 105.749 116.131 106.165C116.05 106.722 115.734 106.92 115.303 107.225C115.156 107.241 115.007 107.258 114.859 107.254C114.519 107.247 114.127 107.019 113.921 106.75C113.686 106.445 113.602 106.089 113.641 105.707C113.698 105.132 114.006 104.872 114.434 104.538Z" fill="#FF8D00"/>
<path d="M102.795 109.456C103.046 109.44 103.362 109.41 103.609 109.474C103.97 109.568 104.352 109.956 104.483 110.298C104.594 110.588 104.57 110.939 104.452 111.224C104.25 111.712 103.855 111.865 103.401 112.057C103.221 112.101 103.039 112.116 102.854 112.095C102.809 112.09 102.765 112.083 102.722 112.073C102.678 112.064 102.635 112.052 102.593 112.037C102.55 112.023 102.509 112.007 102.469 111.988C102.428 111.969 102.389 111.947 102.351 111.924C102.313 111.901 102.276 111.876 102.241 111.848C102.205 111.821 102.171 111.792 102.139 111.761C102.107 111.73 102.077 111.697 102.048 111.663C102.02 111.628 101.993 111.592 101.969 111.555C101.776 111.257 101.767 110.834 101.841 110.494C101.963 109.936 102.34 109.723 102.795 109.456Z" fill="#FF8D00"/>
<path d="M96.7785 110.78C97.0554 110.768 97.3218 110.746 97.5878 110.845C97.9112 110.965 98.2203 111.286 98.3505 111.601C98.4901 111.938 98.4667 112.333 98.3205 112.665C98.1085 113.146 97.7403 113.291 97.2858 113.488C97.1474 113.473 97.0156 113.456 96.8792 113.428C96.4418 113.336 96.0614 113.131 95.8303 112.734C95.6527 112.429 95.6098 112.072 95.7301 111.737C95.9223 111.2 96.2832 111.005 96.7785 110.78Z" fill="#FF8D00"/>
<path d="M72.4322 109.444C72.6753 109.425 72.928 109.399 73.1717 109.414C73.5322 109.436 73.9146 109.65 74.1451 109.924C74.3509 110.169 74.4389 110.467 74.4091 110.782C74.3535 111.37 74.022 111.641 73.5955 111.997C73.3435 112.056 73.0615 112.089 72.8029 112.056C72.7572 112.05 72.712 112.042 72.6673 112.031C72.6226 112.02 72.5785 112.008 72.5351 111.993C72.4917 111.978 72.4491 111.961 72.4073 111.941C72.3655 111.922 72.3248 111.901 72.2851 111.878C72.2454 111.854 72.2069 111.829 72.1697 111.802C72.1327 111.775 72.097 111.746 72.0626 111.715C72.0283 111.685 71.9955 111.652 71.9644 111.619C71.9333 111.585 71.904 111.549 71.8764 111.513C71.65 111.209 71.5795 110.848 71.65 110.479C71.7484 109.963 72.0157 109.732 72.4322 109.444Z" fill="#FF8D00"/>
<path d="M89.9846 111.353C90.1783 111.33 90.3732 111.305 90.5688 111.302C90.985 111.295 91.371 111.485 91.6586 111.782C91.9186 112.05 92.0515 112.394 92.0252 112.768C91.9888 113.288 91.7159 113.598 91.3432 113.931C91.1399 113.967 90.9346 113.999 90.7288 114.016C90.3332 114.05 89.9757 113.922 89.6872 113.647C89.4157 113.389 89.2774 113.048 89.2952 112.674C89.3221 112.105 89.5866 111.734 89.9846 111.353Z" fill="#FF8D00"/>
<path d="M108.791 107.229C109 107.209 109.227 107.185 109.435 107.215C109.77 107.263 110.178 107.572 110.345 107.864C110.529 108.187 110.562 108.531 110.483 108.889C110.357 109.455 109.92 109.678 109.46 109.957C109.26 109.976 109.298 109.979 109.079 109.968C108.681 109.949 108.22 109.739 107.988 109.411C107.777 109.113 107.741 108.727 107.813 108.377C107.936 107.784 108.32 107.547 108.791 107.229Z" fill="#FF8D00"/>
<path d="M61.2728 15.6491C61.6888 16.1382 62.2583 16.6153 62.2221 17.3011C61.8383 18.1238 60.533 18.4847 59.7648 18.9049C59.3634 18.3956 58.9354 17.8929 58.5605 17.3644C59.487 16.8876 60.555 16.424 61.2728 15.6491Z" fill="#FCB25B"/>
<path d="M64.3071 14.2513C65.238 13.6191 66.3416 13.2882 67.2811 12.6607C67.6767 13.2165 67.9009 13.802 68.1574 14.428C67.1978 14.944 66.2438 15.4985 65.2616 15.9689C64.9598 15.3947 64.6818 14.7811 64.3071 14.2513Z" fill="#FCB25B"/>
<path d="M66.4592 107.335C66.6275 107.344 66.6483 107.341 66.8332 107.371C67.2817 107.444 67.7586 107.68 68.0001 108.078C68.1886 108.389 68.1997 108.754 68.0899 109.092C67.8975 109.684 67.3961 109.975 66.8717 110.239C66.7292 110.237 66.5857 110.238 66.4446 110.214C66.0186 110.142 65.5552 109.866 65.335 109.488C65.1532 109.176 65.1361 108.8 65.2437 108.46C65.4392 107.841 65.9086 107.6 66.4592 107.335Z" fill="#FF8D00"/>
<path d="M50.8394 23.5202C51.372 23.8233 51.7703 24.5007 52.3329 24.8745C51.6525 25.6769 50.8925 26.5011 50.088 27.1793C49.5803 26.8238 49.092 26.43 48.5994 26.0536C49.2009 25.1076 50.0549 24.314 50.8394 23.5202Z" fill="#FCB25B"/>
<path d="M73.1422 10.1111L73.2719 10.1647C73.5846 10.8209 73.837 11.504 74.1015 12.1809C73.2161 12.5744 72.2819 12.8373 71.3573 13.1211L71.1959 13.0629C70.8146 12.5762 70.6159 11.8978 70.3828 11.3273C71.3055 10.9173 72.233 10.5584 73.1422 10.1111Z" fill="#FCB25B"/>
<path d="M55.9055 19.1836C56.4726 19.4547 56.8895 20.4089 57.2055 20.9393C56.4281 21.68 55.5377 22.3065 54.6417 22.894C54.1808 22.3625 53.6868 21.8593 53.2019 21.3496C54.1919 20.7107 55.0704 20.016 55.9055 19.1836Z" fill="#FCB25B"/>
<path d="M169.292 102.468L170.073 102.335L170.493 102.575C171.148 102.575 171.812 102.556 172.466 102.595L175.444 102.589L175.448 104.689C175.461 105.586 175.565 106.552 174.913 107.271C174.447 107.785 173.757 107.897 173.098 107.912C172.486 107.925 171.83 107.912 171.223 107.841L171.646 107.713C171.895 107.311 171.842 106.773 171.759 106.328C171.458 104.712 170.619 103.416 169.292 102.468Z" fill="#7A7679"/>
<path d="M172.466 102.595L175.444 102.589L175.448 104.689C173.654 103.865 172.032 103.847 170.493 102.575C171.148 102.575 171.812 102.556 172.466 102.595Z" fill="url(#paint0_linear_911_7376)"/>
<path d="M60.3477 102.411L60.4733 103.893L62.3746 104.47C62.2435 105.483 62.0757 106.47 61.818 107.46L60.2311 107.432C59.8891 108.013 59.6153 108.601 59.3464 109.218L60.3075 110.207C59.5975 110.904 58.9466 111.348 58.0337 111.747L57.304 110.934C56.5962 111.298 55.8793 111.605 55.1411 111.902L55.104 113.138C54.4353 113.204 52.894 113.494 52.3206 113.209L52.2815 113.156C52.3595 112.844 52.3522 112.39 52.2613 112.082C52.1653 111.757 51.962 111.695 51.6791 111.538L51.5466 111.466C51.9677 110.373 53.5489 109.593 54.3066 108.674C54.8526 108.011 55.1431 107.102 55.5889 106.364C56.1037 105.51 57.3457 104.862 58.1009 104.171C58.6013 103.713 59.1104 103.042 59.6593 102.67C59.876 102.523 60.0973 102.47 60.3477 102.411Z" fill="#FF8D00"/>
<path d="M53.886 66.5718L53.9912 66.5265C54.0734 68.3313 54.1056 70.1505 54.0105 71.9553C54.0003 71.9249 53.9894 71.8949 53.98 71.8642C53.548 70.4302 54.1914 68.0605 53.8305 66.8091C52.7607 66.6636 50.5234 67.7416 49.3689 67.9965C46.8089 68.5616 30.2869 71.3345 28.8814 70.9238L29.13 70.9276L28.9205 70.9949C28.8865 72.5833 29.2174 74.066 29.9076 75.4944L29.8354 75.604C29.3049 75.2351 29.0003 73.4689 28.888 72.8438C28.846 72.6079 28.8065 72.3716 28.7696 72.1349C28.7007 70.2867 28.7809 68.6633 29.2776 66.8753C31.8007 66.8205 53.17 66.9629 53.886 66.5718Z" fill="url(#paint1_linear_911_7376)"/>
<path d="M36.8335 22.0945L39.2488 22.1431C39.2268 22.7058 39.1486 23.2929 39.5506 23.7489C39.7004 23.9187 39.7866 23.9207 39.9922 23.994C40.3466 23.9418 40.6144 23.85 40.8353 23.5593C41.0346 23.2967 41.1962 22.9907 41.3575 22.7033C42.0797 23.2476 42.7886 23.782 43.3786 24.474C43.0537 24.9565 42.7184 25.4345 42.4091 25.9269C43.0506 25.9689 43.6844 26.0011 44.3277 25.9989C44.6068 26.6871 44.9777 27.4247 45.0613 28.164C45.1439 28.576 45.1673 28.6147 45.4611 28.9158C45.2908 29.3287 45.1168 29.7399 44.9388 30.1496C44.7506 30.5582 44.6484 30.534 44.2486 30.7078L43.4957 30.4907L43.2791 29.8476C43.2542 29.8782 43.2328 29.9127 43.2042 29.94C42.9055 30.2245 42.2935 30.3116 41.9095 30.4736C40.9708 30.8698 40.157 32.122 40.0704 33.1229C40.0475 33.386 40.0157 33.7649 40.2195 33.9676C40.3193 34.0667 40.4466 34.134 40.5526 34.2265C40.6135 34.2796 40.659 34.346 40.7068 34.41C40.885 34.6576 41.0215 34.7511 41.019 35.0669C40.7933 35.2591 40.595 35.3578 40.3282 35.4787C39.5244 35.6407 38.7902 35.6689 37.9739 35.6576C37.7744 35.3145 37.5791 34.9431 37.3279 34.6345C37.0902 34.3418 36.8544 34.2151 36.4797 34.1685C35.8046 34.344 35.5537 34.8869 35.2126 35.4347L34.4564 35.0307L33.4439 34.2256C33.5762 33.8956 33.8195 33.4178 33.8337 33.0618C33.8464 32.7425 33.7986 32.6916 33.5957 32.4758C33.2244 32.3365 32.8775 32.3556 32.4855 32.358C32.2162 32.0613 31.9737 31.8327 31.6395 31.6105C31.4884 31.0367 31.4542 30.4571 31.4053 29.868C31.8533 29.8018 32.2719 29.6936 32.7073 29.57C32.7651 29.2091 32.8677 28.7976 32.6715 28.4689C32.3144 28.2156 31.8404 28.2342 31.4166 28.1978C31.4817 27.7125 31.5582 27.2498 31.6897 26.7776C31.8144 26.4282 31.8613 26.0133 32.2153 25.8291C32.5846 25.6369 33.1646 25.6318 33.5735 25.6218L33.695 25.5338C33.641 25.0805 33.2239 24.6307 32.9355 24.2885C33.6006 23.6845 34.279 23.112 35.041 22.632C35.3057 23.0638 35.5202 23.5078 35.9584 23.7838C36.1279 23.7953 36.209 23.8458 36.3475 23.7249C36.7537 23.3702 36.7668 22.5996 36.8335 22.0945Z" fill="url(#paint2_linear_911_7376)"/>
<path d="M43.4958 30.4907C43.5143 30.1547 43.5061 29.7676 43.585 29.4407C43.7501 28.7564 44.5114 28.5029 45.0614 28.164C45.1441 28.576 45.1674 28.6147 45.4612 28.9158C45.291 29.3287 45.1169 29.7399 44.939 30.1496C44.7507 30.5582 44.6485 30.534 44.2487 30.7078L43.4958 30.4907Z" fill="#D3D3D3"/>
<path d="M36.5127 25.3369C37.371 25.3091 38.5112 25.1062 39.2036 25.6989C40.0879 26.2416 40.7203 27.0896 40.9343 28.114C41.1339 29.0698 40.9401 30.338 40.3605 31.1387C39.8996 31.7751 39.1785 32.1184 38.4105 32.2142C38.3467 32.2219 38.2827 32.228 38.2185 32.2324C38.1545 32.2369 38.0904 32.2396 38.0261 32.2407C37.9618 32.2419 37.8975 32.2413 37.8332 32.2391C37.769 32.2367 37.7049 32.2328 37.6407 32.2273C37.5767 32.2217 37.5129 32.2144 37.4492 32.2056C37.3856 32.1967 37.3223 32.1861 37.2592 32.1738C37.1961 32.1616 37.1333 32.1479 37.071 32.1325C37.0085 32.1169 36.9465 32.0998 36.885 32.0811C36.8235 32.0624 36.7625 32.0422 36.7021 32.0205C36.6416 31.9985 36.5818 31.9751 36.5225 31.9502C36.4633 31.9252 36.4047 31.8987 36.347 31.8707C36.289 31.8427 36.2319 31.8132 36.1756 31.7822C36.1193 31.7513 36.0639 31.7188 36.0092 31.6849C35.9545 31.6511 35.9008 31.6159 35.8481 31.5793C35.7952 31.5426 35.7433 31.5046 35.6925 31.4653C35.6417 31.4259 35.5919 31.3853 35.5432 31.3433C34.8672 30.772 34.3425 29.92 34.2754 29.0236C34.2214 28.2991 34.4479 27.5309 34.909 26.9705C35.3719 26.1685 35.7356 25.8062 36.5127 25.3369Z" fill="#FF8D00"/>
<path d="M37.9019 26.5882C38.3335 26.6269 38.7079 26.6976 39.075 26.9436C39.1443 26.9896 39.2112 27.0391 39.2755 27.092C39.3397 27.145 39.4011 27.2013 39.4594 27.2607C39.5178 27.3199 39.573 27.3822 39.625 27.4473C39.6769 27.5124 39.7252 27.5799 39.7701 27.65C39.815 27.7202 39.8562 27.7925 39.8937 27.8669C39.931 27.9413 39.9644 28.0174 39.9939 28.0953C40.0234 28.1733 40.0487 28.2524 40.0699 28.3329C40.0912 28.4135 40.1083 28.4949 40.121 28.5771C40.2237 29.198 40.0848 29.8193 39.7023 30.3222C39.249 30.9178 38.6306 31.0687 37.9232 31.1709C37.5752 31.0818 37.2117 30.9998 36.8941 30.8262C36.115 30.4002 35.8568 29.6898 35.6052 28.8944C35.727 28.4249 35.8697 27.9036 36.1579 27.5071C36.6019 26.8965 37.1883 26.7178 37.9019 26.5882Z" fill="white"/>
<path d="M53.5986 96.8382C53.6095 96.7613 53.621 96.6846 53.6333 96.608C53.6835 96.2964 53.7429 95.9082 54.0578 95.754C54.8344 95.3735 56.314 96.1362 57.0851 96.4184L56.7691 97.8491C57.3504 98.2407 57.86 98.7144 58.3813 99.1804C58.9473 98.9207 59.4598 98.5938 59.9844 98.2609C60.5162 99.164 60.9818 100.106 61.4611 101.038C61.0971 101.17 60.7453 101.286 60.4171 101.494C60.2489 101.842 60.3124 102.031 60.3478 102.411C60.0973 102.47 59.876 102.523 59.6593 102.67C59.1104 103.042 58.6013 103.713 58.1009 104.171C57.3458 104.862 56.1038 105.51 55.5889 106.364C55.1431 107.102 54.8526 108.011 54.3066 108.674C53.5489 109.593 51.9677 110.373 51.5466 111.466L51.6791 111.538C51.962 111.695 52.1653 111.757 52.2613 112.082C52.3522 112.39 52.3595 112.844 52.2815 113.156C52.1095 112.767 52.0453 112.307 51.9531 111.893C51.2151 111.623 50.4717 111.433 49.7084 111.248C49.4893 111.61 49.2164 111.938 48.9571 112.272C47.8835 111.586 46.796 110.786 45.9318 109.848L47.1729 108.901C46.7478 108.101 46.3624 107.274 45.9595 106.462C45.332 106.467 44.6969 106.524 44.0702 106.561C44.0389 105.835 43.9331 105.082 43.9702 104.359C43.9902 103.966 44.0998 103.717 44.3946 103.459C44.742 103.381 44.9898 103.543 45.2944 103.687C45.6618 103.102 45.9317 102.505 46.2035 101.872L44.856 101.072C45.3626 100.312 45.8355 99.5269 46.3206 98.7531L47.3133 99.5502C47.7815 99.1918 48.1773 98.7593 48.5838 98.3349C48.3964 97.9887 48.0553 97.5011 48.1613 97.1151C48.8098 96.5484 49.9224 95.9844 50.7833 95.8975C51.0675 96.156 51.1806 96.6831 51.3146 97.0453C52.0802 97.0309 52.8391 96.9269 53.5986 96.8382Z" fill="url(#paint3_linear_911_7376)"/>
<path d="M52.4614 101.232C53.0194 101.195 53.5205 101.188 54.055 101.382C54.1556 101.418 54.254 101.459 54.3503 101.504C54.4467 101.55 54.5406 101.6 54.6319 101.655C54.7233 101.71 54.8116 101.77 54.8967 101.834C54.9819 101.898 55.0637 101.967 55.1421 102.039C55.2205 102.111 55.2949 102.187 55.3654 102.267C55.4359 102.347 55.5023 102.431 55.5645 102.517C55.6266 102.604 55.6842 102.694 55.7372 102.786C55.7902 102.879 55.8384 102.974 55.8819 103.071C55.9214 103.16 55.9565 103.251 55.987 103.344C56.0175 103.436 56.0433 103.53 56.0643 103.625C56.0855 103.72 56.1018 103.816 56.1132 103.913C56.1246 104.01 56.1312 104.107 56.133 104.204C56.1346 104.302 56.1314 104.399 56.1234 104.496C56.1153 104.593 56.1024 104.69 56.0847 104.785C56.067 104.881 56.0444 104.976 56.0172 105.07C55.9899 105.163 55.9581 105.255 55.9216 105.345C55.5225 106.316 54.7719 106.778 53.8374 107.145C53.2896 107.238 52.7974 107.252 52.2643 107.066C51.5199 106.808 50.9281 106.263 50.5852 105.556C50.5376 105.46 50.4951 105.362 50.4576 105.262C50.42 105.162 50.3877 105.06 50.3607 104.957C50.3336 104.853 50.312 104.749 50.2959 104.643C50.2796 104.537 50.2687 104.431 50.2634 104.324C50.2581 104.217 50.2582 104.111 50.2639 104.004C50.2695 103.897 50.2805 103.791 50.297 103.685C50.3136 103.579 50.3356 103.475 50.363 103.372C50.3902 103.268 50.4227 103.166 50.4605 103.066C50.8379 102.086 51.5252 101.616 52.4614 101.232Z" fill="white"/>
<path d="M159.967 84.5824C162.238 84.578 164.523 84.5262 166.794 84.5758L166.877 84.7135C168.262 87.05 168.864 89.8302 170.351 92.13C170.376 92.1678 170.394 92.2104 170.424 92.244C170.62 92.4644 171.338 92.6084 171.635 92.7478C173.071 93.4204 174.261 94.9509 174.88 96.3891C175.616 98.2789 175.308 100.582 175.443 102.589L172.466 102.595C171.812 102.556 171.148 102.575 170.493 102.575L170.073 102.335C168.197 101.154 166.385 100.385 164.118 100.907C162.55 101.268 161.31 102.159 160.071 103.143C159.763 101.65 159.958 98.9735 159.951 97.3486C159.932 93.0989 159.838 88.8295 159.967 84.5824Z" fill="#FF8D00"/>
<path d="M172.466 102.595C172.48 100.951 172.301 98.4447 172.593 96.9022C172.65 96.6038 172.695 96.4822 172.98 96.3393C173.518 96.0698 174.331 96.2524 174.881 96.3891C175.616 98.2789 175.308 100.582 175.444 102.589L172.466 102.595Z" fill="#FEF915"/>
<path d="M160.99 85.5629C162.687 85.6102 164.382 85.5776 166.079 85.5509C167.378 87.6996 168.174 90.2447 169.223 92.5313C166.481 92.5539 163.739 92.547 160.998 92.5107L160.99 85.5629Z" fill="white"/>
<path d="M127.081 99.2338C127.081 98.9542 127.041 98.5467 127.177 98.2956C127.41 97.8622 128.145 97.6204 128.592 97.5478C130.742 97.1991 133.287 97.7189 135.016 99.0313L134.976 100.632C135.518 101.091 136.086 101.437 136.725 101.742C137.088 101.418 137.546 101.237 137.981 101.028C139.401 102.419 139.527 104.066 140.365 105.594C139.718 106.087 138.844 106.611 138.728 107.492C138.671 107.931 138.758 108.311 139.043 108.651C139.097 108.714 139.154 108.775 139.211 108.836C139.338 109.469 139.119 110.113 138.771 110.642C138.289 111.376 137.863 111.755 137.017 111.973C136.631 112.282 136.498 112.483 136.437 112.99C136.401 113.288 136.382 113.59 136.365 113.89C135.503 114.571 134.608 115.162 133.608 115.621C133.242 115.343 132.881 115.039 132.491 114.797C131.649 115.14 130.887 115.71 130.086 116.146C127.848 116.079 128.32 114.644 127.07 114.346C126.515 114.214 126.113 114.539 125.676 114.822C124.825 114.38 123.724 113.872 123.336 112.945C123.578 112.589 123.695 112.08 123.759 111.657C123.485 110.965 122.654 111.342 122.071 111.08C121.379 110.188 121.263 108.746 121.151 107.651C121.544 107.348 122.125 106.967 122.171 106.429C122.213 105.934 121.251 105.558 120.968 105.163C120.847 104.995 120.841 104.795 120.864 104.598C121.023 103.242 122.791 100.819 123.844 99.9316C124.239 100.14 124.765 100.494 125.227 100.489C125.899 100.482 126.58 99.6542 127.081 99.2338Z" fill="url(#paint4_linear_911_7376)"/>
<path d="M137.981 101.028C139.401 102.419 139.527 104.066 140.365 105.594C139.718 106.087 138.845 106.611 138.729 107.492C138.671 107.931 138.758 108.311 139.043 108.651C139.097 108.714 139.154 108.775 139.211 108.836C139.339 109.469 139.119 110.113 138.771 110.642C138.289 111.376 137.863 111.755 137.018 111.973C136.631 112.282 136.499 112.483 136.438 112.99C136.402 113.288 136.382 113.59 136.365 113.89C135.503 114.571 134.609 115.162 133.608 115.621C133.242 115.343 132.881 115.039 132.491 114.797C133.505 113.063 135.524 112.205 136.715 110.691C137.245 110.017 137.529 109.133 137.836 108.342C138.163 107.499 138.499 106.675 138.622 105.773C138.69 105.278 138.935 102.987 138.833 102.638C138.722 102.258 138.203 101.682 137.953 101.353C137.611 101.348 137.141 101.699 136.815 101.853L136.725 101.742C137.088 101.418 137.546 101.237 137.981 101.028Z" fill="#DB3305"/>
<path d="M129.761 103.658C130.435 103.893 131.174 103.731 131.809 104.034C132.716 104.466 133.4 105.193 133.724 106.151C134.037 107.076 133.931 108.123 133.493 108.991C133.013 109.941 132.319 110.391 131.34 110.728C130.706 110.782 130.054 110.769 129.417 110.781C128.41 110.199 127.609 109.451 127.213 108.329C126.894 107.422 126.93 106.422 127.361 105.558C127.854 104.567 128.737 103.993 129.761 103.658Z" fill="white"/>
<path d="M0.114095 58.4162C1.39809 58.5427 2.75787 58.3404 4.05409 58.3496C9.61454 58.3891 15.1636 58.1233 20.7221 58.1431C23.1274 58.1516 25.5388 58.2684 27.9448 58.3173C31.739 58.3659 35.5322 58.4556 39.3245 58.5862C42.8532 58.7373 46.3603 59.0349 49.8954 59.0713L49.9052 59.9482C49.9625 62.1685 50.0059 64.3891 50.0354 66.61C51.315 66.5849 52.6072 66.5202 53.8861 66.5718C53.1701 66.9629 31.8008 66.8204 29.2776 66.8753C28.781 68.6633 28.7008 70.2867 28.7696 72.1349C28.1003 71.0667 28.6456 68.782 28.867 67.616L28.8223 67.6396L28.931 67.3047C28.2765 67.2458 23.7494 67.1107 23.3948 67.3529C22.889 67.6982 22.6888 68.5044 21.9312 68.4911C21.273 68.4793 20.7545 67.7633 20.3583 67.3136C16.9532 67.1776 13.5372 67.2729 10.1299 67.2682C6.79232 67.2635 3.44498 67.1391 0.104095 67.1187L0.106984 59.6731L0.102539 59.1684L0.114095 58.4162Z" fill="url(#paint5_linear_911_7376)"/>
<path d="M21.5391 65.8811C21.6356 65.8742 21.732 65.866 21.8287 65.8642C22.2523 65.8558 22.6754 65.9784 22.9558 66.3142C23.1411 66.5364 23.1963 66.82 23.146 67.1015C23.06 67.5838 22.6998 67.8411 22.3425 68.128C21.906 68.1327 21.3498 68.1162 21.0069 67.8038C20.786 67.6024 20.6552 67.3851 20.6698 67.0778C20.696 66.5204 21.1387 66.1904 21.5391 65.8811Z" fill="#FF8D00"/>
<path d="M0.114095 58.4162C1.3981 58.5427 2.75787 58.3404 4.05409 58.3496C9.61454 58.3891 15.1636 58.1233 20.7221 58.1431C23.1274 58.1516 25.5388 58.2684 27.9448 58.3173C31.739 58.3659 35.5322 58.4556 39.3245 58.5862C42.8532 58.7373 46.3603 59.0349 49.8954 59.0713L49.9052 59.9482C49.5999 59.9462 49.2854 59.9489 48.9816 59.9784C48.2374 60.0511 44.8132 60.0373 44.3097 59.6793L44.4561 59.6093L44.4383 59.496C43.7134 59.6333 43.0272 59.5173 42.2999 59.5322C38.9561 59.6011 35.591 59.4373 32.2437 59.3944C30.9314 59.3778 29.5459 59.2467 28.2419 59.3873C27.0241 59.6544 23.4108 59.3576 21.8983 59.3258C17.1599 59.226 12.4501 59.448 7.71587 59.4967C5.91143 59.5153 1.60676 59.268 0.106984 59.6731L0.102539 59.1684L0.114095 58.4162Z" fill="#B4B4B4"/>
<path d="M84.7898 0.47244C86.5938 0.295106 88.3925 0.157105 90.2076 0.209772C90.7456 0.225549 92.4802 0.213772 92.8091 0.678661C93.1402 1.14711 92.9391 2.17421 92.8958 2.72155C93.7105 3.04933 94.2558 3.41333 94.8633 4.03488C95.2678 3.64822 95.6302 3.28222 96.1293 3.01666L96.382 2.93311C97.5929 3.63533 99.4173 6.59755 100.164 7.88155C99.5409 8.20377 98.9205 8.51844 98.2789 8.80155C98.4767 9.38688 98.6718 9.95866 98.7945 10.5656C99.5476 10.6276 100.292 10.6684 101.048 10.6749C101.02 12.8653 100.769 14.9491 100.139 17.0593C99.4796 17.0409 98.6189 16.8907 98.0918 17.3578C97.9645 17.8773 98.1322 18.1149 98.3973 18.554C98.5393 18.7881 98.6829 19.0211 98.8282 19.2531C98.0019 20.0218 97.1384 20.7464 96.238 21.4269C95.1736 22.2171 94.0871 23.1182 92.9225 23.7489C92.5503 23.3567 92.184 22.9592 91.8236 22.5562C90.9776 22.7507 90.1758 22.8695 89.3136 22.952L88.7465 24.4282C87.2167 24.3278 85.8336 24.116 84.3522 23.7073C84.2336 23.3882 84.1585 23.0593 83.9178 22.8129L83.892 22.5749C83.6522 22.412 83.3613 22.2011 83.0862 22.1038C82.7691 21.9918 82.5156 22.116 82.2211 22.2311C82.1811 22.2469 82.1411 22.2635 82.1011 22.2795C81.2844 22.176 80.3909 21.1389 79.7913 20.5927C79.2749 20.1106 78.7669 19.6198 78.2673 19.1202C78.6058 18.6482 78.9316 18.1658 79.2629 17.6889C78.5485 17.3173 77.8382 17.2004 77.0531 17.0667C76.6173 14.8313 76.318 12.7251 76.3613 10.4407L78.2067 10.6518C78.3853 10.036 78.5853 9.4711 78.8549 8.88843C78.2747 8.56977 77.7702 8.26532 77.2716 7.82444C78.224 5.94888 79.7578 4.17955 81.0696 2.54133L82.758 3.90333C83.2749 3.52399 83.9165 3.21533 84.3936 2.80288C84.9562 2.31644 84.7856 1.14844 84.7898 0.47244Z" fill="#FF8D00"/>
<path d="M96.1294 3.01666L96.3821 2.93311C97.593 3.63533 99.4174 6.59755 100.164 7.88155C99.541 8.20377 98.9205 8.51844 98.279 8.80155C98.4768 9.38688 98.6719 9.95866 98.7945 10.5656C99.5476 10.6276 100.292 10.6684 101.048 10.6749C101.021 12.8653 100.769 14.9491 100.139 17.0593C99.4796 17.0409 98.619 16.8907 98.0919 17.3578C97.9645 17.8773 98.1323 18.1149 98.3974 18.554C98.5394 18.7881 98.683 19.0211 98.8283 19.2531C98.0019 20.0218 97.1385 20.7464 96.2381 21.4269C95.1736 22.2171 94.0872 23.1182 92.9225 23.7489C92.5504 23.3567 92.1841 22.9592 91.8236 22.5562C90.9776 22.7507 90.1759 22.8695 89.3136 22.952L88.7465 24.4282C87.2168 24.3278 85.8336 24.116 84.3523 23.7073C84.2336 23.3882 84.1585 23.0593 83.9179 22.8129L83.8921 22.5749L84.0348 22.5331C84.1876 22.8535 84.3588 23.3458 84.6568 23.5378C85.8994 24.3382 87.5696 23.9455 88.8919 23.5953C88.9645 23.312 89.0376 23.0622 89.1581 22.7938C89.9068 22.5804 90.793 22.4918 91.5712 22.4427C92.0063 22.4151 92.0014 22.4958 92.3163 22.7744C93.2112 22.8851 94.1992 22.5453 94.9536 22.0809C95.5721 21.7004 98.2874 19.7031 98.3088 19.0655C98.3316 18.3787 97.4992 17.958 97.6725 17.2329C98.2248 16.6411 99.2114 17.0689 99.9074 16.7984C99.9725 16.6724 99.9779 16.6695 100.036 16.5131C100.415 15.4818 101.165 11.8833 100.747 10.9224C100.137 10.6764 99.4483 10.92 98.8401 10.7193C98.6301 10.65 98.6125 10.5615 98.5145 10.358C98.2479 9.80399 98.0601 9.25911 98.2781 8.66888C98.4972 8.41488 98.6563 8.32155 98.9674 8.19799C99.2794 8.07399 99.6139 8.02244 99.7883 7.73022C99.6059 6.95955 97.1428 3.70066 96.4428 3.22466C96.3979 3.19422 96.3514 3.16644 96.3061 3.13644L96.1294 3.01666Z" fill="#DB3305"/>
<path d="M86.2239 15.752C86.0743 15.7004 85.9143 15.6522 85.7774 15.5695C84.4774 14.7833 85.0314 13.4389 84.4794 12.3867C84.041 11.5507 82.5861 11.5838 82.3156 10.4195C82.1725 9.80243 82.5496 9.11021 82.8745 8.60688C83.1461 8.18576 83.4563 7.84799 83.9834 7.78377C84.983 7.66177 85.1485 8.80976 85.7836 9.27154C86.0725 9.48132 87.6625 8.58199 88.1372 8.51399C88.637 8.44221 88.9665 8.4871 89.3787 8.77843C88.0732 8.7611 86.909 8.8951 85.9161 9.85155C85.1545 10.5853 84.7521 11.656 84.7699 12.7073C84.791 13.9675 85.3919 14.8731 86.2239 15.752Z" fill="#FCB25B"/>
<path d="M89.3787 8.77845C90.6841 9.37512 91.5916 9.96379 92.1281 11.366C92.4827 12.2933 92.4401 13.2713 92.0199 14.1702C91.9895 14.235 91.9576 14.2988 91.9241 14.3618C91.8905 14.4249 91.8553 14.4871 91.8185 14.5485C91.7818 14.6096 91.7435 14.6699 91.7036 14.7293C91.6638 14.7886 91.6224 14.8468 91.5796 14.904C91.5368 14.9612 91.4926 15.0173 91.447 15.0722C91.4013 15.1272 91.3543 15.181 91.3058 15.2336C91.2574 15.2862 91.2076 15.3374 91.1565 15.3873C91.1056 15.4374 91.0533 15.4861 90.9999 15.5333C90.9462 15.5807 90.8915 15.6267 90.8356 15.6711C90.7798 15.7157 90.7228 15.7588 90.6647 15.8005C90.6067 15.8421 90.5476 15.8822 90.4874 15.9209C90.4273 15.9594 90.3662 15.9965 90.3043 16.032C90.2422 16.0674 90.1793 16.1013 90.1156 16.1336C90.0519 16.1659 89.9874 16.1965 89.9221 16.2256C89.8567 16.2546 89.7907 16.2819 89.7241 16.3073C89.6573 16.333 89.5899 16.3569 89.5221 16.3791C89.4117 16.4136 89.2999 16.4427 89.1865 16.4662C89.0732 16.4896 88.959 16.5074 88.8439 16.5196C88.7289 16.5316 88.6135 16.5379 88.4976 16.5387C88.3819 16.5393 88.2665 16.5342 88.1514 16.5233C88.0362 16.5125 87.9218 16.496 87.8083 16.4738C87.6947 16.4516 87.5824 16.4238 87.4716 16.3905C87.361 16.3571 87.2522 16.3183 87.1452 16.274C87.0382 16.2299 86.9337 16.1805 86.8316 16.126C86.6227 16.0125 86.4225 15.8818 86.2239 15.752C85.3919 14.8731 84.791 13.9676 84.7699 12.7073C84.7521 11.656 85.1545 10.5853 85.9161 9.85156C86.909 8.89512 88.0732 8.76112 89.3787 8.77845Z" fill="white"/>
<path d="M160.071 103.143C161.31 102.159 162.55 101.268 164.118 100.907C166.385 100.385 168.197 101.154 170.073 102.335L169.292 102.468C170.619 103.416 171.458 104.712 171.759 106.328C171.842 106.773 171.895 107.311 171.646 107.713L171.223 107.841C170.867 109.298 170.405 110.61 169.052 111.441C168.815 111.586 168.561 111.72 168.308 111.836C168.34 111.844 168.371 111.852 168.403 111.859C169.06 112 169.76 111.96 170.43 111.967C172.292 111.988 174.007 111.983 175.782 112.629C176.445 112.871 177.134 113.192 177.556 113.783C177.744 114.046 177.836 114.314 177.876 114.632C177.989 115.543 177.865 116.537 177.867 117.46C177.873 119.471 177.93 121.488 177.864 123.498C177.422 122.408 178.124 120.218 177.708 119.333C168.871 119.726 160.028 119.806 151.188 120.083C146.67 120.224 142.159 120.601 137.632 120.613C136.462 120.617 135.263 120.668 134.099 120.581C131.407 120.379 129.058 119.387 126.507 118.629C124.549 118.047 122.586 117.846 120.594 117.474C119.655 117.298 118.732 116.987 117.775 116.937C117.552 117.507 117.803 119.942 117.583 120.105C117.368 117.986 117.476 114.994 117.553 112.821C119.447 112.827 121.46 112.712 123.336 112.945C123.724 113.872 124.826 114.38 125.676 114.822C126.113 114.539 126.516 114.214 127.07 114.346C128.32 114.644 127.848 116.079 130.086 116.146C130.888 115.71 131.649 115.14 132.491 114.797C132.881 115.039 133.242 115.343 133.608 115.621C134.608 115.162 135.503 114.571 136.365 113.89C136.382 113.59 136.402 113.288 136.438 112.99C136.498 112.483 136.631 112.282 137.018 111.973C137.05 111.99 137.08 112.01 137.113 112.024C137.806 112.297 148.28 112.202 148.994 111.851C150.274 112.115 151.489 112.225 152.763 111.823C153.054 111.716 153.302 111.556 153.565 111.394C155.022 110.676 155.594 109.373 156.109 107.928C157.168 107.667 159.076 107.879 160.215 107.901C160.208 106.355 160.302 104.669 160.071 103.143Z" fill="url(#paint6_linear_911_7376)"/>
<path d="M156.109 107.928C157.924 108.186 159.948 108.004 161.778 107.972C162.097 109.343 162.551 110.505 163.785 111.308C164.131 111.532 164.527 111.704 164.916 111.838C164.366 112.174 153.968 112.026 152.763 111.823C153.054 111.716 153.302 111.556 153.565 111.394C155.022 110.676 155.594 109.373 156.109 107.928Z" fill="white"/>
<path d="M160.071 103.143C161.31 102.159 162.55 101.268 164.118 100.907C166.385 100.385 168.197 101.154 170.073 102.335L169.292 102.468C170.619 103.416 171.458 104.712 171.759 106.328C171.842 106.773 171.895 107.311 171.646 107.713L171.223 107.841C170.867 109.298 170.405 110.61 169.052 111.441C168.815 111.586 168.561 111.72 168.308 111.836C167.098 112.146 166.122 112.052 164.916 111.838C164.527 111.704 164.13 111.532 163.785 111.308C162.551 110.505 162.097 109.343 161.778 107.972C159.948 108.004 157.924 108.186 156.109 107.928C157.168 107.667 159.076 107.879 160.215 107.901C160.208 106.355 160.302 104.669 160.071 103.143Z" fill="#404040"/>
<path d="M168.811 106.354C169.006 107.042 169.216 107.718 168.819 108.384C168.552 108.832 168.107 109.072 167.609 109.18C167.178 109.274 166.756 109.296 166.318 109.266C166.683 109.032 167.028 108.854 167.434 108.701C167.739 108.566 168.022 108.415 168.265 108.182C168.764 107.702 168.775 106.997 168.811 106.354Z" fill="#7A7679"/>
<path d="M164.497 106.372C164.562 106.823 164.626 107.148 164.85 107.546C165.689 108.394 166.26 108.606 167.434 108.701C167.028 108.854 166.683 109.032 166.317 109.266C165.78 109.161 165.268 109.004 164.905 108.565C164.372 107.922 164.441 107.147 164.497 106.372Z" fill="#7A7679"/>
<path d="M164.497 106.372C164.662 105.972 164.816 105.59 165.139 105.289C165.616 104.842 166.248 104.879 166.857 104.914C166.684 105.352 165.952 105.499 165.622 105.875C165.188 106.369 165.132 106.999 164.85 107.546C164.626 107.148 164.562 106.823 164.497 106.372Z" fill="white"/>
<path d="M166.857 104.914C167.801 105.178 168.321 105.486 168.811 106.354C168.775 106.997 168.764 107.702 168.265 108.182C168.022 108.415 167.739 108.566 167.434 108.701C166.26 108.606 165.689 108.394 164.85 107.546C165.132 106.999 165.188 106.369 165.622 105.875C165.952 105.499 166.684 105.352 166.857 104.914Z" fill="#B4B4B4"/>
<path d="M160.071 103.143C161.31 102.159 162.55 101.268 164.118 100.907C166.385 100.385 168.197 101.154 170.073 102.335L169.292 102.468C167.73 101.913 165.986 101.814 164.46 102.571C164.388 102.608 164.316 102.646 164.245 102.687C164.175 102.727 164.105 102.769 164.036 102.813C163.968 102.857 163.9 102.902 163.834 102.949C163.768 102.997 163.703 103.045 163.639 103.096C163.575 103.147 163.513 103.199 163.452 103.252C163.39 103.306 163.331 103.361 163.272 103.418C163.214 103.475 163.157 103.533 163.102 103.593C163.046 103.652 162.993 103.713 162.94 103.776C162.888 103.838 162.837 103.902 162.788 103.967C162.739 104.032 162.692 104.098 162.646 104.165C162.6 104.232 162.556 104.301 162.514 104.37C162.472 104.44 162.431 104.511 162.393 104.582C162.354 104.654 162.317 104.727 162.282 104.8C162.248 104.873 162.214 104.948 162.183 105.023C162.152 105.098 162.123 105.174 162.095 105.251C162.068 105.327 162.043 105.405 162.019 105.483C161.761 106.314 161.76 107.114 161.778 107.972C159.948 108.004 157.924 108.186 156.109 107.928C157.168 107.667 159.076 107.879 160.215 107.901C160.208 106.355 160.302 104.669 160.071 103.143Z" fill="url(#paint7_linear_911_7376)"/>
<path d="M138.303 87.3998C138.014 86.2956 138.039 84.0933 138.196 82.9387C138.204 82.8744 138.215 82.8103 138.226 82.7465C138.238 82.6828 138.251 82.6193 138.266 82.5562C138.281 82.4931 138.298 82.4305 138.316 82.3682C138.335 82.306 138.355 82.2443 138.376 82.1831C138.398 82.1219 138.421 82.0613 138.445 82.0013C138.47 81.9413 138.496 81.882 138.524 81.8233C138.552 81.7648 138.581 81.707 138.612 81.6498C138.643 81.5928 138.675 81.5365 138.708 81.4811C138.742 81.4257 138.777 81.3712 138.814 81.3176C138.85 81.2639 138.888 81.2113 138.928 81.1598C138.967 81.1081 139.007 81.0575 139.049 81.008C139.091 80.9585 139.134 80.9102 139.179 80.8629C139.223 80.8156 139.269 80.7696 139.316 80.7247C139.363 80.6798 139.411 80.6362 139.46 80.5938C139.509 80.5514 139.559 80.5104 139.61 80.4707C139.662 80.4308 139.714 80.3924 139.767 80.3553C140.341 79.9489 140.964 79.734 141.659 79.6474C143.85 79.3747 147.006 79.6298 149.312 79.628L155.021 79.6051C156.207 79.5938 157.496 79.4453 158.664 79.6716C159.076 79.7667 159.424 79.7893 159.659 80.1893C160.253 81.2009 159.955 83.4138 159.967 84.5824C159.838 88.8296 159.932 93.0989 159.951 97.3487C159.958 98.9736 159.763 101.65 160.071 103.143C160.302 104.669 160.208 106.355 160.215 107.901C159.076 107.879 157.168 107.667 156.109 107.928C155.594 109.373 155.022 110.676 153.565 111.394C153.302 111.556 153.054 111.716 152.763 111.823C151.489 112.225 150.274 112.115 148.994 111.851C148.28 112.202 137.806 112.297 137.113 112.024C137.08 112.01 137.05 111.99 137.018 111.973C137.863 111.755 138.289 111.376 138.771 110.642C139.119 110.113 139.338 109.469 139.211 108.836C139.154 108.775 139.097 108.714 139.043 108.651C138.758 108.311 138.671 107.931 138.728 107.492C138.844 106.611 139.718 106.087 140.365 105.594C139.527 104.066 139.401 102.419 137.981 101.028C138.449 100.464 137.96 94.9016 138.209 93.6096C138.214 91.5396 138.285 89.47 138.303 87.3998Z" fill="url(#paint8_linear_911_7376)"/>
<path d="M138.303 87.3998C138.312 86.2336 138.307 85.0656 138.365 83.9005C138.58 85.3687 138.827 94.4584 138.291 95.3173L138.209 93.6096C138.214 91.5396 138.285 89.47 138.303 87.3998Z" fill="#D3D3D3"/>
<path d="M141.087 91.2224L148.623 91.2025L148.621 92.7722C146.08 92.721 143.539 92.7022 140.997 92.716C140.989 92.2071 141.022 91.7271 141.087 91.2224Z" fill="#404040"/>
<path d="M140.894 83.5604C145.352 83.7829 149.852 83.6695 154.316 83.6613L154.278 85.2075L140.925 85.2471L140.894 83.5604Z" fill="#404040"/>
<path d="M141.029 87.4515C145.463 87.4107 149.897 87.3955 154.332 87.406L154.309 89.0211C149.89 89.1235 145.439 88.9958 141.016 89.0031L141.029 87.4515Z" fill="#404040"/>
<path d="M143.809 105.776C143.823 105.652 143.835 105.527 143.856 105.404C144.134 103.792 145.066 102.159 146.41 101.217C147.917 100.16 149.978 99.8482 151.769 100.187C155.034 100.805 155.698 103.111 157.334 105.496C156.996 105.544 156.689 105.619 156.359 105.499C155.071 103.558 155.018 102.249 152.218 101.699C150.697 101.4 148.883 101.63 147.61 102.544C146.557 103.3 145.972 104.385 145.772 105.65C145.12 105.693 144.461 105.761 143.809 105.776Z" fill="#B4B4B4"/>
<path d="M158.664 79.6715C159.076 79.7667 159.424 79.7893 159.659 80.1893C160.253 81.2009 159.955 83.4138 159.967 84.5824C159.838 88.8295 159.932 93.0989 159.951 97.3486C159.958 98.9735 159.763 101.65 160.071 103.143C160.302 104.669 160.208 106.355 160.215 107.901C159.076 107.879 157.168 107.667 156.109 107.928C155.594 109.373 155.022 110.676 153.565 111.394C153.302 111.556 153.054 111.716 152.763 111.823C151.489 112.225 150.274 112.115 148.994 111.851C148.28 112.202 137.806 112.297 137.113 112.024C137.08 112.01 137.05 111.99 137.018 111.973C137.863 111.755 138.289 111.376 138.771 110.642C139.119 110.113 139.338 109.469 139.211 108.836C139.154 108.775 139.097 108.714 139.043 108.651C138.758 108.311 138.671 107.931 138.728 107.492C138.844 106.611 139.718 106.087 140.365 105.594L140.518 105.806C141.606 105.738 142.718 105.781 143.809 105.776C144.461 105.761 145.12 105.693 145.772 105.65C145.972 104.385 146.557 103.3 147.61 102.544C148.883 101.63 150.697 101.4 152.218 101.699C155.018 102.249 155.072 103.558 156.359 105.499C156.689 105.619 156.996 105.544 157.334 105.496C157.646 105.474 157.953 105.442 158.263 105.405C158.461 105.201 158.446 105.043 158.467 104.763C158.624 102.67 158.514 100.5 158.519 98.3975L158.507 85.34C158.504 84.0391 158.259 80.7838 158.664 79.6715Z" fill="#404040"/>
<path d="M148.692 106.117C148.741 106.025 148.791 105.933 148.843 105.843C149.179 105.264 149.697 104.877 150.357 104.735C151.147 104.565 151.855 104.819 152.507 105.253C152.833 105.678 153.03 106.071 153.221 106.57C153.225 106.786 153.229 107.006 153.206 107.222C153.137 107.878 152.823 108.522 152.278 108.909C151.78 109.262 151.173 109.378 150.575 109.274C149.901 109.158 149.287 108.79 148.909 108.213C148.459 107.527 148.508 106.883 148.692 106.117Z" fill="#B4B4B4"/>
<path d="M148.692 106.117C148.74 106.025 148.791 105.933 148.843 105.843C149.178 105.264 149.696 104.877 150.357 104.735C151.147 104.565 151.855 104.819 152.507 105.253C152.063 105.872 151.137 107.502 150.353 107.578C149.962 107.616 149.654 107.379 149.401 107.114C149.196 106.902 149.007 106.677 148.833 106.438L148.692 106.117Z" fill="white"/>
<path d="M137.018 111.973C137.863 111.755 138.289 111.376 138.771 110.642C139.119 110.113 139.338 109.469 139.211 108.836C139.154 108.775 139.097 108.714 139.043 108.651C138.758 108.311 138.671 107.931 138.728 107.492C138.844 106.611 139.718 106.087 140.365 105.594L140.518 105.806C140.616 106.348 140.7 106.892 140.769 107.438C142.436 107.438 144.112 107.4 145.778 107.445C145.882 108.316 146.128 109.488 146.769 110.122C147.264 111.012 148.083 111.471 148.994 111.851C148.28 112.202 137.806 112.297 137.113 112.024C137.08 112.01 137.05 111.99 137.018 111.973Z" fill="white"/>
<path d="M79.7913 20.5927C80.3908 21.1389 81.2844 22.176 82.1011 22.2795C82.1411 22.2635 82.1811 22.2469 82.2211 22.2311C82.5155 22.116 82.7691 21.9918 83.0862 22.1038C83.3613 22.2011 83.6522 22.412 83.892 22.5749L83.9177 22.8129C84.1584 23.0593 84.2335 23.3882 84.3522 23.7073C85.8335 24.116 87.2166 24.3278 88.7464 24.4282L89.3135 22.952C90.1757 22.8695 90.9775 22.7507 91.8235 22.5562C92.1839 22.9592 92.5502 23.3567 92.9224 23.7489C94.0871 23.1182 95.1735 22.2171 96.2379 21.4269C98.1219 22.1631 100.248 23.2351 101.161 25.1618C101.314 25.4847 101.431 25.8338 101.552 26.1695C101.777 28.0667 101.669 30.022 101.634 31.9291L107.75 31.8753C109.099 31.8647 110.519 31.782 111.86 31.9286C114.583 32.2267 117.29 33.7273 119.213 35.638C120.254 36.6715 121.769 38.4827 121.942 39.9789C120.552 39.6169 116.02 39.8798 114.25 39.8851L97.1728 39.8949L69.7811 39.9578L61.8642 39.9151C60.3711 39.9053 58.7322 39.7684 57.2577 40.018C56.5353 40.1404 55.8128 40.61 55.3124 41.1333C54.2126 42.2831 54.118 43.614 54.0106 45.1058L53.3484 45.1069C53.2939 44.9711 53.2519 44.8624 53.2279 44.7173C53.0537 43.6669 53.1588 42.4542 53.1484 41.3835C53.1197 38.402 52.7446 35.1689 54.7199 32.6673C56.1397 30.8691 58.5011 29.9684 60.7195 29.7169C62.0384 29.5675 63.3715 29.55 64.6975 29.5358C67.8026 29.5022 70.4791 29.6764 73.0148 31.6842C72.9624 31.3273 72.91 30.9693 72.8755 30.6102C72.6206 27.948 73.6591 25.1044 75.3751 23.0835C76.5133 21.7431 78.0053 20.7395 79.7913 20.5927Z" fill="url(#paint9_linear_911_7376)"/>
<path d="M19.0115 83.1018C21.1397 82.9607 23.2849 82.9971 25.4173 82.988C25.7226 84.7871 25.772 86.6787 25.8935 88.4998C27.4713 88.8567 28.8482 89.4713 30.3117 90.1385C31.5924 89.2347 32.828 87.9509 34.2093 87.2396C35.8608 88.89 37.5093 90.5616 39.0306 92.334C38.0749 93.5465 37.1313 94.8178 36.0395 95.9107C36.8326 97.6569 37.3868 99.4787 37.856 101.334C39.4188 101.449 40.992 101.485 42.558 101.546C42.5571 103.743 42.6009 105.958 42.4644 108.15C40.8784 108.371 39.2544 108.447 37.6577 108.575C37.2711 110.003 36.6609 111.31 36.0071 112.63C36.4673 113.432 37.0326 114.182 37.524 114.968L37.4411 115.163C37.5826 115.366 37.7131 115.558 37.8275 115.778C37.8215 115.809 37.8151 115.84 37.8095 115.871C37.7126 116.409 37.6862 117.03 37.9197 117.535L37.7764 117.775L37.88 117.909C37.0611 118.912 36.0177 119.776 35.0644 120.649C33.6069 119.689 32.1626 118.709 30.7313 117.71C29.3722 118.551 27.9335 119.135 26.4224 119.64C26.144 121.071 25.7493 122.479 25.3426 123.878C23.5435 123.909 21.7409 123.887 19.9415 123.887C19.614 122.408 19.2553 120.937 18.8655 119.473C17.1997 118.94 15.7329 118.24 14.1817 117.433C13.0566 118.493 11.7571 119.393 10.5166 120.312C9.23085 119.001 7.66041 117.978 6.35241 116.665C7.15463 115.297 8.43885 114.258 9.36996 112.976C8.56196 111.194 7.48241 109.854 7.09085 107.87C5.2833 107.701 3.43507 107.708 1.62063 107.665C1.55426 105.661 1.52485 103.657 1.53241 101.652C3.28641 101.499 5.08352 101.525 6.84418 101.484C7.17263 99.396 7.89263 97.614 8.78441 95.718C7.59685 94.6173 6.46552 93.4438 5.35063 92.2693C6.50019 90.5407 8.22885 89.0507 9.70841 87.6084C11.1344 88.3693 12.458 89.9711 13.6866 91.0551C15.3331 89.9838 16.8706 89.2482 18.7615 88.7193C18.8204 86.8473 18.9373 84.974 19.0115 83.1018Z" fill="url(#paint10_linear_911_7376)"/>
<path d="M22.0845 91.484C22.1436 91.478 22.2027 91.4698 22.2622 91.4664C25.1782 91.2978 28.1018 92.4273 30.3033 94.3051C32.9729 96.582 34.7027 100.093 34.9425 103.59C35.1538 106.671 33.8622 110.207 31.812 112.503C29.5731 115.009 26.3431 116.4 23.0193 116.575C19.9098 116.618 16.8105 115.744 14.3653 113.76C14.2092 113.634 14.0562 113.504 13.9065 113.37C13.7568 113.236 13.6106 113.098 13.4678 112.957C13.3248 112.815 13.1856 112.67 13.05 112.522C12.9143 112.374 12.7824 112.222 12.6542 112.068C12.5262 111.913 12.4021 111.755 12.2818 111.594C12.1616 111.433 12.0455 111.269 11.9333 111.102C11.8212 110.935 11.7133 110.766 11.6098 110.594C11.5061 110.421 11.4068 110.247 11.3118 110.07C11.2168 109.893 11.1264 109.713 11.0405 109.532C10.9544 109.35 10.8729 109.166 10.796 108.981C10.7191 108.795 10.6469 108.608 10.5793 108.418C10.5118 108.229 10.449 108.038 10.3909 107.846C10.3328 107.653 10.2796 107.46 10.2311 107.265C10.1827 107.07 10.1391 106.874 10.1005 106.676C10.0618 106.479 10.0281 106.281 9.99935 106.082C9.97046 105.883 9.94661 105.684 9.92779 105.484C9.61646 102.142 10.5969 98.6956 12.7678 96.1167C15.2622 93.1531 18.2762 91.8047 22.0845 91.484Z" fill="url(#paint11_linear_911_7376)"/>
<path d="M21.332 95.0322C23.31 94.8167 25.2678 95.0758 26.9787 96.1358C28.9891 97.3813 30.6178 99.5605 31.1584 101.868C31.7169 104.252 31.572 106.783 30.2551 108.899C28.8871 111.097 26.4589 112.597 23.978 113.188C21.7213 113.437 19.5329 113.097 17.6144 111.813C15.6982 110.53 14.1945 108.271 13.7756 106.002C13.3076 103.468 13.9371 100.722 15.4058 98.6129C16.87 96.5105 18.8545 95.4782 21.332 95.0322Z" fill="white"/>
<path d="M31.6898 26.7776C31.5583 27.2498 31.4818 27.7125 31.4167 28.1978C31.8405 28.2342 32.3145 28.2156 32.6716 28.4689C32.8678 28.7976 32.7651 29.2091 32.7074 29.57C32.272 29.6936 31.8534 29.8018 31.4054 29.868C31.4543 30.4571 31.4885 31.0367 31.6396 31.6105C31.9738 31.8327 32.2163 32.0613 32.4856 32.358C32.8776 32.3556 33.2245 32.3365 33.5958 32.4758C33.7987 32.6916 33.8465 32.7425 33.8338 33.0618C33.8196 33.4178 33.5763 33.8956 33.444 34.2256L34.4565 35.0307L35.2127 35.4347C35.5538 34.8869 35.8047 34.344 36.4798 34.1685C36.8545 34.2151 37.0903 34.3418 37.328 34.6345C37.5791 34.9431 37.7745 35.3145 37.974 35.6576C38.7903 35.6689 39.5245 35.6407 40.3283 35.4787C40.5951 35.3578 40.7934 35.2591 41.0191 35.0669C41.0216 34.7511 40.8851 34.6576 40.7069 34.41C40.6591 34.346 40.6136 34.2796 40.5527 34.2265C40.4467 34.134 40.3194 34.0667 40.2196 33.9676C40.0158 33.7649 40.0476 33.386 40.0705 33.1229C40.1571 32.122 40.9709 30.8698 41.9096 30.4736C42.2936 30.3116 42.9056 30.2245 43.2043 29.94C43.2329 29.9127 43.2543 29.8782 43.2791 29.8476L43.4958 30.4907L44.2487 30.7078C44.6485 30.534 44.7507 30.5582 44.9389 30.1496C45.0049 30.4556 45.0505 30.734 45.2249 31.0014C45.4896 32.8987 45.3883 34.9027 45.3985 36.8196L45.4536 45.8847L45.398 56.22C46.41 56.2151 49.0065 55.8462 49.6965 56.5485C49.8951 56.7507 49.9527 56.9849 49.9491 57.2627C49.9467 57.4656 49.93 57.6705 49.9098 57.8725L49.8954 59.0714C46.3603 59.0349 42.8531 58.7374 39.3245 58.5862C35.5322 58.4556 31.7389 58.3659 27.9447 58.3174C25.5387 58.2685 23.1274 58.1516 20.722 58.1431C15.1636 58.1234 9.61448 58.3891 4.05403 58.3496C2.75781 58.3405 1.39803 58.5427 0.114035 58.4162L0.0944799 57.7654C0.087591 57.3158 0.011591 56.6033 0.326035 56.2414C0.844035 55.6445 6.16715 55.9522 7.20381 55.9696L7.22359 37.3607L7.21026 32.0014C7.20648 30.9456 7.13492 29.8251 7.26981 28.7767C7.33559 28.2642 7.50115 27.8049 7.87381 27.4351C8.2547 27.0571 8.62492 26.9538 9.14492 26.8842C11.39 26.584 13.8851 26.7829 16.1565 26.7853C21.3347 26.7907 26.5123 26.8838 31.6898 26.7776Z" fill="url(#paint12_linear_911_7376)"/>
<path d="M32.4856 32.358C31.0852 32.5531 29.5252 32.43 28.1109 32.4284L20.6285 32.4367L13.9285 32.4476C12.9185 32.4493 11.6943 32.5907 10.7136 32.3856C10.5554 32.1751 10.5601 32.1364 10.5427 31.8704C10.7841 31.6093 11.0074 31.5307 11.3607 31.4862C12.7261 31.3138 14.2925 31.5233 15.6825 31.5387C18.1872 31.5662 20.6938 31.5176 23.1978 31.5829C25.9107 31.6536 28.8409 31.9209 31.5369 31.6229C31.5712 31.6191 31.6054 31.6147 31.6396 31.6104C31.9738 31.8327 32.2163 32.0613 32.4856 32.358Z" fill="#B4B4B4"/>
<path d="M33.4441 34.2256L34.4566 35.0307C33.2146 35.1624 31.8639 35.0916 30.6119 35.0996L22.2128 35.0813L14.681 35.0404C13.3897 35.0324 12.0283 35.1093 10.749 34.9722C10.5759 34.788 10.6057 34.7858 10.5681 34.5522L10.7423 34.3507C11.1021 34.1907 11.4241 34.1311 11.8183 34.116C13.3197 34.0584 14.8421 34.132 16.3457 34.1375L24.8357 34.1322L30.0415 34.1284C31.1628 34.1278 32.3341 34.0567 33.4441 34.2256Z" fill="#B4B4B4"/>
<path d="M31.6898 26.7776C31.5583 27.2498 31.4818 27.7125 31.4167 28.1978C31.8405 28.2342 32.3145 28.2156 32.6716 28.4689C32.8678 28.7976 32.7651 29.2091 32.7074 29.57C32.6858 29.2285 32.7071 28.8593 32.5429 28.5562C32.0789 28.7133 31.5025 28.9796 31.0167 29.012C29.0136 29.1456 26.8707 28.95 24.856 28.9202C21.1523 28.866 17.4447 28.8856 13.7405 28.8829C12.5514 28.882 10.7345 28.6454 9.64848 29.0578C9.44581 29.568 9.43648 53.3396 9.51404 56.0049L25.2836 56.0149C26.758 55.8911 28.3071 55.9867 29.7894 55.9858L37.6171 55.9522C39.0291 55.948 40.4878 56.0185 41.8907 55.8527C41.6331 52.3145 41.9929 48.8469 42.0587 45.3216C42.0843 43.9498 41.8511 42.5829 41.8571 41.2109C41.8618 40.1082 42.1356 39.0131 42.0598 37.91C42.0174 37.2947 41.9023 36.5522 41.5178 36.0542C41.1722 35.6062 40.8536 35.5309 40.3283 35.4787C40.5951 35.3578 40.7934 35.2591 41.0191 35.0669C41.0216 34.7511 40.8851 34.6576 40.7069 34.41C40.6591 34.346 40.6136 34.2796 40.5527 34.2265C40.4467 34.134 40.3194 34.0667 40.2196 33.9676C40.0158 33.7649 40.0476 33.386 40.0705 33.1229C40.1571 32.122 40.9709 30.8698 41.9096 30.4736C42.2936 30.3116 42.9056 30.2245 43.2043 29.94C43.2329 29.9127 43.2543 29.8782 43.2791 29.8476L43.4958 30.4907L44.2487 30.7078C44.6485 30.534 44.7507 30.5582 44.9389 30.1496C45.0049 30.4556 45.0505 30.734 45.2249 31.0014C45.4896 32.8987 45.3883 34.9027 45.3985 36.8196L45.4536 45.8847L45.398 56.22C46.41 56.2151 49.0065 55.8462 49.6965 56.5485C49.8951 56.7507 49.9527 56.9849 49.9491 57.2627C49.9467 57.4656 49.93 57.6705 49.9098 57.8725L49.8954 59.0714C46.3603 59.0349 42.8531 58.7374 39.3245 58.5862C35.5322 58.4556 31.7389 58.3659 27.9447 58.3174C25.5387 58.2685 23.1274 58.1516 20.722 58.1431C15.1636 58.1234 9.61448 58.3891 4.05403 58.3496C2.75781 58.3405 1.39803 58.5427 0.114035 58.4162L0.0944799 57.7654C0.087591 57.3158 0.011591 56.6033 0.326035 56.2414C0.844035 55.6445 6.16715 55.9522 7.20381 55.9696L7.22359 37.3607L7.21026 32.0014C7.20648 30.9456 7.13492 29.8251 7.26981 28.7767C7.33559 28.2642 7.50115 27.8049 7.87381 27.4351C8.2547 27.0571 8.62492 26.9538 9.14492 26.8842C11.39 26.584 13.8851 26.7829 16.1565 26.7853C21.3347 26.7907 26.5123 26.8838 31.6898 26.7776Z" fill="#B4B4B4"/>
<path d="M40.707 34.41C40.6592 34.346 40.6137 34.2796 40.5528 34.2265C40.4468 34.134 40.3194 34.0667 40.2197 33.9676C40.0159 33.7649 40.0476 33.386 40.0705 33.1229C40.1572 32.122 40.971 30.8698 41.9096 30.4736C42.2936 30.3116 42.9057 30.2245 43.2043 29.94C43.233 29.9127 43.2543 29.8782 43.2792 29.8476L43.4959 30.4907L44.2488 30.7078C44.5599 30.9293 44.7317 31.0051 44.8959 31.3558C44.8061 32.3625 43.8663 33.1118 43.2932 33.8942C42.8757 33.4793 42.4503 33.07 42.0514 32.6369C41.6134 32.92 40.8408 33.3002 40.7068 33.8433C40.6632 34.0198 40.6943 34.2309 40.707 34.41Z" fill="#DB3305"/>
<path d="M0.0944824 57.7653L49.9098 57.8724L49.8954 59.0713C46.3603 59.0349 42.8531 58.7373 39.3245 58.5862C35.5322 58.4555 31.7389 58.3659 27.9447 58.3173C25.5387 58.2684 23.1274 58.1515 20.722 58.1431C15.1636 58.1233 9.61448 58.3891 4.05404 58.3495C2.75781 58.3404 1.39804 58.5426 0.114037 58.4162L0.0944824 57.7653Z" fill="#7A7679"/>
<path d="M23.4797 38.2782C28.865 38.2513 34.3621 38.0267 39.7341 38.3164C39.6428 43.804 39.7452 49.3042 39.7741 54.7927L29.361 54.7751C23.864 54.7246 18.367 54.7276 12.8701 54.784C13.0023 49.3076 12.8999 43.8049 12.8895 38.326C16.4183 38.3553 19.951 38.3047 23.4797 38.2782Z" fill="#FF8D00"/>
<path d="M14.8063 42.128C15.823 42.0775 22.7941 41.9418 23.3052 42.2664C23.5219 42.4042 23.6274 42.5847 23.665 42.8356C23.7174 43.1851 23.5966 43.4287 23.4077 43.7078C22.1154 43.82 16.149 43.8107 14.9677 43.5807C14.8165 43.4676 14.7205 43.4293 14.6414 43.2489C14.4599 42.8344 14.6368 42.5073 14.8063 42.128Z" fill="#DB3305"/>
<path d="M97.1728 39.8949L114.25 39.8851C116.02 39.8798 120.552 39.6169 121.942 39.9789C122.915 40.5007 123.69 41.1224 123.995 42.2376C124.353 43.552 124.164 45.2111 124.147 46.5651C124.111 49.42 123.941 52.3809 124.101 55.2262C124.723 54.3862 125.859 50.5727 126.275 49.3718C126.12 48.6356 126.051 47.9067 125.988 47.1578L126.17 47.6469C126.403 47.4087 126.404 46.4669 126.499 46.1047C126.58 45.7951 126.75 45.498 126.897 45.2153C126.88 46.1887 126.553 49.1002 127.291 49.7258C127.811 50.1667 132.094 49.8742 132.992 49.8727C136.454 49.9476 139.923 49.8793 143.387 49.8969C144.791 51.9598 144.979 54.3127 145.66 56.6247C145.739 58.4273 145.735 60.1549 145.285 61.9169C144.369 65.916 141.691 69.7207 138.2 71.8849C136.519 72.9271 134.322 73.7665 132.34 73.9136C133.537 78.5845 133.968 83.1813 131.421 87.5167C129.628 90.5676 126.335 93.3925 122.863 94.2718C120.233 94.9378 117.469 94.6418 114.974 93.6307C113.813 96.6687 112.14 99.4244 109.258 101.08C109.457 100.757 111.121 99.496 111.543 99.0544C106.885 98.9967 102.212 99.5138 97.5548 99.5716C92.6761 99.6322 87.8223 99.248 82.9597 98.9165C80.5168 98.7498 77.9359 98.3169 75.547 97.7782C74.0652 97.444 73.4521 96.8189 71.7508 96.8107C71.5365 96.8098 71.5312 96.8049 71.3214 96.6984C71.2974 96.5087 71.2859 96.35 71.3225 96.1604C71.423 95.6409 71.659 95.1033 71.9237 94.644C73.2161 92.3998 75.4623 93.0238 77.6872 93.0122C78.0801 93.0102 78.583 93.0427 78.9214 92.8256C79.053 91.2627 79.6077 89.488 79.4917 87.9451C79.4761 87.7373 79.4608 87.6871 79.5594 87.4804C79.5817 87.4338 79.6145 87.3929 79.6421 87.3489L79.5408 87.2158C78.0137 86.9318 75.3852 87.1693 73.7052 87.1662C71.0717 87.1616 68.4372 87.0582 65.8008 87.0525C63.2379 87.0465 60.6154 87.1516 58.0605 86.9887C59.7501 86.7878 78.9223 86.7364 79.7457 86.988L79.8583 87.2024L79.9165 87.0473C80.1843 86.8451 80.3905 86.894 80.7205 86.8813C81.967 86.5364 86.0437 86.7307 87.6348 86.7233C87.7642 86.6287 87.8911 86.5307 88.0154 86.4296C88.4848 86.0427 89.2163 85.412 89.2714 84.7833L89.1203 84.6185C89.7872 84.4002 90.3905 84.0633 90.7125 83.4076C91.0363 82.7487 90.9337 82.1138 90.7263 81.4404C90.8208 81.2867 90.7774 81.3376 90.8859 81.2242C91.6474 80.4282 92.6145 79.1958 93.0777 78.2029C92.8012 78.1416 92.9354 78.1853 92.6748 78.0707C93.691 77.8758 94.8617 78.1153 95.9143 78.0013C95.9541 77.9971 95.9939 77.9918 96.0334 77.9869C96.9688 77.8924 97.9801 77.9678 98.9232 77.9736L104.271 78.0067L120.088 78.0547L120.087 44.4073C111.714 44.3769 103.322 44.4667 94.9521 44.3304C95.7503 42.89 96.6112 41.4478 97.1728 39.8949Z" fill="#D3D3D3"/>
<path d="M126.898 45.2153C126.88 46.1887 126.553 49.1002 127.291 49.7258C127.812 50.1667 132.094 49.8742 132.992 49.8727C136.454 49.9476 139.924 49.8793 143.387 49.8969C144.791 51.9598 144.979 54.3127 145.66 56.6247C145.74 58.4273 145.735 60.1549 145.285 61.9169C145.018 60.7871 145.865 58.6347 145.491 57.1071C143.755 57.0727 141.228 55.8904 139.447 55.3809C138.215 55.0282 126.139 52.05 125.549 52.2249C124.795 53.1087 124.264 55.3169 124.223 56.4909C124.214 56.7336 124.21 56.9493 124.145 57.1849C124.128 57.2476 124.108 57.3098 124.089 57.3722C124.064 56.6562 124.084 55.942 124.101 55.2262C124.723 54.3862 125.859 50.5727 126.275 49.3718C126.12 48.6356 126.051 47.9067 125.988 47.1578L126.17 47.6469C126.403 47.4087 126.404 46.4669 126.499 46.1047C126.58 45.7951 126.75 45.498 126.898 45.2153Z" fill="#B4B4B4"/>
<path d="M79.0881 93.2007C82.8663 93.2914 86.6543 93.2454 90.4341 93.2585C93.1788 93.2682 95.983 93.3845 98.7225 93.2125C99.703 93.184 100.859 93.0536 101.82 93.2116C102.997 93.1505 104.228 93.0049 105.163 93.8889C105.72 94.4156 105.994 95.1031 106.014 95.8651C106.02 96.0694 105.977 96.24 105.925 96.4356C105.656 96.5611 105.795 96.54 105.511 96.5074C101.726 96.7311 97.8248 96.5531 94.0259 96.5556L71.4541 96.5851C71.7048 95.6507 71.9219 94.7765 72.6254 94.0627C73.9754 92.6933 77.2634 93.1778 79.0881 93.2007Z" fill="url(#paint13_linear_911_7376)"/>
<path d="M101.82 93.2116C102.997 93.1505 104.228 93.0049 105.163 93.8889C105.72 94.4156 105.994 95.1031 106.014 95.8651C106.02 96.0693 105.977 96.24 105.925 96.4356C105.656 96.5611 105.795 96.54 105.511 96.5073C104.307 96.2262 102.778 96.3873 101.521 96.3747L101.572 96.4727L101.717 96.3104C102.08 96.3424 102.469 96.402 102.761 96.1731C102.781 96.0029 102.791 96.0607 102.756 95.9171C102.705 95.7098 102.664 95.5678 102.677 95.3493C102.721 94.6202 102.571 94.1004 102.949 93.456L102.909 93.3716C102.53 93.3936 102.286 93.3685 101.925 93.248C101.89 93.2365 101.855 93.2238 101.82 93.2116Z" fill="#404040"/>
<path d="M97.1728 39.8949L114.25 39.8851C116.02 39.8798 120.552 39.6169 121.942 39.9789C122.915 40.5007 123.69 41.1224 123.995 42.2376C124.353 43.552 124.164 45.2111 124.147 46.5651C124.111 49.42 123.941 52.3809 124.101 55.2262C124.084 55.942 124.063 56.6562 124.089 57.3722C124.08 57.4289 124.07 57.4853 124.061 57.542C123.777 59.3924 124.014 61.5831 124.003 63.4647L123.955 77.722C123.959 79.5002 124.202 81.9544 123.803 83.668C123.593 84.572 123.015 85.4556 122.286 86.0269C121.131 86.9324 119.673 86.8953 118.282 86.9089L103.729 86.9209C102.208 86.9233 99.0181 86.7411 97.6606 86.96L97.721 87.0253C97.6917 87.0329 97.6606 87.0351 97.6332 87.048C97.6103 87.0587 97.593 87.0787 97.573 87.094C98.075 89.1151 98.2606 91.1911 98.7223 93.2124C95.9828 93.3844 93.1786 93.2682 90.4339 93.2585C86.6541 93.2453 82.8661 93.2913 79.0879 93.2007C79.3739 91.2049 79.5519 89.198 79.8583 87.2024L79.9166 87.0473C80.1843 86.8451 80.3906 86.894 80.7206 86.8813C81.967 86.5364 86.0437 86.7307 87.6348 86.7233C87.7643 86.6287 87.8912 86.5307 88.0154 86.4296C88.4848 86.0427 89.2163 85.412 89.2714 84.7833L89.1203 84.6185C89.7872 84.4002 90.3906 84.0633 90.7126 83.4076C91.0363 82.7487 90.9337 82.1138 90.7263 81.4404C90.8208 81.2867 90.7774 81.3376 90.8859 81.2242C91.6474 80.4282 92.6146 79.1958 93.0777 78.2029C92.8012 78.1416 92.9354 78.1853 92.6748 78.0707C93.691 77.8758 94.8617 78.1153 95.9143 78.0013C95.9541 77.9971 95.9939 77.9918 96.0334 77.9869C96.9688 77.8924 97.9801 77.9678 98.9232 77.9736L104.271 78.0067L120.088 78.0547L120.087 44.4073C111.714 44.3769 103.322 44.4667 94.9521 44.3304C95.7503 42.89 96.6112 41.4478 97.1728 39.8949Z" fill="#404040"/>
<path d="M128.994 26.7596C129.009 26.7144 129.025 26.6698 129.039 26.6242C129.285 25.8231 129.124 24.4347 129.119 23.5887C129.107 21.6075 128.772 12.0064 129.229 10.6C129.367 10.1742 129.801 9.68022 130.174 9.44355C130.539 9.21222 131.42 9.24244 131.848 9.23444C134.691 9.1811 137.543 9.24821 140.387 9.24377C146.899 9.1974 153.41 9.21333 159.922 9.29155C161.615 9.30733 166.451 9.00777 167.69 9.44555C167.81 9.488 167.873 9.54399 167.935 9.66266C168.148 10.0678 168.192 10.7493 168.213 11.208C168.305 13.2413 168.187 15.3107 168.185 17.3491C168.191 22.6721 168.168 27.995 168.114 33.3178C168.089 36.6093 167.969 39.936 168.121 43.2236C169.392 43.2271 171.207 43.0144 172.38 43.5284C172.592 43.7644 172.555 43.8211 172.569 44.1438L172.539 45.9622C172.609 48.9433 172.721 52.0293 172.611 55.008C172.362 54.28 172.834 53.2409 172.16 52.7433C168.608 52.6187 165.001 53.214 161.449 53.2893C159.102 53.3391 156.757 53.1711 154.412 53.1884C152.595 53.2018 150.783 53.4064 148.968 53.4727C147.704 53.5189 146.429 53.4609 145.169 53.5898C145.187 53.6233 145.208 53.6555 145.224 53.6907C145.361 53.9927 145.335 54.3015 145.485 54.6051C145.786 55.216 145.605 55.9729 145.66 56.6247C144.979 54.3127 144.791 51.9598 143.387 49.8969C139.923 49.8793 136.454 49.9475 132.992 49.8727C132.094 49.8742 127.811 50.1667 127.291 49.7258C126.553 49.1002 126.88 46.1887 126.897 45.2153C126.897 44.8202 126.878 44.43 126.853 44.0358C126.609 43.8282 126.507 43.4853 126.381 43.1978L126.13 43.1113C126.823 42.8069 128.237 42.9898 129.016 42.9949L128.998 32.6944C129.001 30.8167 129.089 28.9016 128.96 27.0309L128.994 26.7596Z" fill="url(#paint14_linear_911_7376)"/>
<path d="M130.696 22.7484C130.57 21.1142 130.69 19.3658 130.687 17.7207C130.683 15.6973 130.556 13.5807 130.714 11.5662C130.738 11.2611 130.707 10.9535 130.947 10.7478C132.164 11.1304 134.972 10.88 136.422 10.9007C138.66 10.9324 140.919 11.0738 143.154 11.0331C144.288 11.0124 145.418 10.8493 146.553 10.852L159.083 10.9693C161.4 10.9936 164.448 10.6713 166.676 11.0651C166.733 12.2229 166.723 13.4393 166.592 14.5911L166.35 13.706L166.309 11.9676L137.692 11.9607C138.086 11.7611 144.215 11.8091 145.006 11.85L145.066 11.9378L145.324 11.8609C140.547 11.4107 135.782 11.7255 130.998 11.5215C130.375 12.478 131.242 21.7689 130.696 22.7484Z" fill="#7A7679"/>
<path d="M130.696 22.7484C131.242 21.7689 130.375 12.478 130.997 11.5215C135.782 11.7255 140.547 11.4107 145.324 11.8609L145.065 11.9378L145.006 11.85C144.215 11.8091 138.086 11.7611 137.692 11.9607C136.764 11.966 132.872 11.7349 132.27 12.2662C131.728 12.7449 131.995 17.0773 131.991 18.0622C132.386 18.1151 132.781 18.155 133.178 18.182C132.803 18.2769 132.447 18.2867 132.061 18.2975C131.813 21.9558 131.883 25.63 131.872 29.2933C131.865 31.7282 131.757 34.1624 131.761 36.5973C131.764 38.4249 132.139 40.3518 131.971 42.1607C131.571 42.154 131.014 42.2013 130.68 41.9824C130.458 39.8893 130.637 37.6295 130.643 35.5207L130.696 22.7484Z" fill="#404040"/>
<path d="M137.692 11.9607L166.309 11.9676L166.35 13.706C166.341 15.1391 166.387 16.6082 166.281 18.0364C158.207 18.15 150.125 17.9945 142.05 18.0005C138.964 18.0027 134.986 17.8091 131.991 18.0622C131.996 17.0773 131.728 12.7449 132.27 12.2662C132.872 11.7349 136.764 11.966 137.692 11.9607Z" fill="#FF8D00"/>
<path d="M133.688 13.3316C136.445 13.2962 139.205 13.3164 141.962 13.3129C144.169 13.31 146.396 13.2569 148.597 13.4156C148.586 14.3947 148.568 15.3736 148.544 16.3524C143.608 16.6322 138.589 16.4669 133.643 16.4722C133.633 15.4262 133.669 14.3776 133.688 13.3316Z" fill="url(#paint15_linear_911_7376)"/>
<path d="M134.106 15.2631C134.428 15.2807 134.648 15.3007 134.942 15.4533C135.109 15.7667 135.073 15.8918 135.056 16.24C134.736 16.2458 134.529 16.2478 134.235 16.0947C134.043 15.8336 134.093 15.5689 134.106 15.2631Z" fill="#FEF915"/>
<path d="M126.854 44.0358C128.569 43.9789 130.292 44.06 132.008 44.0747L141.248 44.1122C151.54 44.0688 161.833 44.1004 172.125 44.2071L172.569 44.1438L172.54 45.9622C172.609 48.9433 172.721 52.0293 172.611 55.008C172.362 54.28 172.834 53.2409 172.16 52.7433C168.608 52.6187 165.001 53.214 161.449 53.2893C159.102 53.3391 156.757 53.1711 154.412 53.1884C152.596 53.2018 150.783 53.4064 148.968 53.4727C147.704 53.5189 146.429 53.4609 145.169 53.5898C145.187 53.6233 145.208 53.6555 145.224 53.6907C145.361 53.9927 145.335 54.3015 145.485 54.6051C145.786 55.216 145.605 55.9729 145.66 56.6247C144.979 54.3127 144.791 51.9598 143.387 49.8969C139.924 49.8793 136.454 49.9475 132.992 49.8727C132.094 49.8742 127.812 50.1667 127.291 49.7258C126.553 49.1002 126.88 46.1887 126.898 45.2153C126.897 44.8202 126.878 44.43 126.854 44.0358Z" fill="url(#paint16_linear_911_7376)"/>
<path d="M172.125 44.2071L172.569 44.1438L172.539 45.9622C172.534 46.0107 172.528 46.0591 172.523 46.1075C172.411 47.1898 172.674 48.7798 172.386 49.7447C172.132 49.8218 172.249 49.8244 172.035 49.7735C172.001 48.3407 171.583 45.4469 172.125 44.2071Z" fill="#B4B4B4"/>
<path d="M172.035 49.7736C172.249 49.8244 172.132 49.8218 172.386 49.7447C172.674 48.7798 172.411 47.1898 172.523 46.1076C172.528 46.0591 172.534 46.0107 172.539 45.9622C172.609 48.9433 172.721 52.0293 172.611 55.008C172.362 54.28 172.834 53.2409 172.16 52.7433C168.608 52.6187 165.001 53.214 161.449 53.2893C159.102 53.3391 156.757 53.1711 154.412 53.1884C152.596 53.2018 150.783 53.4064 148.968 53.4727C147.704 53.5189 146.429 53.4609 145.169 53.5898C145.187 53.6233 145.208 53.6556 145.224 53.6907C145.361 53.9927 145.335 54.3016 145.485 54.6051C145.786 55.216 145.605 55.9729 145.66 56.6247C144.979 54.3127 144.791 51.9598 143.387 49.8969C139.924 49.8793 136.454 49.9476 132.992 49.8727C135.599 49.5842 138.358 49.7713 140.98 49.7738L154.07 49.7278L164.892 49.718C167.225 49.7022 169.714 49.5362 172.035 49.7736Z" fill="#D3D3D3"/>
<path d="M151.458 50.6513C151.512 50.6513 151.566 50.6491 151.62 50.6513C152.072 50.6707 152.477 50.8291 152.768 51.1875C152.998 51.4718 153.08 51.8291 153.009 52.1866C152.906 52.7078 152.602 52.9011 152.181 53.1691C151.994 53.1844 151.798 53.204 151.611 53.1851C151.307 53.1544 151.003 52.9771 150.822 52.734C150.586 52.4164 150.556 52.0207 150.65 51.6487C150.776 51.1509 151.04 50.9222 151.458 50.6513Z" fill="#FF8D00"/>
<path d="M166.35 13.706L166.592 14.5911L166.564 42.1664C155.036 42.0035 143.5 42.3324 131.971 42.1607C132.139 40.3518 131.764 38.4249 131.762 36.5973C131.757 34.1624 131.865 31.7282 131.872 29.2933C131.883 25.63 131.814 21.9558 132.061 18.2975C132.447 18.2867 132.803 18.2769 133.178 18.182C132.781 18.155 132.386 18.1151 131.991 18.0622C134.986 17.8091 138.964 18.0027 142.05 18.0004C150.125 17.9944 158.207 18.15 166.281 18.0364C166.387 16.6082 166.341 15.1391 166.35 13.706Z" fill="url(#paint17_linear_911_7376)"/>
<path d="M148.445 21.8249C150.578 21.6069 152.831 22.4104 154.471 23.7604C156.186 25.172 157.236 27.1416 157.422 29.358C157.434 29.5029 157.443 29.648 157.449 29.7933C157.454 29.9387 157.456 30.084 157.454 30.2293C157.452 30.3747 157.446 30.5199 157.437 30.6651C157.427 30.8102 157.414 30.955 157.398 31.0996C157.381 31.244 157.361 31.3879 157.337 31.5313C157.313 31.6747 157.286 31.8175 157.255 31.9596C157.224 32.1016 157.189 32.2428 157.151 32.3831C157.113 32.5234 157.071 32.6627 157.026 32.8009C156.981 32.9391 156.932 33.0761 156.88 33.212C156.828 33.3477 156.773 33.4821 156.714 33.6151C156.655 33.7481 156.593 33.8796 156.528 34.0093C156.462 34.1393 156.394 34.2674 156.322 34.3938C156.25 34.5201 156.175 34.6447 156.097 34.7673C156.019 34.89 155.937 35.0106 155.853 35.1291C155.769 35.2476 155.682 35.364 155.592 35.4782C155.502 35.5923 155.409 35.7041 155.313 35.8136C153.778 37.6004 151.773 38.3236 149.472 38.5004C149.345 38.5107 149.218 38.5179 149.091 38.5222C148.963 38.5265 148.836 38.5279 148.709 38.5264C148.581 38.5248 148.454 38.5202 148.327 38.5127C148.2 38.5051 148.073 38.4946 147.947 38.4811C147.82 38.4678 147.694 38.4514 147.568 38.432C147.442 38.4127 147.317 38.3905 147.192 38.3653C147.067 38.3403 146.943 38.3123 146.819 38.2813C146.696 38.2504 146.573 38.2166 146.451 38.18C146.329 38.1433 146.208 38.1038 146.088 38.0616C145.968 38.0193 145.849 37.9743 145.731 37.9264C145.613 37.8786 145.496 37.828 145.38 37.7747C145.265 37.7215 145.15 37.6656 145.037 37.6069C144.924 37.5484 144.813 37.4872 144.702 37.4233C144.592 37.3596 144.484 37.2933 144.376 37.2244C144.269 37.1557 144.164 37.0844 144.06 37.0107C143.956 36.9369 143.854 36.8607 143.754 36.7822C143.646 36.6972 143.54 36.6096 143.436 36.5196C143.332 36.4293 143.23 36.3367 143.131 36.2416C143.031 36.1463 142.935 36.0487 142.84 35.9489C142.745 35.849 142.653 35.7469 142.564 35.6424C142.474 35.538 142.387 35.4315 142.303 35.3229C142.218 35.2143 142.137 35.1036 142.058 34.9909C141.979 34.8783 141.902 34.7638 141.829 34.6473C141.756 34.531 141.685 34.413 141.617 34.2931C141.55 34.1733 141.485 34.0518 141.424 33.9289C141.362 33.8059 141.303 33.6815 141.248 33.5556C141.192 33.4298 141.14 33.3027 141.09 33.1742C141.041 33.0458 140.995 32.9162 140.952 32.7856C140.908 32.6549 140.869 32.5233 140.832 32.3907C140.795 32.2579 140.762 32.1244 140.732 31.9902C140.702 31.856 140.675 31.7211 140.652 31.5856C140.628 31.45 140.608 31.3139 140.591 31.1773C140.324 28.9067 141.142 26.7622 142.559 25.006C144.06 23.1453 146.079 22.074 148.445 21.8249Z" fill="#404040"/>
<path d="M148.113 24.7953C149.435 24.7033 150.652 24.8833 151.823 25.5469C153.075 26.2562 153.999 27.3918 154.374 28.7864C154.397 28.8706 154.417 28.9552 154.436 29.0404C154.454 29.1255 154.47 29.2109 154.485 29.2969C154.499 29.3828 154.511 29.469 154.521 29.5555C154.531 29.6422 154.539 29.7289 154.545 29.8158C154.55 29.9027 154.554 29.9898 154.555 30.0769C154.557 30.164 154.556 30.251 154.554 30.338C154.551 30.4251 154.546 30.5121 154.539 30.5989C154.532 30.6857 154.523 30.7723 154.511 30.8587C154.5 30.945 154.487 31.0311 154.471 31.1169C154.456 31.2025 154.438 31.2878 154.419 31.3727C154.399 31.4575 154.377 31.5419 154.353 31.6258C154.33 31.7095 154.304 31.7926 154.276 31.8751C154.248 31.9576 154.218 32.0394 154.186 32.1204C154.154 32.2016 154.12 32.2818 154.084 32.3611C154.049 32.4405 154.011 32.519 153.971 32.5967C153.932 32.6741 153.89 32.7507 153.847 32.8262C153.035 34.218 151.765 34.9567 150.239 35.3249C148.933 35.4995 147.666 35.372 146.481 34.7547C146.402 34.7139 146.324 34.6712 146.247 34.6264C146.17 34.5817 146.094 34.5351 146.019 34.4867C145.945 34.4382 145.871 34.3879 145.799 34.3358C145.727 34.2838 145.656 34.2299 145.587 34.1742C145.517 34.1187 145.449 34.0614 145.382 34.0024C145.316 33.9433 145.251 33.8827 145.187 33.8204C145.123 33.7582 145.061 33.6944 145.001 33.6291C144.94 33.5639 144.881 33.4972 144.824 33.4289C144.767 33.3606 144.712 33.2909 144.658 33.22C144.604 33.149 144.552 33.0767 144.502 33.0031C144.452 32.9296 144.404 32.8549 144.357 32.7789C144.311 32.7029 144.266 32.6258 144.224 32.5478C144.181 32.4695 144.141 32.3904 144.102 32.3102C144.063 32.2299 144.027 32.1488 143.992 32.0669C143.957 31.9848 143.925 31.9019 143.894 31.8182C143.864 31.7347 143.836 31.6504 143.809 31.5653C143.785 31.4819 143.763 31.398 143.743 31.3135C143.723 31.2291 143.705 31.1442 143.689 31.0589C143.673 30.9735 143.659 30.8878 143.647 30.8018C143.636 30.7157 143.626 30.6294 143.619 30.5429C143.611 30.4564 143.606 30.3697 143.603 30.2829C143.6 30.1962 143.599 30.1095 143.6 30.0227C143.602 29.9358 143.605 29.8491 143.61 29.7624C143.616 29.6758 143.624 29.5893 143.633 29.5031C143.643 29.4167 143.655 29.3307 143.669 29.2451C143.683 29.1595 143.699 29.0742 143.718 28.9893C143.736 28.9044 143.756 28.8201 143.779 28.7362C143.801 28.6522 143.826 28.5689 143.852 28.4864C143.879 28.4038 143.908 28.3218 143.938 28.2404C143.969 28.1592 144.001 28.0789 144.036 27.9993C144.071 27.9196 144.107 27.8409 144.146 27.7631C144.184 27.6853 144.225 27.6085 144.267 27.5327C145.11 26.0282 146.504 25.2244 148.113 24.7953Z" fill="white"/>
<path d="M54.0106 45.1058C54.118 43.614 54.2126 42.2831 55.3124 41.1333C55.8128 40.61 56.5353 40.1404 57.2577 40.018C58.7322 39.7684 60.3711 39.9053 61.8642 39.9151L69.7811 39.9578L97.1728 39.8949C96.6113 41.4478 95.7504 42.89 94.9522 44.3304C103.322 44.4667 111.714 44.3769 120.087 44.4073L120.088 78.0547L104.271 78.0067L98.9233 77.9735C97.9802 77.9678 96.9688 77.8924 96.0335 77.9869C95.994 77.9918 95.9542 77.9971 95.9144 78.0013C94.8617 78.1153 93.6911 77.8758 92.6748 78.0707C92.9355 78.1853 92.8013 78.1416 93.0777 78.2029C92.6146 79.1958 91.6475 80.4282 90.886 81.2242C90.7775 81.3375 90.8208 81.2867 90.7264 81.4404C90.9337 82.1138 91.0364 82.7487 90.7126 83.4075C90.3906 84.0633 89.7873 84.4002 89.1204 84.6184L89.2715 84.7833C89.2164 85.412 88.4848 86.0427 88.0155 86.4295C87.8912 86.5307 87.7643 86.6287 87.6348 86.7233C86.0437 86.7307 81.9671 86.5364 80.7206 86.8813C80.3906 86.894 80.1844 86.8451 79.9166 87.0473L79.8584 87.2024L79.7457 86.988C78.9224 86.7364 59.7502 86.7878 58.0606 86.9887C57.0311 86.9709 56.022 86.7098 55.2426 86.0056C54.6344 85.456 54.2295 84.6991 54.0473 83.904C53.7582 82.6411 53.9244 81.188 53.9484 79.8962C53.9973 77.2642 54.1433 74.5842 54.0104 71.9553C54.1055 70.1504 54.0733 68.3313 53.9911 66.5264L53.886 66.5718C52.6071 66.5202 51.3148 66.5849 50.0353 66.61C50.0057 64.3891 49.9622 62.1685 49.9051 59.9482L49.8953 59.0713L49.9097 57.8724C49.93 57.6704 49.9466 57.4655 49.9491 57.2627C49.9526 56.9849 49.8951 56.7507 49.6964 56.5484C49.0064 55.8462 46.4099 56.2151 45.3979 56.22L45.4535 45.8847C49.0084 44.6218 49.7771 44.8558 53.3484 45.1069L54.0106 45.1058Z" fill="white"/>
<path d="M100.102 58.768C101.414 58.7644 102.858 58.6547 104.146 58.8667L104.123 62.0225C102.767 62.0258 101.404 61.9978 100.05 62.0373C100.152 60.9678 100.093 59.8444 100.102 58.768Z" fill="#D3D3D3"/>
<path d="M78.4434 51.7458L82.2647 51.7898C83.5232 51.8989 84.7836 51.8891 86.0458 51.8942L86.1081 69.1413C83.553 69.1218 80.9978 69.1192 78.4425 69.1336L70.1765 69.0987C70.0843 66.6267 70.1498 64.1285 70.1598 61.6542L70.1856 51.8087C71.6178 51.7891 73.0525 51.8056 74.485 51.8053C74.442 52.8507 74.4596 53.895 74.5376 54.9385L78.3532 54.9665C78.6285 54.0945 78.4454 52.6767 78.4434 51.7458Z" fill="#FF8D00"/>
<path d="M78.4433 51.7458L82.2646 51.7898C82.2859 52.841 82.3007 53.8925 82.309 54.944C81.0506 54.932 79.6812 54.8125 78.4344 54.9736L78.353 54.9665C78.6284 54.0945 78.4453 52.6767 78.4433 51.7458Z" fill="#D3D3D3"/>
<path d="M91.442 58.8713L96.1731 58.8585L96.1505 62.0173C97.4485 62.0485 98.7516 62.032 100.05 62.0374C101.404 61.9978 102.767 62.0258 104.122 62.0225L104.146 58.8667C105.574 58.9314 107.003 58.9722 108.433 58.9889L108.459 76.544L105.837 76.5207C101.043 76.608 96.2362 76.5436 91.4407 76.5596C91.4776 70.6634 91.478 64.7673 91.442 58.8713Z" fill="#FF8D00"/>
<path d="M54.0106 45.1058C54.118 43.614 54.2126 42.2831 55.3124 41.1333C55.8128 40.61 56.5353 40.1404 57.2577 40.018C58.7322 39.7684 60.3711 39.9053 61.8642 39.9151L69.7811 39.9578L97.1728 39.8949C96.6113 41.4478 95.7504 42.89 94.9522 44.3304C82.7604 44.1593 70.5435 44.3504 58.3486 44.3389L58.4286 77.9318L83.9997 77.8673L91.8602 77.8927C93.2348 77.9024 94.6697 77.8344 96.0335 77.9869C95.994 77.9918 95.9542 77.9971 95.9144 78.0013C94.8617 78.1153 93.6911 77.8758 92.6748 78.0707C92.9355 78.1853 92.8013 78.1416 93.0777 78.2029C92.6146 79.1958 91.6475 80.4282 90.886 81.2242C90.7775 81.3375 90.8208 81.2867 90.7264 81.4404C90.9337 82.1138 91.0364 82.7487 90.7126 83.4075C90.3906 84.0633 89.7873 84.4002 89.1204 84.6184L89.2715 84.7833C89.2164 85.412 88.4848 86.0427 88.0155 86.4295C87.8912 86.5307 87.7643 86.6287 87.6348 86.7233C86.0437 86.7307 81.9671 86.5364 80.7206 86.8813C80.3906 86.894 80.1844 86.8451 79.9166 87.0473L79.8584 87.2024L79.7457 86.988C78.9224 86.7364 59.7502 86.7878 58.0606 86.9887C57.0311 86.9709 56.022 86.7098 55.2426 86.0056C54.6344 85.456 54.2295 84.6991 54.0473 83.904C53.7582 82.6411 53.9244 81.188 53.9484 79.8962C53.9973 77.2642 54.1433 74.5842 54.0104 71.9553C54.1055 70.1504 54.0733 68.3313 53.9911 66.5264L53.886 66.5718C52.6071 66.5202 51.3148 66.5849 50.0353 66.61C50.0057 64.3891 49.9622 62.1685 49.9051 59.9482L49.8953 59.0713L49.9097 57.8724C49.93 57.6704 49.9466 57.4655 49.9491 57.2627C49.9526 56.9849 49.8951 56.7507 49.6964 56.5484C49.0064 55.8462 46.4099 56.2151 45.3979 56.22L45.4535 45.8847C49.0084 44.6218 49.7771 44.8558 53.3484 45.1069L54.0106 45.1058Z" fill="url(#paint18_linear_911_7376)"/>
<path d="M89.1204 84.6185C88.4922 84.5271 87.901 84.3298 87.4526 83.8562C87.0995 83.4834 86.9433 82.9862 86.9782 82.4778C87.0182 81.8958 87.3099 81.3438 87.7519 80.966C88.149 80.6269 88.6726 80.4245 89.1982 80.4773C89.8902 80.5469 90.309 80.9176 90.7264 81.4405C90.9337 82.1138 91.0364 82.7487 90.7126 83.4076C90.3906 84.0633 89.7873 84.4002 89.1204 84.6185Z" fill="white"/>
<path d="M45.4535 45.8847C49.0084 44.6218 49.7771 44.8558 53.3484 45.1069L54.0106 45.1058C53.9044 52.2411 53.9964 59.3896 53.9911 66.5265L53.886 66.5718C52.6071 66.5202 51.3148 66.5849 50.0353 66.61C50.0057 64.3891 49.9622 62.1685 49.9051 59.9482L49.8953 59.0713L49.9097 57.8724C49.93 57.6705 49.9466 57.4656 49.9491 57.2627C49.9526 56.9849 49.8951 56.7507 49.6964 56.5484C49.0064 55.8462 46.4099 56.2151 45.3979 56.22L45.4535 45.8847Z" fill="url(#paint19_linear_911_7376)"/>
</g>
<defs>
<linearGradient id="paint0_linear_911_7376" x1="173.684" y1="104.659" x2="173.227" y2="102.495" gradientUnits="userSpaceOnUse">
<stop stop-color="#7D7F81"/>
<stop offset="1" stop-color="#9A98A2"/>
</linearGradient>
<linearGradient id="paint1_linear_911_7376" x1="40.2292" y1="65.2992" x2="40.8707" y2="69.3665" gradientUnits="userSpaceOnUse">
<stop stop-color="#ADA8A8"/>
<stop offset="1" stop-color="#D4D3D1"/>
</linearGradient>
<linearGradient id="paint2_linear_911_7376" x1="41.166" y1="34.7297" x2="34.7868" y2="22.9441" gradientUnits="userSpaceOnUse">
<stop stop-color="#DF2602"/>
<stop offset="1" stop-color="#FF8121"/>
</linearGradient>
<linearGradient id="paint3_linear_911_7376" x1="56.0606" y1="106.879" x2="46.6446" y2="98.7177" gradientUnits="userSpaceOnUse">
<stop stop-color="#F76E05"/>
<stop offset="1" stop-color="#FDBB57"/>
</linearGradient>
<linearGradient id="paint4_linear_911_7376" x1="136.043" y1="111.387" x2="122.893" y2="101.138" gradientUnits="userSpaceOnUse">
<stop stop-color="#EC4005"/>
<stop offset="1" stop-color="#F3C341"/>
</linearGradient>
<linearGradient id="paint5_linear_911_7376" x1="25.086" y1="59.0484" x2="24.9142" y2="67.3947" gradientUnits="userSpaceOnUse">
<stop stop-color="#B2B0B0"/>
<stop offset="1" stop-color="#E2DFDD"/>
</linearGradient>
<linearGradient id="paint6_linear_911_7376" x1="147.713" y1="111.777" x2="147.617" y2="120.593" gradientUnits="userSpaceOnUse">
<stop stop-color="#BAA097"/>
<stop offset="1" stop-color="#D6CECE"/>
</linearGradient>
<linearGradient id="paint7_linear_911_7376" x1="163.974" y1="108.333" x2="165.362" y2="100.741" gradientUnits="userSpaceOnUse">
<stop stop-color="#716F70"/>
<stop offset="1" stop-color="#878685"/>
</linearGradient>
<linearGradient id="paint8_linear_911_7376" x1="155.509" y1="106.394" x2="143.089" y2="78.8092" gradientUnits="userSpaceOnUse">
<stop stop-color="#C9C9C9"/>
<stop offset="1" stop-color="#D3D3D3"/>
</linearGradient>
<linearGradient id="paint9_linear_911_7376" x1="87.8156" y1="20.7268" x2="87.2904" y2="45.7136" gradientUnits="userSpaceOnUse">
<stop stop-color="#BEAEAD"/>
<stop offset="1" stop-color="white"/>
</linearGradient>
<linearGradient id="paint10_linear_911_7376" x1="35.0848" y1="120.243" x2="9.64342" y2="87.9072" gradientUnits="userSpaceOnUse">
<stop stop-color="#8D8B95"/>
<stop offset="1" stop-color="#BFBFC1"/>
</linearGradient>
<linearGradient id="paint11_linear_911_7376" x1="27.1485" y1="115.445" x2="17.4139" y2="92.6473" gradientUnits="userSpaceOnUse">
<stop stop-color="#898890"/>
<stop offset="1" stop-color="#A9A8AB"/>
</linearGradient>
<linearGradient id="paint12_linear_911_7376" x1="43.5691" y1="46.7467" x2="7.64962" y2="40.064" gradientUnits="userSpaceOnUse">
<stop stop-color="#C9C4C5"/>
<stop offset="1" stop-color="#F3F3F3"/>
</linearGradient>
<linearGradient id="paint13_linear_911_7376" x1="102.29" y1="91.086" x2="72.4182" y2="99.0431" gradientUnits="userSpaceOnUse">
<stop stop-color="#4C3C43"/>
<stop offset="1" stop-color="#836A5F"/>
</linearGradient>
<linearGradient id="paint14_linear_911_7376" x1="159.761" y1="6.27317" x2="141.23" y2="49.8731" gradientUnits="userSpaceOnUse">
<stop stop-color="#B3AEA8"/>
<stop offset="1" stop-color="#D4CECB"/>
</linearGradient>
<linearGradient id="paint15_linear_911_7376" x1="144.85" y1="18.9293" x2="137.69" y2="10.3611" gradientUnits="userSpaceOnUse">
<stop stop-color="#FFCA00"/>
<stop offset="1" stop-color="#FFEB0A"/>
</linearGradient>
<linearGradient id="paint16_linear_911_7376" x1="149.446" y1="43.915" x2="149.33" y2="50.0766" gradientUnits="userSpaceOnUse">
<stop stop-color="#AAA6A4"/>
<stop offset="1" stop-color="#D9D7D5"/>
</linearGradient>
<linearGradient id="paint17_linear_911_7376" x1="164.227" y1="44.0454" x2="134.051" y2="16.0142" gradientUnits="userSpaceOnUse">
<stop stop-color="#504D52"/>
<stop offset="1" stop-color="#837A79"/>
</linearGradient>
<linearGradient id="paint18_linear_911_7376" x1="97.8516" y1="62.1566" x2="53.1693" y2="64.3332" gradientUnits="userSpaceOnUse">
<stop stop-color="#806D67"/>
<stop offset="1" stop-color="#977B65"/>
</linearGradient>
<linearGradient id="paint19_linear_911_7376" x1="48.9429" y1="45.0508" x2="51.7456" y2="66.5834" gradientUnits="userSpaceOnUse">
<stop stop-color="#D6D5D5"/>
<stop offset="1" stop-color="white"/>
</linearGradient>
<clipPath id="clip0_911_7376">
<rect width="178" height="124" fill="white"/>
</clipPath>
</defs>
</svg>
