<svg width="148" height="124" viewBox="0 0 148 124" fill="none" xmlns="http://www.w3.org/2000/svg">
<g clip-path="url(#clip0_911_7237)">
<path d="M0.93335 114.056L1.94257 114.069C1.30408 114.519 1.13864 114.741 0.95224 115.493C0.927746 115.016 0.938539 114.533 0.93335 114.056Z" fill="#B4B4B4"/>
<path d="M47.6056 28.9798C47.8254 29.2605 48.0573 29.4504 48.0934 29.809C47.9259 30.0278 47.7812 30.1248 47.5506 30.2667C47.4881 30.1663 47.4263 30.0783 47.3889 29.9634C47.2907 29.6606 47.496 29.2603 47.6056 28.9798Z" fill="#B4B4B4"/>
<path d="M4.9329 63.5787C5.27103 63.6453 5.60398 63.7079 5.94689 63.7451C5.63678 63.9768 5.1577 64.4 4.76414 64.3835L4.65869 64.1892C4.69294 63.8338 4.6809 63.8292 4.9329 63.5787Z" fill="#D3D3D3"/>
<path d="M6.00044 42.9941C6.09592 43.0865 6.16276 43.2684 6.17999 43.3979C6.19577 43.5188 6.16048 43.6561 6.07766 43.7451C5.79889 44.045 5.40408 44.0706 5.02173 44.0936L4.82516 43.9979L4.78198 43.8301C5.08421 43.4473 5.58072 43.2322 6.00044 42.9941Z" fill="#B4B4B4"/>
<path d="M4.93301 63.5787L4.84375 63.2567C5.01624 63.0503 5.19143 62.8895 5.4729 62.8661C5.67176 62.8496 5.9661 62.8531 6.11285 63.0034C6.18986 63.0823 6.25255 63.2232 6.23055 63.3324C6.19817 63.4903 6.08753 63.662 5.947 63.7451C5.60409 63.7079 5.27114 63.6453 4.93301 63.5787Z" fill="#B4B4B4"/>
<path d="M15.3232 37.894C15.5088 37.8905 15.6767 37.9049 15.8604 37.9318C16.0267 38.3584 15.7917 38.8422 15.6647 39.2689C15.5416 39.2344 15.3728 39.1999 15.2605 39.1305C15.026 38.9854 14.9778 38.7982 14.9199 38.5491C14.9826 38.2087 15.0822 38.1224 15.3232 37.894Z" fill="#D3D3D3"/>
<path d="M67.0259 90.1065C67.1355 89.7638 67.2482 89.1756 67.5672 88.9694C67.6733 88.9008 67.7588 88.8766 67.8736 88.8357L68.0731 88.9223C68.2128 89.3866 68.1279 89.546 67.9018 89.9651C67.8434 90.0742 67.7841 90.1828 67.7237 90.2908C67.5014 90.1995 67.26 90.1598 67.0259 90.1065Z" fill="#B4B4B4"/>
<path d="M16.2845 37.8849C16.4483 37.889 16.5785 37.8911 16.7352 37.9463C16.9592 38.025 17.1865 38.414 17.289 38.6221C17.3166 38.6781 17.3428 38.7347 17.3697 38.7909L17.3884 38.7242L17.5076 38.8595C17.4418 39.0846 17.4434 39.0668 17.2369 39.1836C17.0829 39.1887 16.9278 39.1947 16.7738 39.1908C16.4406 39.1828 16.2405 39.1119 16.0122 38.8732L16.1177 38.7062C16.1695 38.6936 16.3024 38.6595 16.3499 38.6543C16.4184 38.6469 16.488 38.6475 16.5569 38.644C16.3728 38.3728 16.2758 38.2286 16.2845 37.8849Z" fill="#B4B4B4"/>
<path d="M5.97387 40.9124C6.14408 41.2242 6.07288 41.5425 6.05856 41.8917L4.79838 42.352C4.70705 42.1234 4.68754 41.9942 4.70871 41.7491C5.00056 41.384 5.57782 41.179 5.97387 40.9124Z" fill="#B4B4B4"/>
<path d="M55.2947 79.1184C55.8885 78.9566 56.3913 78.8268 57.0132 78.8514L57.0559 79.1178C56.6582 79.5446 56.2149 79.6836 55.7183 79.9622C55.6249 79.6109 55.5164 79.4059 55.2947 79.1184Z" fill="#B4B4B4"/>
<path d="M63.5596 88.3967C63.8213 88.0018 64.0469 87.5686 64.4592 87.3154L64.7091 87.2886C64.8384 87.4874 64.8806 87.6261 64.8046 87.8648C64.6977 88.2002 64.464 88.5515 64.3058 88.8718C64.0758 88.6315 63.8566 88.5292 63.5596 88.3967Z" fill="#B4B4B4"/>
<path d="M54.1826 75.6724C54.6432 75.5993 55.1622 75.4544 55.6192 75.573C55.8195 75.7772 55.7934 75.7929 55.8079 76.0829C55.3944 76.4193 54.8001 76.3133 54.4118 76.6601C54.3398 76.3298 54.2634 76.0006 54.1826 75.6724Z" fill="#B4B4B4"/>
<path d="M56.346 60.8431C56.7254 61.1022 57.3673 61.4259 57.4273 61.9262C57.4316 61.962 57.4277 61.9981 57.4277 62.0341C57.2344 62.1657 57.1124 62.1947 56.8836 62.1385C56.5602 62.0589 56.198 61.839 55.8904 61.701C56.0041 61.3887 56.1712 61.125 56.346 60.8431Z" fill="#B4B4B4"/>
<path d="M66.9458 51.8436L67.7443 51.4546C67.8732 51.889 68.0684 52.3348 67.9673 52.7884L67.7829 53.04C67.5467 53.0677 67.4517 53.0832 67.2667 52.8926C67.0311 52.6498 66.9562 52.1653 66.9458 51.8436Z" fill="#B4B4B4"/>
<path d="M5.9537 52.6694L6.06724 52.6519C6.14176 52.9478 6.26381 53.3146 6.10149 53.6021C5.8769 53.9999 5.40778 54.0462 5.0028 54.1386L4.85605 54.1312C4.75621 53.9346 4.75372 53.9853 4.75081 53.7664C4.74188 53.1247 5.51136 53.2132 5.85822 52.7945C5.89164 52.7542 5.92194 52.7112 5.9537 52.6694Z" fill="#B4B4B4"/>
<path d="M59.9023 85.7014C60.2658 85.3265 60.6145 84.8387 61.1818 84.8282C61.374 84.8247 61.3111 84.8189 61.4515 84.9687C61.4517 85.2944 61.3944 85.493 61.1652 85.7241C60.9751 85.9157 60.7731 86.0961 60.5724 86.2767C60.3254 86.1188 60.1178 85.8995 59.9023 85.7014Z" fill="#B4B4B4"/>
<path d="M61.3142 55.0355C61.5417 55.4675 61.8498 55.9199 61.8747 56.415L61.7555 56.5814C61.3149 56.595 61.0193 56.2718 60.7216 55.9926C60.6187 55.8957 60.5165 55.7981 60.415 55.6998C60.43 55.6698 60.4435 55.639 60.4603 55.6101C60.676 55.237 60.9269 55.1581 61.3142 55.0355Z" fill="#B4B4B4"/>
<path d="M53.5676 69.1664C53.6623 68.7894 53.7148 68.3903 53.7866 68.0074C54.1422 68.3089 54.8249 68.3044 55.2878 68.46C55.271 68.7739 55.2828 68.808 55.0887 69.0504C54.5916 69.2391 54.0861 69.1364 53.5676 69.1664Z" fill="#B4B4B4"/>
<path d="M6.11616 65.3589L6.1666 65.4424C6.19068 65.7231 6.23842 66.0071 6.08233 66.2582C5.83179 66.6616 5.2402 67.1268 4.7771 67.2423L4.58032 66.9304C4.6538 66.8017 4.62101 66.8482 4.70528 66.7391C4.94337 66.4303 5.13372 66.1147 5.32717 65.7772L5.05712 66.0333L5.0731 65.8977C5.33216 65.5648 5.72468 65.5007 6.11616 65.3589Z" fill="#B4B4B4"/>
<path d="M6.112 60.3448C6.16369 60.5918 6.20852 60.9783 6.12404 61.2172C5.95715 61.6884 5.10319 61.9889 4.68535 62.1984C4.68036 61.9434 4.6511 61.6284 4.72831 61.3835C4.89022 60.8687 5.66904 60.5775 6.112 60.3448Z" fill="#B4B4B4"/>
<path d="M6.05216 45.5061L6.17048 45.5551C6.2039 45.7333 6.2176 45.8269 6.16529 46.0063C6.05777 46.3752 5.25923 46.8189 4.90843 46.991C4.85177 47.0189 4.78721 47.0313 4.73345 47.0644C4.69235 47.0896 4.66329 47.1305 4.62842 47.1634C5.07719 47.0285 5.52673 46.8962 5.97702 46.7664L6.15927 46.891C5.77838 47.0218 5.44833 47.1386 5.04315 47.1524C4.77455 47.0249 4.76936 47.0427 4.65727 46.7716C4.68052 46.6159 4.70854 46.4828 4.78825 46.3448C5.10812 45.7913 5.44418 45.6537 6.05216 45.5061Z" fill="#B4B4B4"/>
<path d="M86.3494 54.3035C85.9536 54.7348 85.7516 55.3143 85.3024 55.6921C85.0303 55.6252 84.9279 55.5268 84.728 55.3433C84.7158 54.8712 85.1623 54.27 85.4066 53.8654C85.6889 54.0053 86.0441 54.2395 86.3494 54.3035Z" fill="#B4B4B4"/>
<path d="M81.7859 51.8504C82.1345 51.9952 82.4791 52.1489 82.8197 52.3115C82.4904 52.7021 82.38 53.4465 81.9368 53.6881C81.6676 53.5806 81.5246 53.4839 81.3164 53.2929C81.3448 52.8052 81.6064 52.3028 81.7859 51.8504Z" fill="#B4B4B4"/>
<path d="M8.29565 37.7679C8.63649 37.8095 8.70769 37.8822 8.96446 38.099C9.3329 37.9304 9.81676 37.6782 10.2221 37.7594C10.3594 37.9562 10.3384 37.8628 10.3241 38.1195C10.3035 38.4919 10.0075 38.8688 9.73705 39.1003C9.73186 38.7864 9.76382 38.4844 9.58801 38.2102C9.43336 38.5578 9.57306 38.8442 9.34826 39.1509L9.09378 39.1689C8.71475 38.8099 8.51776 38.2344 8.29565 37.7679Z" fill="#B4B4B4"/>
<path d="M6.11441 47.6226C6.16775 47.937 6.27901 48.4245 6.1171 48.7124C5.86532 49.161 5.30072 49.2061 4.84053 49.3119L4.78988 49.4979L4.77846 49.4977C4.62548 49.2642 4.71619 48.7006 4.72096 48.4088C5.19527 48.1612 5.65463 47.8952 6.11441 47.6226Z" fill="#B4B4B4"/>
<path d="M4.85259 56.1377C5.19426 55.8417 5.52347 55.5588 6.00068 55.5838L6.20514 55.701C6.22777 55.9659 6.16985 55.9996 6.02476 56.2282C5.79373 56.3402 5.56353 56.4322 5.32378 56.5231C5.59986 56.6341 5.82673 56.5723 6.10841 56.7277L6.06939 56.8463C5.61896 57.0722 5.27604 57.2894 4.76832 57.1537L4.64917 56.9181C4.66889 56.5921 4.69608 56.4241 4.85259 56.1377Z" fill="#B4B4B4"/>
<path d="M18.7595 37.9512C19.0767 37.9277 19.4944 37.8628 19.8032 37.9562C20.0764 38.0386 20.2192 38.2678 20.3709 38.4865C20.4031 38.7574 20.4102 38.7868 20.2867 39.0278C19.9682 39.1892 19.8501 39.1162 19.5058 39.054C19.4464 38.8143 19.429 38.6475 19.2415 38.4726L19.0416 38.5409C19.0286 38.7665 19.0269 38.6996 19.0323 38.8889L19.0367 39.0019L18.8264 39.111C18.6026 38.9897 18.6333 38.9726 18.531 38.7566C18.5632 38.4332 18.6161 38.243 18.7595 37.9512Z" fill="#B4B4B4"/>
<path d="M78.1433 50.6311C78.4843 50.635 78.7405 50.6379 79.0552 50.7764L79.1133 50.8565C79.0977 51.3821 78.9759 52.0877 78.5883 52.4725C78.4509 52.6087 78.4989 52.5644 78.2784 52.5496C78.2492 52.5107 78.2164 52.4741 78.1902 52.433C77.8517 51.901 78.0518 51.2135 78.1433 50.6311Z" fill="#B4B4B4"/>
<path d="M6.10854 50.0235C6.25218 50.3793 6.20984 50.7972 6.20756 51.1771C5.87689 51.3945 5.41774 51.6152 5.20186 51.9444C5.49952 51.8946 5.77788 51.8235 6.07658 51.9006L5.98545 52.0046C5.54664 52.0982 5.13627 52.161 4.68749 52.1765C4.67089 51.9891 4.66757 51.801 4.66113 51.6129C4.95609 51.0223 5.49246 50.7387 6.02365 50.3785C5.62656 50.5075 5.25251 50.6133 4.83778 50.6689L4.82948 50.5947C5.25915 50.4117 5.68551 50.2213 6.10854 50.0235Z" fill="#B4B4B4"/>
<path d="M85.1533 88.4254C84.7973 88.0071 84.3857 87.4772 84.3058 86.9248C84.2651 86.6429 84.3184 86.6723 84.4812 86.4623C84.4976 86.4644 84.5144 86.464 84.5304 86.4683C85.2891 86.6783 85.6303 87.3127 86.0465 87.9212C85.7573 88.1181 85.4678 88.2725 85.1533 88.4254Z" fill="#B4B4B4"/>
<path d="M12.942 37.7778C13.1128 37.8132 13.2824 37.8655 13.4512 37.9107C13.7246 38.2046 14.1549 38.3927 14.3147 38.7541C14.2705 39.0271 14.2362 39.0495 14.0448 39.2551C13.7837 39.3192 13.7771 39.3287 13.5336 39.2197C13.4037 39.043 13.3486 38.9366 13.3376 38.7196C13.325 38.4764 13.3756 38.5803 13.2368 38.4206L13.1568 38.4642L13.1062 38.6481C12.9785 38.9004 12.964 39.0003 12.6817 39.0995C12.4065 39.1962 12.2145 39.1478 11.956 39.0474C11.8199 38.8122 11.7765 38.6597 11.8138 38.3838C11.852 38.1029 11.91 37.9934 12.1391 37.8359L12.3212 37.9686L12.3598 38.3652L12.4692 38.3664C12.6235 38.1676 12.7811 37.9714 12.942 37.7778Z" fill="#B4B4B4"/>
<path d="M81.5693 66.9809C81.9382 66.7469 82.3469 66.4096 82.7942 66.3933C83.3165 66.6744 83.479 67.2983 83.7009 67.8232L82.2819 68.4656C81.9542 68.2382 81.775 67.3541 81.5693 66.9809Z" fill="#FF8D00"/>
<path d="M63.6675 71.4035C63.6965 70.8515 63.6193 70.0486 64.0189 69.6297C64.3614 69.4646 64.7338 69.5559 65.0977 69.6002L65.3044 69.7248C65.3187 70.2034 65.4167 71.0958 65.102 71.4511L63.6675 71.4035Z" fill="#FF8D00"/>
<path d="M82.6075 72.9395C83.0359 73.2749 83.5961 73.3803 84.1126 73.5301L83.6356 75.1345C83.1208 75.0265 82.6069 74.9147 82.0939 74.7991L82.0505 74.6294C82.1498 74.2326 82.3067 73.1951 82.6075 72.9395Z" fill="#F24000"/>
<path d="M65.3889 72.8694C65.7057 73.1891 65.9672 74.1541 65.9992 74.5984C65.4375 74.7178 64.9663 74.8801 64.4451 75.1167C64.2487 74.5006 64.0777 73.881 63.9128 73.2559C64.4034 73.1214 64.8954 72.9926 65.3889 72.8694Z" fill="#FF8D00"/>
<path d="M83.1865 69.713C83.5165 69.6692 83.8044 69.5917 84.1112 69.7585C84.533 70.2567 84.4894 71.0057 84.5475 71.6313C83.9288 71.5459 83.4192 71.4899 82.8048 71.6687C82.6196 71.153 82.6468 70.3495 82.8417 69.8364L83.1865 69.713Z" fill="#F24000"/>
<path d="M71.2557 79.7258C71.971 79.6692 72.5659 79.7002 73.1417 80.1602C72.8347 80.4512 72.8549 81.1714 72.8146 81.5817C72.1128 81.5207 71.4818 81.3942 70.8059 81.2037C70.9763 80.7174 71.1129 80.2206 71.2557 79.7258Z" fill="#FF8D00"/>
<path d="M5.72953 37.9027C6.0083 37.8504 6.36097 37.7539 6.64306 37.7789C7.00652 37.8111 7.60724 38.1157 7.84844 38.3966C8.01948 38.5958 7.99831 38.7822 7.97942 39.0271L7.81544 39.1615C7.58607 39.1722 7.34362 39.1958 7.11695 39.1538C6.87305 39.1086 6.85935 39.0862 6.72381 38.8953C6.7566 38.6936 6.79085 38.4921 6.82656 38.291L6.64389 38.255C6.38858 38.3885 6.38214 38.3803 6.27296 38.6438L6.40415 38.9532C6.30243 39.1171 6.2039 39.2829 6.10856 39.4506C5.57468 39.7581 5.07152 39.8524 4.85108 40.4821C4.75476 40.0845 4.6352 39.6672 4.69457 39.2549C4.78798 38.608 5.24215 38.2811 5.72953 37.9027Z" fill="#B4B4B4"/>
<path d="M99.1597 106.23C101.121 106.144 103.099 106.199 105.062 106.205L115.514 106.211L115.498 110.329C115.452 111.109 115.486 111.91 115.408 112.684C115.081 111.802 115.312 107.67 115.256 106.381C114.426 106.369 113.573 106.331 112.746 106.415C112.138 106.478 111.525 106.647 110.914 106.662C110.116 106.681 109.391 106.339 108.626 106.341C107.008 106.344 100.176 106.614 99.1597 106.23Z" fill="#D3D3D3"/>
<path d="M134.32 53.3122C135.116 53.3115 135.913 53.3175 136.71 53.3301L136.561 54.0312C136.432 54.6274 136.356 55.4693 135.877 55.894C135.702 56.0486 135.67 56.053 135.451 56.0447C134.719 55.5669 134.523 54.0998 134.32 53.3122Z" fill="black"/>
<path d="M49.0103 21.6421C49.3619 21.8155 49.6797 21.9393 49.8161 22.3394C50.1658 23.3653 49.8003 24.8025 49.8163 25.8937C49.2187 25.9817 48.6346 26.0586 48.0303 26.0863L47.907 25.9389C47.8317 24.9492 48.1669 23.6546 48.4137 22.6941C48.5262 22.2565 48.6059 21.8773 49.0103 21.6421Z" fill="#B4B4B4"/>
<path d="M80.7194 118.127C79.5759 118.076 76.1426 118.432 75.4437 117.768C75.4184 117.744 75.3943 117.719 75.3715 117.692C75.3487 117.666 75.3272 117.639 75.3071 117.61C75.2871 117.582 75.2685 117.552 75.2513 117.522C75.2342 117.492 75.2186 117.461 75.2046 117.429C75.1905 117.397 75.178 117.365 75.1672 117.331C75.1564 117.298 75.1474 117.265 75.1401 117.231C75.1326 117.197 75.1268 117.163 75.1228 117.128C75.1189 117.093 75.1167 117.059 75.1162 117.024C75.1155 116.991 75.1165 116.958 75.1191 116.925C75.1217 116.892 75.126 116.859 75.132 116.826C75.1379 116.794 75.1455 116.762 75.1546 116.73C75.1639 116.698 75.1747 116.667 75.1872 116.636C75.1996 116.605 75.2135 116.576 75.2289 116.546C75.2444 116.517 75.2613 116.488 75.2798 116.461C75.298 116.433 75.3177 116.407 75.3389 116.381C75.3599 116.355 75.3822 116.331 75.4057 116.307C76.06 115.657 80.3624 115.96 81.4893 115.978C81.5053 116.635 81.6284 117.376 81.392 117.994C81.1323 118.157 81.0206 118.127 80.7194 118.127Z" fill="#FF8D00"/>
<path d="M133.042 26.1406C133.316 26.1477 133.806 26.0896 133.997 26.269C134.103 29.0311 133.991 31.8215 133.995 34.5879C133.998 36.6829 134.16 38.8899 133.969 40.9655L133.92 40.9971L133.058 40.9485C132.967 36.0193 133.269 31.0649 133.042 26.1406Z" fill="#404040"/>
<path d="M1.94257 114.069C5.36276 113.953 8.83464 114.242 12.2411 114.004L12.2627 115.47C8.49297 115.427 4.70704 115.534 0.9375 115.607L0.952238 115.493C1.13864 114.741 1.30407 114.519 1.94257 114.069Z" fill="url(#paint0_linear_911_7237)"/>
<path d="M138.026 23.0462L139.322 23.0454C139.332 23.7768 139.354 24.5111 139.326 25.2421C136.801 25.2495 134.226 25.1654 131.709 25.3551C131.699 24.9052 131.692 24.4578 131.658 24.0089C131.639 23.763 131.678 23.6226 131.771 23.3957C132.097 23.1169 132.369 23.1642 132.782 23.1638C134.531 23.1607 136.279 23.1215 138.026 23.0462Z" fill="#FF8D00"/>
<path d="M134.778 26.1206L136.033 26.1049L136.034 41.0533L135.311 40.9485L134.825 40.9502L134.778 26.1206Z" fill="#7C7979"/>
<path d="M131.804 26.134L133.042 26.1406C133.269 31.0649 132.967 36.0193 133.058 40.9485L132.904 41.0335L131.814 40.9936L131.8 40.888L131.804 26.134Z" fill="#7C7979"/>
<path d="M134.825 40.9502L135.311 40.9485C135.055 41.0223 135.037 41.0184 134.878 41.229C134.896 41.8066 135.016 42.3673 135.005 42.9457C134.98 44.2337 134.727 45.6634 134.903 46.9297C135.121 47.0923 135.242 47.076 135.51 47.1028C134.541 47.226 133.293 47.1365 132.318 47.0353L131.882 46.9266C131.588 45.6816 131.804 42.4293 131.814 40.9936L132.904 41.0335L133.058 40.9485L133.92 40.9971L133.969 40.9655C134.264 40.9832 134.532 40.9985 134.825 40.9502Z" fill="#FF8D00"/>
<path d="M134.825 40.9502L135.311 40.9485C135.055 41.0223 135.037 41.0184 134.878 41.229C134.896 41.8066 135.016 42.3673 135.004 42.9457C134.98 44.2337 134.727 45.6634 134.903 46.9297C135.121 47.0923 135.242 47.076 135.51 47.1028C134.541 47.226 133.292 47.1365 132.318 47.0353C132.839 46.9801 133.376 47.0152 133.9 47.0237C133.868 45.0146 133.875 43.0057 133.92 40.9971L133.969 40.9655C134.263 40.9832 134.532 40.9985 134.825 40.9502Z" fill="#F7BE73"/>
<path d="M71.636 61.4815C71.7531 61.8479 71.883 62.4747 72.1514 62.7533C72.3094 62.9172 72.4676 62.9703 72.6882 62.972C73.033 62.9749 73.3226 62.8008 73.5708 62.5818C73.6914 62.3466 73.7045 62.2172 73.6867 61.9636L73.6509 61.4034L73.7836 61.2825C74.4096 61.2415 75.0336 61.3399 75.6553 61.4098C75.5228 61.7576 75.3888 62.042 75.4309 62.4185C75.5857 62.744 75.8307 62.8471 76.1317 63.0139C73.8791 63.4994 66.7753 68.0183 66.2372 68.0227C66.334 67.7968 66.4266 67.5936 66.4787 67.3518C66.2453 67.6891 66.0189 68.0216 65.7027 68.2887L64.5725 67.6509C64.8114 67.1419 65.0695 66.6428 65.347 66.1536L66.6275 66.5058C67.0825 66.3919 67.4073 65.8812 67.645 65.5082L66.6781 64.3114C67.1259 63.8898 67.5666 63.3921 68.1353 63.1412C68.4369 63.1914 68.4242 63.2522 68.61 63.5006C68.9548 63.7963 69.2199 63.9619 69.6884 63.9844C69.8505 63.9086 69.9453 63.8978 70.045 63.7387C70.3879 63.191 70.2135 62.5714 70.1199 61.9736C70.6345 61.8462 71.1352 61.6543 71.636 61.4815Z" fill="#FF8D00"/>
<path d="M138.132 40.9458L139.277 40.9704L139.279 43.1016C139.274 43.984 139.584 46.2264 138.923 46.891C138.707 47.1084 138.243 47.0367 137.955 47.0179L137.395 47.1095C136.766 47.1028 136.138 47.1006 135.51 47.1028C135.242 47.076 135.121 47.0923 134.903 46.9297C134.727 45.6634 134.98 44.2337 135.004 42.9457C135.016 42.3673 134.896 41.8066 134.878 41.229C135.037 41.0184 135.054 41.0223 135.311 40.9485L136.034 41.0533C136.337 41.0504 136.651 40.9954 136.952 40.9603C137.347 40.9679 137.738 40.9686 138.132 40.9458Z" fill="#FF8D00"/>
<path d="M80.3996 103.645C79.1776 103.639 72.7877 103.865 72.1282 103.453C71.7971 103.245 71.6103 102.85 71.5132 102.491C71.5622 102.219 71.5696 102.125 71.7874 101.929C72.6484 101.154 79.1247 101.554 80.5902 101.558C81.8375 101.563 85.0501 101.209 85.9267 102.105C86.1394 102.322 86.198 102.524 86.2277 102.822C86.1297 103.134 86.012 103.291 85.7083 103.434C84.6918 103.911 81.6328 103.63 80.3996 103.645Z" fill="#FF8D00"/>
<path d="M80.5146 108.804C81.5653 108.795 85.0783 108.495 85.8083 109.125C86.0219 109.31 86.09 109.511 86.1033 109.785C86.1159 110.053 85.9891 110.345 85.7946 110.526C85.0434 111.226 81.6066 110.889 80.4753 110.908C78.9812 110.919 77.4867 110.878 75.9926 110.891C74.9848 110.9 73.9181 110.995 72.9168 110.897C72.5861 110.864 72.145 110.79 71.8789 110.573C71.6601 110.395 71.5403 110.198 71.5453 109.909C71.5507 109.589 71.7099 109.307 71.9378 109.091C72.111 108.927 72.2712 108.868 72.5064 108.837C73.478 108.708 74.5398 108.793 75.5197 108.799L80.5146 108.804Z" fill="#FF8D00"/>
<path d="M80.4479 99.9597C78.7399 99.8793 73.1759 100.296 72.0343 99.6135C71.8491 99.3378 71.768 99.0818 71.8024 98.7492C71.8325 98.4589 71.9762 98.1154 72.2358 97.9571C72.8193 97.6014 83.1081 97.6922 84.6166 97.8372C85.0595 97.8341 85.3775 97.8474 85.703 98.1898C85.9291 98.4279 86.1557 98.8354 86.098 99.1731C86.0513 99.4455 85.9004 99.6336 85.6688 99.7733C84.9022 100.236 81.4504 100.022 80.4479 99.9597Z" fill="#FF8D00"/>
<path d="M80.5319 114.489C79.0505 114.549 72.4625 114.795 71.6347 114.126C71.4929 114.011 71.4481 113.708 71.4547 113.532C71.4678 113.181 71.5911 112.832 71.8572 112.596C72.3766 112.134 82.2774 112.289 83.5957 112.406L85.9776 112.439C85.971 113.092 85.9843 113.753 85.9369 114.404C84.1396 114.503 82.3318 114.479 80.5319 114.489Z" fill="#FF8D00"/>
<path d="M81.8452 105.121C82.8598 105.093 85.2621 104.773 85.9701 105.562C86.1746 105.789 86.2663 106.203 86.1839 106.493C86.0955 106.805 85.8406 107.004 85.5529 107.123C84.4718 107.571 81.6281 107.28 80.3372 107.299C78.7877 107.349 73.3357 107.552 72.164 107.104C71.8555 106.986 71.7225 106.85 71.5884 106.556C71.6116 106.181 71.7088 105.778 71.988 105.502C72.1879 105.305 72.3425 105.235 72.6194 105.192C73.6735 105.029 74.8927 105.139 75.9651 105.141L81.8452 105.121Z" fill="#FF8D00"/>
<path d="M64.948 30.3017C66.1932 31.1781 68.6957 32.7858 70.2394 32.8798C69.6655 34.5842 68.912 36.2218 68.2727 37.9027C66.38 37.0854 64.5054 36.2291 62.6487 35.3338C63.327 33.6168 64.522 32.1195 64.948 30.3017Z" fill="#B4B4B4"/>
<path d="M87.2612 20.8169C88.9445 21.527 90.7142 22.1522 92.3217 23.019C91.5321 24.7748 90.7088 26.5236 90.001 28.3138C88.7116 27.9812 86.3319 27.3528 85.2741 26.5976C85.3408 26.5288 85.3115 26.5757 85.3248 26.4395L85.0688 26.4393C85.3242 25.6269 85.8296 24.8184 86.1806 24.036C86.6489 22.9923 86.9569 21.9154 87.2612 20.8169Z" fill="#7C7979"/>
<path d="M54.8879 36.4643C55.1121 36.4401 55.3664 36.4186 55.5725 36.5351C55.8156 36.6722 55.8172 36.7854 55.8482 37.0305C55.3655 38.2637 52.8182 39.923 51.8397 41.1114C51.8113 41.1459 51.7837 41.181 51.7554 41.2159C52.7939 41.1839 60.8791 41.0239 61.3698 41.3629C61.5164 41.5999 61.5365 41.7188 61.5328 41.9961C61.4632 42.1348 61.4435 42.2662 61.2924 42.3319C60.048 42.8722 52.4838 42.118 51.8075 42.5665L51.9842 42.7525C52.7443 43.4174 55.2842 45.6078 55.6528 46.2807C55.811 46.5696 55.9231 46.8989 55.7952 47.22C55.7271 47.3907 55.6464 47.3771 55.4895 47.4432C55.1428 47.3996 54.8728 47.3355 54.588 47.1216C53.7857 46.519 53.0687 45.6615 52.3607 44.9454C51.3206 43.8933 50.2663 42.873 49.1697 41.8783C50.9347 39.965 52.8954 38.1411 54.8879 36.4643Z" fill="#B4B4B4"/>
<path d="M132.781 23.1638C132.926 21.3945 132.161 18.5597 133.454 17.188C133.995 16.6137 134.801 16.2436 135.595 16.2456C136.255 16.2477 136.919 16.4945 137.383 16.9684C138.535 18.1441 138.028 21.4278 138.026 23.0462C136.279 23.1214 134.53 23.1606 132.781 23.1638Z" fill="url(#paint1_linear_911_7237)"/>
<path d="M77.9357 0.193848C79.6171 0.822321 81.5764 1.43219 83.091 2.39071C82.5046 3.96841 81.3543 5.77612 81.1722 7.43421C80.421 7.51295 79.4475 7.23705 78.7228 7.04154C75.2688 6.10968 72.6642 4.41315 69.0279 5.7972C68.4581 6.01399 67.9618 6.3521 67.4105 6.60857L67.4055 6.52425C67.7694 6.2963 68.1214 5.98506 68.5194 5.82386C68.9872 5.63393 69.5066 5.58495 69.9778 5.41073C70.3651 5.2671 70.4965 5.14641 70.9409 5.14806C70.977 5.14806 71.0129 5.14951 71.0491 5.15013L70.8712 5.08978L71.0368 5.07387C70.8492 4.89221 70.7881 4.76924 70.7064 4.52269C70.8128 4.59874 70.9891 4.76655 71.1049 4.80747C71.722 5.02551 73.9611 4.75229 74.8842 4.85129C75.0179 4.86555 75.1511 4.87733 75.2846 4.89283C76.1567 3.31996 77.0404 1.75363 77.9357 0.193848Z" fill="#B4B4B4"/>
<path d="M138.038 26.1163L139.281 26.0923L139.277 40.9704L138.132 40.9458C137.738 40.9686 137.347 40.9679 136.952 40.9603C136.651 40.9954 136.337 41.0504 136.034 41.0533L136.033 26.1049L136.894 26.1204L138.038 26.1163Z" fill="#404040"/>
<path d="M0.937371 115.607C4.70691 115.534 8.49284 115.427 12.2626 115.47L12.2709 123.602L17.4208 123.636C16.7418 124.104 13.1265 123.842 12.1198 123.825C12.2319 121.124 12.1443 118.386 12.143 115.681C10.5628 115.688 6.82997 115.424 5.4934 115.758C5.44504 116.122 5.63206 116.533 5.76055 116.875C6.16677 117.954 6.73469 118.964 7.12784 120.045C7.47034 120.986 7.61252 122.119 8.0395 123.009C8.12772 123.192 8.14287 123.136 8.11319 123.307C8.10509 123.355 8.09077 123.402 8.07956 123.449C8.87997 123.942 10.603 123.161 11.2891 123.833L11.4036 123.81L11.4205 123.662L11.5683 123.762L11.5979 123.764C10.5941 124.151 2.70216 123.641 0.917236 123.612C1.05278 120.967 0.9272 118.261 0.937371 115.607Z" fill="url(#paint2_linear_911_7237)"/>
<path d="M139.279 43.1016C140.757 44.0896 143.178 45.5212 144.273 46.8643L144.114 46.9139L143.669 46.4574C143.632 46.9104 143.856 47.4436 143.967 47.8869C144.395 49.5979 144.676 51.7415 143.183 53.0412C142.021 54.0537 140.168 54.3407 138.678 54.1969C138.185 54.1493 137.177 53.8156 136.766 53.976L136.708 54.0448L136.561 54.0311L136.71 53.3301C136.922 52.8271 137.014 52.1457 137.194 51.6084C137.696 50.1086 138.28 48.6301 138.837 47.15C138.354 47.1626 137.876 47.1343 137.395 47.1095L137.955 47.0179C138.243 47.0367 138.707 47.1084 138.923 46.891C139.584 46.2264 139.274 43.984 139.279 43.1016Z" fill="#B4B4B4"/>
<path d="M5.64301 67.5467C5.75593 67.5757 10.5305 72.4544 11.0638 72.9986C10.4923 73.6523 9.82105 74.2258 9.20726 74.841C7.99503 76.0556 6.82244 77.2989 5.57451 78.4786L5.55271 78.4819L5.52573 78.505C5.13466 78.3405 0.751122 73.7876 0.147705 73.1203C1.66569 71.3924 3.86244 68.9405 5.64301 67.5467Z" fill="#B4B4B4"/>
<path d="M115.408 112.684C115.486 111.91 115.452 111.109 115.498 110.329C115.562 111.967 115.523 113.613 115.513 115.252L124.449 115.279C125.704 115.217 131.015 114.871 131.861 115.697C132.292 116.117 132.061 117.364 132.021 117.91C125.81 117.961 119.6 117.946 113.39 117.864C111.673 117.837 109.374 118.06 107.755 117.712C107.326 117.172 107.571 115.837 107.616 115.164C110.205 115.25 112.817 115.3 115.406 115.274L115.408 112.684Z" fill="url(#paint3_linear_911_7237)"/>
<path d="M115.514 106.211L124.455 106.215C124.437 109.237 124.435 112.258 124.449 115.279L115.512 115.252C115.523 113.613 115.561 111.967 115.498 110.329L115.514 106.211Z" fill="#404040"/>
<path d="M50.0309 113.669C52.439 113.671 54.8471 113.66 57.2551 113.635C58.5495 113.626 60.1115 113.452 61.3719 113.724L61.353 114.372C61.2239 117.451 61.2014 120.53 61.2855 123.611C58.8486 123.644 56.4126 123.71 53.9775 123.81C52.918 123.849 51.7479 124.018 50.7032 123.925L50.6654 123.815C51.3048 123.495 52.8842 123.99 53.1638 123.277C53.3782 122.73 53.0133 118.144 52.8115 117.388C52.6692 116.855 52.9311 116.325 52.3717 115.935C51.9076 115.612 51.0436 115.545 50.494 115.327C50.3333 115.264 50.3977 115.281 50.2065 115.305C49.9375 116.606 50.121 120.475 50.1446 122.028C50.1521 122.528 50.2638 123.151 50.1345 123.629C49.0966 123.79 44.1759 123.908 43.342 123.615C45.561 123.518 47.8076 123.558 50.0299 123.534C49.9458 120.46 49.989 117.372 50.0247 114.297L50.0309 113.669Z" fill="url(#paint4_linear_911_7237)"/>
<path d="M50.0309 113.669C52.439 113.671 54.8471 113.66 57.2551 113.635C58.5495 113.626 60.1115 113.452 61.3719 113.724C59.7165 114.106 56.0987 113.751 54.151 113.866C54.5568 113.932 56.118 113.971 56.2861 114.174L56.4424 114.094C55.9608 114.434 54.2884 114.42 53.6377 114.521C52.491 114.699 51.1796 114.385 50.0247 114.297L50.0309 113.669Z" fill="#B4B4B4"/>
<path d="M89.8512 87.3344C89.7888 87.3957 89.7254 87.456 89.6612 87.5153C85.4263 91.4285 79.3959 93.5171 73.6532 93.2705C67.6333 93.0122 62.0112 90.9292 57.8865 86.4509C53.6896 81.8941 51.3257 76.3042 51.6317 70.0627C51.9358 63.8573 54.6261 58.3337 59.2714 54.2021C62.6821 51.1686 66.3663 49.4231 70.8638 48.6464C72.437 48.3747 74.0324 48.198 75.6301 48.2982C80.0157 48.5733 85.0799 50.4841 88.514 53.2716C90.0656 54.5311 91.4007 56.0321 92.7254 57.5188C91.8579 57.5226 90.9905 57.5157 90.1231 57.4982C89.8416 57.2696 89.5747 57.0222 89.304 56.7808C88.9682 57.1249 88.5846 57.6236 88.0853 57.6991C87.8987 57.7274 87.8933 57.6798 87.7509 57.5833C87.7435 57.5405 87.7325 57.4984 87.7289 57.4552C87.6841 56.923 88.1868 56.4345 88.4961 56.0418C87.8352 55.3887 87.1419 54.7927 86.3494 54.3035C86.0441 54.2395 85.6889 54.0053 85.4066 53.8654C85.1264 53.2439 83.4517 52.6134 82.8196 52.3115C82.4791 52.1489 82.1345 51.9952 81.7859 51.8504C80.8975 51.5133 79.9925 51.2172 79.1134 50.8565L79.0553 50.7763C78.7406 50.6379 78.4844 50.635 78.1434 50.6311C77.2195 50.5031 76.2958 50.3676 75.3702 50.2506C75.3696 50.9105 75.48 51.548 74.976 52.0533L74.7763 52.0608C74.3857 51.6708 74.3286 51.3331 74.3313 50.7972L74.3394 50.1969C73.3889 50.2586 72.441 50.3482 71.4959 50.4657C71.5473 50.9721 71.6472 51.4701 71.4695 51.9587L71.2856 52.1368C71.0471 52.0643 70.9167 51.9678 70.8057 51.7332C70.6568 51.4187 70.5717 51.0349 70.4709 50.7026C69.5781 50.9222 68.6365 51.3067 67.7444 51.4546L66.9458 51.8436C66.068 52.1722 65.2298 52.5262 64.3912 52.9432C64.5878 53.383 64.8122 53.7871 64.8128 54.2779L64.702 54.5207C64.4514 54.5552 64.3057 54.5511 64.1008 54.3798C63.8459 54.1665 63.6186 53.8766 63.3953 53.631C62.6798 54.0299 61.9232 54.4875 61.3142 55.0355C60.9268 55.1581 60.6759 55.237 60.4602 55.6101C60.4434 55.639 60.4299 55.6698 60.415 55.6998C59.7426 56.3969 59.079 57.0881 58.5325 57.8904C58.8959 58.2081 59.2675 58.4767 59.462 58.9293L59.4628 59.1966C59.2384 59.323 59.182 59.3098 58.931 59.2269C58.6199 59.1244 58.2396 58.7524 57.9826 58.5509C57.4105 59.2832 56.7888 60.0245 56.3461 60.8431C56.1713 61.125 56.0042 61.3887 55.8905 61.701C55.4952 62.4745 54.9493 63.3853 54.837 64.2551C55.2092 64.8869 56.2332 64.5439 56.0462 65.3707L55.8645 65.5708C55.4544 65.5239 54.9323 65.2321 54.5655 65.037C54.2475 66.0048 53.9665 67.0038 53.7867 68.0074C53.7149 68.3903 53.6624 68.7894 53.5677 69.1664C53.5229 70.1292 53.5256 71.0787 53.5495 72.0413C54.0103 72.0204 54.7685 71.8875 55.1241 72.2376C55.1509 72.2641 55.1716 72.2961 55.1953 72.3253C55.106 72.5559 55.0131 72.6688 54.7704 72.7605C54.4549 72.88 54.0179 72.9 53.6808 72.9589C53.8361 73.854 53.9416 74.7974 54.1826 75.6724C54.2634 76.0006 54.3398 76.3298 54.4117 76.6601C54.6438 77.4675 54.8395 78.4077 55.2947 79.1184C55.5164 79.4059 55.625 79.6109 55.7184 79.9622C56.0339 80.8879 56.4974 81.6935 57.0674 82.4871C57.5224 82.2597 57.951 81.9977 58.4685 81.97L58.7014 82.0589C58.7407 82.3145 58.7288 82.4569 58.5572 82.6671C58.35 82.9205 58.0326 83.148 57.7813 83.3609C58.3766 84.2723 59.0987 84.9718 59.9025 85.7014C60.1179 85.8996 60.3255 86.1188 60.5725 86.2767C61.144 86.769 62.8822 88.3787 63.5597 88.3967C63.8567 88.5292 64.0759 88.6315 64.3059 88.8718C65.0447 89.4073 66.1232 89.9434 67.026 90.1065C67.2601 90.1598 67.5015 90.1995 67.7238 90.2908C68.6367 90.6731 69.6393 90.8622 70.5998 91.0949C70.6612 90.7186 70.6932 90.1387 70.9246 89.8277C71.088 89.6082 71.1498 89.5704 71.4018 89.5586C71.4296 89.5919 71.4608 89.6227 71.4857 89.6582C71.7887 90.0889 71.5421 90.7502 71.44 91.2231C72.332 91.2942 73.2175 91.3307 74.1121 91.3458C74.1401 90.992 74.1206 90.4574 74.2873 90.1472C74.4129 89.9132 74.4789 89.8622 74.717 89.8029C74.7458 89.8246 74.7772 89.8434 74.8035 89.868C75.1693 90.209 75.0634 90.9087 75.0582 91.3649C76.0019 91.2878 76.9308 91.172 77.8667 91.0305C77.7592 90.5522 77.534 89.9969 77.8304 89.5542C77.9427 89.3864 77.9751 89.4189 78.1552 89.3775C78.258 89.4366 78.3454 89.4798 78.4328 89.5648C78.6891 89.8142 78.6762 90.4849 78.7061 90.8279C79.7411 90.583 80.7453 90.2943 81.7585 89.9742C81.6294 89.7605 81.5088 89.5445 81.4052 89.317C81.2169 88.9039 81.1866 88.6205 81.3431 88.1892L81.4922 88.1378C81.5337 88.1599 81.5771 88.1785 81.6167 88.2041C82.1213 88.5292 82.2025 89.2614 82.3385 89.8025C83.296 89.3751 84.2239 88.9084 85.1534 88.4254C85.4678 88.2725 85.7574 88.1181 86.0466 87.9212C86.8359 87.367 87.6149 86.7989 88.3836 86.2168C88.0683 85.7055 87.5975 85.1241 87.6735 84.4994C87.8076 84.2398 87.9064 84.1559 88.157 84.0069C88.5501 84.1241 88.6549 84.9326 89.0786 85.2267C89.4736 85.2878 89.5373 85.1717 89.8657 84.9631C90.0301 85.4635 90.1067 86.7686 89.8977 87.253C89.8852 87.2817 89.8667 87.3074 89.8512 87.3344Z" fill="url(#paint5_linear_911_7237)"/>
<path d="M77.4568 61.8485C77.9602 62.0949 78.4722 62.3315 78.9659 62.5964L78.2672 63.6785C78.6989 63.9974 79.117 64.3008 79.594 64.5521L80.4701 63.5593C80.9638 63.9596 81.4042 64.3798 81.8435 64.8388L80.6132 65.8124C80.9009 66.2604 81.1649 66.6225 81.5695 66.9809C81.7752 67.3541 81.9543 68.2382 82.2821 68.4656C82.3819 68.7026 82.4687 68.9289 82.5343 69.1777C82.5862 69.3745 82.6376 69.4764 82.7833 69.6264L83.1864 69.713L82.8417 69.8364C82.6468 70.3495 82.6196 71.1531 82.8047 71.6687C82.7425 72.0907 82.6966 72.5224 82.6075 72.9395C82.3068 73.1951 82.1498 74.2326 82.0506 74.6294L82.094 74.7991C81.7955 75.1959 81.6743 75.7433 81.5423 76.2164C81.9946 76.4681 82.412 76.7159 82.8172 77.0418C82.4141 77.5112 82.0153 77.9855 81.6052 78.449C81.1886 78.1276 80.7678 77.8102 80.3554 77.4837C79.9552 77.8871 79.5464 78.2818 79.2027 78.735L80.2736 79.6285C79.7301 79.993 79.1936 80.3689 78.6159 80.6785C78.3313 80.2677 78.0403 79.867 77.8126 79.4212C77.2837 79.5921 76.7515 79.7498 76.2464 79.9837C76.3969 80.4481 76.5414 80.898 76.6311 81.3793C76.1696 81.5238 75.4365 81.8671 74.9728 81.6538C74.7918 81.5707 74.6809 81.3897 74.6348 81.2002C74.547 80.8404 74.5321 80.445 74.4987 80.0769C74.048 80.111 73.5936 80.1612 73.1418 80.1602C72.5659 79.7002 71.971 79.6692 71.2557 79.7258C70.9849 79.5117 70.6154 79.2573 70.2554 79.2947C69.6747 79.355 69.3099 79.9858 69.0019 80.4156C68.4998 80.1073 68.0149 79.7576 67.5261 79.428C67.8113 79.0624 68.2837 78.5513 68.1922 78.0425C68.1401 77.7536 68.0253 77.7027 67.798 77.5624C67.1068 77.5149 66.8172 77.8294 66.3207 78.2423C65.9473 77.8398 65.6596 77.3919 65.3594 76.9354C65.7193 76.5471 66.1198 76.2257 66.5312 75.8946C66.3228 75.4693 66.1548 75.0454 65.9994 74.5984C65.9674 74.1541 65.7058 73.1891 65.3891 72.8694C65.3806 72.5638 65.3787 72.2548 65.3314 71.9522C65.2905 71.691 65.3191 71.6143 65.102 71.4511C65.4167 71.0958 65.3187 70.2034 65.3044 69.7248L65.0977 69.6002L65.2687 69.5347C65.5226 69.1924 65.7355 68.7185 65.7027 68.2887C66.0189 68.0216 66.2453 67.6891 66.4786 67.3518C66.4265 67.5936 66.334 67.7968 66.2372 68.0227C66.7753 68.0183 73.8791 63.4994 76.1317 63.0139C76.4235 63.0771 76.6234 63.1923 76.8783 62.9662C77.1313 62.7421 77.3181 62.16 77.4568 61.8485Z" fill="url(#paint6_linear_911_7237)"/>
<path d="M73.5492 67.7096C74.2658 67.7976 74.918 67.9369 75.521 68.3542C75.6062 68.4123 75.6883 68.4745 75.7672 68.5408C75.846 68.6071 75.9215 68.6771 75.9934 68.751C76.0654 68.8247 76.1334 68.9019 76.1975 68.9825C76.2617 69.0631 76.3217 69.1466 76.3774 69.2331C76.4332 69.3197 76.4845 69.4087 76.5312 69.5004C76.5781 69.592 76.6203 69.6857 76.6576 69.7816C76.6952 69.8775 76.7277 69.975 76.7552 70.0741C76.7829 70.1731 76.8055 70.2733 76.8231 70.3746C76.8401 70.4817 76.8517 70.5896 76.8577 70.698C76.8638 70.8063 76.8644 70.9146 76.8594 71.0231C76.8543 71.1315 76.8437 71.2394 76.8277 71.3467C76.8116 71.4541 76.7901 71.5603 76.7631 71.6656C76.7362 71.7707 76.7041 71.8743 76.6666 71.9762C76.6289 72.0782 76.5862 72.1779 76.5385 72.2755C76.4908 72.373 76.4382 72.468 76.3807 72.5603C76.3233 72.6524 76.2613 72.7415 76.1948 72.8275C75.5585 73.6587 74.6921 73.9991 73.6837 74.1547C72.9958 74.1601 72.3903 74.0441 71.8 73.681C71.0889 73.2439 70.6125 72.5386 70.4271 71.7313C70.226 70.8557 70.3702 69.9242 70.8836 69.1784C71.5387 68.2269 72.4615 67.8977 73.5492 67.7096Z" fill="white"/>
<path d="M45.1379 83.0403C46.685 83.6711 48.1974 84.3299 49.5574 85.3163C52.0562 87.1292 54.1759 89.6861 56.3314 91.8819C57.4305 93.0017 58.6717 94.0486 59.6779 95.2481C60.153 95.8144 60.5939 96.4462 60.8818 97.1294C61.7171 99.1113 61.1645 106.325 61.3721 108.943C60.9623 109.223 51.3604 109.034 50.0336 109.04L50.0458 103.323C50.0464 102.143 50.1492 100.843 49.9175 99.6822C49.8023 99.1035 49.5887 98.543 49.2244 98.073C48.3261 96.9141 46.9121 96.7659 45.5601 96.6144L45.2824 96.5177C45.2581 93.7414 45.2481 90.9652 45.2525 88.189C45.2492 86.4764 45.3032 84.7463 45.1379 83.0403Z" fill="#FF8D00"/>
<path d="M0.734435 109.039C0.711809 103.611 0.51669 98.8402 2.80706 93.7401C4.65861 89.6167 8.26832 86.1285 12.4138 84.3037C13.7458 83.7174 15.1469 83.3815 16.504 82.87L16.5503 91.9536C16.5603 93.551 16.6269 95.1592 16.5783 96.7551L16.5381 96.8386C15.3084 96.936 13.9336 96.7865 13.0577 97.8281C12.6894 98.2661 12.454 98.8117 12.3457 99.3701C12.1458 100.401 12.2407 101.558 12.24 102.608C12.2388 104.762 12.2886 106.927 12.2371 109.08C10.9195 108.995 9.5669 109.052 8.24549 109.051L0.734435 109.039Z" fill="#FF8D00"/>
<path d="M39.8858 12.9369C40.669 12.9869 42.8778 13.2852 43.4169 13.8568C43.6219 14.0742 43.5088 15.3779 43.5018 15.7238C44.2063 16.1624 44.8612 16.6939 45.5239 17.1926C45.9904 16.9256 46.4645 16.7212 46.9606 16.5182C47.5683 17.1176 48.0889 17.7737 48.496 18.5244C48.129 18.9019 47.8112 19.2607 47.5229 19.7059C47.6559 20.2794 47.816 20.7789 48.0605 21.3162C48.3727 21.4369 48.6923 21.5371 49.0101 21.6421C48.6058 21.8773 48.5261 22.2566 48.4136 22.6941C48.1668 23.6547 47.8315 24.9492 47.9069 25.9389L48.0302 26.0863C47.6613 26.698 47.3716 27.3604 47.0652 28.005C47.2269 28.346 47.3718 28.6812 47.6055 28.9798C47.4959 29.2603 47.2906 29.6606 47.3888 29.9634C47.4261 30.0783 47.488 30.1663 47.5505 30.2667C47.1609 30.8642 45.8141 31.9033 45.2244 32.4475C44.7094 32.0557 44.2042 31.6723 43.7413 31.2187C42.9803 31.5304 42.2259 31.857 41.4779 32.1983C41.3235 32.9249 41.2886 33.6908 41.222 34.4309C39.9319 34.5102 38.6458 34.509 37.3538 34.5086C37.2042 33.8782 37.0962 33.1179 36.7994 32.5426C36.3753 31.7202 35.5801 31.5404 34.7608 31.2951C34.2523 31.72 33.761 32.1398 33.1868 32.4762C32.0204 31.3747 31.075 30.0681 30.1475 28.768C30.5373 28.1844 31.0795 27.6832 31.5665 27.1777C31.3045 26.4341 31.1185 25.6721 31.0083 24.8918C30.4989 24.6919 29.981 24.4983 29.4907 24.2548C29.274 24.1471 28.8543 23.9341 28.801 23.6766C28.6194 22.8017 29.5408 20.2519 29.9956 19.425C30.7142 19.4511 31.4228 19.4564 32.1415 19.4283C32.5728 18.7686 32.83 18.022 33.0928 17.2852C32.8723 16.782 32.5886 16.2981 32.3304 15.8129C33.2069 14.9827 34.1717 14.4284 35.2196 13.8436C35.6866 14.3309 36.1431 14.7539 36.6987 15.1396C37.4644 14.9916 38.2237 14.8165 38.9767 14.6142C39.2307 14.0227 39.5533 13.4869 39.8858 12.9369Z" fill="url(#paint7_linear_911_7237)"/>
<path d="M38.7611 19.1317C39.6978 19.0549 40.5906 19.1613 41.4134 19.6393C42.5221 20.2831 43.3283 21.4685 43.604 22.7079C43.8798 23.9492 43.594 25.3067 42.8652 26.3465C42.1559 27.3585 41.1592 27.9909 39.9476 28.2172C38.8846 28.3592 37.9364 28.2708 36.9911 27.7252C36.9265 27.6878 36.8629 27.6489 36.8003 27.6084C36.7376 27.568 36.6761 27.526 36.6156 27.4823C36.5551 27.4388 36.4957 27.3938 36.4375 27.3474C36.3794 27.3008 36.3223 27.2529 36.2664 27.2035C36.2107 27.1541 36.1562 27.1033 36.1029 27.0512C36.0496 26.9991 35.9977 26.9457 35.9472 26.8911C35.8967 26.8364 35.8476 26.7805 35.7998 26.7234C35.7521 26.6663 35.7058 26.6079 35.661 26.5484C35.6161 26.489 35.5728 26.4285 35.531 26.3669C35.4894 26.3052 35.4492 26.2426 35.4106 26.1791C35.372 26.1154 35.335 26.0509 35.2996 25.9854C35.2643 25.92 35.2306 25.8537 35.1987 25.7864C35.1666 25.7193 35.1363 25.6514 35.1078 25.5826C35.0791 25.514 35.0523 25.4447 35.0272 25.3747C35.0022 25.3047 34.9789 25.2341 34.9573 25.1629C34.9357 25.0918 34.916 25.0202 34.8981 24.948C34.5994 23.7135 34.8221 22.3227 35.5053 21.2495C36.3001 20.0008 37.3732 19.4701 38.7611 19.1317Z" fill="white"/>
<path d="M41.0821 82.4251C41.432 82.1126 43.903 82.365 44.4898 82.3869C44.7136 82.597 44.9512 82.7963 45.1379 83.0403C45.3031 84.7464 45.2491 86.4764 45.2524 88.189C45.248 90.9654 45.258 93.7416 45.2823 96.5177C43.8621 96.1416 42.5714 95.9769 41.218 96.7074C41.1817 96.7271 41.1479 96.7512 41.1126 96.7729L40.9629 96.8539C39.8672 96.9432 38.7321 96.8796 37.6324 96.8742L31.8716 96.844C28.2378 96.8242 24.482 96.9951 20.8632 96.7347L20.6137 96.5537C19.2937 96.3964 17.8724 96.4449 16.5782 96.7552C16.6268 95.1593 16.5602 93.551 16.5502 91.9537L16.5039 82.87C17.5941 82.3922 19.4832 82.6431 20.6959 82.5191C22.1682 83.2604 25.7191 89.3139 26.6993 90.922C28.0236 89.1221 29.3282 87.2158 30.4562 85.2881C31.9356 86.9854 33.0778 88.8801 34.436 90.663C35.3757 89.3121 36.3417 87.9698 37.2353 86.5884C37.9122 85.542 38.8243 83.5231 39.6897 82.7479C39.8474 82.765 40.0055 82.7781 40.164 82.7872C40.5995 82.8097 40.7753 82.7004 41.0821 82.4251Z" fill="#FF8D00"/>
<path d="M20.6959 82.5191C20.4167 87.1712 20.7419 91.89 20.6137 96.5536C19.2937 96.3964 17.8724 96.4449 16.5782 96.7551C16.6268 95.1592 16.5602 93.551 16.5502 91.9536L16.5039 82.87C17.5941 82.3922 19.4832 82.6431 20.6959 82.5191Z" fill="#404040"/>
<path d="M41.082 82.4251C41.432 82.1126 43.903 82.365 44.4898 82.3869C44.7135 82.597 44.9512 82.7963 45.1378 83.0403C45.303 84.7464 45.2491 86.4764 45.2524 88.189C45.248 90.9654 45.2579 93.7416 45.2823 96.5177C43.8621 96.1416 42.5714 95.9769 41.218 96.7074C41.1817 96.7271 41.1478 96.7512 41.1125 96.7729C41.1624 91.9902 41.1522 87.2076 41.082 82.4251Z" fill="#404040"/>
<path d="M105.673 27.7305C107.012 27.7152 108.352 27.7145 109.691 27.7286C109.718 28.5704 109.685 29.4138 109.664 30.2553C109.9 30.2714 110.135 30.2934 110.369 30.3212C110.603 30.3489 110.837 30.3824 111.069 30.4217C111.302 30.4609 111.533 30.5059 111.764 30.5566C111.994 30.6073 112.223 30.6636 112.451 30.7255C112.678 30.7875 112.904 30.855 113.128 30.928C113.353 31.0012 113.575 31.0797 113.795 31.1636C114.016 31.2477 114.234 31.3371 114.45 31.4319C114.665 31.5267 114.879 31.6267 115.09 31.7319C115.301 31.8373 115.509 31.9478 115.714 32.0632C115.92 32.1788 116.122 32.2994 116.322 32.4249C116.521 32.5504 116.717 32.6807 116.91 32.8159C117.103 32.9511 117.292 33.0909 117.478 33.2354C117.664 33.38 117.847 33.529 118.025 33.6825C118.204 33.8361 118.379 33.9939 118.549 34.1559C118.72 34.3181 118.887 34.4843 119.049 34.6546C119.212 34.8249 119.37 34.9991 119.524 35.1773C121.729 37.6937 122.869 40.7717 122.931 44.0989C123.542 44.0925 124.154 44.0776 124.765 44.0807C124.756 45.0349 124.783 46.0045 124.71 46.9556L123.696 46.9779C121.97 46.627 119.843 46.9257 118.075 46.9139L109.005 46.9193C106.689 46.9054 104.345 46.8068 102.032 46.935L101.691 46.894C99.7727 46.9711 97.8236 46.8953 95.9023 46.8916L92.3513 46.88C92.3057 45.9314 92.293 44.9789 92.2654 44.0292C92.8877 44.0284 93.5099 44.0368 94.1321 44.0544C94.2068 40.3001 95.3514 37.2752 97.929 34.4878C99.5867 32.6954 103.207 30.4068 105.684 30.294L105.673 27.7305Z" fill="#FF8D00"/>
<path d="M105.673 27.7305C107.012 27.7152 108.352 27.7145 109.691 27.7286C109.719 28.5704 109.686 29.4138 109.665 30.2553C109.558 32.0074 109.63 33.7796 109.652 35.5342C109.663 36.3656 109.763 37.3274 109.592 38.1401C109.492 38.6168 109.282 39.0378 108.914 39.3658C108.406 39.818 107.738 39.8851 107.088 39.9275C106.8 39.7773 106.536 39.6243 106.306 39.3914C106.053 39.1354 105.916 38.8435 105.847 38.493C105.517 36.8091 105.696 32.268 105.684 30.294L105.673 27.7305Z" fill="url(#paint8_linear_911_7237)"/>
<path d="M94.1321 44.0543C95.5633 44.1655 97.0286 44.1078 98.4648 44.1081C101.346 44.1087 104.232 44.0709 107.112 44.1145L117.528 44.1213C119.315 44.1184 121.149 44.2029 122.931 44.0988C123.542 44.0923 124.154 44.0775 124.765 44.0806C124.756 45.0347 124.783 46.0044 124.71 46.9555L123.696 46.9778C121.97 46.6269 119.843 46.9255 118.075 46.9138L109.005 46.9191C106.689 46.9053 104.345 46.8067 102.032 46.9348L101.691 46.8939C99.7727 46.971 97.8236 46.8952 95.9023 46.8914L92.3513 46.8799C92.3057 45.9313 92.293 44.9787 92.2654 44.0291C92.8877 44.0283 93.5099 44.0367 94.1321 44.0543Z" fill="#404040"/>
<path d="M42.9562 57.4533C43.5789 57.4139 44.1929 57.3651 44.8115 57.2816C44.8789 58.3653 44.9194 59.4303 44.8966 60.5172L44.9748 60.8778C45.0129 60.9628 45.0488 61.0486 45.0826 61.1353C45.1163 61.222 45.1479 61.3094 45.1774 61.3976C45.2069 61.4859 45.2342 61.5748 45.2594 61.6644C45.2846 61.7539 45.3075 61.844 45.3281 61.9347C45.3489 62.0253 45.3674 62.1165 45.3837 62.2081C45.3999 62.2996 45.4139 62.3915 45.4257 62.4838C45.4374 62.576 45.447 62.6684 45.4543 62.7611C45.4615 62.8539 45.4664 62.9467 45.4691 63.0397C45.4718 63.1326 45.4722 63.2255 45.4703 63.3185C45.4685 63.4115 45.4643 63.5044 45.4578 63.5971C45.4515 63.69 45.4428 63.7826 45.4319 63.8749C45.421 63.9672 45.4077 64.0592 45.3923 64.151C45.3768 64.2426 45.359 64.3339 45.3391 64.4248C45.3192 64.5156 45.297 64.6059 45.2727 64.6958C45.2483 64.7854 45.2218 64.8745 45.193 64.963C45.1643 65.0516 45.1335 65.1393 45.1004 65.2263C44.6572 66.4251 43.8381 67.1138 42.7851 67.7629C42.1701 69.9852 41.1816 71.9584 39.5179 73.5917C39.0036 74.0964 38.2721 74.5583 37.8453 75.1217C38.0149 76.6192 38.3848 78.0937 38.6963 79.5669C38.1863 80.5173 36.9195 81.1995 36.0338 81.7815C35.4974 82.3124 31.8638 84.5924 31.0958 84.8542C29.461 85.4114 25.1601 81.9293 23.4847 81.1477C23.4532 81.133 23.4214 81.1189 23.3897 81.1047C24.1907 79.6615 24.0759 77.389 24.2536 75.7694C23.3093 75.4339 22.2202 74.4546 21.4904 73.7664C19.3019 71.7022 17.4321 68.5714 16.9949 65.5718C16.7649 63.9945 16.8332 62.2943 16.7938 60.6996C16.4887 59.7961 16.6647 58.3544 16.668 57.3713C17.3086 57.4161 17.939 57.4593 18.5816 57.4376C19.494 57.4615 20.4059 57.4971 21.3172 57.5447L35.4441 57.5513C37.8928 57.5511 40.5327 57.7611 42.9562 57.4533Z" fill="#F7BE73"/>
<path d="M18.5967 59.4189L18.7443 57.8917L18.7872 57.9167L18.6453 58.0489L18.8288 57.977C18.7731 58.5701 18.6679 58.9085 19.0299 59.4119C19.2229 59.6808 19.2408 59.7083 19.235 60.0307C19.0533 60.4064 18.5051 61.0293 18.1083 61.1822C17.7649 61.3145 17.4112 61.0359 17.0903 61.1113C16.988 64.5011 17.0652 66.7651 18.7297 69.8192C19.3159 70.8949 20.0003 71.927 20.843 72.8217C21.921 73.9656 23.017 74.8069 24.3533 75.628L24.338 75.7348L24.2535 75.7694C23.3092 75.4339 22.2201 74.4546 21.4903 73.7664C19.3018 71.7022 17.432 68.5714 16.9948 65.5718C16.7648 63.9945 16.8331 62.2943 16.7937 60.6996C17.0353 60.8456 17.3251 61.0588 17.6165 61.0702C17.8795 61.0805 18.0861 61.028 18.266 60.834C18.638 60.4324 18.6021 59.9282 18.5967 59.4189Z" fill="#D3D3D3"/>
<path d="M36.0337 81.7815L35.9808 81.6565C36.5228 81.0536 38.1553 80.4132 38.3992 79.6967C38.5018 79.3955 38.0775 77.0214 37.9135 76.6996L37.6345 76.6942L37.8319 76.6502C36.4931 76.6138 36.1755 77.5667 34.2586 77.2652C33.2232 77.1024 32.2785 77.3413 31.2435 77.4204C30.4724 77.4795 29.7073 77.426 28.9382 77.3638C31.3668 77.3322 33.4337 77.1507 35.6931 76.1693C36.4179 75.8545 37.1011 75.3614 37.8452 75.1217C38.0148 76.6192 38.3847 78.0937 38.6963 79.5669C38.1863 80.5173 36.9194 81.1995 36.0337 81.7815Z" fill="#FF8D00"/>
<path d="M16.668 57.3713C17.3086 57.4161 17.939 57.4593 18.5816 57.4376C18.5858 58.0967 18.5725 58.7607 18.5968 59.4189C18.6022 59.9282 18.6381 60.4324 18.2661 60.834C18.0861 61.028 17.8796 61.0805 17.6166 61.0702C17.3252 61.0588 17.0354 60.8456 16.7938 60.6996C16.4887 59.7961 16.6647 58.3544 16.668 57.3713Z" fill="#404040"/>
<path d="M42.9561 57.4533C43.5788 57.4139 44.1928 57.3651 44.8114 57.2816C44.8788 58.3653 44.9193 59.4303 44.8965 60.5172L44.9747 60.8778C44.7769 61.2703 43.5514 61.2163 43.1242 61.5137C42.6599 62.1635 42.9465 64.145 42.9293 64.9867L42.7854 65.0479L42.7418 66.352L42.7267 66.2869L42.8124 66.1426C42.4018 65.6489 42.9629 61.7751 42.9368 60.94C42.9119 60.1435 42.7454 59.3371 42.6902 58.5369C42.6391 58.5414 42.5878 58.5427 42.5374 58.5507C41.7922 58.671 41.0659 58.6096 40.3153 58.6499C37.0882 58.8237 33.9573 58.901 30.7337 58.5538C28.3954 58.3019 26.2144 57.7699 23.846 58.0126C23.8964 58.1142 24.5511 58.3548 24.722 58.467C24.5457 58.6047 24.6402 58.5414 24.437 58.6547C23.4962 58.0868 22.3569 57.8741 21.3171 57.5447L35.444 57.5513C37.8927 57.5511 40.5326 57.7611 42.9561 57.4533Z" fill="#D2843E"/>
<path d="M42.9562 57.4533C43.5789 57.4139 44.1929 57.3651 44.8115 57.2816C44.8789 58.3653 44.9194 59.4303 44.8966 60.5172C44.6284 60.7798 44.2 61.1394 43.8075 61.1717C43.6381 61.1857 43.4841 61.1454 43.3626 61.0299C42.7194 60.4182 42.9527 58.305 42.9562 57.4533Z" fill="#404040"/>
<path d="M26.0268 35.0168C29.1238 35.2549 32.2108 35.0558 35.3003 35.2344L35.3078 37.4003C40.1604 39.067 43.2633 40.9675 45.591 45.7316C45.7997 46.1596 45.9872 46.5965 46.1535 47.0423C46.3198 47.4882 46.4643 47.941 46.5867 48.4007C46.7092 48.8605 46.8092 49.3251 46.8867 49.7945C46.9642 50.2638 47.0188 50.7357 47.0507 51.2104C47.0924 51.9174 47.0089 52.8075 47.1783 53.4858C48.0574 53.3473 49.3942 52.7548 50.2124 53.0722C50.4146 53.3361 50.4686 53.5269 50.4227 53.8609C50.3116 54.6708 49.9741 55.3092 49.29 55.7756C47.7796 56.8059 46.2021 56.6368 44.8113 57.2816C44.1928 57.3651 43.5788 57.4139 42.956 57.4533C40.5326 57.7611 37.8927 57.5511 35.444 57.5513L21.3171 57.5447C20.4057 57.4972 19.4939 57.4615 18.5815 57.4376C17.9389 57.4593 17.3085 57.4161 16.6679 57.3713C15.8172 57.2415 14.9392 57.2628 14.089 57.1206C12.8093 56.9067 12.0481 56.3216 11.3193 55.292L11.3523 53.159L14.2274 53.4165C14.2281 49.8001 14.8319 46.2667 16.8643 43.1966C19.1 39.8189 22.1092 38.0872 26.0527 37.2779C26.0193 36.5221 26.0141 35.773 26.0268 35.0168Z" fill="#FF8D00"/>
<path d="M63.3506 2.38824C65.0494 1.66009 66.7408 0.915397 68.4249 0.154175C69.0989 1.40595 70.3026 3.24384 70.7064 4.5227C70.7882 4.76925 70.8492 4.89221 71.0368 5.07387L70.8712 5.08979L71.0491 5.15013C71.013 5.14951 70.977 5.14807 70.9409 5.14807C70.4965 5.14642 70.3651 5.26711 69.9778 5.41074C69.5066 5.58496 68.9872 5.63394 68.5194 5.82387C68.1215 5.98507 67.7694 6.29631 67.4055 6.52426L67.4105 6.60858C67.9618 6.35211 68.4581 6.014 69.0279 5.79721C72.6642 4.41316 75.2688 6.10969 78.7229 7.04155C79.4475 7.23706 80.421 7.51295 81.1722 7.43421C82.6248 8.27535 83.3873 9.50191 84.5368 10.6661C86.1623 9.9169 87.8476 9.19687 89.5669 8.68765L91.8953 14.2798C90.3374 14.9654 88.7808 15.7003 87.1653 16.2403C87.359 17.7684 87.4111 19.2824 87.2612 20.8169C86.9569 21.9153 86.6489 22.9923 86.1806 24.036C85.8296 24.8184 85.3241 25.6269 85.0688 26.4393L85.3247 26.4395C85.3115 26.5757 85.3407 26.5288 85.2741 26.5976C85.157 26.6094 85.0281 26.5806 84.9231 26.6333C84.5908 26.8001 82.3795 29.7038 81.2756 30.4575C82.1086 32.0895 82.8287 33.7776 83.5689 35.4526C81.7505 36.1692 79.8809 37.0967 78.1898 38.0752C77.4283 36.3241 76.6891 34.5637 75.9721 32.7941C73.5138 33.4108 72.6733 33.0846 70.2393 32.8798C68.6956 32.7858 66.1931 31.1781 64.9479 30.3017C63.7253 29.3345 62.7659 28.4169 61.8498 27.1479C60.1556 27.6508 58.4452 28.1346 56.8241 28.8445C56.1002 26.8931 55.2347 24.9934 54.5627 23.0229C56.1443 22.2283 57.7554 21.4984 59.3959 20.833C59.1628 19.19 59.2749 17.7337 59.5541 16.1018C57.9142 15.2889 56.2699 14.4851 54.6211 13.6904C55.3308 11.954 56.2022 10.2598 57.0005 8.56096C58.6221 9.03836 60.2337 9.51287 61.8 10.1527C62.6893 9.0582 63.5953 8.22719 64.7872 7.46625C64.2371 5.78481 63.6966 4.12631 63.3506 2.38824Z" fill="url(#paint9_linear_911_7237)"/>
<path d="M68.7752 26.5459C67.494 25.8747 66.3868 24.7281 65.6489 23.4984C64.4614 21.5196 64.0225 19.0813 64.5979 16.8346C65.1544 14.6605 66.6772 12.7133 68.6083 11.5713C70.7226 10.3209 73.1597 10.0731 75.5227 10.6958C77.7112 11.2724 79.5414 12.8716 80.678 14.7901C80.5464 14.7054 80.3553 14.5409 80.2137 14.4919C79.7784 14.3414 78.1388 14.6099 77.5644 14.6198C76.9849 14.6297 76.4168 14.5274 75.842 14.5223C75.4796 14.5189 75.0794 14.6146 74.7255 14.5419C74.6808 14.5328 74.6366 14.5216 74.5924 14.5115L74.5407 14.6651C73.1994 14.2993 71.9732 14.255 70.7245 14.9804C70.6605 15.0174 70.5976 15.0559 70.5358 15.0962C70.4739 15.1364 70.4131 15.1781 70.3533 15.2214C70.2937 15.2648 70.2352 15.3096 70.1777 15.3559C70.1204 15.4024 70.0643 15.4503 70.0094 15.4996C69.9546 15.5488 69.9011 15.5994 69.8489 15.6515C69.7966 15.7036 69.7458 15.7569 69.6964 15.8116C69.647 15.8663 69.599 15.9223 69.5525 15.9795C69.506 16.0366 69.461 16.0949 69.4174 16.1543C69.3739 16.2138 69.3321 16.2744 69.2918 16.3362C69.2515 16.3978 69.2129 16.4604 69.1758 16.524C69.1388 16.5877 69.1035 16.6523 69.0697 16.7179C69.0361 16.7833 69.0042 16.8496 68.974 16.9167C68.9438 16.9839 68.9154 17.0519 68.8887 17.1205C68.8621 17.1891 68.8373 17.2583 68.8142 17.3282C68.7912 17.3982 68.77 17.4686 68.7507 17.5396C68.7313 17.6105 68.7138 17.682 68.6981 17.7539C68.682 17.8282 68.6676 17.9028 68.6552 17.9777C68.6429 18.0528 68.6323 18.1281 68.6236 18.2036C68.6149 18.2791 68.6081 18.3547 68.6033 18.4305C68.5983 18.5064 68.5953 18.5824 68.5941 18.6583C68.593 18.7343 68.5939 18.8103 68.5966 18.8862C68.5993 18.9621 68.6038 19.038 68.6103 19.1138C68.6168 19.1895 68.6252 19.265 68.6355 19.3403C68.6457 19.4156 68.6578 19.4907 68.6718 19.5653C68.6858 19.6401 68.7015 19.7145 68.7191 19.7883C68.7368 19.8623 68.7563 19.9357 68.7776 20.0086C68.7991 20.0817 68.8223 20.1541 68.8472 20.2258C68.8721 20.2978 68.8989 20.3689 68.9275 20.4393C68.956 20.5099 68.9863 20.5796 69.0182 20.6487C69.0502 20.7177 69.0839 20.7858 69.1193 20.8531C69.1547 20.9204 69.1918 20.9869 69.2304 21.0525C69.2691 21.1179 69.3094 21.1824 69.3514 21.2459C69.604 21.6324 69.9442 21.966 70.2639 22.2973C69.8836 22.1681 69.7117 22.1255 69.483 21.7595C68.9599 22.8949 69.9818 25.8854 68.7752 26.5459Z" fill="url(#paint10_linear_911_7237)"/>
<path d="M70.2639 22.2973C69.9443 21.966 69.6041 21.6324 69.3515 21.246C69.3095 21.1824 69.2692 21.118 69.2304 21.0525C69.1918 20.9869 69.1548 20.9205 69.1194 20.8531C69.084 20.7859 69.0503 20.7177 69.0183 20.6487C68.9863 20.5797 68.9561 20.5099 68.9276 20.4393C68.8991 20.3689 68.8723 20.2978 68.8473 20.2259C68.8223 20.1541 68.7992 20.0817 68.7777 20.0087C68.7564 19.9358 68.7369 19.8623 68.7192 19.7883C68.7016 19.7145 68.6858 19.6402 68.6719 19.5653C68.6579 19.4907 68.6458 19.4157 68.6355 19.3403C68.6253 19.2651 68.6169 19.1896 68.6104 19.1138C68.6039 19.038 68.5993 18.9622 68.5967 18.8862C68.5939 18.8103 68.5931 18.7343 68.5942 18.6583C68.5953 18.5824 68.5984 18.5065 68.6034 18.4305C68.6082 18.3548 68.615 18.2791 68.6237 18.2036C68.6324 18.1281 68.6429 18.0528 68.6553 17.9777C68.6677 17.9028 68.682 17.8282 68.6982 17.7539C68.7139 17.682 68.7314 17.6106 68.7507 17.5396C68.7701 17.4686 68.7913 17.3982 68.8143 17.3282C68.8374 17.2583 68.8622 17.1891 68.8888 17.1205C68.9155 17.0519 68.9439 16.9839 68.9741 16.9167C69.0042 16.8496 69.0361 16.7833 69.0698 16.7179C69.1035 16.6523 69.1389 16.5877 69.1758 16.524C69.2129 16.4604 69.2516 16.3978 69.2919 16.3362C69.3321 16.2745 69.374 16.2138 69.4175 16.1543C69.4611 16.0949 69.5061 16.0367 69.5526 15.9795C69.5991 15.9223 69.647 15.8664 69.6964 15.8117C69.7458 15.757 69.7967 15.7036 69.849 15.6515C69.9012 15.5994 69.9547 15.5488 70.0095 15.4996C70.0644 15.4503 70.1205 15.4024 70.1778 15.356C70.2352 15.3097 70.2938 15.2648 70.3534 15.2214C70.4132 15.1782 70.474 15.1364 70.5359 15.0962C70.5977 15.056 70.6606 15.0174 70.7246 14.9804C71.9733 14.255 73.1995 14.2993 74.5408 14.6651L74.5925 14.5115C74.6367 14.5216 74.6809 14.5328 74.7255 14.5419C75.0794 14.6146 75.4796 14.519 75.8421 14.5223C76.4168 14.5274 76.985 14.6297 77.5645 14.6198C78.1389 14.6099 79.7785 14.3414 80.2138 14.4919C80.3553 14.5409 80.5465 14.7054 80.6781 14.7901C81.8451 16.7931 82.0381 19.1582 81.4289 21.3803C81.3906 21.5166 81.3489 21.6518 81.3037 21.786C81.2586 21.9203 81.2102 22.0533 81.1585 22.1851C81.1067 22.3169 81.0517 22.4474 80.9934 22.5765C80.935 22.7056 80.8735 22.8332 80.8089 22.9592C80.7443 23.0853 80.6765 23.2096 80.6055 23.3323C80.5346 23.455 80.4607 23.5759 80.3838 23.6948C80.3069 23.8138 80.227 23.9308 80.1442 24.0459C80.0613 24.1609 79.9757 24.2738 79.8873 24.3846C79.7988 24.4955 79.7076 24.6041 79.6137 24.7103C79.5199 24.8165 79.4234 24.9204 79.3243 25.022C79.2253 25.1235 79.1237 25.2225 79.0196 25.3189C78.9155 25.4154 78.8092 25.5092 78.7006 25.6004C78.5918 25.6916 78.4808 25.78 78.3676 25.8656C78.2546 25.9513 78.1394 26.0342 78.022 26.1142C77.9047 26.1941 77.7854 26.2711 77.6644 26.3451C77.5431 26.4192 77.4202 26.4902 77.2955 26.5581C77.1649 26.6296 77.0326 26.6978 76.8986 26.7627C76.7647 26.8278 76.6291 26.8893 76.492 26.9475C76.355 27.0058 76.2166 27.0605 76.0768 27.1118C75.9369 27.1632 75.7959 27.2111 75.6538 27.2554C75.5115 27.2998 75.3683 27.3406 75.2241 27.378C75.0798 27.4152 74.9347 27.4488 74.7888 27.4788C74.6428 27.509 74.4962 27.5355 74.349 27.5582C74.2018 27.5811 74.054 27.6002 73.9058 27.6156C73.7576 27.6312 73.6091 27.643 73.4604 27.651C73.3116 27.6591 73.1627 27.6636 73.0137 27.6644C72.8646 27.6651 72.7157 27.6621 72.5668 27.6555C72.4179 27.6489 72.2692 27.6386 72.1209 27.6245C71.9726 27.6105 71.8247 27.5928 71.6773 27.5714C71.5298 27.5501 71.3829 27.5251 71.2366 27.4966C71.0905 27.4679 70.9451 27.4357 70.8005 27.3999C70.6559 27.3641 70.5123 27.3246 70.3696 27.2817C69.8737 27.1324 69.1707 26.8776 68.7752 26.5459C69.9819 25.8854 68.96 22.895 69.4831 21.7595C69.7118 22.1255 69.8837 22.1681 70.2639 22.2973Z" fill="#404040"/>
<path d="M70.2639 22.2973C69.9443 21.966 69.6041 21.6324 69.3515 21.246C69.3095 21.1825 69.2692 21.118 69.2304 21.0525C69.1918 20.9869 69.1548 20.9205 69.1194 20.8531C69.084 20.7859 69.0503 20.7177 69.0183 20.6487C68.9863 20.5797 68.9561 20.5099 68.9276 20.4393C68.8991 20.3689 68.8723 20.2978 68.8473 20.2259C68.8223 20.1541 68.7992 20.0817 68.7777 20.0087C68.7564 19.9358 68.7369 19.8623 68.7192 19.7883C68.7016 19.7145 68.6858 19.6402 68.6719 19.5653C68.6579 19.4907 68.6458 19.4157 68.6355 19.3403C68.6253 19.2651 68.6169 19.1896 68.6104 19.1138C68.6039 19.038 68.5993 18.9622 68.5967 18.8862C68.5939 18.8103 68.5931 18.7343 68.5942 18.6583C68.5953 18.5824 68.5984 18.5065 68.6034 18.4305C68.6082 18.3548 68.615 18.2791 68.6237 18.2036C68.6324 18.1281 68.6429 18.0528 68.6553 17.9777C68.6677 17.9028 68.682 17.8282 68.6982 17.7539C68.7139 17.682 68.7314 17.6106 68.7507 17.5396C68.7701 17.4686 68.7913 17.3982 68.8143 17.3282C68.8374 17.2583 68.8622 17.1891 68.8888 17.1205C68.9155 17.0519 68.9439 16.9839 68.9741 16.9167C69.0042 16.8496 69.0361 16.7833 69.0698 16.7179C69.1035 16.6523 69.1389 16.5877 69.1758 16.524C69.2129 16.4604 69.2516 16.3978 69.2919 16.3362C69.3321 16.2745 69.374 16.2138 69.4175 16.1543C69.4611 16.0949 69.5061 16.0367 69.5526 15.9795C69.5991 15.9223 69.647 15.8664 69.6964 15.8117C69.7458 15.757 69.7967 15.7036 69.849 15.6515C69.9012 15.5994 69.9547 15.5488 70.0095 15.4996C70.0644 15.4503 70.1205 15.4024 70.1778 15.356C70.2352 15.3097 70.2938 15.2648 70.3534 15.2214C70.4132 15.1782 70.474 15.1364 70.5359 15.0962C70.5977 15.056 70.6606 15.0174 70.7246 14.9804C71.9733 14.255 73.1995 14.2993 74.5408 14.6651C75.7752 15.306 76.7243 16.1227 77.1301 17.5055C77.4618 18.636 77.2733 19.8979 76.6894 20.9153C76.071 21.9924 75.0435 22.6536 73.8446 22.9328C72.3787 23.2742 71.586 22.8125 70.2639 22.2973Z" fill="white"/>
<path d="M41.1126 96.7729C41.1479 96.7512 41.1818 96.727 41.2181 96.7074C42.5715 95.9768 43.8622 96.1415 45.2824 96.5177L45.5601 96.6144C46.912 96.7659 48.326 96.9141 49.2244 98.0731C49.5887 98.543 49.8023 99.1035 49.9175 99.6822C50.1491 100.843 50.0464 102.143 50.0458 103.323L50.0335 109.04L50.0308 113.669L50.0246 114.297C49.9889 117.372 49.9457 120.46 50.0298 123.534C47.8075 123.558 45.5609 123.518 43.342 123.615C40.4907 123.487 37.5513 123.669 34.6915 123.673L17.4208 123.636L12.2709 123.602L12.2626 115.47L12.241 114.004L12.2371 109.08C12.2885 106.927 12.2387 104.762 12.24 102.608C12.2406 101.558 12.1457 100.401 12.3456 99.3701C12.454 98.8117 12.6894 98.2661 13.0576 97.8282C13.9336 96.7866 15.3083 96.936 16.538 96.8386L16.5783 96.7551C17.8725 96.4449 19.2937 96.3964 20.6137 96.5536L20.8632 96.7347C24.482 96.9951 28.2379 96.8242 31.8717 96.844L37.6325 96.8742C38.7322 96.8796 39.8672 96.9432 40.963 96.8539L41.1126 96.7729Z" fill="#404040"/>
<path d="M24.0276 103.699C27.1459 103.704 30.2641 103.725 33.3821 103.761C35.0624 103.792 36.7313 103.909 38.4141 103.901C38.3989 104.403 38.4957 105.54 38.2381 105.913C37.1624 106.126 35.7773 105.993 34.668 106.018L24.0276 106.185V103.699Z" fill="#7C7979"/>
<path d="M16.5784 96.7551C17.8726 96.4449 19.2938 96.3964 20.6138 96.5536L20.8633 96.7347C21.7868 97.5268 22.4641 98.3161 22.5397 99.5892C22.5984 100.577 22.3192 101.56 21.6396 102.297C20.9795 103.013 20.0021 103.424 19.03 103.432C18.0411 103.44 17.0498 103.026 16.3465 102.337C15.6204 101.625 15.2989 100.692 15.331 99.6873C15.3736 98.3572 16.1084 97.9298 16.5381 96.8386L16.5784 96.7551Z" fill="#7C7979"/>
<path d="M18.7474 98.2715C19.0241 98.2646 19.2996 98.2826 19.5572 98.3934C19.9381 98.5571 20.2546 98.9003 20.3906 99.2895C20.5384 99.7128 20.4825 100.197 20.2635 100.587C20.0001 101.056 19.5829 101.215 19.0938 101.374C18.7974 101.377 18.5139 101.375 18.2357 101.258C17.8671 101.104 17.5595 100.799 17.4148 100.427C17.3951 100.377 17.3783 100.325 17.3641 100.273C17.35 100.221 17.3387 100.168 17.3303 100.115C17.3219 100.061 17.3163 100.007 17.3137 99.9531C17.3109 99.8991 17.3111 99.845 17.3143 99.7909C17.3175 99.7369 17.3235 99.6831 17.3324 99.6297C17.3412 99.5764 17.3529 99.5236 17.3675 99.4714C17.3821 99.4193 17.3995 99.3681 17.4196 99.3178C17.4396 99.2675 17.4623 99.2184 17.4876 99.1705C17.7664 98.6377 18.1911 98.432 18.7474 98.2715Z" fill="white"/>
<path d="M41.1125 96.7729C41.1478 96.7512 41.1817 96.727 41.218 96.7074C42.5714 95.9768 43.8621 96.1415 45.2823 96.5177L45.56 96.6144C46.4698 97.7428 47.2144 98.895 47.0199 100.419C47.0038 100.54 46.9818 100.66 46.9537 100.78C46.9256 100.899 46.8916 101.016 46.8517 101.132C46.8118 101.248 46.7662 101.361 46.715 101.473C46.6636 101.584 46.6069 101.692 46.5447 101.798C46.4826 101.904 46.4153 102.006 46.3428 102.105C46.2704 102.204 46.1932 102.299 46.1113 102.39C46.0293 102.481 45.9429 102.568 45.8523 102.651C45.7616 102.734 45.6671 102.812 45.5685 102.885C45.5165 102.923 45.4634 102.961 45.4093 102.997C45.3552 103.032 45.3003 103.067 45.2445 103.1C45.1886 103.133 45.1319 103.164 45.0743 103.194C45.0169 103.224 44.9586 103.253 44.8995 103.28C44.8406 103.307 44.7809 103.332 44.7206 103.356C44.6603 103.38 44.5993 103.402 44.5377 103.423C44.4761 103.444 44.4141 103.463 44.3515 103.48C44.2891 103.498 44.2262 103.514 44.1628 103.528C44.0995 103.542 44.0357 103.555 43.9717 103.566C43.9076 103.577 43.8433 103.586 43.7788 103.593C43.7143 103.601 43.6497 103.607 43.5849 103.611C43.52 103.615 43.4551 103.617 43.3902 103.618C43.3253 103.619 43.2604 103.618 43.1955 103.615C43.1306 103.613 43.0658 103.608 43.001 103.602C42.9364 103.596 42.872 103.589 42.8078 103.579C42.7434 103.57 42.6794 103.559 42.6158 103.546C41.6925 103.371 40.9089 102.857 40.3929 102.074C39.7793 101.142 39.5124 99.8802 39.7922 98.7925C39.9937 98.0086 40.412 97.4312 40.9629 96.8539L41.1125 96.7729Z" fill="url(#paint11_linear_911_7237)"/>
<path d="M42.9915 98.2626C43.2464 98.2601 43.5098 98.2667 43.751 98.3591C44.1917 98.5281 44.5348 98.8979 44.6896 99.3389C44.7061 99.3862 44.7202 99.4342 44.732 99.4829C44.7436 99.5317 44.7527 99.5809 44.7594 99.6305C44.7662 99.6801 44.7704 99.73 44.772 99.7801C44.7737 99.8301 44.7728 99.8802 44.7693 99.9302C44.7659 99.98 44.7599 100.03 44.7515 100.079C44.743 100.129 44.7322 100.177 44.7189 100.225C44.7055 100.274 44.6897 100.321 44.6716 100.368C44.6534 100.415 44.633 100.46 44.6101 100.505C44.3627 100.993 44.0055 101.136 43.5009 101.282C43.2466 101.252 42.9736 101.228 42.7312 101.143C42.3557 101.011 42.0024 100.699 41.8369 100.338C41.6885 100.013 41.6838 99.6508 41.8089 99.3182C42.0194 98.7592 42.4773 98.5048 42.9915 98.2626Z" fill="white"/>
<path d="M89.7554 58.3203L130.827 57.9632C134 57.963 137.172 57.9442 140.345 57.9065C142.124 57.8809 144.028 57.7106 145.794 57.8696C146.295 57.9146 146.701 58.0202 147.061 58.3889C147.365 58.7002 147.589 59.0837 147.803 59.458C147.883 61.9146 147.82 64.3864 147.813 66.8445L147.827 77.8435L147.832 92.741C147.853 96.8531 147.938 100.968 147.893 105.08C147.459 105.658 147.119 106.084 146.365 106.206C145.551 106.338 144.627 106.254 143.8 106.247L139.047 106.212L124.455 106.215L115.514 106.211L105.062 106.205C103.099 106.199 101.121 106.144 99.1597 106.23C97.3644 106.235 91.6339 106.445 90.321 106.144C90.0653 105.75 90.025 105.247 89.9928 104.786C89.892 103.339 89.9675 101.843 89.9685 100.391C89.9719 96.1169 90.1618 91.5657 89.8511 87.3344C89.8666 87.3074 89.8851 87.2817 89.8976 87.253C90.1066 86.7686 90.03 85.4635 89.8656 84.9631C90.0468 83.7295 89.9252 82.3525 89.9117 81.1051L89.8299 74.2092C89.7529 68.9136 89.8552 63.6155 89.7554 58.3203Z" fill="url(#paint12_linear_911_7237)"/>
<path d="M135.202 61.7382C138.09 61.6942 140.978 61.6748 143.867 61.6799C143.984 75.2401 143.987 88.8003 143.875 102.361L102.205 102.367L93.4747 102.316C93.4257 98.0284 93.5773 93.7264 93.5646 89.4348L93.4324 61.9758C96.6087 61.8847 99.8034 61.9864 102.982 61.9645C113.719 61.8905 124.467 61.9547 135.202 61.7382Z" fill="white"/>
<path d="M126.054 92.6697C126.388 92.7586 126.604 92.7867 126.949 92.7582C126.795 93.5679 126.787 94.3944 126.757 95.2157C126.514 95.0977 126.262 95.0266 126.005 94.9456C126.053 94.1876 126.069 93.429 126.054 92.6697Z" fill="#B4B4B4"/>
<path d="M100.597 91.5025C100.628 91.9892 100.603 92.4641 100.577 92.95C99.9309 92.8429 99.078 93.057 98.4833 92.8212C98.3278 92.7597 98.2732 92.6263 98.212 92.4782C98.1125 92.237 98.1497 91.9857 98.234 91.7495C98.6977 91.4413 99.9969 91.5335 100.597 91.5025Z" fill="#B4B4B4"/>
<path d="M100.471 88.5732C99.9935 88.6183 99.3238 88.6813 98.8595 88.5716C98.5116 88.4893 98.2997 88.3331 98.116 88.0282C98.1187 87.7459 98.1143 87.6695 98.3181 87.4467C98.8624 86.8517 99.7606 86.9959 100.476 87.0309C100.337 87.5324 100.375 88.0661 100.471 88.5732Z" fill="#FF8D00"/>
<path d="M136.35 87.5184C136.56 87.5392 136.775 87.551 136.982 87.5928C137.023 87.6093 137.064 87.6283 137.107 87.6422C137.668 87.8224 138.054 87.5901 138.447 88.1326C138.455 88.3965 138.435 88.5503 138.334 88.7947C137.895 88.9051 137.456 88.8776 137.007 88.8727L136.346 88.8665C135.822 88.8603 135.445 88.896 135.055 88.5147L135.202 87.7199C135.613 87.7066 135.955 87.6294 136.35 87.5184Z" fill="#FF8D00"/>
<path d="M101.786 87.0071C102.702 86.9688 103.614 86.9645 104.531 86.9692L104.533 88.3616C103.927 88.3653 103.254 88.4242 102.655 88.344C102.353 88.3864 102.044 88.4194 101.743 88.4746C101.819 87.9652 101.839 87.4867 101.669 86.9949L101.786 87.0071Z" fill="#FF8D00"/>
<path d="M101.669 86.9949L101.786 87.0071L101.878 87.1236C102.242 87.574 102.598 87.7046 102.655 88.344C102.353 88.3864 102.044 88.4194 101.743 88.4746C101.819 87.9652 101.839 87.4867 101.669 86.9949Z" fill="#FF8D00"/>
<path d="M113.132 91.7526C113.774 91.7521 115.951 91.5558 116.337 91.9557C116.502 92.1268 116.565 92.3691 116.528 92.5989C116.503 92.7506 116.425 92.7863 116.321 92.889C115.259 93.0936 114.187 92.8853 113.116 92.9636L113.104 92.913L113.132 91.7526Z" fill="#B4B4B4"/>
<path d="M126.005 94.9456C126.262 95.0266 126.514 95.0977 126.757 95.2157C127.213 95.6536 127.52 96.0353 127.479 96.713C127.464 96.9728 127.41 97.1577 127.197 97.3241C126.918 97.5425 126.524 97.601 126.179 97.5795C125.717 97.5508 125.234 97.3524 124.93 96.9963C124.756 96.7936 124.648 96.5332 124.703 96.2633C124.83 95.6435 125.487 95.2082 126.005 94.9456Z" fill="#FF8D00"/>
<path d="M108.864 91.6548C109.847 91.6647 111.129 91.8296 112.07 91.5808L112.1 91.6866L113.132 91.7525L113.104 92.913L112.1 92.9851L108.858 93.0508C108.831 92.5891 108.857 92.1175 108.864 91.6548Z" fill="#B4B4B4"/>
<path d="M112.1 91.6866L113.132 91.7526L113.104 92.913L112.1 92.9851L112.1 91.6866Z" fill="#404040"/>
<path d="M100.536 95.1648L100.734 95.1518C101.242 95.1221 101.691 95.1866 102.07 95.5573C102.317 95.7991 102.41 96.1122 102.391 96.4485C102.355 97.0589 101.941 97.4342 101.507 97.8122C101.364 97.8422 101.355 97.8476 101.192 97.8627C100.814 97.8972 100.413 97.7868 100.134 97.5246C99.8574 97.2646 99.7417 96.8843 99.7561 96.5133C99.781 95.8727 100.07 95.5681 100.536 95.1648Z" fill="#FF8D00"/>
<path d="M136.389 94.9815L136.962 95.1303C137.289 95.2688 137.611 95.3872 137.826 95.6842C138.013 95.9421 138.06 96.2639 138.007 96.5718C137.941 96.9587 137.698 97.3406 137.363 97.5526C137.081 97.7318 136.739 97.7808 136.414 97.7045C136.364 97.6924 136.315 97.6779 136.266 97.6609C136.217 97.644 136.169 97.6248 136.122 97.6033C136.075 97.5816 136.029 97.5578 135.984 97.5318C135.94 97.5057 135.897 97.4776 135.855 97.4472C135.813 97.4171 135.772 97.3849 135.734 97.3507C135.695 97.3166 135.658 97.2806 135.623 97.2429C135.587 97.2051 135.554 97.1658 135.523 97.1248C135.491 97.0838 135.462 97.0414 135.435 96.9975C135.247 96.6939 135.176 96.3352 135.296 95.9898C135.465 95.5019 135.951 95.2028 136.389 94.9815Z" fill="#FF8D00"/>
<path d="M136.346 88.8665L137.007 88.8726C137.002 89.6448 136.874 90.6963 137.105 91.4219C137.355 91.5502 137.554 91.6362 137.639 91.929C137.72 92.2068 137.689 92.4596 137.554 92.7136C137.472 92.8665 137.333 93.008 137.224 93.1422L137.108 93.286L137.034 93.3765C136.937 93.9645 136.951 94.537 136.962 95.1303L136.389 94.9815C136.416 94.5872 136.516 93.9926 136.4 93.6161C136.222 93.0366 135.519 92.5329 135.778 91.8418C135.891 91.5399 135.983 91.5329 136.262 91.4295C136.28 90.5749 136.308 89.7205 136.346 88.8665Z" fill="#FF8D00"/>
<path d="M113.104 92.913L113.116 92.9636L113.097 95.0458C113.43 95.2684 113.737 95.6048 113.826 96.0041C113.913 96.3931 113.825 96.7824 113.583 97.0984C113.341 97.4146 112.971 97.6296 112.57 97.6616C112.528 97.6649 112.487 97.6659 112.445 97.6647C112.403 97.6634 112.361 97.66 112.319 97.6543C112.278 97.6487 112.237 97.6408 112.196 97.6308C112.155 97.6206 112.115 97.6083 112.076 97.594C112.036 97.5795 111.998 97.563 111.96 97.5444C111.923 97.5259 111.886 97.5054 111.851 97.4828C111.816 97.4603 111.782 97.4361 111.749 97.4101C111.716 97.3839 111.685 97.3561 111.655 97.3266C110.402 96.0963 111.777 95.5999 112.072 94.7106C112.233 94.2282 112.115 93.4983 112.1 92.9851L113.104 92.913Z" fill="#FF8D00"/>
<path d="M128.496 87.1377C130.399 87.2541 132.634 86.9048 134.473 87.2427C134.826 87.3076 134.987 87.4258 135.202 87.7199L135.056 88.5147C134.183 88.249 129.664 88.5273 128.511 88.5439L128.496 87.1377Z" fill="#FF8D00"/>
<path d="M100.476 87.0309L100.694 86.9308L100.729 86.7657C100.812 86.3877 100.856 86.0744 101.097 85.7568L101.285 85.7551C101.66 86.1684 101.36 86.5766 101.669 86.9949C101.839 87.4868 101.819 87.9652 101.743 88.4746C101.719 89.3906 101.565 90.5698 101.909 91.4264C102.186 91.6058 102.347 91.6656 102.497 91.9642C102.418 92.5048 101.9 92.9215 101.483 93.2313C101.277 93.3836 101.2 93.4359 100.936 93.4055L100.578 92.95C100.603 92.4641 100.628 91.9892 100.597 91.5025C100.531 90.5221 100.611 89.553 100.471 88.5732C100.375 88.0661 100.337 87.5324 100.476 87.0309Z" fill="#7C7979"/>
<path d="M136.462 85.7621C136.332 85.6648 136.391 85.6978 136.244 85.6317C135.557 85.3213 135.131 85.0417 134.867 84.2964C134.7 83.8236 134.725 83.3154 134.951 82.8663C135.218 82.3377 135.725 81.9477 136.298 81.7987C136.823 81.6623 137.392 81.7218 137.851 82.02C138.52 82.4544 138.638 83.0277 138.791 83.7519C138.658 84.1505 138.506 84.6205 138.246 84.9555C137.912 85.3881 137.475 85.4362 136.962 85.4831C137.127 86.18 136.999 86.8864 136.982 87.5928C136.775 87.551 136.561 87.5393 136.35 87.5184C136.362 86.9317 136.356 86.3412 136.462 85.7621Z" fill="#FF8D00"/>
<path d="M136.436 82.7355C136.479 82.7351 136.522 82.7322 136.565 82.7338C136.898 82.7471 137.207 82.8665 137.409 83.1433C137.574 83.3683 137.586 83.6351 137.516 83.8965C137.435 84.1954 137.176 84.327 136.931 84.4787C136.63 84.4366 136.228 84.3832 136.014 84.1386C135.845 83.9449 135.777 83.7707 135.823 83.5119C135.882 83.1734 136.192 82.9459 136.436 82.7355Z" fill="white"/>
<path d="M101.849 82.8669L113.146 82.8642C113.251 85.8212 113.18 88.7945 113.132 91.7525L112.1 91.6866L112.07 91.5808C112.058 89.0775 112.071 86.5744 112.108 84.0714C110.836 84.0162 104.09 83.891 103.329 84.1869C103.228 84.3353 103.134 84.4833 103.045 84.6389C102.769 84.7538 102.409 84.7639 102.118 84.6767C102.005 84.6428 101.985 84.6211 101.901 84.5622C101.782 84.0092 101.835 83.4295 101.849 82.8669Z" fill="#FF8D00"/>
<path d="M125.815 82.8326C127.337 82.8091 130.507 82.576 131.842 82.8948C131.988 83.258 131.945 83.7205 131.951 84.1084C130.358 84.099 128.765 84.0998 127.172 84.1109C127.103 86.3861 127.116 88.6658 127.051 90.9422C127.035 91.5451 127.05 92.1628 126.948 92.7582C126.604 92.7867 126.388 92.7586 126.054 92.6698C125.082 92.535 124.033 92.609 123.051 92.6144L123.054 90.9459C124.001 90.8986 124.953 90.8984 125.901 90.8802C125.89 88.2053 125.964 85.503 125.815 82.8326Z" fill="#FF8D00"/>
<path d="M97.5549 71.9103L138.094 71.9185C138.11 72.6766 138.067 73.4365 138.036 74.1942C136.195 74.3318 134.31 74.2411 132.465 74.2247L124.065 74.1846C115.23 74.1152 106.395 74.1189 97.5601 74.1956L97.5549 71.9103Z" fill="#D3D3D3"/>
<path d="M131.181 77.0321C133.488 76.9501 135.83 77.0296 138.141 77.0224L138.142 79.4193C136.463 79.3176 134.753 79.3761 133.07 79.3908L124.903 79.4551C118.254 79.4774 111.603 79.3373 104.955 79.4251L97.5649 79.4809L97.5576 77.1108C99.2716 77.2272 101.018 77.1836 102.736 77.1865C105.804 77.1899 108.872 77.1773 111.94 77.1487C118.352 77.1084 124.77 77.2045 131.181 77.0321Z" fill="#D3D3D3"/>
<path d="M97.5574 66.4384L138.063 66.4251L138.041 69.0211L97.5644 69.0209L97.5574 66.4384Z" fill="#D3D3D3"/>
</g>
<defs>
<linearGradient id="paint0_linear_911_7237" x1="1.55279" y1="113.28" x2="11.7153" y2="116.306" gradientUnits="userSpaceOnUse">
<stop stop-color="#929090"/>
<stop offset="1" stop-color="#CBCACA"/>
</linearGradient>
<linearGradient id="paint1_linear_911_7237" x1="138.017" y1="19.3311" x2="132.523" y2="20.2343" gradientUnits="userSpaceOnUse">
<stop stop-color="#CBCCCC"/>
<stop offset="1" stop-color="#F5F5F5"/>
</linearGradient>
<linearGradient id="paint2_linear_911_7237" x1="0.343131" y1="120.628" x2="6.88768" y2="118.911" gradientUnits="userSpaceOnUse">
<stop stop-color="#B5B4B3"/>
<stop offset="1" stop-color="#D5D4D3"/>
</linearGradient>
<linearGradient id="paint3_linear_911_7237" x1="130.304" y1="121.091" x2="109.201" y2="112.008" gradientUnits="userSpaceOnUse">
<stop stop-color="#717071"/>
<stop offset="1" stop-color="#ABA9A8"/>
</linearGradient>
<linearGradient id="paint4_linear_911_7237" x1="62.1579" y1="115.838" x2="52.1415" y2="121.076" gradientUnits="userSpaceOnUse">
<stop stop-color="#A5A4A4"/>
<stop offset="1" stop-color="#D7D6D6"/>
</linearGradient>
<linearGradient id="paint5_linear_911_7237" x1="92.497" y1="74.7599" x2="52.3073" y2="65.8293" gradientUnits="userSpaceOnUse">
<stop stop-color="#878889"/>
<stop offset="1" stop-color="#A8A6A4"/>
</linearGradient>
<linearGradient id="paint6_linear_911_7237" x1="79.3817" y1="79.8922" x2="70.1045" y2="65.5197" gradientUnits="userSpaceOnUse">
<stop stop-color="#F64200"/>
<stop offset="1" stop-color="#FBA91E"/>
</linearGradient>
<linearGradient id="paint7_linear_911_7237" x1="48.315" y1="25.7285" x2="29.2776" y2="21.4957" gradientUnits="userSpaceOnUse">
<stop stop-color="#B7B6B6"/>
<stop offset="1" stop-color="#E0DFDF"/>
</linearGradient>
<linearGradient id="paint8_linear_911_7237" x1="109.887" y1="33.9845" x2="105.098" y2="33.3699" gradientUnits="userSpaceOnUse">
<stop stop-color="#443E38"/>
<stop offset="1" stop-color="#696665"/>
</linearGradient>
<linearGradient id="paint9_linear_911_7237" x1="86.9901" y1="31.215" x2="59.4565" y2="6.16362" gradientUnits="userSpaceOnUse">
<stop stop-color="#777777"/>
<stop offset="1" stop-color="#ADADAC"/>
</linearGradient>
<linearGradient id="paint10_linear_911_7237" x1="74.9867" y1="21.2795" x2="67.5018" y2="12.4691" gradientUnits="userSpaceOnUse">
<stop stop-color="#3A3939"/>
<stop offset="1" stop-color="#686868"/>
</linearGradient>
<linearGradient id="paint11_linear_911_7237" x1="46.7146" y1="98.9297" x2="39.9562" y2="100.744" gradientUnits="userSpaceOnUse">
<stop stop-color="#75706F"/>
<stop offset="1" stop-color="#918B8A"/>
</linearGradient>
<linearGradient id="paint12_linear_911_7237" x1="150.482" y1="87.1712" x2="86.9123" y2="76.8316" gradientUnits="userSpaceOnUse">
<stop stop-color="#898789"/>
<stop offset="1" stop-color="#A8A8A7"/>
</linearGradient>
<clipPath id="clip0_911_7237">
<rect width="148" height="124" fill="white"/>
</clipPath>
</defs>
</svg>
