<svg width="156" height="124" viewBox="0 0 156 124" fill="none" xmlns="http://www.w3.org/2000/svg">
<g clip-path="url(#clip0_911_7027)">
<path d="M110.583 47.4225C110.918 47.518 111.021 47.4926 111.217 47.7898C111.22 48.089 111.219 48.3882 111.215 48.6873C110.985 48.6453 110.816 48.5955 110.608 48.4895C110.447 48.1343 110.543 47.8031 110.583 47.4225Z" fill="#FF8D00"/>
<path d="M43.215 63.8766C42.897 63.8387 42.7862 63.8481 42.5248 63.6528C42.4228 63.4064 42.337 63.2896 42.4955 63.034C42.6595 62.7694 42.9426 62.8006 43.2164 62.7641C43.2222 63.1349 43.2379 63.5065 43.215 63.8766Z" fill="#FF8D00"/>
<path d="M106.809 109.477C107.061 109.497 107.221 109.504 107.446 109.631C107.64 109.92 107.559 110.269 107.536 110.599C107.275 110.594 107.117 110.589 106.875 110.477C106.711 110.145 106.786 109.839 106.809 109.477Z" fill="#FF8D00"/>
<path d="M43.2253 82.5182C43.0014 82.5143 42.8535 82.5184 42.6552 82.4084C42.4327 82.1026 42.2559 81.9761 42.2685 81.592C42.5798 81.3733 42.8357 81.4258 43.2115 81.4114L43.2253 82.5182Z" fill="#FF8D00"/>
<path d="M123.798 69.3974L124.901 69.4599C124.933 69.8095 124.996 70.2023 124.945 70.5499L124.829 70.1674C124.581 70.0467 124.439 70.0291 124.164 70.0364C123.969 70.1799 123.903 70.2236 123.866 70.4857C123.811 70.871 123.893 71.2625 123.826 71.6587C123.714 70.9178 123.776 70.1444 123.798 69.3974Z" fill="#D3D3D3"/>
<path d="M0.286798 83.4942C0.691656 83.5596 1.01707 83.6391 1.4114 83.4993L1.41388 84.2624L0.300624 84.2774C0.296291 84.7797 0.333639 85.3222 0.243051 85.8164C0.096956 85.0781 0.220973 84.2396 0.286798 83.4942Z" fill="#D3D3D3"/>
<path d="M108.121 82.6902C108.425 82.6984 108.778 82.6209 108.985 82.8906C109.148 83.1036 109.13 83.2485 109.109 83.4936C108.976 83.6916 108.917 83.8673 108.661 83.9162C108.499 83.9472 108.271 83.9085 108.105 83.8966L108.121 82.6902Z" fill="#FF8D00"/>
<path d="M108.126 74.4867C108.439 74.4891 108.836 74.4055 109.067 74.6646C109.243 74.862 109.217 74.9995 109.188 75.2344C109.037 75.4336 108.975 75.5783 108.71 75.6293C108.534 75.6631 108.298 75.6299 108.116 75.6215L108.126 74.4867Z" fill="#FF8D00"/>
<path d="M72.8521 27.1376C73.1443 27.1287 73.3679 27.1078 73.6368 27.2462C73.8848 27.5358 73.8388 28.0064 73.857 28.371C73.5402 28.3878 73.2148 28.4505 72.9307 28.2845C72.7359 27.9578 72.829 27.5044 72.8521 27.1376Z" fill="#FF8D00"/>
<path d="M15.4005 76.7451C15.744 76.7501 16.0183 76.7478 16.3365 76.8864C16.5589 77.1661 16.528 77.4932 16.5432 77.8333C16.1875 77.8495 15.7979 77.9095 15.4696 77.7527C15.2938 77.4645 15.3767 77.069 15.4005 76.7451Z" fill="#FF8D00"/>
<path d="M36.9053 54.3159C37.1071 54.321 37.3054 54.3341 37.5068 54.3483C37.7109 54.5379 37.7367 54.5774 37.8176 54.8428C37.762 55.1456 37.7315 55.3042 37.5359 55.5547C37.3128 55.5243 37.11 55.4876 36.8948 55.4216C36.6965 55.2161 36.6523 55.1759 36.5854 54.9027C36.6492 54.6317 36.714 54.5186 36.9053 54.3159Z" fill="#FF8D00"/>
<path d="M37.0527 50.5326C37.2367 50.5762 37.3855 50.6156 37.5502 50.7094C37.6992 51.046 37.7735 51.3311 37.674 51.6967C37.6201 51.8941 37.5962 51.8591 37.4322 51.9435C37.2894 51.9392 37.1125 51.9482 36.9749 51.9138C36.7106 51.8476 36.7023 51.7861 36.5872 51.5617C36.6373 51.1702 36.8538 50.865 37.0527 50.5326Z" fill="#FF8D00"/>
<path d="M11.6688 100.012C12.0332 99.9959 12.4182 99.944 12.7655 100.071C12.9611 100.396 12.904 100.656 12.9044 101.03C12.5546 101.043 12.1013 101.113 11.7862 100.957C11.5926 100.677 11.6572 100.336 11.6688 100.012Z" fill="#FF8D00"/>
<path d="M36.6636 55.8551C37.0003 55.8484 37.3802 55.7824 37.6683 55.9824C37.8274 56.2773 37.7451 56.6258 37.7166 56.9471C37.3922 56.9947 37.0662 57.074 36.742 56.9974C36.5575 56.6571 36.6473 56.2394 36.6636 55.8551Z" fill="#FF8D00"/>
<path d="M36.6836 52.5791C36.9904 52.543 37.2879 52.4612 37.5653 52.6301C37.7648 52.9623 37.6837 53.4397 37.6718 53.8158C37.3466 53.8322 37.0789 53.8646 36.7735 53.7256C36.5868 53.3641 36.6679 52.9804 36.6836 52.5791Z" fill="#FF8D00"/>
<path d="M90.196 102.989C90.4973 102.981 90.753 102.94 91.0101 103.126C91.2152 103.499 91.1128 104.049 91.0916 104.465C90.7907 104.465 90.5687 104.479 90.2984 104.324C90.0675 103.977 90.1773 103.394 90.196 102.989Z" fill="#FF8D00"/>
<path d="M72.8511 50.9294C73.1781 50.9111 73.468 50.8693 73.7751 51.0093C73.9849 51.3176 73.8807 51.8375 73.8615 52.1972C73.532 52.2116 73.2452 52.2534 72.9447 52.0898C72.7402 51.7789 72.8343 51.2887 72.8511 50.9294Z" fill="#FF8D00"/>
<path d="M72.8253 29.207C73.1517 29.1964 73.4278 29.1755 73.74 29.2925C73.9447 29.6481 73.8754 30.0615 73.8762 30.4675C73.5479 30.5034 73.2547 30.5698 72.9456 30.4212C72.7256 30.1043 72.8154 29.5801 72.8253 29.207Z" fill="#FF8D00"/>
<path d="M3.34429 68.2365C3.49802 68.2875 3.60243 68.432 3.67631 68.5751C3.76916 68.755 3.72934 69.0567 3.64969 69.2334C3.50937 69.5445 3.23947 69.5941 2.94975 69.7214C2.70027 69.4392 2.48031 69.1238 2.25146 68.8243L3.34429 68.2365Z" fill="#FF8D00"/>
<path d="M38.5423 62.3425C38.6652 62.3646 38.7082 62.3662 38.8353 62.4232C39.1246 62.553 39.2888 62.71 39.4199 62.9842C39.418 63.3099 39.2321 63.5255 39.0575 63.7852C38.702 63.6005 38.1756 63.4134 37.9878 63.0494C38.079 62.6864 38.268 62.5905 38.5423 62.3425Z" fill="#FF8D00"/>
<path d="M40.2002 62.8567C40.5192 62.8379 40.9017 62.7823 41.2154 62.8469C41.4506 62.8951 41.4777 62.9516 41.6054 63.1345C41.6039 63.3771 41.5703 63.5712 41.5086 63.8057C41.2397 63.8192 40.9612 63.8424 40.6923 63.8319C40.4125 63.8211 40.3103 63.7647 40.1174 63.5725C40.1025 63.3038 40.1273 63.1158 40.2002 62.8567Z" fill="#FF8D00"/>
<path d="M34.4518 20.2657C34.824 20.2548 35.077 20.2319 35.3989 20.4233C35.5823 20.7642 35.5074 21.1862 35.486 21.5621C35.0834 21.5856 34.7799 21.6266 34.4472 21.3735C34.3038 21.0335 34.4059 20.6238 34.4518 20.2657Z" fill="#FF8D00"/>
<path d="M1.71235 69.3402C2.02104 69.5703 2.23276 69.7653 2.3186 70.1387C2.21625 70.4722 1.93479 70.6111 1.66158 70.7999C1.32214 70.7413 1.13869 70.7632 0.890869 70.5175L0.893344 70.2678C1.10114 69.8956 1.40695 69.632 1.71235 69.3402Z" fill="#FF8D00"/>
<path d="M0.375665 73.6033C0.64495 73.5867 0.863061 73.5763 1.13028 73.6281C1.33065 73.8132 1.46952 73.8985 1.5046 74.1875C1.5304 74.4 1.43155 74.7396 1.31125 74.9136L0.603475 74.9437C0.37711 74.8001 0.353587 74.7646 0.232666 74.525C0.249999 74.1989 0.263617 73.9148 0.375665 73.6033Z" fill="#FF8D00"/>
<path d="M5.67092 101.041C5.60242 101.04 5.47428 101.042 5.41051 101.025C5.1922 100.965 5.12947 100.763 5.02588 100.587C5.06323 100.344 5.07478 100.254 5.28155 100.086C5.60407 99.8247 6.16699 99.8997 6.55988 99.9051C6.55967 100.251 6.62302 100.612 6.44081 100.91C6.1804 100.997 5.94186 101.019 5.67092 101.041Z" fill="#FF8D00"/>
<path d="M34.462 17.9419C34.8429 17.94 35.1594 17.8931 35.4946 18.0823C35.657 18.4297 35.5569 18.8933 35.5261 19.2667C35.1842 19.2786 34.7791 19.3442 34.481 19.1581C34.2938 18.8228 34.4226 18.3123 34.462 17.9419Z" fill="#FF8D00"/>
<path d="M90.2797 108.067C90.5651 108.059 90.8044 108.034 91.0677 108.166C91.2116 108.37 91.244 108.482 91.2382 108.731L91.2186 109.717C90.9338 109.745 90.6885 109.8 90.4287 109.65C90.1507 109.247 90.2683 108.549 90.2797 108.067Z" fill="#FF8D00"/>
<path d="M72.8358 36.052C73.1466 36.0387 73.4515 35.9901 73.738 36.1332C73.9585 36.5407 73.8739 37.0078 73.8721 37.4671C73.5444 37.5058 73.2151 37.596 72.9165 37.422C72.694 37.0557 72.811 36.4693 72.8358 36.052Z" fill="#FF8D00"/>
<path d="M73.212 45.7546C73.3917 45.7853 73.5391 45.8255 73.7112 45.8814C73.8374 46.1053 73.9577 46.342 73.9511 46.606C73.9417 46.9817 73.9229 47.184 73.6596 47.4463C73.4272 47.4274 73.2396 47.4039 73.0205 47.3235C72.8651 47.0956 72.7665 46.9286 72.7725 46.6441C72.7805 46.2561 72.9338 46.0048 73.212 45.7546Z" fill="#FF8D00"/>
<path d="M7.3539 99.9016C7.81839 99.9143 8.28247 99.9304 8.74738 99.9245C8.72509 100.276 8.75377 100.688 8.51647 100.968C8.14607 101.134 7.61142 101.026 7.21069 100.998L7.3539 99.9016Z" fill="#FF8D00"/>
<path d="M0.316268 75.6546C0.651173 75.6355 1.01393 75.5605 1.31046 75.7441C1.53228 76.0809 1.42065 76.6876 1.40331 77.0823C1.05231 77.0729 0.719885 77.0987 0.406647 76.9188C0.186059 76.5779 0.293983 76.0462 0.316268 75.6546Z" fill="#FF8D00"/>
<path d="M72.8183 31.2623C73.1148 31.2531 73.3746 31.2377 73.6629 31.3253C73.9931 31.7196 73.8787 32.2865 73.8672 32.7813C73.5416 32.7965 73.2122 32.8624 72.9308 32.6686C72.6931 32.2929 72.8008 31.6954 72.8183 31.2623Z" fill="#FF8D00"/>
<path d="M72.8469 33.6218C73.1806 33.6196 73.4734 33.5855 73.7681 33.7677C73.9951 34.119 73.8921 34.7378 73.8808 35.1483C73.5421 35.1602 73.2085 35.2207 72.9146 35.0229C72.6839 34.6493 72.8152 34.0479 72.8469 33.6218Z" fill="#FF8D00"/>
<path d="M15.5778 78.4405C15.8364 78.4186 16.2012 78.3475 16.4389 78.4655C16.6826 78.5869 16.8167 78.7724 16.8945 79.0261C16.8545 79.4006 16.8545 79.4643 16.6127 79.7765C16.428 79.8502 16.3203 79.8757 16.1211 79.8615C15.9284 79.7064 15.7633 79.5748 15.661 79.3405C15.5411 79.0661 15.4637 78.7242 15.5778 78.4405Z" fill="#FF8D00"/>
<path d="M56.5642 38.6072C56.9452 38.6058 57.5359 38.5228 57.8426 38.7607C58.0145 39.0668 57.9177 39.4185 57.8781 39.7515C57.4441 39.7636 56.9683 39.8435 56.5865 39.6294C56.4268 39.2924 56.5155 38.962 56.5642 38.6072Z" fill="#FF8D00"/>
<path d="M52.7337 13.3233C53.1487 13.3328 53.8024 13.2049 54.1404 13.4332C54.3214 13.7458 54.2285 14.093 54.1899 14.4352C53.7729 14.4367 53.2694 14.5045 52.9025 14.2844C52.6937 13.9886 52.735 13.6687 52.7337 13.3233Z" fill="#FF8D00"/>
<path d="M23.7113 81.3022L24.9985 81.2882C25.014 81.568 25.0247 81.8443 25.0175 82.1247C25.0113 82.3635 25.0563 82.3106 24.8634 82.4934C24.5427 82.4963 24.1288 82.5885 23.8762 82.3526C23.6556 82.1466 23.6102 81.9068 23.5758 81.6223C23.572 81.591 23.5691 81.5598 23.5658 81.5285L23.4988 81.4448L23.7113 81.3022Z" fill="#FF8D00"/>
<path d="M36.8527 13.5041C36.9463 13.5504 37.0774 13.6724 37.1387 13.7517C37.3101 13.9729 37.28 14.0489 37.2235 14.2977C36.9142 14.6521 36.5173 14.8044 36.0993 15.0011L35.6418 14.7406C35.5851 14.6 35.5159 14.5383 35.5797 14.3877C35.7543 13.9763 36.4703 13.7042 36.8527 13.5041Z" fill="#FF8D00"/>
<path d="M4.30783 68.15C4.7488 68.133 5.36083 68.0274 5.7529 68.243C5.93036 68.57 5.88207 68.8069 5.87959 69.1742C5.44812 69.199 4.84537 69.3168 4.46693 69.0897C4.26223 68.8096 4.30886 68.4808 4.30783 68.15Z" fill="#FF8D00"/>
<path d="M90.2143 105.285C90.5127 105.353 90.8433 105.377 91.0517 105.618C91.2696 106.064 91.1406 106.629 91.0975 107.11C90.7401 107.136 90.5876 107.2 90.2767 107.01C90.1887 106.807 90.1537 106.675 90.1737 106.459C90.2096 106.067 90.2096 105.678 90.2143 105.285Z" fill="#FF8D00"/>
<path d="M58.7244 38.6337C59.1472 38.6185 59.694 38.5292 60.0772 38.7218C60.2508 39.0616 60.1895 39.307 60.1734 39.6833C59.782 39.7146 59.1679 39.8598 58.835 39.6497C58.6402 39.3414 58.7087 38.9823 58.7244 38.6337Z" fill="#FF8D00"/>
<path d="M123.826 71.6587C123.893 71.2625 123.811 70.871 123.866 70.4857C123.903 70.2236 123.969 70.1799 124.165 70.0364C124.439 70.0291 124.581 70.0467 124.829 70.1674L124.945 70.5499C124.915 70.9219 124.949 71.2859 124.734 71.5974C124.42 71.679 124.149 71.672 123.826 71.6587Z" fill="#FF8D00"/>
<path d="M1.25981 91.1615L1.36835 91.1679C1.48494 91.5909 1.58894 92.0445 1.37289 92.4464C1.07327 92.692 0.909019 92.6243 0.528924 92.6229C0.345273 92.5222 0.37994 92.5856 0.322163 92.3968C0.226829 92.0863 0.199796 91.7051 0.395828 91.4239C0.604447 91.1248 0.928415 91.19 1.25981 91.1615Z" fill="#FF8D00"/>
<path d="M21.6338 81.3006C22.0356 81.3081 22.5539 81.2259 22.8913 81.4645C23.0923 81.7849 23.0469 82.1429 23.0473 82.5071C22.6424 82.516 22.1592 82.5869 21.7919 82.3973C21.5752 82.0829 21.6313 81.6683 21.6338 81.3006Z" fill="#FF8D00"/>
<path d="M34.8007 15.4125L35.6939 15.9066L35.5639 17.1011C35.3551 17.1145 35.1149 17.1487 34.908 17.1276C34.6492 17.1013 34.6162 17.045 34.4651 16.8593C34.3956 16.4012 34.6577 15.8488 34.8007 15.4125Z" fill="#FF8D00"/>
<path d="M50.4529 13.2897C50.832 13.2848 51.4518 13.1836 51.7717 13.3971C51.9611 13.6912 51.8895 14.0874 51.873 14.425C51.4669 14.4383 50.9533 14.5215 50.5845 14.333C50.3813 14.035 50.4438 13.6369 50.4529 13.2897Z" fill="#FF8D00"/>
<path d="M0.623705 93.3476C0.858118 93.3411 1.04136 93.3206 1.26215 93.4122C1.39545 93.6118 1.5044 93.7912 1.50709 94.0398C1.5108 94.3778 1.42125 94.6583 1.21366 94.9123C0.965215 94.9117 0.724406 94.9389 0.502168 94.8119C0.351326 94.603 0.209976 94.428 0.22669 94.1537C0.249182 93.7873 0.375261 93.596 0.623705 93.3476Z" fill="#FF8D00"/>
<path d="M65.0101 49.288C65.403 49.294 65.6529 49.2444 65.9936 49.4483C66.1962 49.813 66.098 50.3635 66.0802 50.7719C65.703 50.8379 65.4275 50.8816 65.0932 50.6922C64.8937 50.3022 64.9934 49.7195 65.0101 49.288Z" fill="#FF8D00"/>
<path d="M9.39828 99.9251C9.84214 99.9274 10.3786 99.8657 10.7785 100.074C10.9814 100.399 10.9277 100.655 10.9331 101.033C10.5025 101.045 9.90239 101.142 9.52106 100.93C9.31801 100.627 9.38466 100.273 9.39828 99.9251Z" fill="#FF8D00"/>
<path d="M0.310924 87.9383C0.288432 87.4304 0.195781 86.9703 0.586194 86.5733C0.726718 86.4302 0.688335 86.4731 0.904383 86.4124C1.15572 86.5272 1.29211 86.6424 1.40334 86.9039C1.52508 87.1898 1.45245 87.7102 1.44027 88.0236L0.310924 87.9383Z" fill="#FF8D00"/>
<path d="M65.0495 46.8177C65.3867 46.8023 65.7164 46.7437 66.0191 46.9206C66.2478 47.2776 66.1207 47.8722 66.0918 48.284L65.0066 48.3315L65.0495 46.8177Z" fill="#FF8D00"/>
<path d="M89.3722 49.235C89.6892 49.4321 89.9991 49.6174 90.2775 49.8668C90.4479 50.2548 90.2746 50.702 90.184 51.098C90.033 51.098 89.8832 51.0704 89.7358 51.0378C89.5433 50.9953 89.3425 50.9123 89.2453 50.7334C89.0022 50.2858 89.2472 49.6922 89.3722 49.235Z" fill="#FF8D00"/>
<path d="M63.8501 39.0321C64.2155 39.2461 64.6189 39.4574 64.9464 39.7249C65.1851 39.92 65.2704 40.1063 65.2891 40.4056L64.9635 40.7374L64.7925 40.7815C64.3681 40.4834 63.9379 40.194 63.502 39.913C63.627 39.6228 63.737 39.3271 63.8501 39.0321Z" fill="#FF8D00"/>
<path d="M91.8498 109.553C92.3099 109.546 92.9736 109.424 93.3747 109.667C93.5503 109.959 93.4758 110.246 93.4393 110.567C92.9738 110.574 92.2452 110.681 91.8708 110.387C91.7417 110.059 91.8007 109.896 91.8498 109.553Z" fill="#FF8D00"/>
<path d="M122.949 74.433C123.462 74.4223 124.151 74.3108 124.569 74.6302C124.555 74.9388 124.41 75.0542 124.229 75.2998C124.097 75.4375 123.924 75.6113 123.739 75.6722C123.47 75.7607 123.383 75.6933 123.175 75.5513C122.938 75.1807 122.957 74.8626 122.949 74.433Z" fill="#FF8D00"/>
<path d="M72.8371 38.326C73.1549 38.3217 73.4215 38.2961 73.7112 38.4511C73.9402 38.7995 73.8237 39.4836 73.822 39.8964C73.7023 39.9358 73.5509 39.9975 73.4235 40.0151C73.1365 40.0547 73.0938 40.0465 72.8742 39.8858C72.6918 39.4435 72.8107 38.8007 72.8371 38.326Z" fill="#FF8D00"/>
<path d="M72.8593 40.8202C73.1682 40.7964 73.4197 40.7575 73.7113 40.8897C73.9622 41.3213 73.8704 41.9157 73.8695 42.4154C73.4725 42.4467 73.197 42.5082 72.8716 42.2516C72.6927 41.845 72.8215 41.2573 72.8593 40.8202Z" fill="#FF8D00"/>
<path d="M27.7771 81.3055C28.1682 81.3038 28.7501 81.1915 29.0763 81.4231C29.247 81.7418 29.1884 82.1472 29.1789 82.5006C28.775 82.5108 28.2544 82.5922 27.8921 82.3966C27.6915 82.0808 27.7623 81.6666 27.7771 81.3055Z" fill="#FF8D00"/>
<path d="M57.5282 13.2723C57.9776 13.291 58.6276 13.2323 59.011 13.4756C59.1551 13.7808 59.1035 13.9665 59.0802 14.2987C58.6623 14.3071 57.9494 14.5297 57.6021 14.3469C57.4106 14.0315 57.4987 13.6265 57.5282 13.2723Z" fill="#FF8D00"/>
<path d="M0.709503 71.0592C0.949487 71.1354 1.11457 71.2049 1.31617 71.3557C1.43255 71.5849 1.51034 71.7632 1.48785 72.0264C1.46268 72.318 1.35187 72.6308 1.13479 72.8298C0.74231 72.7747 0.569596 72.8083 0.279263 72.5295C0.123882 71.9842 0.460026 71.5257 0.709503 71.0592Z" fill="#FF8D00"/>
<path d="M108.116 47.5188C108.555 47.502 109.157 47.3991 109.548 47.6152C109.76 47.912 109.702 48.2499 109.693 48.5965C109.251 48.6123 108.644 48.7144 108.251 48.4971C108.063 48.1522 108.113 47.9064 108.116 47.5188Z" fill="#FF8D00"/>
<path d="M1.15132 77.7246L1.32486 77.7433C1.34281 77.7726 1.36448 77.8001 1.37892 77.8314C1.55679 78.2202 1.47549 78.6752 1.32052 79.053C1.0403 79.2858 0.859333 79.2206 0.501317 79.2237L0.311476 79.1563C0.246888 79.0438 0.225017 79.0198 0.188081 78.8806C0.117303 78.6129 0.204588 78.2549 0.35254 78.028C0.560128 77.7099 0.804239 77.7669 1.15132 77.7246Z" fill="#FF8D00"/>
<path d="M55.0386 13.3317L56.5454 13.3311L56.6127 14.4455C56.3988 14.4486 56.1848 14.4505 55.9707 14.4512C55.6571 14.4549 55.4326 14.4932 55.1614 14.3041C54.9594 13.9911 55.0174 13.6851 55.0386 13.3317Z" fill="#FF8D00"/>
<path d="M0.300737 84.2774L1.41399 84.2624C1.42431 84.7355 1.53635 85.3698 1.22869 85.7441C0.894402 85.8504 0.590656 85.8287 0.243164 85.8164C0.333751 85.3223 0.296404 84.7797 0.300737 84.2774Z" fill="#FF8D00"/>
<path d="M25.7145 81.3145C26.0965 81.309 26.6873 81.2065 27.0114 81.417C27.2015 81.7326 27.1336 82.1208 27.1158 82.4756C26.7005 82.4967 26.1472 82.6002 25.7803 82.3852C25.5845 82.0794 25.6819 81.6623 25.7145 81.3145Z" fill="#FF8D00"/>
<path d="M93.2553 47.5018C93.4817 47.4754 93.7163 47.4373 93.9439 47.4301C94.2352 47.4211 94.2513 47.4379 94.4604 47.6191C94.5625 47.904 94.5388 48.0763 94.4872 48.3643C94.4573 48.5315 94.4926 48.4502 94.3025 48.5824C93.9393 48.5822 93.2652 48.6734 92.9679 48.4752C92.8806 48.1585 92.9439 47.9363 93.0176 47.6277L93.2553 47.5018Z" fill="#FF8D00"/>
<path d="M0.28685 83.4942C0.243929 83.1017 0.161184 82.7135 0.302121 82.3346C0.650232 82.0667 1.00082 82.0726 1.42672 81.9972L1.41145 83.4993C1.01712 83.6391 0.691707 83.5596 0.28685 83.4942Z" fill="#FF8D00"/>
<path d="M34.5099 81.3098C34.7969 81.2925 35.0433 81.2495 35.3025 81.4008C35.4936 81.6578 35.5602 81.7564 35.5697 82.0902C35.3999 82.412 35.4081 82.4223 35.0741 82.5639C34.8265 82.5616 34.592 82.5465 34.3467 82.5149C34.1251 82.3212 34.057 82.2108 33.9695 81.931C33.9932 81.7314 33.998 81.6111 34.1257 81.4454C34.2412 81.2958 34.3341 81.3323 34.5099 81.3098Z" fill="#FF8D00"/>
<path d="M17.3937 80.0796L18.4518 81.08L17.8392 81.9771C17.384 81.5855 16.9797 81.0956 16.5706 80.6549L17.3937 80.0796Z" fill="#FF8D00"/>
<path d="M31.9813 81.3168C32.3874 81.312 32.9405 81.2294 33.2844 81.4643C33.4534 81.7914 33.3816 82.1928 33.36 82.5506C32.9731 82.5799 32.4275 82.6767 32.1035 82.4459C31.9054 82.121 31.9714 81.6865 31.9813 81.3168Z" fill="#FF8D00"/>
<path d="M40.2041 81.2891C40.5582 81.2815 41.0033 81.2343 41.3345 81.3872C41.4614 81.4459 41.585 81.5313 41.6282 81.6678C41.7159 81.9449 41.598 82.2923 41.4618 82.5371L40.155 82.5461L40.2041 81.2891Z" fill="#FF8D00"/>
<path d="M105.665 47.4572C106.087 47.4467 106.69 47.3502 107.056 47.5732C107.259 47.8663 107.197 48.2688 107.189 48.6127C106.776 48.6195 106.169 48.7103 105.807 48.5045C105.589 48.2126 105.656 47.8056 105.665 47.4572Z" fill="#FF8D00"/>
<path d="M36.1266 81.2854C36.5145 81.2784 37.063 81.1923 37.3915 81.4155C37.5688 81.7515 37.4887 82.1933 37.4708 82.5627L36.1194 82.5449L36.1266 81.2854Z" fill="#FF8D00"/>
<path d="M38.2694 13.3233C38.723 13.2973 39.4099 13.1649 39.7824 13.4471C39.9636 13.7406 39.9097 14.0518 39.8963 14.3818C39.4229 14.3738 38.9184 14.4766 38.4597 14.3496C38.1984 14.0507 38.2769 13.7083 38.2694 13.3233Z" fill="#FF8D00"/>
<path d="M101.818 109.504C102.257 109.503 103.007 109.372 103.373 109.628C103.545 109.921 103.456 110.231 103.415 110.552C102.964 110.578 102.398 110.682 101.981 110.491C101.758 110.146 101.818 109.909 101.818 109.504Z" fill="#FF8D00"/>
<path d="M49.0755 38.6236C49.5184 38.6099 50.1378 38.4623 50.5233 38.6997C50.7224 39.0016 50.6549 39.39 50.6413 39.7361C50.203 39.7396 49.6232 39.8196 49.2367 39.5988C49.0099 39.3029 49.0671 38.976 49.0755 38.6236Z" fill="#FF8D00"/>
<path d="M38.1555 81.2817L39.5391 81.3124L39.5387 82.5424L38.1683 82.57L38.1555 81.2817Z" fill="#FF8D00"/>
<path d="M47.9839 13.2907C48.4265 13.2762 49.1172 13.1583 49.4929 13.4047C49.599 13.7605 49.4909 13.9651 49.3972 14.3194C49.2433 14.4483 48.9339 14.508 48.7342 14.5277C48.4961 14.5512 48.3025 14.4691 48.1354 14.302C47.8878 14.0544 47.9688 13.6093 47.9839 13.2907Z" fill="#FF8D00"/>
<path d="M96.8901 109.508C97.3433 109.496 98.0094 109.387 98.4019 109.626C98.6119 109.914 98.5486 110.248 98.5366 110.586C98.081 110.601 97.4599 110.702 97.0486 110.495C96.8419 110.15 96.8934 109.904 96.8901 109.508Z" fill="#FF8D00"/>
<path d="M40.7002 13.3168C41.1344 13.3039 41.784 13.1967 42.1614 13.4217C42.3671 13.7363 42.3033 14.0858 42.2891 14.4442C41.8521 14.459 41.2638 14.5568 40.8752 14.3412C40.6573 14.0356 40.7041 13.6756 40.7002 13.3168Z" fill="#FF8D00"/>
<path d="M104.243 109.527C104.703 109.513 105.467 109.374 105.847 109.631C106.041 109.918 105.976 110.248 105.96 110.578C105.481 110.558 104.861 110.7 104.437 110.459C104.216 110.174 104.25 109.87 104.243 109.527Z" fill="#FF8D00"/>
<path d="M29.8462 81.3063C30.2444 81.2991 30.7902 81.2169 31.14 81.42C31.3598 81.7322 31.2873 82.1509 31.2735 82.5168L29.8208 82.5403L29.8462 81.3063Z" fill="#FF8D00"/>
<path d="M95.4305 47.4616C95.8593 47.4442 96.4685 47.3379 96.849 47.5483C97.0654 47.8619 97.0046 48.2216 96.9959 48.5848C96.5714 48.5826 95.9027 48.7078 95.5506 48.477C95.3501 48.1616 95.414 47.8183 95.4305 47.4616Z" fill="#FF8D00"/>
<path d="M99.6151 109.492C99.8852 109.482 100.194 109.448 100.462 109.476C100.766 109.507 100.787 109.566 100.95 109.796C100.976 110.056 100.994 110.235 100.926 110.492L100.708 110.557C100.354 110.563 99.7506 110.675 99.4388 110.534C99.302 110.472 99.3064 110.354 99.2622 110.225C99.3456 109.887 99.3177 109.691 99.6151 109.492Z" fill="#FF8D00"/>
<path d="M65.0387 44.1708C65.4369 44.1635 65.7225 44.1245 66.036 44.3934C66.2072 44.7984 66.1068 45.3494 66.0818 45.7833L65.0073 45.8775L65.0387 44.1708Z" fill="#FF8D00"/>
<path d="M0.326723 95.6048C0.659771 95.596 0.97652 95.5481 1.27387 95.7241C1.5023 96.1451 1.37622 96.7698 1.3496 97.2508C1.04028 97.3076 0.776154 97.3904 0.476948 97.2531C0.209107 96.7936 0.316406 96.1363 0.326723 95.6048Z" fill="#FF8D00"/>
<path d="M52.5875 38.5886C52.7429 38.5786 52.804 38.598 52.9482 38.6456C52.9965 38.7335 53.09 38.8919 53.1129 38.986C53.1641 39.1945 53.0939 39.4314 52.9472 39.5865C52.7043 39.8432 52.2956 39.7495 51.9743 39.7464C51.9126 39.7454 51.8501 39.7528 51.7892 39.7433C51.5395 39.705 51.5139 39.5511 51.4111 39.3525C51.3996 39.1252 51.4357 38.9376 51.6053 38.7667C51.8624 38.5076 52.2526 38.5911 52.5875 38.5886Z" fill="#FF8D00"/>
<path d="M72.8371 43.1381C73.1476 43.1641 73.4576 43.1534 73.7227 43.3344C73.8538 43.5439 73.8837 43.6595 73.8731 43.9056L73.837 44.9534C73.4423 44.944 73.2159 44.9763 72.8922 44.7398C72.6712 44.2873 72.8057 43.6322 72.8371 43.1381Z" fill="#FF8D00"/>
<path d="M43.1242 13.3133L44.6588 13.2938L44.7255 14.4441C44.2789 14.4617 43.6403 14.5738 43.2488 14.3444C43.0425 14.0319 43.11 13.6707 43.1242 13.3133Z" fill="#FF8D00"/>
<path d="M61.169 38.5275C61.6149 38.5388 62.3171 38.4617 62.6886 38.7153C62.8497 39.0668 62.7726 39.3045 62.7344 39.6843C62.2924 39.6394 61.6546 39.7692 61.2724 39.5923C61.0698 39.2971 61.1509 38.8723 61.169 38.5275Z" fill="#FF8D00"/>
<path d="M45.5263 13.2901C45.959 13.2758 46.539 13.1797 46.9224 13.3969C47.1387 13.6865 47.085 14.0932 47.0854 14.4406C46.6447 14.4576 46.0135 14.5678 45.6288 14.3373C45.4287 14.0333 45.5054 13.6386 45.5263 13.2901Z" fill="#FF8D00"/>
<path d="M65.1938 41.5433C65.5675 41.5291 65.7906 41.4767 66.0702 41.7343C66.2693 42.2141 66.1144 42.8692 66.065 43.3783C65.8492 43.376 65.6476 43.3803 65.439 43.3156C65.245 43.2553 65.1493 43.0489 65.0768 42.8714C64.9499 42.5597 65.0424 41.8329 65.1938 41.5433Z" fill="#FF8D00"/>
<path d="M123.929 67.7548C124.26 67.752 124.603 67.7319 124.933 67.7632C124.926 68.3265 124.937 68.8981 124.901 69.4599L123.798 69.3974C123.835 68.9366 123.825 68.4675 123.832 68.0051L123.929 67.7548Z" fill="#FF8D00"/>
<path d="M94.2883 109.523C94.7332 109.527 95.4802 109.402 95.8547 109.641C96.0359 109.978 95.9789 110.228 95.9707 110.606C95.4862 110.605 94.7314 110.725 94.3354 110.449C94.1684 110.154 94.2508 109.844 94.2883 109.523Z" fill="#FF8D00"/>
<path d="M36.747 60.5101C36.9323 60.4899 37.176 60.4405 37.3586 60.4659C37.639 60.5046 37.7077 60.6348 37.8775 60.8342C37.9506 61.1787 37.815 61.4913 37.7156 61.8188C37.575 61.9535 37.4465 62.0865 37.327 62.2398L37.2143 62.3855C36.9777 62.0967 36.7313 61.7126 36.6427 61.347C36.5683 61.0391 36.568 60.7797 36.747 60.5101Z" fill="#FF8D00"/>
<path d="M0.297897 88.7498L1.41775 88.7852C1.46212 89.3316 1.44169 89.8918 1.44561 90.4401C1.11834 90.4646 0.824912 90.5204 0.523229 90.3622C0.205658 89.9717 0.30223 89.2386 0.297897 88.7498Z" fill="#FF8D00"/>
<path d="M53.9828 38.6064C54.4326 38.5925 55.1024 38.4789 55.4856 38.7302C55.6792 39.0534 55.6086 39.409 55.5874 39.7696C55.1414 39.7734 54.4857 39.8989 54.1019 39.6609C53.8904 39.3506 53.9634 38.9639 53.9828 38.6064Z" fill="#FF8D00"/>
<path d="M72.8443 48.2491C73.1808 48.2383 73.4716 48.2077 73.7871 48.3496C74.0721 48.7874 73.9588 49.419 73.9441 49.9333L72.8232 49.9823L72.8443 48.2491Z" fill="#FF8D00"/>
<path d="M123.885 72.2289C124.209 72.2139 124.488 72.1704 124.78 72.3406C125.105 72.7948 124.956 73.5371 124.929 74.0751C124.567 74.0669 124.335 74.1073 124.02 73.9237C123.894 73.7074 123.86 73.581 123.866 73.3315L123.885 72.2289Z" fill="#FF8D00"/>
<path d="M0.186523 80.8849C0.212317 80.5121 0.186316 80.1864 0.43992 79.8962C0.764713 79.8441 1.08744 79.8048 1.41471 79.772C1.42895 80.3231 1.502 80.9406 1.39655 81.4817L0.557949 81.4446C0.283092 81.2737 0.293412 81.1802 0.186523 80.8849Z" fill="#FF8D00"/>
<path d="M100.527 47.4535C100.81 47.45 101.093 47.4508 101.376 47.4451C101.697 47.4385 101.868 47.4041 102.145 47.6037C102.317 47.9228 102.227 48.261 102.185 48.6054C101.738 48.6045 101.004 48.733 100.631 48.4793C100.432 48.1592 100.504 47.8126 100.527 47.4535Z" fill="#FF8D00"/>
<path d="M91.6004 47.4658C91.8232 47.5279 92.0684 47.7027 92.2343 47.8601C92.2568 48.1095 92.2415 48.0856 92.1352 48.2897C91.9483 48.4159 91.7999 48.5143 91.5804 48.5742C91.1408 48.6939 91.0785 48.7345 90.8074 49.071L90.5579 48.8677C90.2851 48.6416 90.2407 48.6359 90.2075 48.2864C90.4933 47.7947 91.0886 47.6601 91.6004 47.4658Z" fill="#FF8D00"/>
<path d="M120.034 82.7L121.633 82.6992C121.636 83.1128 121.656 83.503 121.722 83.9115L120.004 83.9123L120.034 82.7Z" fill="#FF8D00"/>
<path d="M36.7436 57.6741C37.075 57.6881 37.2919 57.6555 37.5791 57.8272C37.8397 58.3236 37.725 58.9791 37.7136 59.5317C37.3067 59.5472 36.9666 59.6137 36.6204 59.3775C36.4586 58.9684 36.7031 58.149 36.7436 57.6741Z" fill="#FF8D00"/>
<path d="M103.022 47.4815C103.573 47.4447 104.199 47.3139 104.678 47.6189C104.824 47.9253 104.741 48.2557 104.704 48.5811C104.122 48.5787 103.474 48.7318 102.984 48.3729C102.87 48.0583 102.955 47.796 103.022 47.4815Z" fill="#FF8D00"/>
<path d="M112.534 74.4602C112.986 74.4479 113.683 74.3346 114.075 74.5658C114.293 74.8661 114.229 75.278 114.221 75.634L112.504 75.6289L112.534 74.4602Z" fill="#FF8D00"/>
<path d="M117.725 74.4781C118.196 74.4857 118.961 74.3473 119.355 74.6015C119.562 74.9157 119.494 75.2578 119.475 75.6156C119.009 75.6283 118.257 75.7701 117.863 75.5232C117.638 75.2186 117.709 74.8368 117.725 74.4781Z" fill="#FF8D00"/>
<path d="M120.315 74.4387C120.77 74.4406 121.538 74.3063 121.922 74.5517C122.141 74.8632 122.075 75.2602 122.063 75.624C121.609 75.617 120.828 75.7499 120.44 75.5223C120.244 75.1524 120.305 74.8462 120.315 74.4387Z" fill="#FF8D00"/>
<path d="M110.244 74.4529L111.737 74.4283C111.754 74.815 111.779 75.1778 111.703 75.5594L111.541 75.6291C111.196 75.6199 110.822 75.6859 110.484 75.6498C110.224 75.6222 110.166 75.5422 109.994 75.3692C109.9 75.0522 109.946 74.873 110.029 74.5668L110.244 74.4529Z" fill="#FF8D00"/>
<path d="M112.578 82.6877L114.274 82.6848L114.28 83.915L112.572 83.9134L112.578 82.6877Z" fill="#FF8D00"/>
<path d="M125.126 82.6605L126.805 82.6588C126.802 83.07 126.824 83.4733 126.853 83.8832C126.281 83.9224 125.688 83.8984 125.114 83.9046L125.126 82.6605Z" fill="#FF8D00"/>
<path d="M129.332 82.5957C129.297 83.0298 129.296 83.4696 129.283 83.9051L127.667 83.9039L127.656 82.6293L129.332 82.5957Z" fill="#FF8D00"/>
<path d="M115.06 82.6814L116.792 82.6871L116.773 83.9144L115.048 83.9064L115.06 82.6814Z" fill="#FF8D00"/>
<path d="M117.529 82.7033L119.29 82.6982C119.287 83.1103 119.316 83.5053 119.364 83.9146L117.522 83.9025L117.529 82.7033Z" fill="#FF8D00"/>
<path d="M115.047 74.4771L116.848 74.4744C116.881 74.8642 116.943 75.2381 117.017 75.6224C116.475 75.6392 115.652 75.781 115.185 75.517C114.988 75.1567 115.042 74.8755 115.047 74.4771Z" fill="#FF8D00"/>
<path d="M109.97 82.6947L111.722 82.6809C111.728 83.0939 111.755 83.4981 111.797 83.9093C111.313 83.9181 110.474 84.0441 110.082 83.7721C109.876 83.4608 109.951 83.0529 109.97 82.6947Z" fill="#FF8D00"/>
<path d="M97.7361 47.4906C98.3165 47.5098 99.1442 47.2344 99.6265 47.6199C99.7785 47.9271 99.6933 48.2608 99.6558 48.5889C99.0394 48.5771 98.4366 48.6113 97.8223 48.6541L97.7361 47.4906Z" fill="#FF8D00"/>
<path d="M124.313 82.6998L124.289 83.8881L122.435 83.8896L122.453 82.6996L124.313 82.6998Z" fill="#FF8D00"/>
<path d="M19.0781 81.2722C19.5109 81.3042 20.2207 81.1681 20.607 81.3059C20.7442 81.3548 20.8814 81.4618 20.9406 81.5948C21.0436 81.8254 21.0432 82.1124 20.9586 82.3493C20.8994 82.5157 20.6282 82.5838 20.4714 82.6578L20.003 82.428L19.8662 81.963L19.8065 82.2868L19.6528 82.3885C19.3447 82.3858 19.1421 82.3315 18.8551 82.2351L18.7729 82.0704C18.8928 81.8076 18.9878 81.5463 19.0781 81.2722Z" fill="#FF8D00"/>
<path d="M1.26662 97.8161L1.38011 97.8965C1.44635 98.433 1.58254 98.8567 1.24784 99.3049L1.29221 99.4375L1.6948 99.2832C2.07159 99.3885 2.44302 99.7185 2.76327 99.9419C3.23788 99.9171 3.85362 99.7534 4.26425 100.051C4.47638 100.205 4.46318 100.407 4.50507 100.643C4.42438 100.863 4.40725 100.901 4.22732 101.05C3.72568 101.063 3.26305 101.05 2.78329 100.886C1.8638 100.574 0.815128 99.7183 0.434826 98.8151C0.306271 98.5097 0.336811 98.3396 0.448652 98.0356C0.736096 97.7942 0.898081 97.8395 1.26662 97.8161Z" fill="#FF8D00"/>
<path d="M123.656 65.9444C123.286 65.9512 122.754 66.0047 122.442 65.7825C122.832 65.7762 123.441 65.7782 123.73 65.4935C122.966 65.4167 122.194 65.3546 121.435 65.2386C120.025 65.0229 116.763 64.7137 115.955 63.4878C115.924 63.4407 115.896 63.3915 115.867 63.3435C115.138 63.3363 114.368 63.357 113.647 63.2373C113.414 63.1984 113.229 63.1691 113.087 62.9733C113.331 62.9684 113.234 62.958 113.429 62.9906C115.021 63.2564 116.814 63.0529 118.435 63.0889C120.253 63.1295 122.046 63.4157 123.87 63.265L123.979 63.255L124.449 63.2138C124.717 63.3583 124.776 63.3542 124.87 63.6565C124.985 64.0266 124.911 64.539 124.743 64.8819C124.601 65.0768 124.626 64.9817 124.611 65.1461C124.724 65.2709 124.846 65.3814 124.923 65.5323L125.014 66.4019L124.933 67.7632C124.603 67.7319 124.26 67.752 123.929 67.7548L123.832 68.0051C123.595 67.333 123.652 66.6462 123.656 65.9444Z" fill="url(#paint0_linear_911_7027)"/>
<path d="M123.979 63.255L124.449 63.2138C124.717 63.3583 124.776 63.3542 124.87 63.6565C124.985 64.0266 124.911 64.539 124.743 64.8819C124.432 64.8748 124.272 64.9158 124.013 64.7344C123.817 64.2902 123.939 63.7292 123.979 63.255Z" fill="#FF8D00"/>
<path d="M124.611 65.1461C124.724 65.2709 124.847 65.3814 124.923 65.5323L125.014 66.4019L124.933 67.7632C124.603 67.7319 124.26 67.752 123.929 67.7548L123.911 66.9155C123.914 66.5376 123.8 65.9873 123.928 65.6313C124.049 65.2974 124.313 65.2672 124.611 65.1461Z" fill="#FF8D00"/>
<path d="M124.923 65.5323L125.014 66.4019L124.933 67.7632C124.603 67.7319 124.26 67.752 123.929 67.7548L123.911 66.9155C124.187 66.9356 124.41 66.9481 124.683 66.8793C124.986 66.5267 124.909 65.984 124.923 65.5323Z" fill="#D3D3D3"/>
<path d="M124.449 63.2138C128.091 63.1636 131.721 63.0748 135.366 63.0752L135.455 63.1664C135.042 63.2904 134.58 63.2468 134.172 63.396C133.811 63.5278 133.524 63.9154 133.223 64.1525C132.608 64.6378 131.756 64.8881 131.004 65.0775C130.079 65.3044 129.142 65.4522 128.193 65.5208C127.558 65.5657 126.764 65.4808 126.166 65.67C126.388 65.7478 126.61 65.8266 126.831 65.9065C126.796 65.9076 126.761 65.9084 126.726 65.9098C126.245 65.9309 125.807 66.0356 125.343 66.149L125.296 66.283L125.014 66.4019L124.923 65.5323C124.846 65.3814 124.724 65.2709 124.611 65.1461C124.626 64.9817 124.601 65.0768 124.743 64.8819C124.911 64.539 124.985 64.0266 124.87 63.6565C124.776 63.3542 124.717 63.3583 124.449 63.2138Z" fill="#B4B4B4"/>
<path d="M34.4308 23.1439C34.4756 22.8258 34.4461 22.8279 34.6995 22.6356C34.9684 22.6004 35.132 22.5555 35.3695 22.7332C35.5558 22.8726 35.6206 23.0687 35.6248 23.2911C35.6291 23.5192 35.5719 23.8127 35.4463 24.0013C35.4968 24.6364 35.6941 25.2905 35.8392 25.9117C36.3979 26.1343 36.9941 26.4704 37.595 26.2052C38.1449 25.9623 38.713 25.0591 39.1246 24.5973C39.8607 24.9679 40.5918 25.3347 41.2917 25.7701C41.2022 26.0933 41.1347 26.4569 40.9896 26.759L40.7631 26.8525L40.7271 27.141C39.8962 27.5173 38.5772 27.6215 37.6759 27.8233C35.2768 28.3605 33.3921 29.6149 31.4592 31.0336L31.5302 31.1117C30.8892 31.5272 30.3226 31.9668 29.7725 32.4968C29.47 32.7883 29.1245 33.3087 28.7766 33.5136L28.6582 33.4853C28.6301 33.5177 28.6048 33.5526 28.574 33.5823C27.5383 34.5788 24.9278 35.0586 23.5572 35.5933C22.9357 35.8358 22.3763 36.1705 21.7717 36.4429L21.6097 36.3636L21.5307 35.8516L21.3759 35.9395C21.378 35.4923 21.347 35.0412 21.3303 34.5939C22.2314 34.3478 23.1617 34.1974 24.0795 34.0242L24.3903 32.4083C23.8855 31.7428 23.3587 31.25 22.6982 30.7454C23.0626 30.1068 23.4914 29.497 23.8957 28.8822C24.7338 29.2675 25.5396 29.6753 26.4418 29.8924L27.7598 28.3007C27.5402 27.6003 27.2395 26.9666 26.9121 26.3101C27.5881 25.8367 28.3006 25.3841 29.0657 25.0689C29.5053 25.5559 29.9089 26.0853 30.3245 26.5932C31.0005 26.5497 31.6699 26.4188 32.3372 26.3087C32.44 25.6848 32.5134 24.8484 32.7321 24.261C32.8331 23.9902 32.9129 23.9738 33.1591 23.8728C33.5268 23.933 33.8644 24.0322 34.2197 23.8777C34.4199 23.6057 34.4007 23.4735 34.4308 23.1439Z" fill="#FF8D00"/>
<path d="M62.7998 111.198C63.9752 111.111 65.1879 111.004 66.3614 111.147C69.13 111.309 71.9267 111.145 74.6998 111.214C77.9725 111.151 81.2966 111.376 84.5591 111.176C86.076 111.112 88.2837 110.759 89.4917 111.854C89.8768 112.202 90.1118 112.656 90.3444 113.111C90.4473 113.209 90.5202 113.285 90.5876 113.414C90.7216 113.67 90.7682 113.919 90.6867 114.197C90.4459 114.392 90.3928 114.38 90.0827 114.402C89.0435 114.478 87.9592 114.421 86.9159 114.421L79.5896 114.399C73.4937 114.425 67.3944 114.613 61.2976 114.407C61.2997 114.37 61.3015 114.332 61.304 114.295C61.3909 113.056 61.8409 112.014 62.7998 111.198Z" fill="#B4B4B4"/>
<path d="M84.5593 111.176C86.0761 111.112 88.2839 110.759 89.4918 111.854C89.8769 112.202 90.1119 112.656 90.3445 113.111C90.4245 113.438 90.4776 113.772 90.5364 114.103C89.5861 114.399 76.8389 114.3 75.3547 114.219C75.41 113.533 75.5284 112.765 75.4675 112.08C75.4368 111.734 75.3472 111.563 75.0854 111.34C74.9407 111.334 74.8025 111.332 74.6584 111.35C73.5957 111.485 72.3997 111.428 71.3337 111.335C71.4918 111.201 74.3295 111.228 74.6999 111.214C77.9726 111.151 81.2967 111.376 84.5593 111.176Z" fill="url(#paint1_linear_911_7027)"/>
<path d="M153.507 81.6627C153.801 82.2014 154.04 82.731 154.256 83.3049C154.8 83.3272 155.353 83.3288 155.893 83.3973C155.895 84.3374 155.919 85.2833 155.89 86.2229L154.31 86.4547C154.153 87.1329 153.76 88.1089 154.083 88.7701C154.247 89.1035 154.802 89.4343 155.101 89.676C154.723 90.4358 154.356 91.2025 153.921 91.9324C153.35 91.7662 152.757 91.5551 152.172 91.4509C151.722 91.9654 151.196 92.488 150.846 93.074L151.274 94.6747C150.648 95.1273 150.031 95.5847 149.36 95.9699C148.927 95.4888 148.506 94.9699 148.038 94.5239L145.913 95.4271C145.841 96.0115 145.795 96.611 145.668 97.1861C144.802 97.2466 143.944 97.2584 143.076 97.2558C142.923 96.6203 142.749 95.9902 142.556 95.3654C141.84 95.2175 141.113 95.0342 140.389 94.9354C140.039 95.497 139.681 96.0285 139.272 96.5493C138.482 96.0988 137.704 95.6015 136.996 95.0305C137.179 94.6382 137.394 94.2404 137.523 93.8276C136.951 93.196 136.208 92.0923 135.283 92.0808C134.96 92.0767 134.505 92.3831 134.228 92.5354C133.65 91.8856 133.256 91.2005 132.891 90.4165C133.271 90.0798 133.68 89.7526 134.029 89.3847C133.774 88.5618 133.54 87.7623 133.471 86.9002C132.862 86.889 132.226 86.9125 131.623 86.8314C131.56 86.2056 131.575 85.4081 131.305 84.8343C132.282 84.979 133.4 85.0031 134.322 85.3579C134.545 87.6785 136.004 89.9779 137.779 91.447C138.851 92.3345 140.436 93.1804 141.858 93.2548C142.217 93.3337 142.571 93.3825 142.937 93.4083C144.542 93.5214 146.174 93.1039 147.606 92.3999C154.073 89.2204 151.738 83.1776 153.507 81.6627Z" fill="#FF8D00"/>
<path d="M48.1687 52.2805C51.9068 52.2564 55.6449 52.2557 59.3831 52.2784C61.2029 52.2815 63.103 52.3899 64.9119 52.236C65.3268 51.7759 64.9612 51.5731 65.78 51.533C65.9479 51.5248 65.8604 51.5137 66.0523 51.6295L66.0748 51.8238C66.0947 51.9845 66.1149 52.0903 66.2077 52.2276C67.2803 52.4846 68.8209 52.2751 69.9486 52.2682C72.8078 52.2509 75.6669 52.2483 78.526 52.2602C80.0065 52.2651 81.616 52.162 83.0809 52.3528C82.4693 52.4022 81.8709 52.4075 81.2576 52.3987C80.8492 53.6133 80.4696 55.2815 79.7442 56.3388L79.6353 56.3669L58.3031 56.41C54.817 56.4214 51.2961 56.5625 47.814 56.4467C48.3608 56.2995 48.9994 56.445 49.5122 56.2745C50.7293 55.8695 50.6304 53.5852 51.2379 52.6119L51.325 52.4737C51.5664 52.476 51.7994 52.4801 52.0394 52.4481C52.0877 52.4418 52.1353 52.428 52.184 52.4272C52.2447 52.426 52.3052 52.437 52.3658 52.442C50.9752 52.3133 49.5646 52.4122 48.1687 52.2805Z" fill="url(#paint2_linear_911_7027)"/>
<path d="M76.216 53.9814C76.6718 54.0351 77.2104 53.9763 77.6418 54.0915C77.8752 54.1538 77.8967 54.2003 78.0145 54.393C78.0009 54.6809 77.9021 54.8097 77.75 55.0449C77.5022 54.9892 77.2865 54.9804 77.0317 54.9769C76.5998 54.9712 76.3094 54.9734 75.9985 54.6563C75.9809 54.3241 76.0509 54.2614 76.216 53.9814Z" fill="#D3D3D3"/>
<path d="M14.9356 52.0458C18.6889 51.5973 22.8564 51.7691 26.6631 51.6707C27.1569 51.658 30.3159 51.3926 30.3893 51.4137C30.7505 51.7148 30.9021 51.9505 30.9469 52.4272C31.067 53.7012 30.9894 55.0459 31.0078 56.329C31.0662 59.285 31.0819 62.2413 31.0546 65.1978L31.0189 70.4586C31.0181 71.2664 31.1021 72.1383 31.0123 72.9388C30.964 73.3705 30.8012 73.723 30.5094 74.0471C30.3155 74.2629 30.067 74.4227 29.8297 74.5871C27.4738 74.7394 25.1087 74.6177 22.7532 74.7224L23.0996 75.4889C22.9476 75.7339 22.884 75.8587 22.5916 75.9345C21.7029 76.1651 16.8995 75.6045 16.5413 76.0921C16.5159 76.1268 16.4529 76.2756 16.4335 76.3196C16.1834 76.4459 15.8366 76.4299 15.5675 76.3543C15.5122 76.3387 15.4602 76.3131 15.4065 76.2926C13.5808 76.0444 11.5734 76.2926 9.78806 75.8261C8.83142 75.576 7.88758 75.0255 7.38492 74.1583C6.95365 73.7978 6.63319 73.4441 6.33233 72.9708C6.15858 69.9274 6.42684 66.8141 6.42044 63.7608L6.38144 56.8932C6.37112 55.6797 6.28631 54.4136 6.37587 53.2042C6.40352 52.8299 6.43612 52.5828 6.69901 52.2925C7.51017 51.3975 9.84749 51.7404 10.9525 51.7974L10.9717 51.8513C10.2008 52.0158 9.41065 51.7299 8.65417 51.9322C9.21689 52.0865 10.5208 51.726 10.8997 52.056L10.7884 52.0648C9.96201 52.1245 8.08754 51.8332 7.49862 52.4883C7.19466 52.8267 7.32095 55.7416 7.3226 56.3772L7.33354 66.0405C7.3259 67.5554 7.10965 69.7511 7.38079 71.2035C7.4365 71.5019 7.48603 71.64 7.70208 71.8538C8.91912 72.2608 14.8283 72.1215 16.43 72.028C20.8729 72.0292 25.3153 72.0687 29.7573 72.1463C29.8477 69.0994 29.7662 66.0465 29.8448 62.9983C29.9744 61.7065 29.9065 60.3568 29.9112 59.0562C29.9255 56.7613 29.9264 54.4664 29.9137 52.1714C24.9197 52.0394 19.9293 52.1218 14.9356 52.0458Z" fill="url(#paint3_linear_911_7027)"/>
<path d="M23.0998 75.4889C22.2572 75.5226 21.4645 75.4277 20.6271 75.3918C19.0211 75.3231 17.425 75.2598 15.8204 75.1522C15.7921 75.1503 15.3611 75.1286 15.353 75.1206C15.2649 75.0343 15.3111 74.8585 15.2183 74.7773C15.1677 74.7335 14.9085 74.7343 14.781 74.641C16.3746 74.5695 17.9819 74.6045 19.5766 74.6146C20.6116 74.6211 21.7358 74.5365 22.7533 74.7224L23.0998 75.4889Z" fill="#716876"/>
<path d="M7.38501 74.1584C8.57771 74.3438 9.39671 75.0401 10.5215 75.2284C11.4649 75.3863 14.6646 75.1983 15.2314 75.6339C15.2931 75.8523 15.3616 76.07 15.4066 76.2926C13.5808 76.0444 11.5735 76.2926 9.78815 75.8261C8.83152 75.5761 7.88768 75.0255 7.38501 74.1584Z" fill="#D3D3D3"/>
<path d="M76.735 101.585C78.9299 101.568 81.2753 101.385 83.4553 101.586C83.5426 103.19 83.6646 104.802 83.6681 106.409L83.6877 107.073C83.8226 108.555 83.8563 109.813 84.5593 111.176C81.2967 111.376 77.9726 111.151 74.6999 111.214C71.9268 111.145 69.1302 111.309 66.3616 111.147C66.4606 110.785 66.532 110.415 66.6115 110.048C66.8085 109.186 66.7796 108.322 66.941 107.461C66.9435 105.839 67.1391 104.205 67.2804 102.589C67.326 102.326 67.3467 101.896 67.5076 101.692C70.2323 101.597 72.9635 101.65 75.6898 101.591C76.0336 101.585 76.3928 101.558 76.735 101.585Z" fill="url(#paint4_linear_911_7027)"/>
<path d="M66.9409 107.461C67.1043 107.193 67.0791 107.036 67.0911 106.727C68.8531 106.75 70.6244 106.829 72.3856 106.815C73.4147 106.808 74.4441 106.719 75.4724 106.731L75.4891 107.859C75.6036 108.317 75.8058 108.838 75.5739 109.286C75.4848 109.457 75.4002 109.494 75.2165 109.558C74.72 109.731 74.0083 109.683 73.4797 109.699C71.4663 109.758 68.5025 109.487 66.6113 110.048C66.8084 109.186 66.7795 108.322 66.9409 107.461Z" fill="#B4B4B4"/>
<path d="M43.7255 91.7594C44.1693 92.1425 44.6515 92.5956 45.2524 92.6967C47.1259 93.0117 50.3468 92.7409 52.3967 92.7358L65.5842 92.7375C67.9407 92.7383 70.3526 92.6417 72.7039 92.7651C73.4794 93.1662 74.7092 92.9258 75.5761 92.9719C75.5701 93.6194 75.5814 94.2203 75.7011 94.8586C75.6105 95.0527 75.5986 95.1185 75.3842 95.2025C75.1186 95.3062 74.8256 95.2324 74.5604 95.3132C74.013 95.4431 73.6669 95.5597 73.3564 96.0488C73.0204 96.5776 72.9598 97.2125 73.111 97.813C73.2592 98.4015 73.6543 98.9455 74.1981 99.234C74.6139 99.4548 75.1545 99.4255 75.6145 99.4314C75.8749 99.9411 75.7152 101.006 75.6898 101.591C72.9635 101.65 70.2323 101.597 67.5076 101.692C67.3467 101.896 67.326 102.326 67.2804 102.589C67.2839 102.436 67.2924 102.278 67.2837 102.124C67.2588 101.677 67.1777 101.667 66.7435 101.657C62.0398 101.545 57.2983 101.577 52.5925 101.62C50.8043 101.637 47.0499 101.879 45.4805 101.592C44.9202 101.49 44.5894 101.244 44.1769 100.868C43.7486 99.604 43.8641 96.883 44.0242 95.5454C43.8557 95.3763 43.7453 95.1978 43.6163 94.9994L43.4221 95.1636C43.5503 94.0027 43.7162 92.9432 43.7255 91.7594Z" fill="url(#paint5_linear_911_7027)"/>
<path d="M43.6162 94.9994C43.6205 94.6899 43.628 94.5161 43.805 94.2451C44.0716 94.1004 44.1067 94.0992 44.4109 94.1209C44.67 94.3001 44.6962 94.323 44.8151 94.612C44.786 94.886 44.7361 95.0391 44.5217 95.2289C44.3818 95.3525 44.1861 95.4509 44.0242 95.5454C43.8556 95.3763 43.7452 95.1978 43.6162 94.9994Z" fill="white"/>
<path d="M43.2165 62.7641C43.4472 60.2267 43.1959 57.5577 43.2219 55.0054C43.2295 54.2638 43.3814 53.5045 43.9528 52.9828C45.0147 52.014 46.8334 52.2472 48.1687 52.2804C49.5647 52.4122 50.9753 52.3132 52.3659 52.442C52.3052 52.437 52.2447 52.426 52.1841 52.4272C52.1354 52.428 52.0877 52.4417 52.0394 52.4481C51.7994 52.4801 51.5665 52.476 51.325 52.4737L51.238 52.6119C50.6305 53.5852 50.7293 55.8695 49.5123 56.2745C48.9995 56.445 48.3608 56.2995 47.814 56.4466C47.6706 56.4686 47.4917 56.4405 47.4145 56.5782C47.1322 57.0822 47.2476 85.9578 47.2628 89.2277L64.4895 89.2236C67.8282 89.2199 71.1845 89.3054 74.5214 89.2304L75.7436 89.2351L75.7188 92.7832L72.7038 92.7651C70.3525 92.6417 67.9407 92.7383 65.5842 92.7374L52.3966 92.7358C50.3467 92.7409 47.1258 93.0117 45.2524 92.6967C44.6515 92.5956 44.1693 92.1425 43.7254 91.7594L43.6664 91.6706C43.4976 91.3962 43.3831 91.1578 43.3226 90.8393C43.1274 89.8092 43.2198 88.6655 43.226 87.6213C43.2509 85.9202 43.2507 84.2192 43.2252 82.5182L43.2114 81.4114C43.1445 75.5676 43.3111 69.7202 43.2151 63.8766C43.238 63.5064 43.2223 63.1349 43.2165 62.7641Z" fill="url(#paint6_linear_911_7027)"/>
<path d="M118.933 5.18258C119.57 4.97598 121.01 4.2574 121.602 4.63186C122.022 4.89728 122.191 5.7081 122.341 6.14958C123.307 6.01574 124.291 6.0432 125.265 6.03951C125.459 5.51503 125.655 5.00304 125.898 4.49884C126.735 4.71015 127.559 4.93868 128.381 5.19898L128.195 6.75359C128.858 7.34223 129.518 7.92309 130.237 8.44348C130.817 8.13973 131.401 7.80114 132.002 7.54104C132.588 8.18482 133.137 8.84581 133.634 9.56112C133.201 10.0174 132.755 10.4662 132.349 10.9466C132.699 11.6345 133.027 12.3031 133.216 13.0552C133.878 13.086 134.563 13.0852 135.218 13.1805C135.335 14.0895 135.464 14.9882 135.47 15.9062C134.819 16.078 134.172 16.2186 133.51 16.3418C133.479 17.1501 133.376 17.9349 133.259 18.7351C133.704 19.0357 134.157 19.3282 134.583 19.6551C134.141 20.609 133.649 21.5102 132.915 22.2778C132.305 21.9736 131.94 21.7283 131.24 21.957C130.635 22.1548 130.17 22.5713 129.899 23.1439C129.67 23.6272 129.569 24.137 129.782 24.6407C129.894 24.9056 130.041 25.1632 130.177 25.4167C129.895 25.6467 129.617 25.8848 129.319 26.0941C128.708 25.5788 128.104 25.1228 127.387 24.7592C125.286 23.6926 123.317 23.7779 121.127 24.4881C121.129 23.5286 121.098 22.6611 120.834 21.7314C119.683 17.6767 117.216 15.3459 113.641 13.3406L115.056 10.7659C114.603 10.2559 114.15 9.7794 113.606 9.36272C114.14 8.59262 114.747 7.88496 115.428 7.23975C115.85 7.65192 116.252 8.13481 116.901 8.11021C117.69 8.08029 118.405 7.32604 118.981 6.85812C118.965 6.30043 118.961 5.73966 118.933 5.18258Z" fill="#D3D3D3"/>
<path d="M123.046 11.2121C123.845 11.1278 124.609 11.2838 125.333 11.6306C125.405 11.6663 125.477 11.7037 125.548 11.7429C125.619 11.7821 125.689 11.8231 125.758 11.8659C125.826 11.9087 125.894 11.9531 125.96 11.9993C126.027 12.0455 126.092 12.0932 126.156 12.1426C126.221 12.192 126.283 12.2431 126.345 12.2957C126.406 12.3482 126.466 12.4022 126.525 12.4578C126.584 12.5134 126.641 12.5705 126.697 12.6289C126.753 12.6873 126.807 12.7471 126.86 12.8083C126.913 12.8695 126.964 12.9319 127.014 12.9956C127.063 13.0594 127.111 13.1244 127.158 13.1905C127.204 13.2567 127.249 13.324 127.292 13.3924C127.335 13.4607 127.376 13.5301 127.415 13.6007C127.455 13.671 127.492 13.7424 127.528 13.8148C127.564 13.8871 127.598 13.9603 127.63 14.0343C127.662 14.1084 127.692 14.1832 127.72 14.2588C127.748 14.3342 127.775 14.4104 127.799 14.4873C127.822 14.5629 127.843 14.639 127.862 14.7156C127.881 14.7924 127.898 14.8696 127.913 14.947C127.928 15.0245 127.942 15.1024 127.953 15.1807C127.964 15.2588 127.973 15.3373 127.98 15.416C127.987 15.4945 127.992 15.5733 127.995 15.6523C127.999 15.7311 128 15.81 127.999 15.889C127.998 15.968 127.995 16.0469 127.99 16.1257C127.985 16.2046 127.978 16.2832 127.969 16.3617C127.96 16.4402 127.949 16.5184 127.936 16.5963C127.923 16.6742 127.908 16.7518 127.891 16.829C127.874 16.906 127.855 16.9827 127.835 17.0589C127.814 17.1352 127.791 17.2108 127.766 17.2858C127.742 17.361 127.715 17.4354 127.687 17.509C127.658 17.5828 127.628 17.6558 127.595 17.7279C127.563 17.8001 127.529 17.8714 127.493 17.9419C127.457 18.0124 127.42 18.0819 127.38 18.1505C126.563 19.5641 125.321 20.0435 123.823 20.4364L123.792 20.4377C122.722 20.4924 121.809 20.3145 120.907 19.6963C119.889 18.9989 119.017 17.8201 118.819 16.5963C118.62 15.3713 118.999 13.9733 119.748 12.9868C120.577 11.8964 121.713 11.3795 123.046 11.2121Z" fill="#B4B4B4"/>
<path d="M122.985 12.2123C123.819 12.1454 124.542 12.2395 125.284 12.6445C125.337 12.6736 125.39 12.7041 125.442 12.7359C125.494 12.7676 125.545 12.8007 125.595 12.8351C125.645 12.8694 125.695 12.905 125.743 12.9419C125.791 12.9788 125.839 13.0169 125.885 13.0561C125.931 13.0954 125.977 13.1359 126.021 13.1774C126.066 13.2191 126.109 13.2618 126.151 13.3055C126.193 13.3492 126.234 13.394 126.274 13.44C126.314 13.4857 126.352 13.5325 126.39 13.5804C126.427 13.6282 126.463 13.677 126.498 13.7267C126.533 13.7763 126.567 13.8268 126.599 13.8782C126.632 13.9295 126.663 13.9817 126.692 14.0345C126.722 14.0874 126.75 14.1411 126.777 14.1954C126.804 14.2498 126.829 14.3048 126.854 14.3604C126.878 14.416 126.9 14.4723 126.921 14.5291C126.942 14.586 126.962 14.6433 126.98 14.7011C126.999 14.7589 127.015 14.8171 127.031 14.8757C127.06 14.9924 127.083 15.1102 127.101 15.2292C127.118 15.3481 127.129 15.4676 127.135 15.5877C127.14 15.7078 127.14 15.8279 127.134 15.948C127.127 16.068 127.115 16.1874 127.097 16.3063C127.078 16.425 127.054 16.5427 127.024 16.6592C126.994 16.7757 126.958 16.8904 126.917 17.0034C126.876 17.1164 126.829 17.227 126.776 17.3352C126.724 17.4436 126.666 17.5491 126.603 17.6519C125.98 18.6525 125.06 19.0927 123.956 19.368C123.114 19.4008 122.411 19.3952 121.644 18.9796C121.543 18.9245 121.445 18.8647 121.35 18.8C121.254 18.7355 121.163 18.6665 121.074 18.593C120.986 18.5195 120.901 18.442 120.82 18.3604C120.739 18.2787 120.662 18.1934 120.59 18.1044C120.517 18.0153 120.449 17.923 120.386 17.8273C120.322 17.7317 120.264 17.6332 120.21 17.532C120.156 17.4307 120.108 17.3271 120.064 17.221C120.02 17.115 119.982 17.0071 119.949 16.8974C119.671 15.9487 119.827 14.8779 120.322 14.0251C120.936 12.9686 121.856 12.5332 122.985 12.2123Z" fill="white"/>
<path d="M93.9902 22.4135C94.476 21.1275 95.0436 19.932 95.8742 18.8255C98.1768 15.757 101.298 14.1128 105.078 13.566L105.179 13.5791C105.532 13.622 106.574 13.4666 106.768 13.7595C106.966 14.0587 107.04 14.5549 107.129 14.9052C107.733 17.279 107.294 18.8375 106.855 21.1503C106.712 21.9009 106.676 22.6924 106.459 23.4251C105.939 25.1806 104.192 26.8883 102.574 27.7067C98.5955 29.7184 93.9299 30.3609 89.7287 31.7991C88.0098 32.3876 84.9255 33.999 83.3046 34.9491C82.8096 34.7794 82.5141 34.2935 82.0275 34.1601C81.2785 33.4739 80.7818 32.4415 80.6043 31.4575C80.3501 30.0465 80.6858 28.5011 81.5213 27.3276C82.5537 25.8773 84.1698 25.6692 85.8066 25.41C85.6943 24.9068 85.6021 24.4171 85.6498 23.8994C85.7608 22.693 86.3249 21.5854 87.2843 20.8277C88.152 20.1423 89.2312 19.8628 90.3275 20.0099C91.9127 20.2227 93.0466 21.2136 93.9902 22.4135Z" fill="#D3D3D3"/>
<path d="M108.042 91.7411C108.05 93.5735 108.306 97.1293 107.868 98.7827C107.702 99.4068 107.403 99.9407 106.938 100.394C106.814 100.514 106.683 100.626 106.545 100.728C106.406 100.83 106.26 100.923 106.109 101.006C105.957 101.089 105.8 101.161 105.639 101.222C105.477 101.284 105.312 101.334 105.144 101.373C102.949 101.863 91.7881 101.259 91.2664 101.589C90.9521 101.788 91.2842 102.018 90.9552 102.239C90.6404 102.219 90.5085 102.215 90.2491 102.015L90.0434 101.634C87.8555 101.492 85.6479 101.638 83.4553 101.586C81.2752 101.385 78.9298 101.568 76.7349 101.585C76.3928 101.558 76.0335 101.585 75.6897 101.591C75.7151 101.006 75.8748 99.9411 75.6144 99.4314C75.1545 99.4255 74.6138 99.4548 74.198 99.234C73.6543 98.9455 73.2591 98.4015 73.111 97.8131C72.9597 97.2125 73.0204 96.5776 73.3563 96.0488C73.6669 95.5597 74.0129 95.4431 74.5604 95.3132C74.8255 95.2324 75.1186 95.3062 75.3841 95.2025C75.5985 95.1185 75.6105 95.0527 75.7011 94.8586C75.5814 94.2203 75.57 93.6194 75.576 92.9719C74.7092 92.9258 73.4793 93.1662 72.7039 92.7651L75.7188 92.7832L95.4635 92.793C99.2387 92.7907 103.034 92.8649 106.807 92.7381C107.286 92.43 107.645 92.1539 108.042 91.7411Z" fill="url(#paint7_linear_911_7027)"/>
<path d="M74.5604 95.3132C75.4269 95.4226 76.8692 95.2587 77.4472 96.0309C77.8777 96.6063 77.8034 97.454 77.7753 98.132C77.4196 98.6692 77.0562 99.2213 76.3821 99.3757C76.1299 99.4332 75.8715 99.4324 75.6144 99.4314C75.1545 99.4255 74.6139 99.4548 74.1981 99.234C73.6543 98.9454 73.2592 98.4015 73.111 97.813C72.9598 97.2125 73.0204 96.5776 73.3564 96.0488C73.6669 95.5597 74.013 95.4431 74.5604 95.3132Z" fill="#404040"/>
<path d="M142.394 72.8069C143.267 72.8614 144.147 72.8511 145.021 72.8603C145.109 73.3738 145.124 73.8974 145.155 74.4168L147.5 75.2248L148.621 74.1124C149.337 74.5707 149.991 75.0798 150.651 75.614C150.538 76.2299 150.342 76.8925 150.439 77.5162L150.748 77.7207C150.951 77.9456 151.159 78.1649 151.336 78.4117C151.968 78.3532 152.604 78.3067 153.233 78.2284C153.643 78.7416 154.078 79.2409 154.396 79.8173C154.006 80.4362 153.679 80.9462 153.507 81.6627C151.738 83.1776 154.073 89.2204 147.606 92.3999C146.174 93.1039 144.542 93.5214 142.937 93.4083C142.571 93.3825 142.217 93.3337 141.858 93.2548C140.436 93.1804 138.851 92.3345 137.779 91.447C136.004 89.9779 134.545 87.6785 134.322 85.3579C133.4 85.0031 132.282 84.9789 131.305 84.8342C131.282 84.5514 131.407 84.0833 131.596 83.8603C131.927 83.4684 132.75 83.495 133.224 83.4629L133.758 81.2216C133.236 80.882 132.749 80.4951 132.257 80.1144C132.765 79.4317 133.138 78.6533 133.534 77.9034C134.226 77.9798 134.888 78.2046 135.553 78.4006C135.793 77.7781 136.491 77.1653 136.936 76.6769C136.76 76.2063 136.65 75.6992 136.517 75.2143C137.173 74.6593 137.865 74.2629 138.656 73.9315C139.01 74.3914 139.356 74.7876 139.791 75.1743C140.5 74.9628 141.183 74.8171 141.916 74.722C142.051 74.0751 142.215 73.443 142.394 72.8069Z" fill="#FF8D00"/>
<path d="M141.932 92.2152C141.641 92.0533 141.164 92.0014 140.829 91.8834C139.364 91.3671 138.263 90.6542 137.293 89.4304C136.034 87.8402 135.341 85.7055 135.61 83.6832C135.889 81.5846 137.313 79.5785 138.993 78.3307C140.701 77.0626 142.795 76.6297 144.891 76.956C147.177 77.312 148.83 78.6066 150.171 80.4155C151.236 82.4612 151.612 84.8209 150.903 87.0492C150.866 87.1666 150.826 87.2829 150.784 87.3983C150.741 87.5137 150.695 87.628 150.647 87.7412C150.599 87.8542 150.547 87.9659 150.493 88.0765C150.439 88.187 150.382 88.2962 150.322 88.404C150.263 88.5117 150.2 88.6178 150.135 88.7223C150.07 88.8268 150.002 88.9296 149.932 89.0308C149.862 89.1319 149.789 89.2312 149.714 89.3288C149.638 89.4262 149.56 89.5217 149.48 89.6153C149.4 89.7089 149.317 89.8004 149.233 89.8899C149.148 89.9793 149.061 90.0666 148.971 90.1517C148.882 90.2368 148.791 90.3196 148.697 90.4001C148.604 90.4806 148.508 90.5587 148.411 90.6344C148.313 90.7101 148.214 90.7832 148.113 90.8539C148.011 90.9246 147.908 90.9928 147.804 91.0584C147.699 91.1239 147.593 91.1867 147.485 91.247C147.377 91.3071 147.267 91.3646 147.157 91.4194C145.507 92.2398 143.743 92.3972 141.932 92.2152Z" fill="#FF8D00"/>
<path d="M142.706 87.8791C142.325 87.7313 141.945 87.5325 141.626 87.2777C140.852 86.661 140.325 85.8537 140.249 84.8572C140.24 84.7436 140.236 84.6299 140.239 84.5159C140.241 84.402 140.249 84.2885 140.263 84.1755C140.277 84.0624 140.296 83.9502 140.321 83.8389C140.347 83.7279 140.377 83.6183 140.414 83.5102C140.45 83.4021 140.492 83.2962 140.539 83.1923C140.586 83.0885 140.639 82.9872 140.696 82.8886C140.754 82.7899 140.816 82.6944 140.883 82.602C140.95 82.5097 141.022 82.4209 141.098 82.3358C141.138 82.2896 141.179 82.2444 141.222 82.2003C141.264 82.1563 141.308 82.1133 141.352 82.0714C141.397 82.0296 141.443 81.9889 141.489 81.9494C141.536 81.9098 141.584 81.8715 141.633 81.8345C141.681 81.7973 141.731 81.7614 141.782 81.7269C141.832 81.6923 141.884 81.6591 141.936 81.6272C141.988 81.5953 142.041 81.5647 142.095 81.5354C142.149 81.5062 142.204 81.4784 142.259 81.452C142.314 81.4255 142.37 81.4004 142.427 81.3768C142.484 81.3533 142.541 81.3311 142.599 81.3104C142.656 81.2897 142.714 81.2706 142.773 81.253C142.832 81.2352 142.891 81.219 142.951 81.2044C143.01 81.1897 143.07 81.1765 143.131 81.1649C143.191 81.1532 143.251 81.1432 143.312 81.1347C143.373 81.1261 143.434 81.1192 143.495 81.1138C143.556 81.1084 143.617 81.1045 143.679 81.1021C144.496 81.0755 145.265 81.3163 145.858 81.8865C146.766 82.7607 146.946 83.8617 146.969 85.0519C146.69 86.0912 146.223 87.0013 145.25 87.5612C144.468 88.0107 143.575 88.0826 142.706 87.8791Z" fill="white"/>
<path d="M83.0809 52.3528C83.7917 52.3335 88.9984 52.459 89.22 52.1872C89.2522 52.1476 89.3524 51.9433 89.3782 51.8921C89.6399 51.7621 89.7823 51.7638 90.0656 51.7715C90.1752 51.9497 90.1935 52.0296 90.229 52.2294C90.6968 52.5276 99.9384 52.3493 101.182 52.3393C102.739 52.3268 105.326 52.0146 106.741 52.6094C107.309 52.8482 107.856 53.5313 107.995 54.1255C108.34 55.6022 108.121 58.4464 108.12 60.0304C108.118 64.8446 108.022 69.6751 108.126 74.4867L108.116 75.6216C108.094 77.9779 108.096 80.3341 108.121 82.6902L108.105 83.8966C108.085 86.5014 108.163 89.1412 108.042 91.7411C107.645 92.1539 107.286 92.43 106.807 92.7381C103.034 92.8649 99.2386 92.7907 95.4635 92.793L75.7188 92.7832L75.7435 89.2351L104.218 89.2898C104.22 85.6065 104.036 81.4867 104.293 77.8419C104.212 75.6669 104.28 73.474 104.272 71.2967L104.284 56.3971C96.1087 56.2647 87.9152 56.5463 79.7442 56.3388C80.4695 55.2815 80.8492 53.6133 81.2576 52.3987C81.8708 52.4075 82.4693 52.4022 83.0809 52.3528Z" fill="#404040"/>
<path d="M31.5302 31.1117L31.4592 31.0336C33.3921 29.6149 35.2769 28.3605 37.6759 27.8234C38.5772 27.6215 39.8962 27.5173 40.7272 27.141L40.7631 26.8525L40.9896 26.759L40.7061 27.9611C41.1064 28.2812 41.5026 28.6092 41.9147 28.9141C42.7188 28.72 43.4318 28.4802 44.1629 28.0873L45.6073 30.0174C45.0019 30.5011 44.3944 30.9465 43.9439 31.5843C44.1944 32.2066 44.4303 32.8368 44.7392 33.4333C45.4771 33.4462 46.2088 33.463 46.9443 33.5284C47.1147 34.2642 47.3305 35.0178 47.4123 35.7682C46.6758 36.066 45.9552 36.305 45.1789 36.481C45.1243 37.1035 45.0791 37.7153 45.0795 38.3404C45.7887 38.6776 46.5355 38.9924 47.2173 39.381C46.9094 40.2168 46.5959 41.035 46.2107 41.8399C45.507 41.7177 44.8118 41.6833 44.0993 41.6515C43.6565 42.1936 43.322 42.7816 42.9741 43.3859C43.4479 44.1122 44.0021 44.7882 44.4646 45.517C43.8554 46.1499 43.2335 46.7345 42.5552 47.294C41.88 46.8886 41.288 46.3863 40.6477 45.9327C40.0423 46.2848 39.4851 46.6668 38.9245 47.0852C39.0211 47.8503 39.0819 48.5855 39.0159 49.3563L36.7378 50.0226C36.3614 49.3047 35.99 48.5857 35.5719 47.8904C35.0125 47.9995 34.4467 48.095 33.8949 48.2372L32.999 50.2698C32.2305 50.268 31.474 50.2366 30.7079 50.1786C30.6004 49.2157 30.555 48.2626 30.5242 47.2952C29.9572 47.0874 29.3771 46.8974 28.8361 46.6285C28.2467 47.2231 27.6708 47.8587 26.9746 48.3309C26.2833 47.6816 25.5688 47.0587 24.831 46.4623C25.2671 45.8212 25.7852 45.2618 26.306 44.6886C25.8902 44.0774 25.4548 43.4719 25.0752 42.8382C24.2157 42.8276 23.3552 42.8056 22.4964 42.847L22.0783 40.7728C22.6953 40.4617 23.2704 40.0295 23.7939 39.5812L23.3806 37.3043C22.821 37.2808 22.0303 37.3705 21.5418 37.1035C21.2893 36.7284 21.3561 36.3777 21.3759 35.9395L21.5307 35.8516L21.6097 36.3636L21.7717 36.4429C22.3763 36.1705 22.9357 35.8358 23.5573 35.5933C24.9278 35.0586 27.5383 34.5788 28.574 33.5823C28.6048 33.5526 28.6301 33.5177 28.6582 33.4853L28.7766 33.5136C29.1246 33.3087 29.47 32.7883 29.7725 32.4968C30.3226 31.9668 30.8893 31.5272 31.5302 31.1117Z" fill="url(#paint8_linear_911_7027)"/>
<path d="M31.5301 31.1117C33.6252 30.3214 35.5382 30.2538 37.605 31.1841C37.6987 31.2271 37.7912 31.2723 37.8826 31.3197C37.974 31.3673 38.0643 31.417 38.1533 31.4687C38.2423 31.5205 38.3299 31.5745 38.4162 31.6307C38.5026 31.6867 38.5875 31.7448 38.671 31.8049C38.7545 31.865 38.8365 31.9271 38.917 31.9912C38.9975 32.0553 39.0764 32.1213 39.1537 32.1892C39.231 32.2571 39.3066 32.3268 39.3805 32.3984C39.4542 32.4699 39.5262 32.5432 39.5965 32.6184C39.6668 32.6934 39.7352 32.77 39.8018 32.8483C39.8683 32.9266 39.9329 33.0065 39.9956 33.0879C40.0582 33.1694 40.1188 33.2522 40.1774 33.3365C40.236 33.4208 40.2925 33.5065 40.3468 33.5936C40.4011 33.6807 40.4534 33.7691 40.5036 33.8586C40.5537 33.9482 40.6015 34.0389 40.647 34.1308C40.6927 34.2227 40.7361 34.3157 40.7772 34.4097C40.8184 34.5036 40.8572 34.5985 40.8936 34.6944C41.5484 36.4273 41.4194 38.5279 40.6262 40.1943C39.897 41.7259 38.6368 42.844 37.0219 43.3978C35.186 44.0274 33.1433 43.9925 31.3896 43.128C31.2936 43.0806 31.1988 43.031 31.1052 42.979C31.0117 42.927 30.9195 42.8726 30.8287 42.8159C30.7379 42.7593 30.6486 42.7005 30.5607 42.6394C30.4728 42.5783 30.3865 42.5151 30.3019 42.4498C30.2172 42.3845 30.1342 42.3171 30.0529 42.2477C29.9715 42.1782 29.8921 42.1067 29.8145 42.0333C29.7368 41.96 29.661 41.8847 29.5871 41.8075C29.5131 41.7304 29.4412 41.6515 29.3713 41.5708C29.3013 41.49 29.2334 41.4076 29.1676 41.3236C29.1019 41.2394 29.0382 41.1537 28.9767 41.0666C28.9152 40.9792 28.856 40.8905 28.7989 40.8003C28.7419 40.7101 28.6872 40.6186 28.6348 40.5257C28.5824 40.4329 28.5323 40.3387 28.4846 40.2432C28.4369 40.1479 28.3916 40.0514 28.3488 39.9538C28.3059 39.8561 28.2655 39.7575 28.2277 39.6579C28.1899 39.5583 28.1545 39.4578 28.1216 39.3564C27.7063 38.06 27.6596 36.2896 28.1206 35C28.3032 34.4896 28.5958 34.0203 28.7766 33.5136C29.1245 33.3087 29.4699 32.7883 29.7724 32.4968C30.3226 31.9668 30.8892 31.5272 31.5301 31.1117Z" fill="white"/>
<path d="M14.9356 52.0458C19.9293 52.1218 24.9196 52.0394 29.9137 52.1714C29.9262 54.4664 29.9254 56.7613 29.9112 59.0562C29.9065 60.3568 29.9744 61.7065 29.8448 62.9984C29.7662 66.0465 29.8477 69.0994 29.7573 72.1463C25.3153 72.0687 20.8729 72.0292 16.43 72.028C14.8283 72.1215 8.91912 72.2609 7.70208 71.8538C7.48603 71.64 7.4365 71.5019 7.38079 71.2035C7.10965 69.7511 7.3259 67.5554 7.33353 66.0406L7.3226 56.3772C7.32095 55.7416 7.19466 52.8267 7.49861 52.4883C8.08753 51.8332 9.96201 52.1245 10.7884 52.0648L10.8997 52.056C12.243 52.0583 13.5933 52.0874 14.9356 52.0458Z" fill="url(#paint9_linear_911_7027)"/>
<path d="M21.766 61.2408C22.4651 61.2123 23.1627 61.1847 23.8625 61.1849L23.8618 64.6038C23.868 66.017 23.8249 67.4525 23.9017 68.8634C22.2913 68.871 20.6665 68.9245 19.058 68.8669C18.0461 68.7614 17.0057 68.8044 15.9874 68.7761C15.1739 68.8325 14.3708 68.8534 13.5966 69.1324C13.4127 69.1086 13.2536 69.0672 13.0776 69.0098C12.7349 68.4084 12.9181 62.4341 12.9177 61.2789C15.8673 61.2904 18.8167 61.2777 21.766 61.2408Z" fill="#FF8D00"/>
<path d="M29.8448 62.9984C29.7662 66.0465 29.8477 69.0994 29.7573 72.1463C25.3153 72.0687 20.8729 72.0292 16.43 72.028C14.1482 71.7329 11.3625 71.9491 9.03345 71.9714C9.97915 71.465 12.9436 69.7792 13.5964 69.1324C14.3707 68.8534 15.1738 68.8325 15.9872 68.7761C17.0055 68.8044 18.046 68.7614 19.0579 68.8669C20.6664 68.9245 22.2912 68.871 23.9015 68.8634C23.9643 67.4306 23.9292 65.9885 23.9232 64.5544C25.828 63.8631 27.9055 63.627 29.8448 62.9984Z" fill="#404040"/>
<path d="M17.8478 70.0245C18.205 70.0625 18.3317 70.0987 18.5818 70.3471C18.6699 70.6845 18.6214 70.8993 18.5393 71.2342C18.3864 71.2443 18.2002 71.2713 18.0496 71.2492C17.7974 71.2121 17.756 71.1698 17.6148 70.9825C17.5802 70.6343 17.7254 70.3432 17.8478 70.0245Z" fill="#88808C"/>
<path d="M8.21118 53.459L21.2735 53.4462C23.8211 53.4417 26.4108 53.3403 28.9549 53.4571C28.9792 55.4538 29.0778 57.5548 28.9078 59.5438L16.0704 59.5448C14.1534 59.545 11.8142 59.7139 9.94039 59.5261L8.24977 59.5417L8.24585 57.4317L8.21118 53.459Z" fill="#D3D3D3"/>
<path d="M71.8215 0.0791016C73.0476 0.0924922 74.2732 0.123169 75.4984 0.171129C75.5481 1.04248 75.5902 1.91423 75.6247 2.7864C76.2039 2.91409 76.7732 3.04916 77.3426 3.21661C77.7573 2.57495 78.1853 1.94218 78.6267 1.31828C79.7577 1.76161 80.764 2.40805 81.7017 3.16865C81.3049 3.98766 80.9728 4.81139 80.6623 5.66627C81.1528 5.99892 81.5636 6.36846 81.992 6.77428C82.6055 6.24631 83.3498 5.88394 84.0584 5.49759C84.7294 6.38814 85.3043 7.44655 85.8549 8.41498C85.183 8.9161 84.4243 9.30306 83.6921 9.7097C83.9082 10.4732 84.2922 11.1731 84.4606 11.954L86.7525 11.9105C86.7729 13.0318 86.7663 14.1529 86.7329 15.2737C86.0241 15.3676 85.3066 15.4233 84.5947 15.4942C84.3623 16.0591 84.2063 16.6517 84.0369 17.2372C84.6339 17.7129 85.2053 18.2276 85.7855 18.7238C85.2926 19.7662 84.6785 20.7551 84.0182 21.6998L82.1478 20.7107C81.6716 21.2192 81.1582 21.6932 80.6545 22.1747L81.6365 24.1445C80.6117 24.8235 79.5634 25.4644 78.4915 26.0672C77.9585 25.4048 77.5171 24.6998 77.1389 23.9408C76.4658 24.1658 75.7718 24.3499 75.0911 24.5526C75.0216 25.2085 74.9453 25.8636 74.862 26.5179L74.7459 26.7506C73.9883 27.1162 72.4015 26.875 71.5481 26.8393L71.1281 24.5188C70.4622 24.3481 69.8023 24.1402 69.142 23.9484C68.6656 24.5868 68.2553 25.28 67.7853 25.9268C66.7085 25.3302 65.7104 24.6104 64.7002 23.9109C65.0646 23.1966 65.5196 22.5118 65.9341 21.8244C65.3621 21.3247 64.8347 20.7801 64.3005 20.2413C63.7379 20.5637 63.1496 20.8377 62.5667 21.121C61.9289 20.3225 61.3812 19.4489 60.8909 18.5551C61.4838 17.9408 62.2095 17.5176 62.9284 17.0667C62.7114 16.4188 62.5622 15.7441 62.3961 15.0815C61.4799 15.0349 60.6266 14.962 59.7529 14.667C59.9601 13.7119 60.0059 12.7673 60.0548 11.7954C60.8588 11.6131 61.548 11.5939 62.361 11.6591C62.4472 10.9224 62.5875 10.2231 62.7656 9.5031C62.1606 9.24608 61.608 8.88433 61.0476 8.54451C61.4832 7.35841 62.271 6.23934 62.9982 5.21229C63.7137 5.57903 64.4225 5.95807 65.1246 6.3494C65.4632 5.71895 65.8933 5.18893 66.3594 4.64968C66.0389 4.06063 65.7484 3.47055 65.4777 2.85731C66.4958 2.22748 67.5624 1.70463 68.6334 1.17133L69.9171 3.02764C70.4243 2.93459 70.9336 2.89646 71.4467 2.85404C71.5124 1.91799 71.643 0.999981 71.8215 0.0791016Z" fill="#FF8D00"/>
<path d="M72.1729 6.89031C73.9599 6.76488 75.6019 6.88191 77.1623 7.84501C78.6439 8.75954 79.7561 10.434 80.1387 12.1153C80.5443 13.897 80.293 15.865 79.3027 17.418C78.2066 19.1376 76.5965 20.2114 74.6165 20.6603C72.8638 20.8898 71.2819 20.7468 69.7426 19.8177C69.642 19.7569 69.543 19.6937 69.4456 19.6283C69.3482 19.5627 69.2525 19.4947 69.1584 19.4244C69.0644 19.3541 68.9722 19.2816 68.8817 19.2069C68.7912 19.1322 68.7026 19.0552 68.6159 18.9761C68.5292 18.8971 68.4446 18.816 68.3619 18.7328C68.2793 18.6496 68.1988 18.5644 68.1203 18.4772C68.0418 18.3901 67.9656 18.3011 67.8916 18.2104C67.8176 18.1195 67.7459 18.0269 67.6764 17.9325C67.6069 17.8382 67.5399 17.7422 67.4752 17.6445C67.4104 17.5469 67.3482 17.4478 67.2885 17.3471C67.2286 17.2464 67.1713 17.1443 67.1166 17.0409C67.0618 16.9375 67.0096 16.8327 66.9599 16.7267C66.9104 16.6207 66.8635 16.5135 66.8192 16.4051C66.7749 16.2969 66.7334 16.1876 66.6946 16.0772C66.6557 15.9669 66.6195 15.8558 66.5863 15.7437C66.5528 15.6315 66.5222 15.5187 66.4944 15.4051C66.0522 13.5744 66.3331 11.4931 67.351 9.89337C68.489 8.10469 70.1586 7.33302 72.1729 6.89031Z" fill="white"/>
<path d="M105.078 13.566C107.718 13.1366 110.112 13.4676 112.61 14.3654C116.185 16.3707 118.651 18.7015 119.802 22.7562C120.066 23.6859 120.097 24.5534 120.095 25.5128C122.285 24.8027 124.254 24.7174 126.356 25.784C127.072 26.1476 127.676 26.6036 128.288 27.1189C129.447 28.5809 130.211 29.9631 129.977 31.9026C129.826 33.1496 129.283 34.2943 128.256 35.0582C127.6 35.546 126.958 35.6425 126.166 35.7003C123.628 35.8858 120.984 35.7514 118.437 35.7604L103.655 35.8241C99.3409 35.8655 95.0268 35.8765 90.7126 35.8571C88.7861 35.8524 86.6015 36.0461 84.7107 35.7298C83.6854 35.5583 82.6972 34.9424 82.0276 34.1601C82.5142 34.2935 82.8096 34.7794 83.3047 34.9491C84.9255 33.999 88.0099 32.3876 89.7287 31.7991C93.93 30.3609 98.5956 29.7184 102.574 27.7067C104.192 26.8883 105.939 25.1806 106.459 23.4251C106.676 22.6924 106.712 21.9009 106.855 21.1503C107.294 18.8376 107.733 17.279 107.129 14.9052C107.04 14.5549 106.966 14.0587 106.768 13.7595C106.574 13.4666 105.532 13.622 105.179 13.5791L105.078 13.566Z" fill="#D3D3D3"/>
<path d="M109.964 99.1469C111.234 98.9735 112.619 99.0578 113.904 99.0549L121.263 99.0643C124.787 99.0643 128.31 99.0905 131.834 99.1428C133.207 99.1586 135.481 98.9914 136.729 99.3281C137.285 99.4783 137.635 100.083 137.914 100.537C138.113 104.688 137.973 109.042 138.033 113.22C138.054 114.679 138.389 118.687 138.128 119.787L137.727 119.873L137.746 119.962L137.915 119.869L137.887 119.991C140.316 120.211 142.854 120.082 145.302 120.12C144.522 121.387 143.638 122.821 142.222 123.465C140.701 124.158 109.589 124.007 105.85 123.79C105.19 123.752 104.512 123.704 103.891 123.464C102.318 122.855 101.117 121.685 100.433 120.164C103.871 120.326 107.743 119.888 111.041 120.18L110.866 120.185C110.59 120.46 101.9 120.288 100.713 120.322C100.716 120.354 100.716 120.388 100.723 120.42C100.827 120.892 101.745 122.071 102.179 122.289C102.442 122.421 102.606 122.318 102.854 122.221C103.117 122.12 103.295 122.05 103.583 122.052C103.804 122.053 103.987 122.04 104.205 121.989C105.101 121.775 106.058 121.785 106.971 121.642C108.003 121.479 109.008 121.201 110.047 121.064C110.833 120.96 112.018 120.958 112.743 120.668C114.344 120.025 117.15 119.972 118.9 119.991C119.778 120.001 120.692 120.09 121.564 119.949C121.678 119.931 121.791 119.917 121.906 119.905L122.012 120.005C121.856 120.182 121.526 120.188 121.294 120.237C121.289 120.292 121.283 120.347 121.279 120.402C121.245 120.951 121.659 121.506 122.004 121.9C122.773 121.903 123.58 121.969 124.342 121.874C126.184 121.643 125.362 121.067 125.926 120.448C126.147 120.204 126.378 120.156 126.696 120.132C127.719 120.054 128.686 120.324 129.682 120.309C130.36 120.298 131.047 120.145 131.723 120.084C132.947 119.973 134.168 119.952 135.396 119.948C134.592 119.989 133.726 119.878 132.916 119.857L128.01 119.765C124.877 119.68 121.727 119.733 118.591 119.735C117.222 119.737 111.684 120.039 110.804 119.767C110.415 119.647 109.961 119.386 109.804 118.995C109.376 117.933 109.772 108.966 109.788 106.997C109.798 105.786 109.687 104.535 109.758 103.33C109.785 102.866 109.853 102.375 110.104 101.972C110.311 101.64 110.488 101.545 110.871 101.474C112.405 101.188 114.131 101.343 115.689 101.345L124.146 101.348C127.138 101.342 130.16 101.075 133.146 101.246C133.607 101.273 134.102 101.34 134.48 101.629C134.759 101.842 134.909 102.143 134.973 102.48C135.165 103.492 134.972 104.749 134.963 105.787L134.949 114.314C134.947 115.595 134.797 117.08 134.975 118.343C135.455 118.856 136.224 117.999 136.809 118.094C136.842 118.099 136.873 118.114 136.904 118.124C137.187 117.969 137.466 117.993 137.783 117.977L137.956 118.076C138.015 117.945 137.83 102.654 137.809 101.488C137.799 100.883 137.672 100.17 137.19 99.7507C136.837 99.4445 136.323 99.3533 135.872 99.315C134.918 99.2334 133.91 99.2992 132.951 99.3015C130.936 99.3062 128.919 99.3224 126.905 99.301C121.252 99.2414 115.584 99.0516 109.931 99.2662L109.964 99.1469Z" fill="#D3D3D3"/>
<path d="M117.341 101.507L128.456 101.451C129.929 101.442 132.259 101.241 133.619 101.466C133.948 101.52 134.203 101.699 134.432 101.935C134.626 102.135 134.757 102.357 134.818 102.63C135.019 103.532 134.841 105.847 134.836 106.897C134.815 110.313 134.812 113.728 134.826 117.143C134.825 117.871 134.906 118.815 134.264 119.322C133.496 119.929 128.393 119.594 127.187 119.581L116.277 119.589C114.57 119.594 112.691 119.748 110.999 119.561C110.708 119.528 110.496 119.479 110.278 119.271C109.856 118.868 109.876 118.391 109.868 117.851C109.826 114.949 109.877 112.037 109.896 109.135C109.908 107.261 109.834 105.308 109.991 103.445C110.023 103.061 110.084 102.182 110.371 101.938C111.2 101.23 116.053 101.51 117.341 101.507Z" fill="#404040"/>
<path d="M112.119 105.943C112.11 105.341 111.982 104.403 112.191 103.854L112.433 103.768C112.51 104.463 112.489 105.162 112.487 105.86C113.382 105.858 114.331 105.791 115.22 105.875C114.721 106.123 112.773 105.955 112.119 105.943Z" fill="#88808C"/>
<path d="M121.815 113.854C123.101 113.849 124.386 113.857 125.669 113.774L125.676 115.604L124.322 115.699L124.323 113.951L121.829 113.947L121.815 113.854Z" fill="#88808C"/>
<path d="M129.83 110.49C130.625 110.406 131.77 110.121 132.478 110.528C132.97 111.133 132.771 112.071 132.75 112.803C131.451 112.875 130.13 112.96 128.834 112.816C129.137 112.791 129.57 112.794 129.843 112.67C130.109 112.549 130.362 112.209 130.473 111.948C130.592 111.671 130.582 111.372 130.465 111.097C130.329 110.776 130.152 110.627 129.83 110.49Z" fill="#716876"/>
<path d="M125.817 113.696C127.181 113.669 128.549 113.631 129.912 113.689C129.711 114.573 128.109 115.875 127.342 116.347C127.006 116.553 126.605 116.695 126.239 116.843L125.986 116.82C125.638 116.322 125.841 114.376 125.817 113.696Z" fill="#756869"/>
<path d="M128.863 103.609C129.217 103.959 129.192 104.506 129.194 104.972C129.196 105.408 129.156 105.847 129.124 106.281C127.557 106.137 125.863 105.998 124.291 105.985C122.815 105.973 120.273 106.216 118.914 105.899L119.365 105.834C121.412 106.024 123.592 105.871 125.654 105.877L125.755 103.777C124.255 103.791 122.756 103.791 121.257 103.777C121.517 103.577 127.861 103.635 128.863 103.609Z" fill="#756869"/>
<path d="M129.83 110.49C130.152 110.627 130.329 110.776 130.465 111.097C130.581 111.372 130.592 111.671 130.473 111.948C130.362 112.209 130.109 112.549 129.843 112.67C129.57 112.794 129.137 112.791 128.834 112.816C127.837 112.711 126.728 112.785 125.722 112.769C125.741 112.037 125.742 111.305 125.75 110.573C126.76 110.573 127.767 110.585 128.773 110.488L129.83 110.49Z" fill="white"/>
<path d="M121.106 110.582C122.973 110.354 126.886 110.346 128.773 110.488C127.767 110.585 126.76 110.573 125.751 110.573C125.742 111.305 125.741 112.037 125.722 112.769C124.187 112.784 122.653 112.773 121.119 112.733L121.106 110.582Z" fill="#756869"/>
<path d="M121.146 113.831L121.815 113.854L121.829 113.947L124.322 113.951L124.322 115.699L125.676 115.604C125.685 116.054 125.707 116.509 125.684 116.958C122.448 117.279 118.613 117.168 115.313 117.165C114.247 117.164 112.956 117.311 111.924 117.095C113.074 116.876 114.496 117.024 115.676 117.04C117.489 117.078 119.301 117.074 121.113 117.028C121.157 115.964 121.144 114.896 121.146 113.831Z" fill="#756869"/>
<path d="M121.829 113.947L124.322 113.951L124.322 115.699L121.81 115.72C121.792 115.126 121.805 114.541 121.829 113.947Z" fill="#D3D3D3"/>
<path d="M121.257 103.777C122.756 103.791 124.255 103.791 125.755 103.777L125.654 105.877C123.592 105.871 121.412 106.024 119.365 105.834C119.498 104.957 119.194 104.547 118.791 103.803L121.257 103.777Z" fill="#D3D3D3"/>
<path d="M112.433 103.768C114.537 103.888 116.684 103.821 118.791 103.803C119.194 104.547 119.499 104.957 119.365 105.834L118.914 105.899C117.751 105.727 116.4 105.865 115.22 105.875C114.331 105.791 113.382 105.858 112.487 105.86C112.489 105.162 112.51 104.463 112.433 103.768Z" fill="white"/>
<path d="M111.939 110.669C114.992 110.718 118.053 110.635 121.106 110.582L121.119 112.733C118.07 112.735 114.997 112.891 111.953 112.812L111.939 110.669Z" fill="#B4B4B4"/>
<path d="M112.801 110.791C113.394 110.77 114.102 110.638 114.598 110.993C114.772 111.37 114.676 111.794 114.636 112.194C114.019 112.238 113.396 112.232 112.777 112.242C112.746 111.752 112.77 111.279 112.801 110.791Z" fill="#D3D3D3"/>
<path d="M111.857 106.976C114.942 106.809 118.068 106.891 121.159 106.88C121.174 107.562 121.36 108.904 121.012 109.464L120.734 109.509C117.785 109.382 114.817 109.588 111.863 109.52L111.857 106.976Z" fill="#FF8D00"/>
<path d="M112.984 107.778C113.964 107.763 114.947 107.716 115.927 107.733C116.395 107.741 116.955 107.706 117.293 108.055L117.282 108.509C116.25 108.722 114.206 108.814 113.145 108.672C112.954 108.384 112.999 108.119 112.984 107.778Z" fill="white"/>
<path d="M111.911 113.832C114.97 113.683 118.078 113.885 121.146 113.831C121.144 114.896 121.157 115.964 121.113 117.028C119.301 117.074 117.489 117.078 115.676 117.04C114.497 117.024 113.074 116.876 111.924 117.095C111.899 116.009 111.914 114.919 111.911 113.832Z" fill="#B4B4B4"/>
<path d="M125.994 106.895C126.915 106.685 128.086 106.807 129.038 106.81C130.282 106.817 131.528 106.803 132.769 106.92C132.778 107.492 132.939 108.772 132.576 109.197C131.572 109.461 126.784 109.639 125.859 109.345L125.771 109.503C124.971 109.582 121.384 109.712 120.734 109.509L121.012 109.464C121.36 108.904 121.174 107.562 121.159 106.88C122.464 106.757 124.593 106.634 125.858 106.881L125.994 106.895Z" fill="#756869"/>
<path d="M125.994 106.895C126.915 106.685 128.086 106.807 129.038 106.81C128.918 106.998 128.89 107.023 128.66 107.054C128.306 107.101 127.975 106.981 127.655 107.16C127.215 107.189 126.763 107.2 126.327 107.273C126.322 107.722 126.201 108.587 126.48 108.954C126.426 108.989 126.355 108.983 126.292 108.994C126.106 108.757 126.05 108.086 126.11 107.792C126.164 107.526 126.371 107.206 126.595 107.053C126.641 107.022 126.69 106.993 126.737 106.962L125.994 106.895Z" fill="#716876"/>
<path d="M127.655 107.16L128.95 107.183C128.922 107.763 128.911 108.348 128.839 108.924C128.052 108.929 127.266 108.938 126.48 108.954C126.201 108.587 126.322 107.722 126.327 107.273C126.763 107.2 127.215 107.189 127.655 107.16Z" fill="#D3D3D3"/>
<path d="M79.7444 56.3388C87.9154 56.5463 96.1089 56.2646 104.284 56.397L104.273 71.2967C104.28 73.474 104.213 75.6669 104.293 77.8419C104.036 81.4867 104.22 85.6065 104.218 89.2898L75.7437 89.2351L74.5215 89.2304C74.7561 89.0138 75.4548 89.1076 75.7685 89.1115C75.6867 88.2435 75.8921 85.3091 75.534 84.7641L75.7134 84.7396C79.8461 84.7834 84.0181 84.8179 88.1494 84.7572C89.8487 84.7324 91.4419 84.23 92.6478 82.9826C93.7483 81.8445 94.4818 80.1891 94.4282 78.6043C94.4252 78.5048 94.4197 78.4055 94.4117 78.3063C94.4037 78.2072 94.3932 78.1084 94.3801 78.0097C94.3672 77.9111 94.3517 77.8128 94.3337 77.7148C94.3157 77.617 94.2952 77.5196 94.2724 77.4227C94.2496 77.3259 94.2243 77.2297 94.1965 77.1342C94.1687 77.0385 94.1385 76.9437 94.1059 76.8497C94.0734 76.7555 94.0385 76.6623 94.0013 76.5699C93.964 76.4775 93.9244 76.3862 93.8824 76.2959C93.8406 76.2055 93.7964 76.1163 93.7499 76.028C93.7036 75.9399 93.655 75.8529 93.6042 75.7671C93.5535 75.6814 93.5005 75.597 93.4454 75.514C93.3903 75.4307 93.3332 75.349 93.2741 75.2688C93.2148 75.1886 93.1536 75.1099 93.0904 75.0327C93.0273 74.9555 92.9622 74.8799 92.8952 74.8058C92.8282 74.7319 92.7594 74.6597 92.6887 74.5892C92.6181 74.5187 92.5457 74.4499 92.4716 74.383C91.2021 73.2209 89.8691 73.0085 88.2206 73.0751C88.0588 70.7169 87.1843 68.4947 85.6231 66.7005C85.5 66.5616 85.3735 66.4257 85.2436 66.2929C85.1137 66.16 84.9807 66.0305 84.8445 65.9043C84.7082 65.778 84.5688 65.6551 84.4265 65.5355C84.2841 65.4161 84.1388 65.3002 83.9906 65.1877C83.8426 65.0754 83.6918 64.9668 83.5383 64.8618C83.3848 64.7568 83.2287 64.6556 83.0701 64.5583C82.9116 64.4609 82.7508 64.3674 82.5877 64.2779C82.4245 64.1886 82.2592 64.1032 82.0918 64.0217C81.9244 63.9403 81.7551 63.863 81.584 63.7899C81.4127 63.7168 81.2397 63.6479 81.065 63.5833C80.8905 63.5187 80.7143 63.4583 80.5366 63.4021C80.359 63.3461 80.1801 63.2944 79.9998 63.2472C79.8196 63.1999 79.6384 63.1571 79.4561 63.1187C79.2739 63.0803 79.0907 63.0463 78.9066 63.0168C78.7225 62.9874 78.5379 62.9625 78.3528 62.942C78.1675 62.9216 77.9818 62.9058 77.7958 62.8944C78.4425 60.8215 79.3573 58.511 79.6354 56.3669L79.7444 56.3388Z" fill="#D3D3D3"/>
<path d="M110.583 47.4225C110.859 47.4375 111.066 47.5139 111.292 47.3432C111.704 45.4453 110.636 42.729 112.616 41.4199C113.293 40.9725 114.293 40.8819 115.09 40.8173C116.78 40.6806 118.528 40.7569 120.227 40.7517C122.33 40.7454 124.442 40.6857 126.544 40.7093C128.494 40.7312 130.446 40.8606 132.4 40.886C133.899 40.9055 137.693 40.6886 138.987 40.9546C139.649 41.0905 140.221 41.5878 140.548 42.1651C141.396 43.6597 141.004 55.1245 140.864 57.3653C140.752 58.8434 141.044 61.0523 139.774 62.0972C139.366 62.4333 138.868 62.6231 138.351 62.7196C137.191 62.9361 135.822 62.793 134.637 62.7895C132.956 62.7846 131.277 62.8225 129.596 62.8092C128.845 62.8032 127.984 62.7057 127.247 62.8498C124.316 62.8129 121.379 62.86 118.448 62.8664C116.985 62.8694 115.399 62.9854 113.954 62.7838C113.834 62.7679 113.716 62.7447 113.599 62.7141C113.483 62.6836 113.368 62.646 113.256 62.6012C113.144 62.5565 113.036 62.505 112.93 62.4468C112.825 62.3885 112.723 62.3239 112.626 62.2531C112.131 61.8875 111.8 61.3478 111.633 60.7623C111.192 59.2187 111.424 57.1794 111.415 55.5801C111.408 54.2724 111.339 52.9703 111.342 51.6609C111.343 50.7861 111.425 49.7259 111.255 48.8728C111.243 48.8107 111.228 48.7492 111.215 48.6873C111.219 48.3882 111.22 48.0891 111.217 47.7898C111.021 47.4926 110.918 47.518 110.583 47.4225Z" fill="url(#paint10_linear_911_7027)"/>
<path d="M114.829 60.149L121.929 60.1218C122.627 60.1273 123.328 60.1201 124.025 60.1646C122.787 60.322 121.508 60.2966 120.26 60.3353C118.484 60.3907 116.72 60.477 114.942 60.4835L114.829 60.149Z" fill="#88808C"/>
<path d="M114.942 60.4835C114.578 60.4583 114.171 60.4044 113.879 60.165C113.656 59.9818 113.604 59.7889 113.57 59.5192C113.362 57.8479 113.529 55.9681 113.533 54.2692C113.54 51.3657 113.477 48.4524 113.535 45.5506C113.546 45.0093 113.547 44.4049 114.009 44.0296C115.029 43.2008 123.777 43.5666 125.576 43.6271L125.396 44.0651C123.27 44.1308 121.142 44.1588 119.015 44.1491C117.834 44.1346 116.569 43.9729 115.397 44.0807C115.088 44.1092 114.645 44.1903 114.407 44.4092C114.143 44.6513 114.12 44.9097 114.08 45.2524C113.846 47.228 114.046 49.4227 114.061 51.4168L114.102 57.0177C114.101 57.6157 114.018 58.2142 114.031 58.811C114.038 59.1257 114.057 59.7141 114.305 59.9525C114.43 60.0734 114.668 60.1095 114.829 60.149L114.942 60.4835Z" fill="#716876"/>
<path d="M114.828 60.149C114.668 60.1094 114.43 60.0734 114.304 59.9525C114.057 59.7141 114.038 59.1257 114.031 58.811C114.018 58.2142 114.101 57.6157 114.102 57.0177L114.06 51.4167C114.046 49.4227 113.846 47.228 114.08 45.2524C114.12 44.9097 114.143 44.6513 114.406 44.4092C114.645 44.1903 115.088 44.1091 115.397 44.0807C116.569 43.9729 117.834 44.1346 119.014 44.1491C121.142 44.1588 123.269 44.1308 125.396 44.0651C125.823 44.5139 125.899 44.7712 126.041 45.3514C126.159 45.8345 126.33 46.2971 126.407 46.7912C126.656 48.4088 126.533 50.3553 126.468 52.0021C126.48 54.3462 126.521 56.7428 126.381 59.0816C126.394 59.4023 126.442 59.7225 126.31 60.024C124.856 60.1672 123.385 60.0082 121.929 60.1217L114.828 60.149Z" fill="#404040"/>
<path d="M125.576 43.6271C127.131 43.6357 137.527 43.5187 137.929 43.7113C138.01 43.7499 138.067 43.8238 138.136 43.8802C138.266 44.1799 138.305 44.4326 138.323 44.7585C138.435 46.8007 138.312 48.9271 138.331 50.9814C138.353 53.4989 138.514 56.0851 138.4 58.595C138.379 59.0556 138.346 59.5153 138.182 59.9498C137.492 60.3202 125.873 60.1476 124.024 60.1646C123.328 60.1201 122.627 60.1273 121.929 60.1217C123.385 60.0082 124.856 60.1672 126.31 60.024C126.442 59.7225 126.394 59.4023 126.381 59.0816C126.521 56.7428 126.48 54.3462 126.468 52.0021C126.533 50.3553 126.656 48.4088 126.407 46.7912C126.33 46.2971 126.159 45.8345 126.041 45.3514C125.899 44.7712 125.823 44.5139 125.396 44.0651L125.576 43.6271Z" fill="#404040"/>
<path d="M47.8139 56.4466C51.296 56.5624 54.817 56.4214 58.303 56.41L79.6352 56.3669C79.3571 58.511 78.4423 60.8215 77.7956 62.8944C77.9816 62.9058 78.1672 62.9216 78.3525 62.942C78.5377 62.9625 78.7223 62.9874 78.9064 63.0168C79.0905 63.0463 79.2736 63.0803 79.4559 63.1187C79.6382 63.1571 79.8194 63.1999 79.9996 63.2472C80.1798 63.2944 80.3587 63.3461 80.5363 63.4021C80.7141 63.4583 80.8902 63.5187 81.0648 63.5833C81.2395 63.6479 81.4125 63.7168 81.5838 63.7899C81.7549 63.863 81.9242 63.9403 82.0916 64.0217C82.259 64.1032 82.4243 64.1886 82.5875 64.2779C82.7506 64.3674 82.9114 64.4609 83.0699 64.5583C83.2285 64.6556 83.3846 64.7568 83.5381 64.8618C83.6916 64.9668 83.8424 65.0754 83.9904 65.1877C84.1386 65.3002 84.2839 65.4161 84.4262 65.5355C84.5686 65.6551 84.708 65.778 84.8443 65.9043C84.9805 66.0305 85.1135 66.16 85.2434 66.2929C85.3732 66.4257 85.4997 66.5616 85.6229 66.7005C87.1841 68.4947 88.0586 70.7169 88.2204 73.0751C89.8689 73.0085 91.2019 73.2209 92.4714 74.383C92.5455 74.4499 92.6179 74.5187 92.6885 74.5892C92.7592 74.6597 92.828 74.7319 92.895 74.8058C92.962 74.8799 93.0271 74.9555 93.0902 75.0327C93.1534 75.1099 93.2146 75.1886 93.2739 75.2688C93.333 75.349 93.3901 75.4307 93.4451 75.5139C93.5003 75.597 93.5533 75.6814 93.604 75.7671C93.6548 75.8529 93.7033 75.9399 93.7497 76.028C93.7962 76.1163 93.8404 76.2055 93.8822 76.2959C93.9241 76.3862 93.9638 76.4775 94.001 76.5699C94.0383 76.6623 94.0732 76.7555 94.1057 76.8497C94.1383 76.9437 94.1685 77.0385 94.1962 77.1342C94.224 77.2297 94.2493 77.3258 94.2722 77.4227C94.295 77.5196 94.3155 77.617 94.3335 77.7148C94.3515 77.8128 94.367 77.9111 94.3799 78.0097C94.393 78.1084 94.4035 78.2072 94.4115 78.3063C94.4195 78.4055 94.4249 78.5048 94.428 78.6043C94.4816 80.1891 93.7481 81.8445 92.6476 82.9826C91.4417 84.23 89.8485 84.7324 88.1492 84.7572C84.0179 84.8178 79.8459 84.7834 75.7131 84.7396L75.5338 84.7641C75.8918 85.3091 75.6865 88.2435 75.7682 89.1115C75.4546 89.1076 74.7559 89.0138 74.5213 89.2304C71.1844 89.3054 67.8281 89.2199 64.4894 89.2236L47.2627 89.2277C47.2475 85.9578 47.1321 57.0822 47.4144 56.5782C47.4916 56.4405 47.6705 56.4686 47.8139 56.4466Z" fill="white"/>
<path d="M77.7956 62.8944C77.9816 62.9058 78.1672 62.9216 78.3525 62.942C78.5377 62.9625 78.7223 62.9874 78.9064 63.0168C79.0904 63.0463 79.2736 63.0803 79.4559 63.1187C79.6382 63.1571 79.8194 63.1999 79.9996 63.2472C80.1798 63.2944 80.3587 63.3461 80.5363 63.4021C80.7141 63.4583 80.8902 63.5187 81.0648 63.5833C81.2395 63.6479 81.4125 63.7168 81.5837 63.7899C81.7549 63.863 81.9242 63.9403 82.0916 64.0217C82.259 64.1031 82.4243 64.1885 82.5874 64.2779C82.7506 64.3674 82.9114 64.4609 83.0699 64.5583C83.2285 64.6556 83.3846 64.7568 83.5381 64.8618C83.6916 64.9668 83.8424 65.0754 83.9904 65.1877C84.1386 65.3002 84.2838 65.4161 84.4262 65.5355C84.5686 65.6551 84.7079 65.778 84.8443 65.9043C84.9805 66.0305 85.1135 66.16 85.2434 66.2929C85.3732 66.4257 85.4997 66.5616 85.6228 66.7005C87.1841 68.4947 88.0586 70.7169 88.2204 73.0751C89.8689 73.0085 91.2019 73.2209 92.4713 74.383C92.5455 74.4499 92.6179 74.5187 92.6884 74.5892C92.7591 74.6597 92.828 74.7319 92.895 74.8058C92.962 74.8799 93.0271 74.9555 93.0902 75.0327C93.1533 75.1099 93.2146 75.1886 93.2738 75.2688C93.333 75.349 93.3901 75.4307 93.4451 75.5139C93.5003 75.597 93.5532 75.6814 93.604 75.7671C93.6548 75.8529 93.7033 75.9399 93.7497 76.028C93.7962 76.1163 93.8403 76.2055 93.8822 76.2959C93.9241 76.3862 93.9637 76.4775 94.001 76.5699C94.0383 76.6623 94.0732 76.7555 94.1056 76.8497C94.1382 76.9437 94.1684 77.0385 94.1962 77.1342C94.224 77.2297 94.2493 77.3258 94.2722 77.4227C94.295 77.5196 94.3154 77.617 94.3335 77.7148C94.3515 77.8128 94.3669 77.9111 94.3799 78.0097C94.3929 78.1084 94.4035 78.2072 94.4115 78.3063C94.4194 78.4055 94.4249 78.5048 94.428 78.6043C94.4816 80.1891 93.748 81.8445 92.6476 82.9826C91.4417 84.23 89.8484 84.7324 88.1492 84.7572C84.0178 84.8178 79.8459 84.7834 75.7131 84.7396L75.5338 84.7641C72.888 84.6938 70.2265 84.7549 67.579 84.7537C65.5595 84.7527 63.3218 84.9179 61.3679 84.3483C61.2685 84.3199 61.1698 84.289 61.0718 84.2556C60.974 84.2222 60.8771 84.1863 60.7811 84.148C60.6849 84.1098 60.5899 84.0691 60.4959 84.0259C60.4019 83.9828 60.3091 83.9374 60.2175 83.8896C60.1259 83.8419 60.0355 83.7919 59.9464 83.7396C59.8574 83.6871 59.7697 83.6325 59.6833 83.5758C59.597 83.5191 59.5123 83.4602 59.4291 83.3991C59.3457 83.338 59.264 83.2749 59.1839 83.2097C59.104 83.1446 59.0257 83.0775 58.9491 83.0085C58.8725 82.9393 58.7976 82.8683 58.7246 82.7953C58.6517 82.7225 58.5806 82.6478 58.5114 82.5713C58.4422 82.4948 58.375 82.4166 58.3098 82.3368C58.2448 82.2569 58.1817 82.1754 58.1206 82.0923C58.0597 82.0094 58.0009 81.9249 57.9442 81.8388C57.8875 81.7527 57.833 81.6653 57.7808 81.5766C57.7286 81.4878 57.6787 81.3978 57.6311 81.3065C57.5768 81.2044 57.5251 81.1011 57.476 80.9964C57.4267 80.8917 57.3802 80.7859 57.3365 80.6789C57.2926 80.5719 57.2515 80.464 57.2131 80.3551C57.1747 80.246 57.1391 80.1361 57.1064 80.0253C57.0735 79.9145 57.0435 79.803 57.0162 79.6908C56.989 79.5785 56.9646 79.4656 56.943 79.352C56.9215 79.2386 56.9029 79.1247 56.887 79.0103C56.8712 78.8958 56.8583 78.7811 56.8483 78.666C56.8382 78.551 56.8311 78.4358 56.8268 78.3204C56.8227 78.205 56.8214 78.0895 56.8229 77.9741C56.8245 77.8586 56.8291 77.7432 56.8365 77.6279C56.8439 77.5127 56.8542 77.3977 56.8672 77.2829C56.8805 77.1682 56.8965 77.0539 56.9155 76.9401C56.9345 76.8261 56.9563 76.7127 56.9809 76.5998C57.0056 76.4869 57.0331 76.3748 57.0635 76.2633C57.0937 76.1518 57.1268 76.0411 57.1627 75.9312C57.1964 75.8282 57.2327 75.726 57.2715 75.6246C57.3103 75.5234 57.3515 75.4231 57.3951 75.3237C57.4387 75.2244 57.4847 75.1262 57.5331 75.0292C57.5817 74.9321 57.6325 74.8362 57.6856 74.7415C57.7387 74.6469 57.7942 74.5536 57.8519 74.4615C57.9096 74.3695 57.9695 74.279 58.0317 74.1899C58.0937 74.1008 58.158 74.0133 58.2244 73.9274C58.2908 73.8414 58.3593 73.7571 58.4297 73.6744C58.5003 73.5916 58.5728 73.5107 58.6472 73.4316C58.7218 73.3523 58.7982 73.275 58.8765 73.1996C58.9547 73.124 59.0348 73.0504 59.1167 72.9788C59.1985 72.9071 59.2821 72.8375 59.3674 72.77C59.4525 72.7023 59.5393 72.6367 59.6278 72.5732C59.7164 72.5098 59.8063 72.4486 59.8977 72.3896C59.9892 72.3304 60.082 72.2736 60.1763 72.219C60.2705 72.1644 60.366 72.112 60.4629 72.062C62.2142 71.1721 64.3278 71.1352 66.1771 71.7157C66.8795 69.4599 67.6777 67.6349 69.4432 65.9789C71.6947 63.867 74.5794 62.8166 77.6565 62.9184L77.7956 62.8944Z" fill="#FF8D00"/>
<path d="M11.462 108.072C11.4748 108.033 11.4886 107.995 11.5006 107.955C11.7121 107.267 11.5738 106.073 11.5694 105.346C11.5593 103.643 11.2712 95.3883 11.6638 94.1792C11.7826 93.8131 12.1561 93.3884 12.4769 93.185C12.7902 92.9861 13.5477 93.0121 13.9155 93.0052C16.3599 92.9593 18.8118 93.017 21.2573 93.0132C26.8554 92.9733 32.4533 92.987 38.0512 93.0543C39.5066 93.0679 43.6647 92.8103 44.7294 93.1867C44.8328 93.2232 44.8872 93.2713 44.9407 93.3733C45.1236 93.7216 45.1616 94.3076 45.1793 94.7019C45.2584 96.45 45.1566 98.229 45.1553 99.9815C45.1608 104.558 45.1404 109.134 45.0943 113.71C45.0727 116.54 44.9694 119.4 45.1004 122.226C46.1932 122.229 47.7537 122.046 48.7615 122.488C48.9438 122.691 48.9124 122.74 48.9243 123.017L48.8989 124.581C48.9585 127.144 49.055 129.797 48.9602 132.357C48.7466 131.732 49.1518 130.838 48.5727 130.41C45.5192 130.303 42.4175 130.815 39.3644 130.88C37.3464 130.923 35.3306 130.778 33.3141 130.793C31.7527 130.805 30.1943 130.981 28.6344 131.038C27.5471 131.077 26.4513 131.027 25.3677 131.138C25.3837 131.167 25.4019 131.195 25.4154 131.225C25.5333 131.485 25.5108 131.75 25.6393 132.011C25.8982 132.536 25.7431 133.187 25.7904 133.747C25.2045 131.76 25.0427 129.737 23.836 127.963C20.8584 127.948 17.8755 128.007 14.8992 127.943C14.1272 127.944 10.4455 128.195 9.99822 127.816C9.36318 127.278 9.6446 124.775 9.65969 123.939C9.6595 123.599 9.64326 123.263 9.62186 122.924C9.41209 122.746 9.3244 122.451 9.21607 122.204L9 122.13C9.59588 121.868 10.8115 122.025 11.4811 122.03L11.4659 113.174C11.4683 111.56 11.5434 109.913 11.4332 108.305L11.462 108.072Z" fill="url(#paint11_linear_911_7027)"/>
<path d="M18.9399 95.3488L43.5425 95.3547L43.5774 96.8493C43.5698 98.0814 43.6093 99.3444 43.5178 100.572C36.577 100.67 29.6288 100.536 22.6867 100.541C20.033 100.543 16.6135 100.377 14.0387 100.594C14.0423 99.7477 13.8123 96.023 14.2783 95.6115C14.7957 95.1547 18.1418 95.3534 18.9399 95.3488Z" fill="#FF8D00"/>
<path d="M15.4982 96.5275C17.8681 96.4971 20.2409 96.5145 22.6111 96.5114C24.5084 96.5089 26.4229 96.4633 28.3156 96.5997C28.306 97.4414 28.2908 98.2831 28.2697 99.1246C24.0264 99.3651 19.7112 99.223 15.4592 99.2275C15.4508 98.3283 15.4814 97.4267 15.4982 96.5275Z" fill="url(#paint12_linear_911_7027)"/>
<path d="M43.5774 96.8496L43.7857 97.6105L43.761 121.317C33.8506 121.177 23.9327 121.46 14.0209 121.313C14.1658 119.757 13.8437 118.101 13.8412 116.53C13.8375 114.436 13.9298 112.344 13.9361 110.25C13.9457 107.101 13.8859 103.942 14.0989 100.797C14.4307 100.788 14.7366 100.779 15.0593 100.698C14.7179 100.674 14.3778 100.64 14.0387 100.595C16.6135 100.377 20.033 100.543 22.6867 100.542C29.6288 100.536 36.577 100.67 43.5178 100.573C43.6093 99.3447 43.5698 98.0816 43.5774 96.8496Z" fill="url(#paint13_linear_911_7027)"/>
<path d="M28.1844 103.829C30.0177 103.642 31.9549 104.333 33.3649 105.493C34.839 106.707 35.7419 108.4 35.9016 110.306C35.9124 110.43 35.9201 110.555 35.9247 110.68C35.9293 110.805 35.9308 110.93 35.9291 111.055C35.9273 111.18 35.9224 111.305 35.9144 111.429C35.9064 111.554 35.8952 111.679 35.881 111.803C35.8667 111.927 35.8494 112.051 35.829 112.174C35.8085 112.297 35.7849 112.42 35.7581 112.542C35.7315 112.664 35.7018 112.786 35.6689 112.906C35.6362 113.027 35.6004 113.147 35.5615 113.266C35.5227 113.384 35.4809 113.502 35.4362 113.619C35.3915 113.736 35.3439 113.851 35.2933 113.966C35.2427 114.08 35.1893 114.193 35.133 114.305C35.0767 114.416 35.0177 114.526 34.9559 114.635C34.8941 114.744 34.8296 114.851 34.7624 114.956C34.6953 115.062 34.6255 115.165 34.553 115.267C34.4806 115.369 34.4058 115.469 34.3283 115.567C34.2509 115.665 34.171 115.762 34.0887 115.856C32.7692 117.392 31.0452 118.014 29.067 118.166C28.9579 118.174 28.8486 118.181 28.7392 118.184C28.6298 118.188 28.5204 118.189 28.411 118.188C28.3014 118.187 28.192 118.183 28.0828 118.176C27.9736 118.17 27.8646 118.161 27.7557 118.149C27.6468 118.138 27.5383 118.123 27.4301 118.107C27.3219 118.09 27.2141 118.071 27.1067 118.049C26.9995 118.028 26.8927 118.004 26.7865 117.977C26.6803 117.951 26.5748 117.922 26.4699 117.89C26.3651 117.859 26.2611 117.825 26.1578 117.788C26.0546 117.752 25.9523 117.713 25.8507 117.672C25.7492 117.631 25.6488 117.587 25.5495 117.542C25.45 117.496 25.3517 117.448 25.2545 117.397C25.1573 117.347 25.0613 117.294 24.9666 117.24C24.8718 117.185 24.7784 117.128 24.6863 117.069C24.5942 117.009 24.5035 116.948 24.4143 116.885C24.3251 116.821 24.2374 116.756 24.1512 116.688C24.0582 116.615 23.967 116.54 23.8776 116.463C23.7883 116.385 23.7009 116.305 23.6155 116.224C23.53 116.142 23.4467 116.058 23.3654 115.972C23.284 115.886 23.2048 115.798 23.1277 115.709C23.0507 115.619 22.9759 115.527 22.9034 115.434C22.8308 115.34 22.7606 115.245 22.6927 115.148C22.6248 115.052 22.5593 114.953 22.4961 114.853C22.4331 114.753 22.3725 114.652 22.3143 114.548C22.2562 114.445 22.2006 114.341 22.1477 114.235C22.0947 114.13 22.0442 114.023 21.9964 113.914C21.9486 113.806 21.9035 113.697 21.8611 113.587C21.8186 113.476 21.7788 113.365 21.7419 113.252C21.7048 113.14 21.6706 113.027 21.6391 112.913C21.6076 112.799 21.579 112.684 21.5531 112.569C21.5273 112.453 21.5043 112.337 21.4841 112.221C21.464 112.104 21.4467 111.987 21.4322 111.87C21.2024 109.918 21.9056 108.074 23.1239 106.564C24.4144 104.965 26.1503 104.044 28.1844 103.829Z" fill="#404040"/>
<path d="M27.8989 106.383C29.036 106.304 30.0822 106.459 31.0888 107.029C32.1648 107.639 32.959 108.615 33.2819 109.814C33.3012 109.887 33.3189 109.959 33.3348 110.033C33.3506 110.106 33.3646 110.179 33.3768 110.253C33.3891 110.327 33.3995 110.401 33.4081 110.476C33.4168 110.55 33.4236 110.625 33.4286 110.699C33.4334 110.774 33.4365 110.849 33.4378 110.924C33.439 110.999 33.4385 111.073 33.4362 111.148C33.4338 111.223 33.4296 111.298 33.4236 111.373C33.4175 111.447 33.4096 111.522 33.3999 111.596C33.3903 111.67 33.3787 111.744 33.3654 111.818C33.3521 111.891 33.337 111.965 33.3201 112.038C33.3031 112.111 33.2844 112.183 33.2639 112.255C33.2435 112.327 33.2213 112.399 33.1972 112.47C33.1733 112.541 33.1476 112.611 33.1202 112.681C33.0927 112.75 33.0636 112.819 33.0327 112.888C33.002 112.956 32.9696 113.023 32.9355 113.09C32.9014 113.157 32.8656 113.222 32.8283 113.287C32.1302 114.484 31.0386 115.119 29.7267 115.436C28.6042 115.586 27.5147 115.476 26.496 114.945C26.428 114.91 26.3609 114.874 26.2947 114.835C26.2286 114.797 26.1634 114.757 26.0992 114.715C26.0349 114.673 25.9717 114.63 25.9097 114.585C25.8477 114.54 25.7868 114.494 25.7271 114.446C25.6673 114.399 25.6088 114.349 25.5515 114.299C25.4942 114.248 25.4381 114.196 25.3834 114.142C25.3286 114.089 25.2752 114.034 25.2233 113.978C25.1713 113.922 25.1207 113.864 25.0716 113.806C25.0224 113.747 24.9748 113.687 24.9287 113.626C24.8824 113.565 24.8378 113.503 24.7948 113.439C24.7517 113.376 24.7102 113.312 24.6702 113.247C24.6303 113.181 24.5921 113.115 24.5556 113.048C24.5189 112.981 24.4839 112.913 24.4507 112.844C24.4176 112.775 24.3861 112.705 24.3563 112.635C24.3265 112.564 24.2985 112.493 24.2722 112.421C24.2461 112.349 24.2217 112.277 24.1991 112.203C24.1782 112.132 24.1591 112.06 24.1419 111.987C24.1246 111.914 24.1091 111.841 24.0953 111.768C24.0817 111.695 24.0699 111.621 24.0598 111.547C24.0499 111.473 24.0417 111.399 24.0353 111.324C24.029 111.25 24.0244 111.175 24.0218 111.101C24.0192 111.026 24.0185 110.952 24.0195 110.877C24.0205 110.803 24.0234 110.728 24.0281 110.653C24.0328 110.579 24.0394 110.505 24.0479 110.43C24.0564 110.356 24.0666 110.282 24.0787 110.209C24.0908 110.135 24.1047 110.062 24.1203 109.989C24.136 109.916 24.1535 109.843 24.1729 109.771C24.1922 109.699 24.2133 109.627 24.2361 109.556C24.2591 109.485 24.2837 109.415 24.3101 109.345C24.3363 109.275 24.3643 109.206 24.3941 109.138C24.4239 109.069 24.4554 109.001 24.4885 108.935C24.5216 108.868 24.5564 108.802 24.5928 108.736C25.3175 107.443 26.5157 106.752 27.8989 106.383Z" fill="white"/>
</g>
<defs>
<linearGradient id="paint0_linear_911_7027" x1="120.268" y1="62.5509" x2="119.662" y2="64.9086" gradientUnits="userSpaceOnUse">
<stop stop-color="#BDB3B3"/>
<stop offset="1" stop-color="#D4D2CF"/>
</linearGradient>
<linearGradient id="paint1_linear_911_7027" x1="82.9093" y1="114.214" x2="82.825" y2="111.095" gradientUnits="userSpaceOnUse">
<stop stop-color="#A49EA2"/>
<stop offset="1" stop-color="#C6C2C4"/>
</linearGradient>
<linearGradient id="paint2_linear_911_7027" x1="80.9376" y1="53.0644" x2="49.4813" y2="55.6395" gradientUnits="userSpaceOnUse">
<stop stop-color="#776D72"/>
<stop offset="1" stop-color="#9F9A9D"/>
</linearGradient>
<linearGradient id="paint3_linear_911_7027" x1="30.5407" y1="73.579" x2="7.29637" y2="51.8309" gradientUnits="userSpaceOnUse">
<stop stop-color="#B5AEB0"/>
<stop offset="1" stop-color="#E1D9D5"/>
</linearGradient>
<linearGradient id="paint4_linear_911_7027" x1="75.2785" y1="101.542" x2="75.4223" y2="111.221" gradientUnits="userSpaceOnUse">
<stop stop-color="#8E8589"/>
<stop offset="1" stop-color="#BEB8BC"/>
</linearGradient>
<linearGradient id="paint5_linear_911_7027" x1="44.2276" y1="100.598" x2="75.4539" y2="92.6732" gradientUnits="userSpaceOnUse">
<stop stop-color="#A7A0A4"/>
<stop offset="1" stop-color="#CEC5C8"/>
</linearGradient>
<linearGradient id="paint6_linear_911_7027" x1="59.4963" y1="92.6925" x2="59.1085" y2="52.2454" gradientUnits="userSpaceOnUse">
<stop stop-color="#585255"/>
<stop offset="1" stop-color="#938C91"/>
</linearGradient>
<linearGradient id="paint7_linear_911_7027" x1="105.339" y1="103.424" x2="77.5625" y2="89.4994" gradientUnits="userSpaceOnUse">
<stop stop-color="#8A8087"/>
<stop offset="1" stop-color="#C5BBBC"/>
</linearGradient>
<linearGradient id="paint8_linear_911_7027" x1="39.5963" y1="48.7859" x2="31.3755" y2="30.3617" gradientUnits="userSpaceOnUse">
<stop stop-color="#D14905"/>
<stop offset="1" stop-color="#FF9810"/>
</linearGradient>
<linearGradient id="paint9_linear_911_7027" x1="21.9619" y1="49.2994" x2="12.3138" y2="73.5174" gradientUnits="userSpaceOnUse">
<stop stop-color="#4B4248"/>
<stop offset="1" stop-color="#766D85"/>
</linearGradient>
<linearGradient id="paint10_linear_911_7027" x1="123.153" y1="64.5654" x2="128.899" y2="38.8125" gradientUnits="userSpaceOnUse">
<stop stop-color="#B4A9AA"/>
<stop offset="1" stop-color="#DDD8D7"/>
</linearGradient>
<linearGradient id="paint11_linear_911_7027" x1="37.9129" y1="90.4593" x2="21.9812" y2="127.943" gradientUnits="userSpaceOnUse">
<stop stop-color="#B3AEA8"/>
<stop offset="1" stop-color="#D4CECB"/>
</linearGradient>
<linearGradient id="paint12_linear_911_7027" x1="25.0937" y1="101.34" x2="18.9382" y2="93.9737" gradientUnits="userSpaceOnUse">
<stop stop-color="#FFCA00"/>
<stop offset="1" stop-color="#FFEB0A"/>
</linearGradient>
<linearGradient id="paint13_linear_911_7027" x1="41.7521" y1="122.933" x2="15.8095" y2="98.834" gradientUnits="userSpaceOnUse">
<stop stop-color="#504D52"/>
<stop offset="1" stop-color="#837A79"/>
</linearGradient>
<clipPath id="clip0_911_7027">
<rect width="156" height="124" fill="white"/>
</clipPath>
</defs>
</svg>
